G04 (created by PCBNEW (2013-07-07 BZR 4022)-stable) date 2014/09/12 23:22:48*
%MOIN*%
G04 Gerber Fmt 3.4, Leading zero omitted, Abs format*
%FSLAX34Y34*%
G01*
G70*
G90*
G04 APERTURE LIST*
%ADD10C,0.00590551*%
%ADD11C,0.06*%
%ADD12R,0.055X0.055*%
%ADD13C,0.055*%
%ADD14R,0.06X0.06*%
%ADD15C,0.056*%
%ADD16R,0.1378X0.1378*%
%ADD17C,0.0787402*%
%ADD18C,0.0393701*%
%ADD19C,0.0944882*%
%ADD20C,0.016*%
%ADD21C,0.008*%
G04 APERTURE END LIST*
G54D10*
G54D11*
X9827Y2867D03*
X9827Y3867D03*
X9827Y7867D03*
X10827Y2867D03*
X11827Y2867D03*
X12827Y2867D03*
X13827Y2867D03*
X16827Y2867D03*
X16827Y7867D03*
X15827Y7867D03*
X16827Y3867D03*
X10827Y7867D03*
G54D12*
X28027Y14717D03*
G54D13*
X27027Y14717D03*
X26027Y14717D03*
X25027Y14717D03*
X24027Y14717D03*
X23027Y14717D03*
G54D12*
X7311Y18110D03*
G54D13*
X8311Y18110D03*
X9311Y18110D03*
X10311Y18110D03*
X11311Y18110D03*
X12311Y18110D03*
X13311Y18110D03*
X14311Y18110D03*
X15311Y18110D03*
X16311Y18110D03*
G54D11*
X2527Y8417D03*
X6527Y8417D03*
X6527Y7417D03*
X2527Y7417D03*
X14277Y14817D03*
X10277Y14817D03*
X10577Y16167D03*
X14577Y16167D03*
X17427Y14567D03*
X21427Y14567D03*
X18027Y15667D03*
X22027Y15667D03*
G54D14*
X30477Y4567D03*
G54D11*
X30477Y3567D03*
X29477Y4567D03*
X29477Y3567D03*
X28477Y4567D03*
X28477Y3567D03*
G54D14*
X28027Y15767D03*
G54D11*
X27027Y15767D03*
X26027Y15767D03*
G54D14*
X3427Y6067D03*
G54D11*
X3427Y5067D03*
G54D14*
X30627Y6967D03*
G54D11*
X30627Y7967D03*
G54D14*
X29627Y6967D03*
G54D11*
X29627Y7967D03*
G54D14*
X28627Y6967D03*
G54D11*
X28627Y7967D03*
G54D15*
X6127Y14567D03*
X8127Y14567D03*
G54D12*
X22277Y12767D03*
G54D13*
X21277Y12767D03*
X20277Y12767D03*
X19277Y12767D03*
X19277Y9767D03*
X20277Y9767D03*
X21277Y9767D03*
X22277Y9767D03*
X14627Y12767D03*
X13627Y12767D03*
X12627Y12767D03*
X11627Y12767D03*
X10627Y12767D03*
X9627Y12767D03*
X8627Y12767D03*
X7627Y12767D03*
X6627Y12767D03*
X5627Y12767D03*
X4627Y12767D03*
X3627Y12767D03*
X2627Y12767D03*
G54D12*
X15627Y12767D03*
G54D13*
X2627Y9767D03*
X3627Y9767D03*
X4627Y9767D03*
X5627Y9767D03*
X6627Y9767D03*
X7627Y9767D03*
X8627Y9767D03*
X9627Y9767D03*
X10627Y9767D03*
X11627Y9767D03*
X12627Y9767D03*
X13627Y9767D03*
X14627Y9767D03*
X15627Y9767D03*
G54D12*
X28427Y12767D03*
G54D13*
X27427Y12767D03*
X26427Y12767D03*
X25427Y12767D03*
X24427Y12767D03*
X24427Y9767D03*
X25427Y9767D03*
X26427Y9767D03*
X27427Y9767D03*
X28427Y9767D03*
X8727Y16367D03*
X7727Y16367D03*
X5427Y16367D03*
X6427Y16367D03*
X8627Y7767D03*
X8627Y8767D03*
X19277Y6967D03*
X19277Y7967D03*
X17327Y10767D03*
X17327Y11767D03*
G54D16*
X6299Y5984D03*
X6299Y3622D03*
X8149Y4803D03*
G54D17*
X31248Y10881D03*
X31248Y12653D03*
X33807Y12653D03*
X33807Y10881D03*
X34948Y10881D03*
X34948Y12653D03*
X37507Y12653D03*
X37507Y10881D03*
X34948Y14081D03*
X34948Y15853D03*
X37507Y15853D03*
X37507Y14081D03*
X31248Y14081D03*
X31248Y15853D03*
X33807Y15853D03*
X33807Y14081D03*
G54D18*
X16227Y16167D03*
X15727Y16167D03*
X16727Y16167D03*
G54D19*
X32559Y5905D03*
X34370Y5905D03*
X32007Y2952D03*
X34921Y2952D03*
G54D11*
X35727Y16967D03*
X36727Y16967D03*
X36727Y7317D03*
X35727Y7317D03*
X13627Y7667D03*
X14627Y7667D03*
X13627Y8967D03*
X14627Y8967D03*
X27927Y9067D03*
X26927Y9067D03*
G54D20*
X16827Y3867D02*
X16827Y2867D01*
X10827Y7867D02*
X13827Y4867D01*
X13827Y4867D02*
X13827Y2867D01*
X15827Y7867D02*
X15427Y8267D01*
X11227Y8267D02*
X10827Y7867D01*
X15427Y8267D02*
X11227Y8267D01*
X35727Y16967D02*
X36727Y16967D01*
X34948Y14081D02*
X37507Y14081D01*
X34948Y10881D02*
X37507Y10881D01*
X35727Y7317D02*
X36727Y7317D01*
G54D21*
X13627Y7667D02*
X14627Y7667D01*
X13627Y8967D02*
X14627Y8967D01*
X27927Y9067D02*
X26927Y9067D01*
M02*
