G04 (created by PCBNEW (2013-07-07 BZR 4022)-stable) date 2014/09/12 23:22:48*
%MOIN*%
G04 Gerber Fmt 3.4, Leading zero omitted, Abs format*
%FSLAX34Y34*%
G01*
G70*
G90*
G04 APERTURE LIST*
%ADD10C,0.00590551*%
%ADD11C,0.006*%
%ADD12C,0.00787402*%
%ADD13C,0.011811*%
%ADD14C,0.012*%
%ADD15C,0.008*%
%ADD16C,0.0125*%
%ADD17C,0.01*%
%ADD18C,0.015*%
%ADD19C,0.0107*%
%ADD20C,0.01125*%
%ADD21C,0.06*%
%ADD22R,0.055X0.055*%
%ADD23C,0.055*%
%ADD24R,0.06X0.06*%
%ADD25C,0.056*%
%ADD26R,0.1378X0.1378*%
%ADD27C,0.0787402*%
%ADD28C,0.0393701*%
%ADD29C,0.244094*%
%ADD30C,0.0944882*%
%ADD31C,0.0511811*%
G04 APERTURE END LIST*
G54D10*
G54D11*
X35506Y17746D02*
X35506Y17532D01*
X35491Y17489D01*
X35463Y17460D01*
X35420Y17446D01*
X35391Y17446D01*
X35648Y17746D02*
X35648Y17503D01*
X35663Y17474D01*
X35677Y17460D01*
X35706Y17446D01*
X35763Y17446D01*
X35791Y17460D01*
X35806Y17474D01*
X35820Y17503D01*
X35820Y17746D01*
X35963Y17446D02*
X35963Y17746D01*
X36063Y17532D01*
X36163Y17746D01*
X36163Y17446D01*
X36306Y17446D02*
X36306Y17746D01*
X36420Y17746D01*
X36448Y17732D01*
X36463Y17717D01*
X36477Y17689D01*
X36477Y17646D01*
X36463Y17617D01*
X36448Y17603D01*
X36420Y17589D01*
X36306Y17589D01*
X36606Y17603D02*
X36706Y17603D01*
X36748Y17446D02*
X36606Y17446D01*
X36606Y17746D01*
X36748Y17746D01*
X37048Y17446D02*
X36948Y17589D01*
X36877Y17446D02*
X36877Y17746D01*
X36991Y17746D01*
X37020Y17732D01*
X37034Y17717D01*
X37048Y17689D01*
X37048Y17646D01*
X37034Y17617D01*
X37020Y17603D01*
X36991Y17589D01*
X36877Y17589D01*
G54D12*
X35827Y16567D02*
G75*
G03X36627Y16567I399J399D01*
G74*
G01*
X35877Y6967D02*
G75*
G03X36577Y6967I349J349D01*
G74*
G01*
G54D11*
X35506Y6646D02*
X35506Y6432D01*
X35491Y6389D01*
X35463Y6360D01*
X35420Y6346D01*
X35391Y6346D01*
X35648Y6646D02*
X35648Y6403D01*
X35663Y6374D01*
X35677Y6360D01*
X35706Y6346D01*
X35763Y6346D01*
X35791Y6360D01*
X35806Y6374D01*
X35820Y6403D01*
X35820Y6646D01*
X35963Y6346D02*
X35963Y6646D01*
X36063Y6432D01*
X36163Y6646D01*
X36163Y6346D01*
X36306Y6346D02*
X36306Y6646D01*
X36420Y6646D01*
X36448Y6632D01*
X36463Y6617D01*
X36477Y6589D01*
X36477Y6546D01*
X36463Y6517D01*
X36448Y6503D01*
X36420Y6489D01*
X36306Y6489D01*
X36606Y6503D02*
X36706Y6503D01*
X36748Y6346D02*
X36606Y6346D01*
X36606Y6646D01*
X36748Y6646D01*
X37048Y6346D02*
X36948Y6489D01*
X36877Y6346D02*
X36877Y6646D01*
X36991Y6646D01*
X37020Y6632D01*
X37034Y6617D01*
X37048Y6589D01*
X37048Y6546D01*
X37034Y6517D01*
X37020Y6503D01*
X36991Y6489D01*
X36877Y6489D01*
G54D13*
X29001Y5278D02*
X29001Y5869D01*
X29254Y5306D02*
X29338Y5278D01*
X29479Y5278D01*
X29535Y5306D01*
X29563Y5334D01*
X29591Y5391D01*
X29591Y5447D01*
X29563Y5503D01*
X29535Y5531D01*
X29479Y5559D01*
X29366Y5588D01*
X29310Y5616D01*
X29282Y5644D01*
X29254Y5700D01*
X29254Y5756D01*
X29282Y5812D01*
X29310Y5841D01*
X29366Y5869D01*
X29507Y5869D01*
X29591Y5841D01*
X29844Y5278D02*
X29844Y5869D01*
X30069Y5869D01*
X30125Y5841D01*
X30154Y5812D01*
X30182Y5756D01*
X30182Y5672D01*
X30154Y5616D01*
X30125Y5588D01*
X30069Y5559D01*
X29844Y5559D01*
G54D11*
X26256Y8396D02*
X26256Y8182D01*
X26241Y8139D01*
X26213Y8110D01*
X26170Y8096D01*
X26141Y8096D01*
X26398Y8396D02*
X26398Y8153D01*
X26413Y8124D01*
X26427Y8110D01*
X26456Y8096D01*
X26513Y8096D01*
X26541Y8110D01*
X26556Y8124D01*
X26570Y8153D01*
X26570Y8396D01*
X26713Y8096D02*
X26713Y8396D01*
X26813Y8182D01*
X26913Y8396D01*
X26913Y8096D01*
X27056Y8096D02*
X27056Y8396D01*
X27170Y8396D01*
X27198Y8382D01*
X27213Y8367D01*
X27227Y8339D01*
X27227Y8296D01*
X27213Y8267D01*
X27198Y8253D01*
X27170Y8239D01*
X27056Y8239D01*
X27356Y8253D02*
X27456Y8253D01*
X27498Y8096D02*
X27356Y8096D01*
X27356Y8396D01*
X27498Y8396D01*
X27798Y8096D02*
X27698Y8239D01*
X27627Y8096D02*
X27627Y8396D01*
X27741Y8396D01*
X27770Y8382D01*
X27784Y8367D01*
X27798Y8339D01*
X27798Y8296D01*
X27784Y8267D01*
X27770Y8253D01*
X27741Y8239D01*
X27627Y8239D01*
G54D12*
X27077Y8717D02*
G75*
G03X27777Y8717I349J349D01*
G74*
G01*
X13777Y8617D02*
G75*
G03X14477Y8617I349J349D01*
G74*
G01*
G54D11*
X14056Y6996D02*
X14056Y6782D01*
X14041Y6739D01*
X14013Y6710D01*
X13970Y6696D01*
X13941Y6696D01*
X14198Y6996D02*
X14198Y6753D01*
X14213Y6724D01*
X14227Y6710D01*
X14256Y6696D01*
X14313Y6696D01*
X14341Y6710D01*
X14356Y6724D01*
X14370Y6753D01*
X14370Y6996D01*
X14513Y6696D02*
X14513Y6996D01*
X14613Y6782D01*
X14713Y6996D01*
X14713Y6696D01*
X14856Y6696D02*
X14856Y6996D01*
X14970Y6996D01*
X14998Y6982D01*
X15013Y6967D01*
X15027Y6939D01*
X15027Y6896D01*
X15013Y6867D01*
X14998Y6853D01*
X14970Y6839D01*
X14856Y6839D01*
X15156Y6853D02*
X15256Y6853D01*
X15298Y6696D02*
X15156Y6696D01*
X15156Y6996D01*
X15298Y6996D01*
X15598Y6696D02*
X15498Y6839D01*
X15427Y6696D02*
X15427Y6996D01*
X15541Y6996D01*
X15570Y6982D01*
X15584Y6967D01*
X15598Y6939D01*
X15598Y6896D01*
X15584Y6867D01*
X15570Y6853D01*
X15541Y6839D01*
X15427Y6839D01*
G54D12*
X13777Y7317D02*
G75*
G03X14477Y7317I349J349D01*
G74*
G01*
G54D13*
X18240Y5356D02*
X18296Y5328D01*
X18409Y5328D01*
X18465Y5356D01*
X18493Y5413D01*
X18493Y5441D01*
X18465Y5497D01*
X18409Y5525D01*
X18324Y5525D01*
X18268Y5553D01*
X18240Y5609D01*
X18240Y5638D01*
X18268Y5694D01*
X18324Y5722D01*
X18409Y5722D01*
X18465Y5694D01*
X18971Y5356D02*
X18915Y5328D01*
X18802Y5328D01*
X18746Y5356D01*
X18718Y5413D01*
X18718Y5638D01*
X18746Y5694D01*
X18802Y5722D01*
X18915Y5722D01*
X18971Y5694D01*
X18999Y5638D01*
X18999Y5581D01*
X18718Y5525D01*
X19252Y5722D02*
X19252Y5328D01*
X19252Y5666D02*
X19280Y5694D01*
X19337Y5722D01*
X19421Y5722D01*
X19477Y5694D01*
X19505Y5638D01*
X19505Y5328D01*
X19759Y5356D02*
X19815Y5328D01*
X19927Y5328D01*
X19984Y5356D01*
X20012Y5413D01*
X20012Y5441D01*
X19984Y5497D01*
X19927Y5525D01*
X19843Y5525D01*
X19787Y5553D01*
X19759Y5609D01*
X19759Y5638D01*
X19787Y5694D01*
X19843Y5722D01*
X19927Y5722D01*
X19984Y5694D01*
X20349Y5328D02*
X20293Y5356D01*
X20265Y5384D01*
X20237Y5441D01*
X20237Y5609D01*
X20265Y5666D01*
X20293Y5694D01*
X20349Y5722D01*
X20433Y5722D01*
X20490Y5694D01*
X20518Y5666D01*
X20546Y5609D01*
X20546Y5441D01*
X20518Y5384D01*
X20490Y5356D01*
X20433Y5328D01*
X20349Y5328D01*
X20799Y5328D02*
X20799Y5722D01*
X20799Y5609D02*
X20827Y5666D01*
X20855Y5694D01*
X20912Y5722D01*
X20968Y5722D01*
X21137Y5862D02*
X21165Y5891D01*
X21221Y5919D01*
X21361Y5919D01*
X21418Y5891D01*
X21446Y5862D01*
X21474Y5806D01*
X21474Y5750D01*
X21446Y5666D01*
X21108Y5328D01*
X21474Y5328D01*
X21727Y5553D02*
X22177Y5553D01*
X22711Y5356D02*
X22655Y5328D01*
X22543Y5328D01*
X22486Y5356D01*
X22458Y5384D01*
X22430Y5441D01*
X22430Y5609D01*
X22458Y5666D01*
X22486Y5694D01*
X22543Y5722D01*
X22655Y5722D01*
X22711Y5694D01*
X23049Y5328D02*
X22993Y5356D01*
X22964Y5384D01*
X22936Y5441D01*
X22936Y5609D01*
X22964Y5666D01*
X22993Y5694D01*
X23049Y5722D01*
X23133Y5722D01*
X23189Y5694D01*
X23217Y5666D01*
X23246Y5609D01*
X23246Y5441D01*
X23217Y5384D01*
X23189Y5356D01*
X23133Y5328D01*
X23049Y5328D01*
X23499Y5722D02*
X23499Y5328D01*
X23499Y5666D02*
X23527Y5694D01*
X23583Y5722D01*
X23667Y5722D01*
X23724Y5694D01*
X23752Y5638D01*
X23752Y5328D01*
X24286Y5328D02*
X24286Y5919D01*
X24286Y5356D02*
X24230Y5328D01*
X24117Y5328D01*
X24061Y5356D01*
X24033Y5384D01*
X24005Y5441D01*
X24005Y5609D01*
X24033Y5666D01*
X24061Y5694D01*
X24117Y5722D01*
X24230Y5722D01*
X24286Y5694D01*
X24652Y5328D02*
X24595Y5356D01*
X24567Y5384D01*
X24539Y5441D01*
X24539Y5609D01*
X24567Y5666D01*
X24595Y5694D01*
X24652Y5722D01*
X24736Y5722D01*
X24792Y5694D01*
X24820Y5666D01*
X24849Y5609D01*
X24849Y5441D01*
X24820Y5384D01*
X24792Y5356D01*
X24736Y5328D01*
X24652Y5328D01*
X25102Y5328D02*
X25102Y5722D01*
X25102Y5609D02*
X25130Y5666D01*
X25158Y5694D01*
X25214Y5722D01*
X25270Y5722D01*
G54D10*
X11227Y8267D02*
X15427Y8267D01*
X17227Y4267D02*
X17227Y7467D01*
X14227Y2467D02*
X16427Y2467D01*
X9427Y7467D02*
X9427Y4267D01*
G54D14*
X28527Y15217D02*
X28527Y14217D01*
X28527Y14217D02*
X22527Y14217D01*
X22527Y14217D02*
X22527Y15217D01*
X22527Y15217D02*
X28527Y15217D01*
X27527Y15217D02*
X27527Y14217D01*
X6811Y17610D02*
X6811Y18610D01*
X6811Y18610D02*
X16811Y18610D01*
X16811Y18610D02*
X16811Y17610D01*
X16811Y17610D02*
X6811Y17610D01*
X7811Y17610D02*
X7811Y18610D01*
X2527Y8417D02*
X2927Y8417D01*
X2927Y8417D02*
X2927Y8817D01*
X2927Y8817D02*
X6127Y8817D01*
X6127Y8817D02*
X6127Y8017D01*
X6127Y8017D02*
X2927Y8017D01*
X2927Y8017D02*
X2927Y8417D01*
X2927Y8617D02*
X3127Y8817D01*
X6527Y8417D02*
X6127Y8417D01*
X6527Y7417D02*
X6127Y7417D01*
X6127Y7417D02*
X6127Y7017D01*
X6127Y7017D02*
X2927Y7017D01*
X2927Y7017D02*
X2927Y7817D01*
X2927Y7817D02*
X6127Y7817D01*
X6127Y7817D02*
X6127Y7417D01*
X6127Y7217D02*
X5927Y7017D01*
X2527Y7417D02*
X2927Y7417D01*
X14277Y14817D02*
X13877Y14817D01*
X13877Y14817D02*
X13877Y14417D01*
X13877Y14417D02*
X10677Y14417D01*
X10677Y14417D02*
X10677Y15217D01*
X10677Y15217D02*
X13877Y15217D01*
X13877Y15217D02*
X13877Y14817D01*
X13877Y14617D02*
X13677Y14417D01*
X10277Y14817D02*
X10677Y14817D01*
X10577Y16167D02*
X10977Y16167D01*
X10977Y16167D02*
X10977Y16567D01*
X10977Y16567D02*
X14177Y16567D01*
X14177Y16567D02*
X14177Y15767D01*
X14177Y15767D02*
X10977Y15767D01*
X10977Y15767D02*
X10977Y16167D01*
X10977Y16367D02*
X11177Y16567D01*
X14577Y16167D02*
X14177Y16167D01*
X17427Y14567D02*
X17827Y14567D01*
X17827Y14567D02*
X17827Y14967D01*
X17827Y14967D02*
X21027Y14967D01*
X21027Y14967D02*
X21027Y14167D01*
X21027Y14167D02*
X17827Y14167D01*
X17827Y14167D02*
X17827Y14567D01*
X17827Y14767D02*
X18027Y14967D01*
X21427Y14567D02*
X21027Y14567D01*
X18027Y15667D02*
X18427Y15667D01*
X18427Y15667D02*
X18427Y16067D01*
X18427Y16067D02*
X21627Y16067D01*
X21627Y16067D02*
X21627Y15267D01*
X21627Y15267D02*
X18427Y15267D01*
X18427Y15267D02*
X18427Y15667D01*
X18427Y15867D02*
X18627Y16067D01*
X22027Y15667D02*
X21627Y15667D01*
G54D15*
X27977Y5067D02*
X30977Y5067D01*
X30977Y3067D02*
X27977Y3067D01*
X27977Y3067D02*
X27977Y5067D01*
X30977Y5067D02*
X30977Y3067D01*
G54D11*
X28527Y16267D02*
X28527Y15267D01*
X28527Y15267D02*
X25527Y15267D01*
X25527Y15267D02*
X25527Y16267D01*
X25527Y16267D02*
X28527Y16267D01*
X27527Y15267D02*
X27527Y16267D01*
X2927Y6567D02*
X3927Y6567D01*
X3927Y6567D02*
X3927Y4567D01*
X3927Y4567D02*
X2927Y4567D01*
X2927Y4567D02*
X2927Y6567D01*
X31127Y6467D02*
X30127Y6467D01*
X30127Y6467D02*
X30127Y8467D01*
X30127Y8467D02*
X31127Y8467D01*
X31127Y8467D02*
X31127Y6467D01*
X30127Y6467D02*
X29127Y6467D01*
X29127Y6467D02*
X29127Y8467D01*
X29127Y8467D02*
X30127Y8467D01*
X30127Y8467D02*
X30127Y6467D01*
X29127Y6467D02*
X28127Y6467D01*
X28127Y6467D02*
X28127Y8467D01*
X28127Y8467D02*
X29127Y8467D01*
X29127Y8467D02*
X29127Y6467D01*
G54D16*
X5877Y13567D02*
X8377Y13567D01*
X5877Y15567D02*
X8377Y15567D01*
X9377Y14567D02*
G75*
G03X8377Y15567I-1000J0D01*
G74*
G01*
X8377Y13567D02*
G75*
G03X9377Y14567I0J1000D01*
G74*
G01*
X5877Y15567D02*
G75*
G03X4877Y14567I0J-1000D01*
G74*
G01*
X4877Y14567D02*
G75*
G03X5877Y13567I1000J0D01*
G74*
G01*
G54D17*
X22777Y10767D02*
X22277Y10767D01*
X22277Y10767D02*
X22277Y11767D01*
X22277Y11767D02*
X22777Y11767D01*
X22777Y10267D02*
X18777Y10267D01*
X18777Y10267D02*
X18777Y12267D01*
X18777Y12267D02*
X22777Y12267D01*
X22777Y12267D02*
X22777Y10267D01*
G54D18*
X16627Y10267D02*
X1627Y10267D01*
X1627Y10267D02*
X1627Y12267D01*
X1627Y12267D02*
X16627Y12267D01*
X16627Y12267D02*
X16627Y10267D01*
X16627Y10767D02*
X16127Y10767D01*
X16127Y10767D02*
X16127Y11767D01*
X16127Y11767D02*
X16627Y11767D01*
X29427Y12267D02*
X23427Y12267D01*
X23427Y12267D02*
X23427Y10267D01*
X23427Y10267D02*
X29427Y10267D01*
X29427Y10767D02*
X28927Y10767D01*
X28927Y10767D02*
X28927Y11767D01*
X28927Y11767D02*
X29427Y11767D01*
X29427Y10267D02*
X29427Y12267D01*
G54D14*
X9207Y15867D02*
X7227Y15867D01*
X7227Y15867D02*
X7227Y16867D01*
X7227Y16867D02*
X9227Y16867D01*
X9227Y16867D02*
X9227Y15867D01*
X9227Y16117D02*
X8977Y15867D01*
X4947Y16867D02*
X6927Y16867D01*
X6927Y16867D02*
X6927Y15867D01*
X6927Y15867D02*
X4927Y15867D01*
X4927Y15867D02*
X4927Y16867D01*
X4927Y16617D02*
X5177Y16867D01*
X8127Y7287D02*
X8127Y9267D01*
X8127Y9267D02*
X9127Y9267D01*
X9127Y9267D02*
X9127Y7267D01*
X9127Y7267D02*
X8127Y7267D01*
X8377Y7267D02*
X8127Y7517D01*
X18777Y6487D02*
X18777Y8467D01*
X18777Y8467D02*
X19777Y8467D01*
X19777Y8467D02*
X19777Y6467D01*
X19777Y6467D02*
X18777Y6467D01*
X19027Y6467D02*
X18777Y6717D01*
X16827Y10287D02*
X16827Y12267D01*
X16827Y12267D02*
X17827Y12267D01*
X17827Y12267D02*
X17827Y10267D01*
X17827Y10267D02*
X16827Y10267D01*
X17077Y10267D02*
X16827Y10517D01*
G54D18*
X4527Y1968D02*
X8071Y1968D01*
X4527Y590D02*
X8071Y590D01*
X8071Y590D02*
X8071Y6299D01*
X8071Y6299D02*
X4527Y6299D01*
X4527Y6299D02*
X4527Y590D01*
G54D10*
X33118Y11767D02*
G75*
G03X33118Y11767I-590J0D01*
G74*
G01*
X31779Y10862D02*
X33275Y10862D01*
X31779Y12673D02*
X33275Y12673D01*
X31228Y12122D02*
X31228Y11413D01*
X33826Y11413D02*
X33826Y12122D01*
X36818Y11767D02*
G75*
G03X36818Y11767I-590J0D01*
G74*
G01*
X35479Y10862D02*
X36975Y10862D01*
X35479Y12673D02*
X36975Y12673D01*
X34928Y12122D02*
X34928Y11413D01*
X37526Y11413D02*
X37526Y12122D01*
X36818Y14967D02*
G75*
G03X36818Y14967I-590J0D01*
G74*
G01*
X35479Y14062D02*
X36975Y14062D01*
X35479Y15873D02*
X36975Y15873D01*
X34928Y15322D02*
X34928Y14613D01*
X37526Y14613D02*
X37526Y15322D01*
X33118Y14967D02*
G75*
G03X33118Y14967I-590J0D01*
G74*
G01*
X31779Y14062D02*
X33275Y14062D01*
X31779Y15873D02*
X33275Y15873D01*
X31228Y15322D02*
X31228Y14613D01*
X33826Y14613D02*
X33826Y15322D01*
X15243Y16167D02*
X15440Y16837D01*
X15440Y16837D02*
X17014Y16837D01*
X17014Y16837D02*
X17211Y16167D01*
X15243Y16167D02*
G75*
G03X16227Y15183I984J0D01*
G74*
G01*
X16227Y15183D02*
G75*
G03X17211Y16167I0J984D01*
G74*
G01*
X32480Y1574D02*
X32185Y1574D01*
X32185Y1574D02*
X32185Y2362D01*
X34448Y1574D02*
X34744Y1574D01*
X34744Y1574D02*
X34744Y2362D01*
X34448Y1574D02*
X34448Y551D01*
X34448Y551D02*
X32480Y551D01*
X32480Y551D02*
X32480Y1574D01*
X34448Y1574D02*
X32480Y1574D01*
X32185Y4625D02*
X32185Y5413D01*
X34744Y4625D02*
X34744Y5413D01*
X34744Y3543D02*
X34744Y4015D01*
X32185Y3543D02*
X32185Y3996D01*
X33740Y5905D02*
X33188Y5905D01*
G54D17*
X12794Y6684D02*
X12794Y6117D01*
X12827Y6051D01*
X12860Y6017D01*
X12927Y5984D01*
X13060Y5984D01*
X13127Y6017D01*
X13160Y6051D01*
X13194Y6117D01*
X13194Y6684D01*
X13894Y5984D02*
X13494Y5984D01*
X13694Y5984D02*
X13694Y6684D01*
X13627Y6584D01*
X13560Y6517D01*
X13494Y6484D01*
X9894Y4917D02*
X9994Y4884D01*
X10160Y4884D01*
X10227Y4917D01*
X10260Y4951D01*
X10294Y5017D01*
X10294Y5084D01*
X10260Y5151D01*
X10227Y5184D01*
X10160Y5217D01*
X10027Y5251D01*
X9960Y5284D01*
X9927Y5317D01*
X9894Y5384D01*
X9894Y5451D01*
X9927Y5517D01*
X9960Y5551D01*
X10027Y5584D01*
X10194Y5584D01*
X10294Y5551D01*
X10927Y4884D02*
X10594Y4884D01*
X10594Y5584D01*
X11160Y5151D02*
X11694Y5151D01*
X11927Y5584D02*
X12327Y5584D01*
X12127Y4884D02*
X12127Y5584D01*
X12560Y4884D02*
X12560Y5584D01*
X12827Y5584D01*
X12894Y5551D01*
X12927Y5517D01*
X12960Y5451D01*
X12960Y5351D01*
X12927Y5284D01*
X12894Y5251D01*
X12827Y5217D01*
X12560Y5217D01*
X13227Y4917D02*
X13327Y4884D01*
X13494Y4884D01*
X13560Y4917D01*
X13594Y4951D01*
X13627Y5017D01*
X13627Y5084D01*
X13594Y5151D01*
X13560Y5184D01*
X13494Y5217D01*
X13360Y5251D01*
X13294Y5284D01*
X13260Y5317D01*
X13227Y5384D01*
X13227Y5451D01*
X13260Y5517D01*
X13294Y5551D01*
X13360Y5584D01*
X13527Y5584D01*
X13627Y5551D01*
X14227Y5584D02*
X14094Y5584D01*
X14027Y5551D01*
X13994Y5517D01*
X13927Y5417D01*
X13894Y5284D01*
X13894Y5017D01*
X13927Y4951D01*
X13960Y4917D01*
X14027Y4884D01*
X14160Y4884D01*
X14227Y4917D01*
X14260Y4951D01*
X14294Y5017D01*
X14294Y5184D01*
X14260Y5251D01*
X14227Y5284D01*
X14160Y5317D01*
X14027Y5317D01*
X13960Y5284D01*
X13927Y5251D01*
X13894Y5184D01*
X14527Y5584D02*
X14960Y5584D01*
X14727Y5317D01*
X14827Y5317D01*
X14894Y5284D01*
X14927Y5251D01*
X14960Y5184D01*
X14960Y5017D01*
X14927Y4951D01*
X14894Y4917D01*
X14827Y4884D01*
X14627Y4884D01*
X14560Y4917D01*
X14527Y4951D01*
X15394Y5584D02*
X15460Y5584D01*
X15527Y5551D01*
X15560Y5517D01*
X15594Y5451D01*
X15627Y5317D01*
X15627Y5151D01*
X15594Y5017D01*
X15560Y4951D01*
X15527Y4917D01*
X15460Y4884D01*
X15394Y4884D01*
X15327Y4917D01*
X15294Y4951D01*
X15260Y5017D01*
X15227Y5151D01*
X15227Y5317D01*
X15260Y5451D01*
X15294Y5517D01*
X15327Y5551D01*
X15394Y5584D01*
X16227Y5584D02*
X16094Y5584D01*
X16027Y5551D01*
X15994Y5517D01*
X15927Y5417D01*
X15894Y5284D01*
X15894Y5017D01*
X15927Y4951D01*
X15960Y4917D01*
X16027Y4884D01*
X16160Y4884D01*
X16227Y4917D01*
X16260Y4951D01*
X16294Y5017D01*
X16294Y5184D01*
X16260Y5251D01*
X16227Y5284D01*
X16160Y5317D01*
X16027Y5317D01*
X15960Y5284D01*
X15927Y5251D01*
X15894Y5184D01*
X16727Y5584D02*
X16794Y5584D01*
X16860Y5551D01*
X16894Y5517D01*
X16927Y5451D01*
X16960Y5317D01*
X16960Y5151D01*
X16927Y5017D01*
X16894Y4951D01*
X16860Y4917D01*
X16794Y4884D01*
X16727Y4884D01*
X16660Y4917D01*
X16627Y4951D01*
X16594Y5017D01*
X16560Y5151D01*
X16560Y5317D01*
X16594Y5451D01*
X16627Y5517D01*
X16660Y5551D01*
X16727Y5584D01*
G54D19*
X25211Y13442D02*
X25211Y14123D01*
X25374Y14123D01*
X25415Y14090D01*
X25435Y14058D01*
X25456Y13993D01*
X25456Y13896D01*
X25435Y13831D01*
X25415Y13798D01*
X25374Y13766D01*
X25211Y13766D01*
X25619Y14058D02*
X25639Y14090D01*
X25680Y14123D01*
X25782Y14123D01*
X25823Y14090D01*
X25843Y14058D01*
X25863Y13993D01*
X25863Y13928D01*
X25843Y13831D01*
X25598Y13442D01*
X25863Y13442D01*
G54D14*
G54D19*
X8984Y19515D02*
X8984Y18964D01*
X9005Y18899D01*
X9025Y18867D01*
X9066Y18834D01*
X9147Y18834D01*
X9188Y18867D01*
X9209Y18899D01*
X9229Y18964D01*
X9229Y19515D01*
X9616Y19288D02*
X9616Y18834D01*
X9514Y19548D02*
X9412Y19061D01*
X9677Y19061D01*
G54D14*
G54D17*
X12206Y18895D02*
X12263Y18867D01*
X12358Y18867D01*
X12396Y18895D01*
X12415Y18924D01*
X12434Y18981D01*
X12434Y19038D01*
X12415Y19095D01*
X12396Y19124D01*
X12358Y19153D01*
X12282Y19181D01*
X12244Y19210D01*
X12225Y19238D01*
X12206Y19295D01*
X12206Y19353D01*
X12225Y19410D01*
X12244Y19438D01*
X12282Y19467D01*
X12377Y19467D01*
X12434Y19438D01*
X12796Y18867D02*
X12606Y18867D01*
X12606Y19467D01*
X12930Y19095D02*
X13234Y19095D01*
X13406Y18895D02*
X13463Y18867D01*
X13558Y18867D01*
X13596Y18895D01*
X13615Y18924D01*
X13634Y18981D01*
X13634Y19038D01*
X13615Y19095D01*
X13596Y19124D01*
X13558Y19153D01*
X13482Y19181D01*
X13444Y19210D01*
X13425Y19238D01*
X13406Y19295D01*
X13406Y19353D01*
X13425Y19410D01*
X13444Y19438D01*
X13482Y19467D01*
X13577Y19467D01*
X13634Y19438D01*
X13939Y19181D02*
X13996Y19153D01*
X14015Y19124D01*
X14034Y19067D01*
X14034Y18981D01*
X14015Y18924D01*
X13996Y18895D01*
X13958Y18867D01*
X13806Y18867D01*
X13806Y19467D01*
X13939Y19467D01*
X13977Y19438D01*
X13996Y19410D01*
X14015Y19353D01*
X14015Y19295D01*
X13996Y19238D01*
X13977Y19210D01*
X13939Y19181D01*
X13806Y19181D01*
X14415Y18867D02*
X14187Y18867D01*
X14301Y18867D02*
X14301Y19467D01*
X14263Y19381D01*
X14225Y19324D01*
X14187Y19295D01*
X14758Y19467D02*
X14682Y19467D01*
X14644Y19438D01*
X14625Y19410D01*
X14587Y19324D01*
X14568Y19210D01*
X14568Y18981D01*
X14587Y18924D01*
X14606Y18895D01*
X14644Y18867D01*
X14720Y18867D01*
X14758Y18895D01*
X14777Y18924D01*
X14796Y18981D01*
X14796Y19124D01*
X14777Y19181D01*
X14758Y19210D01*
X14720Y19238D01*
X14644Y19238D01*
X14606Y19210D01*
X14587Y19181D01*
X14568Y19124D01*
X15044Y19467D02*
X15082Y19467D01*
X15120Y19438D01*
X15139Y19410D01*
X15158Y19353D01*
X15177Y19238D01*
X15177Y19095D01*
X15158Y18981D01*
X15139Y18924D01*
X15120Y18895D01*
X15082Y18867D01*
X15044Y18867D01*
X15006Y18895D01*
X14987Y18924D01*
X14968Y18981D01*
X14949Y19095D01*
X14949Y19238D01*
X14968Y19353D01*
X14987Y19410D01*
X15006Y19438D01*
X15044Y19467D01*
X15330Y19410D02*
X15349Y19438D01*
X15387Y19467D01*
X15482Y19467D01*
X15520Y19438D01*
X15539Y19410D01*
X15558Y19353D01*
X15558Y19295D01*
X15539Y19210D01*
X15311Y18867D01*
X15558Y18867D01*
X15863Y19181D02*
X15920Y19153D01*
X15939Y19124D01*
X15958Y19067D01*
X15958Y18981D01*
X15939Y18924D01*
X15920Y18895D01*
X15882Y18867D01*
X15730Y18867D01*
X15730Y19467D01*
X15863Y19467D01*
X15901Y19438D01*
X15920Y19410D01*
X15939Y19353D01*
X15939Y19295D01*
X15920Y19238D01*
X15901Y19210D01*
X15863Y19181D01*
X15730Y19181D01*
X16091Y19467D02*
X16187Y18867D01*
X16263Y19295D01*
X16339Y18867D01*
X16434Y19467D01*
G54D14*
G54D15*
X4444Y8195D02*
X4277Y8457D01*
X4158Y8195D02*
X4158Y8745D01*
X4348Y8745D01*
X4396Y8718D01*
X4420Y8692D01*
X4444Y8640D01*
X4444Y8561D01*
X4420Y8509D01*
X4396Y8483D01*
X4348Y8457D01*
X4158Y8457D01*
X4920Y8195D02*
X4634Y8195D01*
X4777Y8195D02*
X4777Y8745D01*
X4729Y8666D01*
X4682Y8614D01*
X4634Y8587D01*
X4444Y7195D02*
X4277Y7457D01*
X4158Y7195D02*
X4158Y7745D01*
X4348Y7745D01*
X4396Y7718D01*
X4420Y7692D01*
X4444Y7640D01*
X4444Y7561D01*
X4420Y7509D01*
X4396Y7483D01*
X4348Y7457D01*
X4158Y7457D01*
X4634Y7692D02*
X4658Y7718D01*
X4706Y7745D01*
X4825Y7745D01*
X4872Y7718D01*
X4896Y7692D01*
X4920Y7640D01*
X4920Y7587D01*
X4896Y7509D01*
X4610Y7195D01*
X4920Y7195D01*
X12194Y14595D02*
X12027Y14857D01*
X11908Y14595D02*
X11908Y15145D01*
X12098Y15145D01*
X12146Y15118D01*
X12170Y15092D01*
X12194Y15040D01*
X12194Y14961D01*
X12170Y14909D01*
X12146Y14883D01*
X12098Y14857D01*
X11908Y14857D01*
X12360Y15145D02*
X12670Y15145D01*
X12503Y14935D01*
X12575Y14935D01*
X12622Y14909D01*
X12646Y14883D01*
X12670Y14830D01*
X12670Y14699D01*
X12646Y14647D01*
X12622Y14621D01*
X12575Y14595D01*
X12432Y14595D01*
X12384Y14621D01*
X12360Y14647D01*
X12494Y15945D02*
X12327Y16207D01*
X12208Y15945D02*
X12208Y16495D01*
X12398Y16495D01*
X12446Y16468D01*
X12470Y16442D01*
X12494Y16390D01*
X12494Y16311D01*
X12470Y16259D01*
X12446Y16233D01*
X12398Y16207D01*
X12208Y16207D01*
X12922Y16495D02*
X12827Y16495D01*
X12779Y16468D01*
X12756Y16442D01*
X12708Y16364D01*
X12684Y16259D01*
X12684Y16049D01*
X12708Y15997D01*
X12732Y15971D01*
X12779Y15945D01*
X12875Y15945D01*
X12922Y15971D01*
X12946Y15997D01*
X12970Y16049D01*
X12970Y16180D01*
X12946Y16233D01*
X12922Y16259D01*
X12875Y16285D01*
X12779Y16285D01*
X12732Y16259D01*
X12708Y16233D01*
X12684Y16180D01*
X19344Y14345D02*
X19177Y14607D01*
X19058Y14345D02*
X19058Y14895D01*
X19248Y14895D01*
X19296Y14868D01*
X19320Y14842D01*
X19344Y14790D01*
X19344Y14711D01*
X19320Y14659D01*
X19296Y14633D01*
X19248Y14607D01*
X19058Y14607D01*
X19772Y14711D02*
X19772Y14345D01*
X19653Y14921D02*
X19534Y14528D01*
X19844Y14528D01*
X19944Y15445D02*
X19777Y15707D01*
X19658Y15445D02*
X19658Y15995D01*
X19848Y15995D01*
X19896Y15968D01*
X19920Y15942D01*
X19944Y15890D01*
X19944Y15811D01*
X19920Y15759D01*
X19896Y15733D01*
X19848Y15707D01*
X19658Y15707D01*
X20396Y15995D02*
X20158Y15995D01*
X20134Y15733D01*
X20158Y15759D01*
X20206Y15785D01*
X20325Y15785D01*
X20372Y15759D01*
X20396Y15733D01*
X20420Y15680D01*
X20420Y15549D01*
X20396Y15497D01*
X20372Y15471D01*
X20325Y15445D01*
X20206Y15445D01*
X20158Y15471D01*
X20134Y15497D01*
X28991Y2443D02*
X28972Y2424D01*
X28915Y2405D01*
X28877Y2405D01*
X28820Y2424D01*
X28782Y2462D01*
X28763Y2501D01*
X28744Y2577D01*
X28744Y2634D01*
X28763Y2710D01*
X28782Y2748D01*
X28820Y2786D01*
X28877Y2805D01*
X28915Y2805D01*
X28972Y2786D01*
X28991Y2767D01*
X29239Y2805D02*
X29315Y2805D01*
X29353Y2786D01*
X29391Y2748D01*
X29410Y2672D01*
X29410Y2539D01*
X29391Y2462D01*
X29353Y2424D01*
X29315Y2405D01*
X29239Y2405D01*
X29201Y2424D01*
X29163Y2462D01*
X29144Y2539D01*
X29144Y2672D01*
X29163Y2748D01*
X29201Y2786D01*
X29239Y2805D01*
X29582Y2405D02*
X29582Y2805D01*
X29810Y2405D01*
X29810Y2805D01*
X29982Y2767D02*
X30001Y2786D01*
X30039Y2805D01*
X30134Y2805D01*
X30172Y2786D01*
X30191Y2767D01*
X30210Y2729D01*
X30210Y2691D01*
X30191Y2634D01*
X29963Y2405D01*
X30210Y2405D01*
G54D11*
X26732Y16505D02*
X26732Y16905D01*
X26884Y16905D01*
X26922Y16886D01*
X26941Y16867D01*
X26960Y16829D01*
X26960Y16772D01*
X26941Y16734D01*
X26922Y16715D01*
X26884Y16696D01*
X26732Y16696D01*
X27341Y16505D02*
X27113Y16505D01*
X27227Y16505D02*
X27227Y16905D01*
X27189Y16848D01*
X27151Y16810D01*
X27113Y16791D01*
X4298Y5346D02*
X3998Y5346D01*
X3998Y5460D01*
X4013Y5489D01*
X4027Y5503D01*
X4056Y5517D01*
X4098Y5517D01*
X4127Y5503D01*
X4141Y5489D01*
X4156Y5460D01*
X4156Y5346D01*
X3998Y5617D02*
X3998Y5803D01*
X4113Y5703D01*
X4113Y5746D01*
X4127Y5774D01*
X4141Y5789D01*
X4170Y5803D01*
X4241Y5803D01*
X4270Y5789D01*
X4284Y5774D01*
X4298Y5746D01*
X4298Y5660D01*
X4284Y5632D01*
X4270Y5617D01*
X30448Y8717D02*
X30663Y8717D01*
X30706Y8703D01*
X30734Y8674D01*
X30748Y8632D01*
X30748Y8603D01*
X30748Y8860D02*
X30448Y8860D01*
X30448Y8974D01*
X30463Y9003D01*
X30477Y9017D01*
X30506Y9032D01*
X30548Y9032D01*
X30577Y9017D01*
X30591Y9003D01*
X30606Y8974D01*
X30606Y8860D01*
X30448Y9132D02*
X30448Y9317D01*
X30563Y9217D01*
X30563Y9260D01*
X30577Y9289D01*
X30591Y9303D01*
X30620Y9317D01*
X30691Y9317D01*
X30720Y9303D01*
X30734Y9289D01*
X30748Y9260D01*
X30748Y9174D01*
X30734Y9146D01*
X30720Y9132D01*
X29448Y8717D02*
X29663Y8717D01*
X29706Y8703D01*
X29734Y8674D01*
X29748Y8632D01*
X29748Y8603D01*
X29748Y8860D02*
X29448Y8860D01*
X29448Y8974D01*
X29463Y9003D01*
X29477Y9017D01*
X29506Y9032D01*
X29548Y9032D01*
X29577Y9017D01*
X29591Y9003D01*
X29606Y8974D01*
X29606Y8860D01*
X29477Y9146D02*
X29463Y9160D01*
X29448Y9189D01*
X29448Y9260D01*
X29463Y9289D01*
X29477Y9303D01*
X29506Y9317D01*
X29534Y9317D01*
X29577Y9303D01*
X29748Y9132D01*
X29748Y9317D01*
X28448Y8717D02*
X28663Y8717D01*
X28706Y8703D01*
X28734Y8674D01*
X28748Y8632D01*
X28748Y8603D01*
X28748Y8860D02*
X28448Y8860D01*
X28448Y8974D01*
X28463Y9003D01*
X28477Y9017D01*
X28506Y9032D01*
X28548Y9032D01*
X28577Y9017D01*
X28591Y9003D01*
X28606Y8974D01*
X28606Y8860D01*
X28748Y9317D02*
X28748Y9146D01*
X28748Y9232D02*
X28448Y9232D01*
X28491Y9203D01*
X28520Y9174D01*
X28534Y9146D01*
G54D14*
X6641Y15324D02*
X7041Y14724D01*
X7041Y15324D02*
X6641Y14724D01*
X7584Y14724D02*
X7241Y14724D01*
X7413Y14724D02*
X7413Y15324D01*
X7356Y15239D01*
X7298Y15182D01*
X7241Y15153D01*
X6170Y13767D02*
X6113Y13796D01*
X6084Y13824D01*
X6056Y13882D01*
X6056Y13910D01*
X6084Y13967D01*
X6113Y13996D01*
X6170Y14024D01*
X6284Y14024D01*
X6341Y13996D01*
X6370Y13967D01*
X6398Y13910D01*
X6398Y13882D01*
X6370Y13824D01*
X6341Y13796D01*
X6284Y13767D01*
X6170Y13767D01*
X6113Y13739D01*
X6084Y13710D01*
X6056Y13653D01*
X6056Y13539D01*
X6084Y13482D01*
X6113Y13453D01*
X6170Y13424D01*
X6284Y13424D01*
X6341Y13453D01*
X6370Y13482D01*
X6398Y13539D01*
X6398Y13653D01*
X6370Y13710D01*
X6341Y13739D01*
X6284Y13767D01*
X6656Y13424D02*
X6656Y14024D01*
X6856Y13596D01*
X7056Y14024D01*
X7056Y13424D01*
X7341Y13424D02*
X7341Y14024D01*
X7341Y13739D02*
X7684Y13739D01*
X7684Y13424D02*
X7684Y14024D01*
X7913Y13824D02*
X8227Y13824D01*
X7913Y13424D01*
X8227Y13424D01*
G54D15*
X22979Y10924D02*
X23384Y10924D01*
X23432Y10946D01*
X23456Y10967D01*
X23479Y11010D01*
X23479Y11096D01*
X23456Y11139D01*
X23432Y11160D01*
X23384Y11182D01*
X22979Y11182D01*
X23027Y11374D02*
X23003Y11396D01*
X22979Y11439D01*
X22979Y11546D01*
X23003Y11589D01*
X23027Y11610D01*
X23075Y11632D01*
X23122Y11632D01*
X23194Y11610D01*
X23479Y11353D01*
X23479Y11632D01*
X18758Y11208D02*
X18948Y11208D01*
X18720Y11065D02*
X18853Y11565D01*
X18987Y11065D01*
X19120Y11327D02*
X19253Y11327D01*
X19310Y11065D02*
X19120Y11065D01*
X19120Y11565D01*
X19310Y11565D01*
X19482Y11255D02*
X19787Y11255D01*
X20168Y11065D02*
X19977Y11065D01*
X19977Y11565D01*
X20301Y11065D02*
X20301Y11565D01*
X20453Y11565D01*
X20491Y11541D01*
X20510Y11517D01*
X20529Y11470D01*
X20529Y11398D01*
X20510Y11351D01*
X20491Y11327D01*
X20453Y11303D01*
X20301Y11303D01*
X20682Y11089D02*
X20739Y11065D01*
X20834Y11065D01*
X20872Y11089D01*
X20891Y11112D01*
X20910Y11160D01*
X20910Y11208D01*
X20891Y11255D01*
X20872Y11279D01*
X20834Y11303D01*
X20758Y11327D01*
X20720Y11351D01*
X20701Y11374D01*
X20682Y11422D01*
X20682Y11470D01*
X20701Y11517D01*
X20720Y11541D01*
X20758Y11565D01*
X20853Y11565D01*
X20910Y11541D01*
X21044Y11565D02*
X21291Y11565D01*
X21158Y11374D01*
X21215Y11374D01*
X21253Y11351D01*
X21272Y11327D01*
X21291Y11279D01*
X21291Y11160D01*
X21272Y11112D01*
X21253Y11089D01*
X21215Y11065D01*
X21101Y11065D01*
X21063Y11089D01*
X21044Y11112D01*
X21425Y11565D02*
X21672Y11565D01*
X21539Y11374D01*
X21596Y11374D01*
X21634Y11351D01*
X21653Y11327D01*
X21672Y11279D01*
X21672Y11160D01*
X21653Y11112D01*
X21634Y11089D01*
X21596Y11065D01*
X21482Y11065D01*
X21444Y11089D01*
X21425Y11112D01*
X22053Y11065D02*
X21825Y11065D01*
X21939Y11065D02*
X21939Y11565D01*
X21901Y11493D01*
X21863Y11446D01*
X21825Y11422D01*
X22206Y11208D02*
X22396Y11208D01*
X22168Y11065D02*
X22301Y11565D01*
X22434Y11065D01*
X22568Y11065D02*
X22568Y11565D01*
X22720Y11565D01*
X22758Y11541D01*
X22777Y11517D01*
X22796Y11470D01*
X22796Y11398D01*
X22777Y11351D01*
X22758Y11327D01*
X22720Y11303D01*
X22568Y11303D01*
G54D20*
X13188Y11024D02*
X13188Y11624D01*
X13659Y11082D02*
X13638Y11053D01*
X13573Y11024D01*
X13531Y11024D01*
X13466Y11053D01*
X13423Y11110D01*
X13402Y11167D01*
X13381Y11282D01*
X13381Y11367D01*
X13402Y11482D01*
X13423Y11539D01*
X13466Y11596D01*
X13531Y11624D01*
X13573Y11624D01*
X13638Y11596D01*
X13659Y11567D01*
X14088Y11024D02*
X13831Y11024D01*
X13959Y11024D02*
X13959Y11624D01*
X13916Y11539D01*
X13873Y11482D01*
X13831Y11453D01*
G54D14*
G54D20*
X2598Y11196D02*
X2813Y11196D01*
X2556Y11024D02*
X2706Y11624D01*
X2856Y11024D01*
X2941Y11624D02*
X3198Y11624D01*
X3070Y11024D02*
X3070Y11624D01*
X3348Y11024D02*
X3348Y11624D01*
X3498Y11196D01*
X3648Y11624D01*
X3648Y11024D01*
X3863Y11339D02*
X4013Y11339D01*
X4077Y11024D02*
X3863Y11024D01*
X3863Y11624D01*
X4077Y11624D01*
X4506Y11596D02*
X4463Y11624D01*
X4398Y11624D01*
X4334Y11596D01*
X4291Y11539D01*
X4270Y11482D01*
X4248Y11367D01*
X4248Y11282D01*
X4270Y11167D01*
X4291Y11110D01*
X4334Y11053D01*
X4398Y11024D01*
X4441Y11024D01*
X4506Y11053D01*
X4527Y11082D01*
X4527Y11282D01*
X4441Y11282D01*
X4698Y11196D02*
X4913Y11196D01*
X4656Y11024D02*
X4806Y11624D01*
X4956Y11024D01*
X5063Y11624D02*
X5341Y11624D01*
X5191Y11396D01*
X5256Y11396D01*
X5298Y11367D01*
X5320Y11339D01*
X5341Y11282D01*
X5341Y11139D01*
X5320Y11082D01*
X5298Y11053D01*
X5256Y11024D01*
X5127Y11024D01*
X5084Y11053D01*
X5063Y11082D01*
X5513Y11567D02*
X5534Y11596D01*
X5577Y11624D01*
X5684Y11624D01*
X5727Y11596D01*
X5748Y11567D01*
X5770Y11510D01*
X5770Y11453D01*
X5748Y11367D01*
X5491Y11024D01*
X5770Y11024D01*
X6027Y11367D02*
X5984Y11396D01*
X5963Y11424D01*
X5941Y11482D01*
X5941Y11510D01*
X5963Y11567D01*
X5984Y11596D01*
X6027Y11624D01*
X6113Y11624D01*
X6156Y11596D01*
X6177Y11567D01*
X6198Y11510D01*
X6198Y11482D01*
X6177Y11424D01*
X6156Y11396D01*
X6113Y11367D01*
X6027Y11367D01*
X5984Y11339D01*
X5963Y11310D01*
X5941Y11253D01*
X5941Y11139D01*
X5963Y11082D01*
X5984Y11053D01*
X6027Y11024D01*
X6113Y11024D01*
X6156Y11053D01*
X6177Y11082D01*
X6198Y11139D01*
X6198Y11253D01*
X6177Y11310D01*
X6156Y11339D01*
X6113Y11367D01*
X6391Y11024D02*
X6391Y11624D01*
X6563Y11624D01*
X6606Y11596D01*
X6627Y11567D01*
X6648Y11510D01*
X6648Y11424D01*
X6627Y11367D01*
X6606Y11339D01*
X6563Y11310D01*
X6391Y11310D01*
X6841Y11253D02*
X7184Y11253D01*
X7398Y11024D02*
X7398Y11624D01*
X7570Y11624D01*
X7613Y11596D01*
X7634Y11567D01*
X7656Y11510D01*
X7656Y11424D01*
X7634Y11367D01*
X7613Y11339D01*
X7570Y11310D01*
X7398Y11310D01*
G54D14*
G54D20*
X26084Y11124D02*
X26084Y10639D01*
X26106Y10582D01*
X26127Y10553D01*
X26170Y10524D01*
X26256Y10524D01*
X26298Y10553D01*
X26320Y10582D01*
X26341Y10639D01*
X26341Y11124D01*
X26513Y11124D02*
X26791Y11124D01*
X26641Y10896D01*
X26706Y10896D01*
X26748Y10867D01*
X26770Y10839D01*
X26791Y10782D01*
X26791Y10639D01*
X26770Y10582D01*
X26748Y10553D01*
X26706Y10524D01*
X26577Y10524D01*
X26534Y10553D01*
X26513Y10582D01*
G54D14*
G54D20*
X24263Y11553D02*
X24327Y11524D01*
X24434Y11524D01*
X24477Y11553D01*
X24498Y11582D01*
X24520Y11639D01*
X24520Y11696D01*
X24498Y11753D01*
X24477Y11782D01*
X24434Y11810D01*
X24348Y11839D01*
X24306Y11867D01*
X24284Y11896D01*
X24263Y11953D01*
X24263Y12010D01*
X24284Y12067D01*
X24306Y12096D01*
X24348Y12124D01*
X24456Y12124D01*
X24520Y12096D01*
X24927Y11524D02*
X24713Y11524D01*
X24713Y12124D01*
X25077Y11753D02*
X25420Y11753D01*
X25634Y11524D02*
X25634Y12124D01*
X25784Y11696D01*
X25934Y12124D01*
X25934Y11524D01*
X26148Y11524D02*
X26148Y12124D01*
X26320Y12124D01*
X26363Y12096D01*
X26384Y12067D01*
X26406Y12010D01*
X26406Y11924D01*
X26384Y11867D01*
X26363Y11839D01*
X26320Y11810D01*
X26148Y11810D01*
X26598Y12124D02*
X26598Y11639D01*
X26620Y11582D01*
X26641Y11553D01*
X26684Y11524D01*
X26770Y11524D01*
X26813Y11553D01*
X26834Y11582D01*
X26856Y11639D01*
X26856Y12124D01*
X27091Y11524D02*
X27177Y11524D01*
X27220Y11553D01*
X27241Y11582D01*
X27284Y11667D01*
X27306Y11782D01*
X27306Y12010D01*
X27284Y12067D01*
X27263Y12096D01*
X27220Y12124D01*
X27134Y12124D01*
X27091Y12096D01*
X27070Y12067D01*
X27048Y12010D01*
X27048Y11867D01*
X27070Y11810D01*
X27091Y11782D01*
X27134Y11753D01*
X27220Y11753D01*
X27263Y11782D01*
X27284Y11810D01*
X27306Y11867D01*
X27734Y11524D02*
X27477Y11524D01*
X27606Y11524D02*
X27606Y12124D01*
X27563Y12039D01*
X27520Y11982D01*
X27477Y11953D01*
X28141Y12124D02*
X27927Y12124D01*
X27906Y11839D01*
X27927Y11867D01*
X27970Y11896D01*
X28077Y11896D01*
X28120Y11867D01*
X28141Y11839D01*
X28163Y11782D01*
X28163Y11639D01*
X28141Y11582D01*
X28120Y11553D01*
X28077Y11524D01*
X27970Y11524D01*
X27927Y11553D01*
X27906Y11582D01*
X28441Y12124D02*
X28484Y12124D01*
X28527Y12096D01*
X28548Y12067D01*
X28570Y12010D01*
X28591Y11896D01*
X28591Y11753D01*
X28570Y11639D01*
X28548Y11582D01*
X28527Y11553D01*
X28484Y11524D01*
X28441Y11524D01*
X28398Y11553D01*
X28377Y11582D01*
X28356Y11639D01*
X28334Y11753D01*
X28334Y11896D01*
X28356Y12010D01*
X28377Y12067D01*
X28398Y12096D01*
X28441Y12124D01*
G54D14*
G54D15*
X8060Y17043D02*
X8041Y17024D01*
X7984Y17005D01*
X7946Y17005D01*
X7889Y17024D01*
X7851Y17062D01*
X7832Y17101D01*
X7813Y17177D01*
X7813Y17234D01*
X7832Y17310D01*
X7851Y17348D01*
X7889Y17386D01*
X7946Y17405D01*
X7984Y17405D01*
X8041Y17386D01*
X8060Y17367D01*
X8403Y17272D02*
X8403Y17005D01*
X8308Y17424D02*
X8213Y17139D01*
X8460Y17139D01*
X5860Y17043D02*
X5841Y17024D01*
X5784Y17005D01*
X5746Y17005D01*
X5689Y17024D01*
X5651Y17062D01*
X5632Y17101D01*
X5613Y17177D01*
X5613Y17234D01*
X5632Y17310D01*
X5651Y17348D01*
X5689Y17386D01*
X5746Y17405D01*
X5784Y17405D01*
X5841Y17386D01*
X5860Y17367D01*
X6222Y17405D02*
X6032Y17405D01*
X6013Y17215D01*
X6032Y17234D01*
X6070Y17253D01*
X6165Y17253D01*
X6203Y17234D01*
X6222Y17215D01*
X6241Y17177D01*
X6241Y17082D01*
X6222Y17043D01*
X6203Y17024D01*
X6165Y17005D01*
X6070Y17005D01*
X6032Y17024D01*
X6013Y17043D01*
X7851Y8301D02*
X7870Y8282D01*
X7889Y8224D01*
X7889Y8186D01*
X7870Y8129D01*
X7832Y8091D01*
X7794Y8072D01*
X7718Y8053D01*
X7660Y8053D01*
X7584Y8072D01*
X7546Y8091D01*
X7508Y8129D01*
X7489Y8186D01*
X7489Y8224D01*
X7508Y8282D01*
X7527Y8301D01*
X7527Y8453D02*
X7508Y8472D01*
X7489Y8510D01*
X7489Y8605D01*
X7508Y8643D01*
X7527Y8662D01*
X7565Y8682D01*
X7603Y8682D01*
X7660Y8662D01*
X7889Y8434D01*
X7889Y8682D01*
X18501Y7501D02*
X18520Y7482D01*
X18539Y7424D01*
X18539Y7386D01*
X18520Y7329D01*
X18482Y7291D01*
X18444Y7272D01*
X18368Y7253D01*
X18310Y7253D01*
X18234Y7272D01*
X18196Y7291D01*
X18158Y7329D01*
X18139Y7386D01*
X18139Y7424D01*
X18158Y7482D01*
X18177Y7501D01*
X18139Y7634D02*
X18139Y7882D01*
X18291Y7748D01*
X18291Y7805D01*
X18310Y7843D01*
X18329Y7862D01*
X18368Y7882D01*
X18463Y7882D01*
X18501Y7862D01*
X18520Y7843D01*
X18539Y7805D01*
X18539Y7691D01*
X18520Y7653D01*
X18501Y7634D01*
X16551Y11301D02*
X16570Y11282D01*
X16589Y11224D01*
X16589Y11186D01*
X16570Y11129D01*
X16532Y11091D01*
X16494Y11072D01*
X16418Y11053D01*
X16360Y11053D01*
X16284Y11072D01*
X16246Y11091D01*
X16208Y11129D01*
X16189Y11186D01*
X16189Y11224D01*
X16208Y11282D01*
X16227Y11301D01*
X16589Y11682D02*
X16589Y11453D01*
X16589Y11567D02*
X16189Y11567D01*
X16246Y11529D01*
X16284Y11491D01*
X16303Y11453D01*
X5841Y2250D02*
X5822Y2231D01*
X5765Y2212D01*
X5727Y2212D01*
X5670Y2231D01*
X5632Y2269D01*
X5613Y2307D01*
X5594Y2383D01*
X5594Y2440D01*
X5613Y2516D01*
X5632Y2554D01*
X5670Y2593D01*
X5727Y2612D01*
X5765Y2612D01*
X5822Y2593D01*
X5841Y2574D01*
X6089Y2612D02*
X6165Y2612D01*
X6203Y2593D01*
X6241Y2554D01*
X6260Y2478D01*
X6260Y2345D01*
X6241Y2269D01*
X6203Y2231D01*
X6165Y2212D01*
X6089Y2212D01*
X6051Y2231D01*
X6013Y2269D01*
X5994Y2345D01*
X5994Y2478D01*
X6013Y2554D01*
X6051Y2593D01*
X6089Y2612D01*
X6432Y2212D02*
X6432Y2612D01*
X6660Y2212D01*
X6660Y2612D01*
X7060Y2212D02*
X6832Y2212D01*
X6946Y2212D02*
X6946Y2612D01*
X6908Y2554D01*
X6870Y2516D01*
X6832Y2497D01*
X2239Y4127D02*
X1839Y4127D01*
X1839Y4222D01*
X1858Y4279D01*
X1896Y4317D01*
X1934Y4336D01*
X2010Y4355D01*
X2068Y4355D01*
X2144Y4336D01*
X2182Y4317D01*
X2220Y4279D01*
X2239Y4222D01*
X2239Y4127D01*
X2201Y4755D02*
X2220Y4736D01*
X2239Y4679D01*
X2239Y4641D01*
X2220Y4584D01*
X2182Y4546D01*
X2144Y4527D01*
X2068Y4508D01*
X2010Y4508D01*
X1934Y4527D01*
X1896Y4546D01*
X1858Y4584D01*
X1839Y4641D01*
X1839Y4679D01*
X1858Y4736D01*
X1877Y4755D01*
X1877Y4908D02*
X1858Y4927D01*
X1839Y4965D01*
X1839Y5060D01*
X1858Y5098D01*
X1877Y5117D01*
X1915Y5136D01*
X1953Y5136D01*
X2010Y5117D01*
X2239Y4889D01*
X2239Y5136D01*
X2201Y5308D02*
X2220Y5327D01*
X2239Y5308D01*
X2220Y5289D01*
X2201Y5308D01*
X2239Y5308D01*
X1839Y5689D02*
X1839Y5498D01*
X2029Y5479D01*
X2010Y5498D01*
X1991Y5536D01*
X1991Y5632D01*
X2010Y5670D01*
X2029Y5689D01*
X2068Y5708D01*
X2163Y5708D01*
X2201Y5689D01*
X2220Y5670D01*
X2239Y5632D01*
X2239Y5536D01*
X2220Y5498D01*
X2201Y5479D01*
X2087Y5879D02*
X2087Y6184D01*
X2239Y6393D02*
X2239Y6470D01*
X2220Y6508D01*
X2201Y6527D01*
X2144Y6565D01*
X2068Y6584D01*
X1915Y6584D01*
X1877Y6565D01*
X1858Y6546D01*
X1839Y6508D01*
X1839Y6432D01*
X1858Y6393D01*
X1877Y6374D01*
X1915Y6355D01*
X2010Y6355D01*
X2048Y6374D01*
X2068Y6393D01*
X2087Y6432D01*
X2087Y6508D01*
X2068Y6546D01*
X2048Y6565D01*
X2010Y6584D01*
X1839Y6698D02*
X2239Y6832D01*
X1839Y6965D01*
G54D10*
X32002Y12138D02*
X32058Y12120D01*
X32152Y12120D01*
X32190Y12138D01*
X32208Y12157D01*
X32227Y12195D01*
X32227Y12232D01*
X32208Y12270D01*
X32190Y12288D01*
X32152Y12307D01*
X32077Y12326D01*
X32040Y12345D01*
X32021Y12363D01*
X32002Y12401D01*
X32002Y12438D01*
X32021Y12476D01*
X32040Y12495D01*
X32077Y12513D01*
X32171Y12513D01*
X32227Y12495D01*
X32358Y12513D02*
X32452Y12120D01*
X32527Y12401D01*
X32602Y12120D01*
X32696Y12513D01*
X32827Y12476D02*
X32846Y12495D01*
X32883Y12513D01*
X32977Y12513D01*
X33014Y12495D01*
X33033Y12476D01*
X33052Y12438D01*
X33052Y12401D01*
X33033Y12345D01*
X32808Y12120D01*
X33052Y12120D01*
X31477Y10302D02*
X31702Y10302D01*
X31590Y9908D02*
X31590Y10302D01*
X31908Y10302D02*
X31983Y10302D01*
X32021Y10283D01*
X32058Y10245D01*
X32077Y10170D01*
X32077Y10039D01*
X32058Y9964D01*
X32021Y9927D01*
X31983Y9908D01*
X31908Y9908D01*
X31871Y9927D01*
X31833Y9964D01*
X31815Y10039D01*
X31815Y10170D01*
X31833Y10245D01*
X31871Y10283D01*
X31908Y10302D01*
X32452Y10283D02*
X32415Y10302D01*
X32358Y10302D01*
X32302Y10283D01*
X32265Y10245D01*
X32246Y10208D01*
X32227Y10133D01*
X32227Y10077D01*
X32246Y10002D01*
X32265Y9964D01*
X32302Y9927D01*
X32358Y9908D01*
X32396Y9908D01*
X32452Y9927D01*
X32471Y9945D01*
X32471Y10077D01*
X32396Y10077D01*
X32846Y10283D02*
X32808Y10302D01*
X32752Y10302D01*
X32696Y10283D01*
X32658Y10245D01*
X32640Y10208D01*
X32621Y10133D01*
X32621Y10077D01*
X32640Y10002D01*
X32658Y9964D01*
X32696Y9927D01*
X32752Y9908D01*
X32790Y9908D01*
X32846Y9927D01*
X32865Y9945D01*
X32865Y10077D01*
X32790Y10077D01*
X33221Y9908D02*
X33033Y9908D01*
X33033Y10302D01*
X33352Y10114D02*
X33483Y10114D01*
X33539Y9908D02*
X33352Y9908D01*
X33352Y10302D01*
X33539Y10302D01*
X35702Y12138D02*
X35758Y12120D01*
X35852Y12120D01*
X35890Y12138D01*
X35908Y12157D01*
X35927Y12195D01*
X35927Y12232D01*
X35908Y12270D01*
X35890Y12288D01*
X35852Y12307D01*
X35777Y12326D01*
X35740Y12345D01*
X35721Y12363D01*
X35702Y12401D01*
X35702Y12438D01*
X35721Y12476D01*
X35740Y12495D01*
X35777Y12513D01*
X35871Y12513D01*
X35927Y12495D01*
X36058Y12513D02*
X36152Y12120D01*
X36227Y12401D01*
X36302Y12120D01*
X36396Y12513D01*
X36714Y12382D02*
X36714Y12120D01*
X36621Y12532D02*
X36527Y12251D01*
X36771Y12251D01*
X35599Y9908D02*
X35599Y10302D01*
X35824Y9908D01*
X35824Y10302D01*
X36011Y10114D02*
X36143Y10114D01*
X36199Y9908D02*
X36011Y9908D01*
X36011Y10302D01*
X36199Y10302D01*
X36330Y10302D02*
X36593Y9908D01*
X36593Y10302D02*
X36330Y9908D01*
X36686Y10302D02*
X36911Y10302D01*
X36799Y9908D02*
X36799Y10302D01*
X35702Y15338D02*
X35758Y15320D01*
X35852Y15320D01*
X35890Y15338D01*
X35908Y15357D01*
X35927Y15395D01*
X35927Y15432D01*
X35908Y15470D01*
X35890Y15488D01*
X35852Y15507D01*
X35777Y15526D01*
X35740Y15545D01*
X35721Y15563D01*
X35702Y15601D01*
X35702Y15638D01*
X35721Y15676D01*
X35740Y15695D01*
X35777Y15713D01*
X35871Y15713D01*
X35927Y15695D01*
X36058Y15713D02*
X36152Y15320D01*
X36227Y15601D01*
X36302Y15320D01*
X36396Y15713D01*
X36508Y15713D02*
X36752Y15713D01*
X36621Y15563D01*
X36677Y15563D01*
X36714Y15545D01*
X36733Y15526D01*
X36752Y15488D01*
X36752Y15395D01*
X36733Y15357D01*
X36714Y15338D01*
X36677Y15320D01*
X36565Y15320D01*
X36527Y15338D01*
X36508Y15357D01*
X35449Y13327D02*
X35505Y13308D01*
X35599Y13308D01*
X35637Y13327D01*
X35655Y13345D01*
X35674Y13383D01*
X35674Y13420D01*
X35655Y13458D01*
X35637Y13477D01*
X35599Y13495D01*
X35524Y13514D01*
X35487Y13533D01*
X35468Y13552D01*
X35449Y13589D01*
X35449Y13627D01*
X35468Y13664D01*
X35487Y13683D01*
X35524Y13702D01*
X35618Y13702D01*
X35674Y13683D01*
X35786Y13702D02*
X36011Y13702D01*
X35899Y13308D02*
X35899Y13702D01*
X36124Y13420D02*
X36311Y13420D01*
X36086Y13308D02*
X36218Y13702D01*
X36349Y13308D01*
X36705Y13308D02*
X36574Y13495D01*
X36480Y13308D02*
X36480Y13702D01*
X36630Y13702D01*
X36668Y13683D01*
X36686Y13664D01*
X36705Y13627D01*
X36705Y13570D01*
X36686Y13533D01*
X36668Y13514D01*
X36630Y13495D01*
X36480Y13495D01*
X36818Y13702D02*
X37043Y13702D01*
X36930Y13308D02*
X36930Y13702D01*
X32002Y15338D02*
X32058Y15320D01*
X32152Y15320D01*
X32190Y15338D01*
X32208Y15357D01*
X32227Y15395D01*
X32227Y15432D01*
X32208Y15470D01*
X32190Y15488D01*
X32152Y15507D01*
X32077Y15526D01*
X32040Y15545D01*
X32021Y15563D01*
X32002Y15601D01*
X32002Y15638D01*
X32021Y15676D01*
X32040Y15695D01*
X32077Y15713D01*
X32171Y15713D01*
X32227Y15695D01*
X32358Y15713D02*
X32452Y15320D01*
X32527Y15601D01*
X32602Y15320D01*
X32696Y15713D01*
X33052Y15320D02*
X32827Y15320D01*
X32940Y15320D02*
X32940Y15713D01*
X32902Y15657D01*
X32865Y15620D01*
X32827Y15601D01*
X31862Y13327D02*
X31918Y13308D01*
X32011Y13308D01*
X32049Y13327D01*
X32068Y13345D01*
X32086Y13383D01*
X32086Y13420D01*
X32068Y13458D01*
X32049Y13477D01*
X32011Y13495D01*
X31937Y13514D01*
X31899Y13533D01*
X31880Y13552D01*
X31862Y13589D01*
X31862Y13627D01*
X31880Y13664D01*
X31899Y13683D01*
X31937Y13702D01*
X32030Y13702D01*
X32086Y13683D01*
X32199Y13702D02*
X32424Y13702D01*
X32311Y13308D02*
X32311Y13702D01*
X32630Y13702D02*
X32705Y13702D01*
X32743Y13683D01*
X32780Y13645D01*
X32799Y13570D01*
X32799Y13439D01*
X32780Y13364D01*
X32743Y13327D01*
X32705Y13308D01*
X32630Y13308D01*
X32593Y13327D01*
X32555Y13364D01*
X32536Y13439D01*
X32536Y13570D01*
X32555Y13645D01*
X32593Y13683D01*
X32630Y13702D01*
X32968Y13308D02*
X32968Y13702D01*
X33118Y13702D01*
X33155Y13683D01*
X33174Y13664D01*
X33193Y13627D01*
X33193Y13570D01*
X33174Y13533D01*
X33155Y13514D01*
X33118Y13495D01*
X32968Y13495D01*
X16190Y14671D02*
X16152Y14690D01*
X16115Y14727D01*
X16058Y14784D01*
X16021Y14802D01*
X15983Y14802D01*
X16002Y14709D02*
X15965Y14727D01*
X15927Y14765D01*
X15908Y14840D01*
X15908Y14971D01*
X15927Y15046D01*
X15965Y15084D01*
X16002Y15102D01*
X16077Y15102D01*
X16115Y15084D01*
X16152Y15046D01*
X16171Y14971D01*
X16171Y14840D01*
X16152Y14765D01*
X16115Y14727D01*
X16077Y14709D01*
X16002Y14709D01*
X16546Y14709D02*
X16321Y14709D01*
X16433Y14709D02*
X16433Y15102D01*
X16396Y15046D01*
X16358Y15009D01*
X16321Y14990D01*
X14980Y17388D02*
X14999Y17406D01*
X15037Y17425D01*
X15130Y17425D01*
X15168Y17406D01*
X15187Y17388D01*
X15205Y17350D01*
X15205Y17313D01*
X15187Y17256D01*
X14962Y17031D01*
X15205Y17031D01*
X15355Y17050D02*
X15412Y17031D01*
X15505Y17031D01*
X15543Y17050D01*
X15562Y17069D01*
X15580Y17106D01*
X15580Y17144D01*
X15562Y17181D01*
X15543Y17200D01*
X15505Y17219D01*
X15430Y17238D01*
X15393Y17256D01*
X15374Y17275D01*
X15355Y17313D01*
X15355Y17350D01*
X15374Y17388D01*
X15393Y17406D01*
X15430Y17425D01*
X15524Y17425D01*
X15580Y17406D01*
X15974Y17069D02*
X15955Y17050D01*
X15899Y17031D01*
X15861Y17031D01*
X15805Y17050D01*
X15768Y17088D01*
X15749Y17125D01*
X15730Y17200D01*
X15730Y17256D01*
X15749Y17331D01*
X15768Y17369D01*
X15805Y17406D01*
X15861Y17425D01*
X15899Y17425D01*
X15955Y17406D01*
X15974Y17388D01*
X16349Y17031D02*
X16124Y17031D01*
X16236Y17031D02*
X16236Y17425D01*
X16199Y17369D01*
X16161Y17331D01*
X16124Y17313D01*
X16574Y17256D02*
X16536Y17275D01*
X16518Y17294D01*
X16499Y17331D01*
X16499Y17350D01*
X16518Y17388D01*
X16536Y17406D01*
X16574Y17425D01*
X16649Y17425D01*
X16686Y17406D01*
X16705Y17388D01*
X16724Y17350D01*
X16724Y17331D01*
X16705Y17294D01*
X16686Y17275D01*
X16649Y17256D01*
X16574Y17256D01*
X16536Y17238D01*
X16518Y17219D01*
X16499Y17181D01*
X16499Y17106D01*
X16518Y17069D01*
X16536Y17050D01*
X16574Y17031D01*
X16649Y17031D01*
X16686Y17050D01*
X16705Y17069D01*
X16724Y17106D01*
X16724Y17181D01*
X16705Y17219D01*
X16686Y17238D01*
X16649Y17256D01*
X17099Y17031D02*
X16874Y17031D01*
X16986Y17031D02*
X16986Y17425D01*
X16949Y17369D01*
X16911Y17331D01*
X16874Y17313D01*
X17455Y17425D02*
X17268Y17425D01*
X17249Y17238D01*
X17268Y17256D01*
X17305Y17275D01*
X17399Y17275D01*
X17436Y17256D01*
X17455Y17238D01*
X17474Y17200D01*
X17474Y17106D01*
X17455Y17069D01*
X17436Y17050D01*
X17399Y17031D01*
X17305Y17031D01*
X17268Y17050D01*
X17249Y17069D01*
X33230Y4711D02*
X33511Y4711D01*
X33567Y4692D01*
X33605Y4655D01*
X33623Y4598D01*
X33623Y4561D01*
X33623Y5104D02*
X33623Y4880D01*
X33623Y4992D02*
X33230Y4992D01*
X33286Y4955D01*
X33323Y4917D01*
X33342Y4880D01*
%LPC*%
G54D21*
X9827Y2867D03*
X9827Y3867D03*
X9827Y7867D03*
X10827Y2867D03*
X11827Y2867D03*
X12827Y2867D03*
X13827Y2867D03*
X16827Y2867D03*
X16827Y7867D03*
X15827Y7867D03*
X16827Y3867D03*
X10827Y7867D03*
G54D22*
X28027Y14717D03*
G54D23*
X27027Y14717D03*
X26027Y14717D03*
X25027Y14717D03*
X24027Y14717D03*
X23027Y14717D03*
G54D22*
X7311Y18110D03*
G54D23*
X8311Y18110D03*
X9311Y18110D03*
X10311Y18110D03*
X11311Y18110D03*
X12311Y18110D03*
X13311Y18110D03*
X14311Y18110D03*
X15311Y18110D03*
X16311Y18110D03*
G54D21*
X2527Y8417D03*
X6527Y8417D03*
X6527Y7417D03*
X2527Y7417D03*
X14277Y14817D03*
X10277Y14817D03*
X10577Y16167D03*
X14577Y16167D03*
X17427Y14567D03*
X21427Y14567D03*
X18027Y15667D03*
X22027Y15667D03*
G54D24*
X30477Y4567D03*
G54D21*
X30477Y3567D03*
X29477Y4567D03*
X29477Y3567D03*
X28477Y4567D03*
X28477Y3567D03*
G54D24*
X28027Y15767D03*
G54D21*
X27027Y15767D03*
X26027Y15767D03*
G54D24*
X3427Y6067D03*
G54D21*
X3427Y5067D03*
G54D24*
X30627Y6967D03*
G54D21*
X30627Y7967D03*
G54D24*
X29627Y6967D03*
G54D21*
X29627Y7967D03*
G54D24*
X28627Y6967D03*
G54D21*
X28627Y7967D03*
G54D25*
X6127Y14567D03*
X8127Y14567D03*
G54D22*
X22277Y12767D03*
G54D23*
X21277Y12767D03*
X20277Y12767D03*
X19277Y12767D03*
X19277Y9767D03*
X20277Y9767D03*
X21277Y9767D03*
X22277Y9767D03*
X14627Y12767D03*
X13627Y12767D03*
X12627Y12767D03*
X11627Y12767D03*
X10627Y12767D03*
X9627Y12767D03*
X8627Y12767D03*
X7627Y12767D03*
X6627Y12767D03*
X5627Y12767D03*
X4627Y12767D03*
X3627Y12767D03*
X2627Y12767D03*
G54D22*
X15627Y12767D03*
G54D23*
X2627Y9767D03*
X3627Y9767D03*
X4627Y9767D03*
X5627Y9767D03*
X6627Y9767D03*
X7627Y9767D03*
X8627Y9767D03*
X9627Y9767D03*
X10627Y9767D03*
X11627Y9767D03*
X12627Y9767D03*
X13627Y9767D03*
X14627Y9767D03*
X15627Y9767D03*
G54D22*
X28427Y12767D03*
G54D23*
X27427Y12767D03*
X26427Y12767D03*
X25427Y12767D03*
X24427Y12767D03*
X24427Y9767D03*
X25427Y9767D03*
X26427Y9767D03*
X27427Y9767D03*
X28427Y9767D03*
X8727Y16367D03*
X7727Y16367D03*
X5427Y16367D03*
X6427Y16367D03*
X8627Y7767D03*
X8627Y8767D03*
X19277Y6967D03*
X19277Y7967D03*
X17327Y10767D03*
X17327Y11767D03*
G54D26*
X6299Y5984D03*
X6299Y3622D03*
X8149Y4803D03*
G54D27*
X31248Y10881D03*
X31248Y12653D03*
X33807Y12653D03*
X33807Y10881D03*
X34948Y10881D03*
X34948Y12653D03*
X37507Y12653D03*
X37507Y10881D03*
X34948Y14081D03*
X34948Y15853D03*
X37507Y15853D03*
X37507Y14081D03*
X31248Y14081D03*
X31248Y15853D03*
X33807Y15853D03*
X33807Y14081D03*
G54D28*
X16227Y16167D03*
X15727Y16167D03*
X16727Y16167D03*
G54D29*
X2362Y28740D03*
X2362Y2755D03*
X37401Y28740D03*
X37401Y2755D03*
G54D30*
X32559Y5905D03*
X34370Y5905D03*
X32007Y2952D03*
X34921Y2952D03*
G54D31*
X34448Y4330D03*
X32480Y4330D03*
G54D21*
X35727Y16967D03*
X36727Y16967D03*
X36727Y7317D03*
X35727Y7317D03*
X13627Y7667D03*
X14627Y7667D03*
X13627Y8967D03*
X14627Y8967D03*
X27927Y9067D03*
X26927Y9067D03*
M02*
