M48
;DRILL file {Pcbnew (2013-07-07 BZR 4022)-stable} date 2014/09/12 23:25:31
;FORMAT={3:3/ absolute / metric / suppress leading zeros}
FMAT,2
METRIC,TZ
T1C0.500
T2C0.762
T3C0.813
T4C1.000
T5C1.001
T6C1.016
T7C1.400
%
G90
G05
M71
T1
X39948Y41066
X41218Y41066
X42488Y41066
T2
X15564Y37002
X20644Y37002
T3
X6420Y21381
X6420Y18841
X6674Y32430
X6674Y24810
X9214Y32430
X9214Y24810
X11754Y32430
X11754Y24810
X13786Y41574
X14294Y32430
X14294Y24810
X16326Y41574
X16580Y21381
X16580Y18841
X16834Y32430
X16834Y24810
X18570Y46000
X19374Y32430
X19374Y24810
X19628Y41574
X21110Y46000
X21914Y32430
X21914Y24810
X21914Y22270
X21914Y19730
X22168Y41574
X23650Y46000
X24454Y32430
X24454Y24810
X26105Y37637
X26190Y46000
X26867Y41066
X26994Y32430
X26994Y24810
X28730Y46000
X29534Y32430
X29534Y24810
X31270Y46000
X32074Y32430
X32074Y24810
X33810Y46000
X34614Y32430
X34614Y24810
X36265Y37637
X36350Y46000
X37027Y41066
X37154Y32430
X37154Y24810
X38890Y46000
X39694Y32430
X39694Y24810
X41430Y46000
X44012Y29890
X44012Y27350
X44266Y37002
X45790Y39796
X48965Y32430
X48965Y24810
X48965Y20238
X48965Y17698
X51505Y32430
X51505Y24810
X54045Y32430
X54045Y24810
X54426Y37002
X55950Y39796
X56585Y32430
X56585Y24810
X58490Y37383
X61030Y37383
X62046Y32430
X62046Y24810
X63570Y37383
X64586Y32430
X64586Y24810
X66110Y37383
X67126Y32430
X67126Y24810
X68650Y37383
X69666Y32430
X69666Y24810
X71190Y37383
X72206Y32430
X72206Y24810
T4
X79370Y40268
X79370Y35768
X79370Y32140
X79370Y27640
X85870Y40268
X85870Y35768
X85870Y32140
X85870Y27640
X88768Y40268
X88768Y35768
X88768Y32140
X88768Y27640
X95268Y40268
X95268Y35768
X95268Y32140
X95268Y27640
T6
X8706Y15412
X8706Y12872
X24962Y19984
X24962Y9824
X24962Y7284
X27502Y19984
X27502Y7284
X30042Y7284
X32582Y7284
X34614Y22778
X34614Y19476
X35122Y7284
X37154Y22778
X37154Y19476
X40202Y19984
X42742Y19984
X42742Y9824
X42742Y7284
X66110Y40050
X68396Y23032
X68650Y40050
X70936Y23032
X71190Y40050
X72333Y11602
X72333Y9062
X72714Y20238
X72714Y17698
X74873Y11602
X74873Y9062
X75254Y20238
X75254Y17698
X77413Y11602
X77413Y9062
X77794Y20238
X77794Y17698
X90748Y43098
X90748Y18587
X93288Y43098
X93288Y18587
T7
X81300Y7500
X82700Y15000
X87300Y15000
X88700Y7500
T5
X15001Y15200G85X16999Y15200
G05
X15001Y9201G85X16999Y9201
G05
X20699Y11201G85X20699Y13200
G05
T0
M30
