G04 (created by PCBNEW (2013-jul-07)-stable) date 2014年09月14日 18時05分48秒*
%MOIN*%
G04 Gerber Fmt 3.4, Leading zero omitted, Abs format*
%FSLAX34Y34*%
G01*
G70*
G90*
G04 APERTURE LIST*
%ADD10C,0.006*%
%ADD11C,0.06*%
%ADD12R,0.055X0.055*%
%ADD13C,0.055*%
%ADD14R,0.06X0.06*%
%ADD15C,0.056*%
%ADD16R,0.0393701X0.0866142*%
%ADD17R,0.0275591X0.0866142*%
%ADD18R,0.0255906X0.0866142*%
%ADD19R,0.0787402X0.0472441*%
%ADD20R,0.0787402X0.0314961*%
%ADD21R,0.0787402X0.110236*%
%ADD22R,0.0905512X0.0748031*%
%ADD23R,0.1378X0.1378*%
%ADD24C,0.0787402*%
%ADD25C,0.0393701*%
%ADD26C,0.0944882*%
%ADD27C,0.016*%
%ADD28C,0.008*%
%ADD29C,0.01*%
G04 APERTURE END LIST*
G54D10*
G54D11*
X9827Y2867D03*
X9827Y3867D03*
X9827Y7867D03*
X10827Y2867D03*
X11827Y2867D03*
X12827Y2867D03*
X13827Y2867D03*
X16827Y2867D03*
X16827Y7867D03*
X15827Y7867D03*
X16827Y3867D03*
X10827Y7867D03*
G54D12*
X28027Y14717D03*
G54D13*
X27027Y14717D03*
X26027Y14717D03*
X25027Y14717D03*
X24027Y14717D03*
X23027Y14717D03*
G54D12*
X7311Y18110D03*
G54D13*
X8311Y18110D03*
X9311Y18110D03*
X10311Y18110D03*
X11311Y18110D03*
X12311Y18110D03*
X13311Y18110D03*
X14311Y18110D03*
X15311Y18110D03*
X16311Y18110D03*
G54D11*
X2527Y8417D03*
X6527Y8417D03*
X6527Y7417D03*
X2527Y7417D03*
X14277Y14817D03*
X10277Y14817D03*
X10577Y16167D03*
X14577Y16167D03*
X17427Y14567D03*
X21427Y14567D03*
X18027Y15667D03*
X22027Y15667D03*
G54D14*
X30477Y4567D03*
G54D11*
X30477Y3567D03*
X29477Y4567D03*
X29477Y3567D03*
X28477Y4567D03*
X28477Y3567D03*
G54D14*
X28027Y15767D03*
G54D11*
X27027Y15767D03*
X26027Y15767D03*
G54D14*
X3427Y6067D03*
G54D11*
X3427Y5067D03*
G54D14*
X30627Y6967D03*
G54D11*
X30627Y7967D03*
G54D14*
X29627Y6967D03*
G54D11*
X29627Y7967D03*
G54D14*
X28627Y6967D03*
G54D11*
X28627Y7967D03*
G54D15*
X6127Y14567D03*
X8127Y14567D03*
G54D16*
X21437Y8464D03*
G54D17*
X22047Y8464D03*
X22480Y8464D03*
X22913Y8464D03*
X23346Y8464D03*
X23779Y8464D03*
X24212Y8464D03*
X24645Y8464D03*
G54D18*
X25078Y8464D03*
X25452Y8464D03*
G54D19*
X26023Y6574D03*
G54D20*
X26023Y4133D03*
G54D21*
X26023Y2500D03*
G54D22*
X20314Y2322D03*
G54D12*
X22277Y12767D03*
G54D13*
X21277Y12767D03*
X20277Y12767D03*
X19277Y12767D03*
X19277Y9767D03*
X20277Y9767D03*
X21277Y9767D03*
X22277Y9767D03*
X14627Y12767D03*
X13627Y12767D03*
X12627Y12767D03*
X11627Y12767D03*
X10627Y12767D03*
X9627Y12767D03*
X8627Y12767D03*
X7627Y12767D03*
X6627Y12767D03*
X5627Y12767D03*
X4627Y12767D03*
X3627Y12767D03*
X2627Y12767D03*
G54D12*
X15627Y12767D03*
G54D13*
X2627Y9767D03*
X3627Y9767D03*
X4627Y9767D03*
X5627Y9767D03*
X6627Y9767D03*
X7627Y9767D03*
X8627Y9767D03*
X9627Y9767D03*
X10627Y9767D03*
X11627Y9767D03*
X12627Y9767D03*
X13627Y9767D03*
X14627Y9767D03*
X15627Y9767D03*
G54D12*
X28427Y12767D03*
G54D13*
X27427Y12767D03*
X26427Y12767D03*
X25427Y12767D03*
X24427Y12767D03*
X24427Y9767D03*
X25427Y9767D03*
X26427Y9767D03*
X27427Y9767D03*
X28427Y9767D03*
X8727Y16367D03*
X7727Y16367D03*
X5427Y16367D03*
X6427Y16367D03*
X8627Y7767D03*
X8627Y8767D03*
X19277Y6967D03*
X19277Y7967D03*
X17327Y10767D03*
X17327Y11767D03*
G54D23*
X6299Y5984D03*
X6299Y3622D03*
X8149Y4803D03*
G54D24*
X31248Y10881D03*
X31248Y12653D03*
X33807Y12653D03*
X33807Y10881D03*
X34948Y10881D03*
X34948Y12653D03*
X37507Y12653D03*
X37507Y10881D03*
X34948Y14081D03*
X34948Y15853D03*
X37507Y15853D03*
X37507Y14081D03*
X31248Y14081D03*
X31248Y15853D03*
X33807Y15853D03*
X33807Y14081D03*
G54D25*
X16227Y16167D03*
X15727Y16167D03*
X16727Y16167D03*
G54D26*
X32559Y5905D03*
X34370Y5905D03*
X32007Y2952D03*
X34921Y2952D03*
G54D11*
X35727Y16967D03*
X36727Y16967D03*
X36727Y7317D03*
X35727Y7317D03*
X13627Y7667D03*
X14627Y7667D03*
X13627Y8967D03*
X14627Y8967D03*
X27927Y9067D03*
X26927Y9067D03*
G54D27*
X31627Y22867D02*
X36227Y18267D01*
X36227Y12367D02*
X36227Y12517D01*
X36227Y18267D02*
X36227Y12517D01*
X2127Y18667D02*
X2127Y11917D01*
X2127Y11917D02*
X2477Y11567D01*
X6327Y22867D02*
X31627Y22867D01*
X2127Y18667D02*
X6327Y22867D01*
X10327Y11267D02*
X10477Y11117D01*
X10027Y11567D02*
X10327Y11267D01*
X16677Y11117D02*
X17327Y11767D01*
X10477Y11117D02*
X16677Y11117D01*
X2477Y11567D02*
X10027Y11567D01*
X30477Y3567D02*
X30677Y3767D01*
X36227Y4117D02*
X35877Y3767D01*
X35877Y3767D02*
X31627Y3767D01*
X36227Y4117D02*
X36227Y12367D01*
X30677Y3767D02*
X31627Y3767D01*
X11311Y18110D02*
X11311Y19501D01*
X11311Y19501D02*
X12177Y20367D01*
X19277Y12767D02*
X19277Y14417D01*
X19277Y14417D02*
X18027Y15667D01*
X11177Y15867D02*
X10877Y15867D01*
X15627Y14567D02*
X14852Y13792D01*
X14852Y13792D02*
X13252Y13792D01*
X13252Y13792D02*
X11177Y15867D01*
X17427Y14567D02*
X15627Y14567D01*
X10877Y15867D02*
X10577Y16167D01*
X8627Y8767D02*
X9327Y8767D01*
X13877Y8317D02*
X14127Y8067D01*
X13477Y8317D02*
X13877Y8317D01*
X13127Y8667D02*
X13477Y8317D01*
X9427Y8667D02*
X13127Y8667D01*
X9327Y8767D02*
X9427Y8667D01*
X27427Y12767D02*
X26727Y13467D01*
X24677Y17167D02*
X25327Y17167D01*
X22427Y14917D02*
X24677Y17167D01*
X22427Y14317D02*
X22427Y14917D01*
X23277Y13467D02*
X22427Y14317D01*
X26727Y13467D02*
X23277Y13467D01*
X27027Y14717D02*
X27027Y14467D01*
X27027Y14467D02*
X26727Y14167D01*
X26727Y14167D02*
X24927Y14167D01*
X24927Y14167D02*
X24527Y14567D01*
X24527Y14567D02*
X24527Y16367D01*
X24527Y16367D02*
X25327Y17167D01*
X29227Y17167D02*
X29627Y17567D01*
X25327Y17167D02*
X29227Y17167D01*
X16827Y3867D02*
X16727Y3867D01*
X16727Y3867D02*
X14127Y6467D01*
X14127Y8067D02*
X14127Y6467D01*
X17327Y11767D02*
X17327Y11767D01*
X14127Y9067D02*
X14127Y9917D01*
X14127Y10217D02*
X14127Y9917D01*
X14277Y10367D02*
X14127Y10217D01*
X16127Y10367D02*
X14277Y10367D01*
X16227Y10267D02*
X16127Y10367D01*
X17577Y10267D02*
X16227Y10267D01*
X17877Y10567D02*
X17577Y10267D01*
X17877Y11217D02*
X17877Y10567D01*
X17327Y11767D02*
X17877Y11217D01*
X14127Y9067D02*
X14127Y8067D01*
X17677Y6917D02*
X17677Y4717D01*
X19277Y7967D02*
X18727Y7967D01*
X17752Y6992D02*
X17677Y6917D01*
X18727Y7967D02*
X17752Y6992D01*
X17677Y4717D02*
X16827Y3867D01*
X22277Y12767D02*
X22277Y12717D01*
X22277Y12717D02*
X23227Y11767D01*
X23027Y11767D02*
X20277Y11767D01*
X20277Y11767D02*
X19277Y12767D01*
X36227Y12367D02*
X35427Y11567D01*
X29627Y18117D02*
X29627Y17567D01*
X29627Y17567D02*
X29627Y15667D01*
X29627Y15667D02*
X29627Y12767D01*
X35277Y11567D02*
X30827Y11567D01*
X7927Y20367D02*
X7311Y19751D01*
X7311Y19751D02*
X7311Y18110D01*
X29627Y18117D02*
X27377Y20367D01*
X27377Y20367D02*
X12177Y20367D01*
X12177Y20367D02*
X9968Y20367D01*
X9968Y20367D02*
X7927Y20367D01*
X29627Y12767D02*
X30827Y11567D01*
X35277Y11567D02*
X35427Y11567D01*
X18027Y15667D02*
X18027Y15167D01*
X18027Y15167D02*
X17427Y14567D01*
X19277Y9767D02*
X19277Y7967D01*
X9627Y12767D02*
X9627Y12667D01*
X16577Y11767D02*
X17327Y11767D01*
X16327Y11517D02*
X16577Y11767D01*
X10777Y11517D02*
X16327Y11517D01*
X9627Y12667D02*
X10777Y11517D01*
X27427Y12767D02*
X27427Y12067D01*
X27427Y12067D02*
X27127Y11767D01*
X27027Y11767D02*
X27127Y11767D01*
X27127Y11767D02*
X28227Y11767D01*
X27027Y11767D02*
X26427Y11767D01*
X26427Y11767D02*
X23227Y11767D01*
X23227Y11767D02*
X23027Y11767D01*
X28427Y11967D02*
X28427Y12767D01*
X28227Y11767D02*
X28427Y11967D01*
X19277Y7967D02*
X20227Y7967D01*
X23346Y7786D02*
X23346Y8464D01*
X23077Y7517D02*
X23346Y7786D01*
X20677Y7517D02*
X23077Y7517D01*
X20227Y7967D02*
X20677Y7517D01*
X7627Y9767D02*
X8627Y9767D01*
X8627Y9767D02*
X8627Y8767D01*
X6299Y5984D02*
X5227Y7055D01*
X5627Y8417D02*
X6527Y8417D01*
X5227Y8017D02*
X5627Y8417D01*
X5227Y7055D02*
X5227Y8017D01*
X9827Y3867D02*
X10827Y3867D01*
X10827Y3867D02*
X11827Y2867D01*
X6299Y5984D02*
X3510Y5984D01*
X3510Y5984D02*
X3427Y6067D01*
X9827Y3867D02*
X9827Y5526D01*
X9370Y5984D02*
X6299Y5984D01*
X9827Y5526D02*
X9370Y5984D01*
X9827Y3867D02*
X9827Y2867D01*
G54D28*
X30327Y6367D02*
X30227Y6367D01*
X31789Y5905D02*
X31327Y6367D01*
X31327Y6367D02*
X30327Y6367D01*
X32559Y5905D02*
X31789Y5905D01*
X30227Y6367D02*
X29627Y6967D01*
X29577Y6117D02*
X29477Y6117D01*
X34370Y5610D02*
X33777Y5017D01*
X33777Y5017D02*
X32277Y5017D01*
X32277Y5017D02*
X31177Y6117D01*
X31177Y6117D02*
X29577Y6117D01*
X34370Y5905D02*
X34370Y5610D01*
X29477Y6117D02*
X28627Y6967D01*
X2527Y8417D02*
X2527Y8867D01*
X9427Y10967D02*
X10627Y9767D01*
X2177Y9967D02*
X2177Y9217D01*
X3177Y10967D02*
X2177Y9967D01*
X9427Y10967D02*
X3177Y10967D01*
X2527Y8867D02*
X2177Y9217D01*
X2527Y7417D02*
X2527Y8417D01*
X10627Y9767D02*
X10427Y9767D01*
X26027Y15767D02*
X26027Y14717D01*
X27027Y15767D02*
X27027Y15867D01*
X25027Y16267D02*
X25027Y14717D01*
X25327Y16567D02*
X25027Y16267D01*
X26327Y16567D02*
X25327Y16567D01*
X27027Y15867D02*
X26327Y16567D01*
X30427Y13767D02*
X30427Y19067D01*
X34948Y12653D02*
X34948Y12747D01*
X34948Y12747D02*
X34327Y13367D01*
X34327Y13367D02*
X30827Y13367D01*
X30827Y13367D02*
X30427Y13767D01*
X5027Y13367D02*
X5627Y12767D01*
X4427Y13367D02*
X5027Y13367D01*
X3727Y14067D02*
X4427Y13367D01*
X3727Y18667D02*
X3727Y14067D01*
X6527Y21467D02*
X3727Y18667D01*
X28027Y21467D02*
X6527Y21467D01*
X30427Y19067D02*
X28027Y21467D01*
X30627Y6967D02*
X31477Y7817D01*
X29077Y12117D02*
X29077Y13217D01*
X29077Y13217D02*
X28377Y13917D01*
X30227Y9567D02*
X31477Y8317D01*
X30227Y10967D02*
X30227Y9567D01*
X30227Y10967D02*
X29077Y12117D01*
X24027Y14267D02*
X24027Y14717D01*
X24377Y13917D02*
X24027Y14267D01*
X24377Y13917D02*
X28377Y13917D01*
X31477Y7817D02*
X31477Y8317D01*
X22577Y15467D02*
X21677Y14567D01*
X8311Y18301D02*
X8677Y18667D01*
X8677Y18667D02*
X9577Y18667D01*
X9577Y18667D02*
X9827Y18417D01*
X9827Y18417D02*
X9827Y17667D01*
X9827Y17667D02*
X10527Y16967D01*
X10527Y16967D02*
X10877Y16967D01*
X10877Y16967D02*
X13577Y14267D01*
X13577Y14267D02*
X14627Y14267D01*
X14627Y14267D02*
X15477Y15117D01*
X15477Y15117D02*
X16377Y15117D01*
X16377Y15117D02*
X17727Y16467D01*
X17727Y16467D02*
X22177Y16467D01*
X22177Y16467D02*
X22577Y16067D01*
X22577Y16067D02*
X22577Y15467D01*
X8311Y18110D02*
X8311Y18301D01*
X21677Y14567D02*
X21427Y14567D01*
X10577Y15317D02*
X12127Y13767D01*
X18227Y11717D02*
X18227Y10617D01*
X18227Y10617D02*
X17377Y9767D01*
X15627Y9767D02*
X17377Y9767D01*
X12127Y13767D02*
X12127Y12517D01*
X17527Y12417D02*
X18227Y11717D01*
X16727Y12417D02*
X17527Y12417D01*
X16127Y11817D02*
X16727Y12417D01*
X12827Y11817D02*
X16127Y11817D01*
X12127Y12517D02*
X12827Y11817D01*
X9727Y16767D02*
X9727Y15917D01*
X8385Y18110D02*
X8311Y18110D01*
X8385Y18110D02*
X9727Y16767D01*
X10327Y15317D02*
X10577Y15317D01*
X9727Y15917D02*
X10327Y15317D01*
X22427Y13967D02*
X22027Y13967D01*
X22027Y13967D02*
X21427Y14567D01*
X26427Y12767D02*
X25977Y13217D01*
X25127Y13217D02*
X25977Y13217D01*
X24927Y13017D02*
X25127Y13217D01*
X24927Y12417D02*
X24927Y13017D01*
X24777Y12267D02*
X24927Y12417D01*
X24127Y12267D02*
X24777Y12267D01*
X22427Y13967D02*
X24127Y12267D01*
X21277Y12767D02*
X21277Y14417D01*
X21277Y14417D02*
X21427Y14567D01*
X22027Y15667D02*
X21477Y16217D01*
X10127Y16667D02*
X9927Y16867D01*
X10777Y16667D02*
X10127Y16667D01*
X13427Y14017D02*
X10777Y16667D01*
X14727Y14017D02*
X13427Y14017D01*
X15527Y14817D02*
X14727Y14017D01*
X16477Y14817D02*
X15527Y14817D01*
X17877Y16217D02*
X16477Y14817D01*
X21477Y16217D02*
X17877Y16217D01*
X20277Y12767D02*
X20277Y14817D01*
X21127Y15667D02*
X22027Y15667D01*
X20277Y14817D02*
X21127Y15667D01*
X22577Y13367D02*
X22027Y13367D01*
X23927Y12017D02*
X22577Y13367D01*
X24877Y12017D02*
X23927Y12017D01*
X25427Y12567D02*
X24877Y12017D01*
X25427Y12767D02*
X25427Y12567D01*
X20827Y12217D02*
X20277Y12767D01*
X21427Y12217D02*
X20827Y12217D01*
X21727Y12517D02*
X21427Y12217D01*
X21727Y13067D02*
X21727Y12517D01*
X22027Y13367D02*
X21727Y13067D01*
X18477Y10617D02*
X18477Y11767D01*
X18477Y10617D02*
X17127Y9267D01*
X17127Y9267D02*
X15127Y9267D01*
X14627Y9767D02*
X15127Y9267D01*
X17627Y12617D02*
X18477Y11767D01*
X16627Y12617D02*
X17627Y12617D01*
X16027Y12017D02*
X16627Y12617D01*
X13727Y12017D02*
X16027Y12017D01*
X13127Y12617D02*
X13727Y12017D01*
X13127Y13117D02*
X13127Y12617D01*
X10677Y15567D02*
X13127Y13117D01*
X10327Y15567D02*
X10677Y15567D01*
X9927Y15967D02*
X10327Y15567D01*
X9927Y16867D02*
X9927Y15967D01*
X9477Y17317D02*
X9927Y16867D01*
X9311Y17484D02*
X9477Y17317D01*
X9311Y17484D02*
X9311Y18110D01*
X22027Y15667D02*
X21927Y15667D01*
X30627Y15367D02*
X30627Y19467D01*
X34948Y15853D02*
X34813Y15853D01*
X34813Y15853D02*
X34127Y15167D01*
X34127Y15167D02*
X30827Y15167D01*
X30827Y15167D02*
X30627Y15367D01*
X3427Y13967D02*
X4627Y12767D01*
X3427Y18667D02*
X3427Y13967D01*
X6527Y21767D02*
X3427Y18667D01*
X28327Y21767D02*
X6527Y21767D01*
X30627Y19467D02*
X28327Y21767D01*
X3627Y12767D02*
X3627Y13267D01*
X31248Y19347D02*
X28527Y22067D01*
X3127Y18667D02*
X3127Y13767D01*
X3127Y18667D02*
X6527Y22067D01*
X6527Y22067D02*
X28527Y22067D01*
X31248Y19347D02*
X31248Y15853D01*
X3627Y13267D02*
X3127Y13767D01*
X4777Y17217D02*
X4027Y17967D01*
X30227Y13567D02*
X31141Y12653D01*
X31248Y12653D02*
X31141Y12653D01*
X4027Y18667D02*
X6527Y21167D01*
X6527Y21167D02*
X27827Y21167D01*
X27827Y21167D02*
X30227Y18767D01*
X30227Y18767D02*
X30227Y13624D01*
X30227Y13624D02*
X30227Y13567D01*
X10627Y12917D02*
X9527Y14017D01*
X9527Y14017D02*
X9527Y16667D01*
X9527Y16667D02*
X8977Y17217D01*
X8977Y17217D02*
X4777Y17217D01*
X10627Y12917D02*
X10627Y12767D01*
X4027Y17967D02*
X4027Y18667D01*
X30027Y9417D02*
X31227Y8217D01*
X30027Y10817D02*
X30027Y9417D01*
X29327Y11517D02*
X30027Y10817D01*
X29127Y7467D02*
X28627Y7967D01*
X30827Y7467D02*
X29127Y7467D01*
X31227Y7867D02*
X30827Y7467D01*
X31227Y8217D02*
X31227Y7867D01*
X23577Y13717D02*
X28277Y13717D01*
X23577Y13717D02*
X23027Y14267D01*
X23027Y14717D02*
X23027Y14267D01*
X29277Y11517D02*
X29327Y11517D01*
X28877Y13117D02*
X28277Y13717D01*
X28877Y11917D02*
X28877Y13117D01*
X29277Y11517D02*
X28877Y11917D01*
X14627Y12767D02*
X14627Y13067D01*
X18777Y12517D02*
X19777Y11517D01*
X18777Y13117D02*
X18777Y12517D01*
X18077Y13817D02*
X18777Y13117D01*
X15377Y13817D02*
X18077Y13817D01*
X14627Y13067D02*
X15377Y13817D01*
X26777Y11517D02*
X29327Y11517D01*
X26777Y11517D02*
X19777Y11517D01*
G54D27*
X34948Y10881D02*
X35727Y10102D01*
X36727Y7317D02*
X36827Y7317D01*
X35727Y10102D02*
X35727Y7317D01*
X27227Y7967D02*
X27227Y8217D01*
X27677Y3567D02*
X27227Y4017D01*
X27227Y4017D02*
X27227Y7967D01*
X28477Y3567D02*
X27677Y3567D01*
X27427Y8417D02*
X27427Y9767D01*
X27227Y8217D02*
X27427Y8417D01*
X16727Y16167D02*
X17327Y16767D01*
X10903Y17517D02*
X10311Y18110D01*
X11527Y17517D02*
X10903Y17517D01*
X11827Y17817D02*
X11527Y17517D01*
X11827Y18517D02*
X11827Y17817D01*
X12177Y18867D02*
X11827Y18517D01*
X16777Y18867D02*
X12177Y18867D01*
X17327Y18317D02*
X16777Y18867D01*
X17327Y16767D02*
X17327Y18317D01*
X22277Y9767D02*
X22277Y10267D01*
X22277Y10267D02*
X21877Y10667D01*
X26827Y10667D02*
X27427Y10067D01*
X26827Y10667D02*
X21877Y10667D01*
X21877Y10667D02*
X19127Y10667D01*
X16827Y7867D02*
X17827Y8867D01*
X17827Y9367D02*
X17827Y8867D01*
X19127Y10667D02*
X17827Y9367D01*
X27427Y10067D02*
X27427Y9767D01*
X10311Y18110D02*
X10311Y18384D01*
X35777Y13252D02*
X34948Y14081D01*
X35777Y12567D02*
X35777Y13252D01*
X35177Y11967D02*
X35777Y12567D01*
X31027Y11967D02*
X35177Y11967D01*
X29977Y13017D02*
X31027Y11967D01*
X29977Y18417D02*
X29977Y13017D01*
X27677Y20717D02*
X29977Y18417D01*
X7227Y20717D02*
X27677Y20717D01*
X6477Y19967D02*
X7227Y20717D01*
X6477Y17817D02*
X6477Y19967D01*
X6777Y17517D02*
X6477Y17817D01*
X7577Y17517D02*
X6777Y17517D01*
X7827Y17767D02*
X7577Y17517D01*
X7827Y18617D02*
X7827Y17767D01*
X8277Y19067D02*
X7827Y18617D01*
X9627Y19067D02*
X8277Y19067D01*
X10311Y18384D02*
X9627Y19067D01*
X6427Y16367D02*
X5927Y16867D01*
X6127Y12417D02*
X5977Y12267D01*
X6127Y13267D02*
X6127Y12417D01*
X4327Y15067D02*
X6127Y13267D01*
X4327Y16417D02*
X4327Y15067D01*
X4777Y16867D02*
X4327Y16417D01*
X5927Y16867D02*
X4777Y16867D01*
X1727Y10467D02*
X1727Y7267D01*
X1727Y7267D02*
X2727Y6267D01*
X36827Y17067D02*
X36827Y18467D01*
X36827Y15167D02*
X36827Y17067D01*
X9827Y11267D02*
X10327Y10767D01*
X10327Y10767D02*
X11627Y10767D01*
X1727Y19367D02*
X1727Y10467D01*
X1727Y10467D02*
X2527Y11267D01*
X9827Y11267D02*
X2527Y11267D01*
X1727Y21467D02*
X1727Y19367D01*
X4327Y24067D02*
X1727Y21467D01*
X31227Y24067D02*
X4327Y24067D01*
X36827Y18467D02*
X31227Y24067D01*
X31248Y14081D02*
X33807Y14081D01*
X31248Y10881D02*
X33807Y10881D01*
X37507Y14081D02*
X37507Y14488D01*
X37507Y14488D02*
X36827Y15167D01*
X37507Y10881D02*
X37507Y10647D01*
X37507Y10647D02*
X36827Y9967D01*
X6527Y7417D02*
X6827Y7417D01*
X6827Y7417D02*
X7427Y8017D01*
X7427Y8017D02*
X7427Y8567D01*
X7427Y8567D02*
X6827Y9167D01*
X6827Y9167D02*
X6327Y9167D01*
X6327Y9167D02*
X6127Y9367D01*
X6127Y9367D02*
X6127Y10017D01*
X6127Y10017D02*
X5877Y10267D01*
X5877Y10267D02*
X5377Y10267D01*
X5377Y10267D02*
X5127Y10017D01*
X5127Y10017D02*
X5127Y9067D01*
X5127Y9067D02*
X2727Y6667D01*
X2727Y6667D02*
X2727Y6267D01*
X3872Y3622D02*
X6299Y3622D01*
X2727Y6267D02*
X2727Y4767D01*
X2727Y4767D02*
X3872Y3622D01*
X7827Y6767D02*
X7177Y7417D01*
X11327Y6767D02*
X7827Y6767D01*
X18927Y6967D02*
X18327Y6367D01*
X18327Y6367D02*
X18327Y3367D01*
X18327Y3367D02*
X17227Y2267D01*
X17227Y2267D02*
X15827Y2267D01*
X15827Y2267D02*
X11327Y6767D01*
X19277Y6967D02*
X18927Y6967D01*
X7177Y7417D02*
X6527Y7417D01*
X17327Y10767D02*
X11627Y10767D01*
X10127Y9267D02*
X9627Y9767D01*
X10827Y9267D02*
X10127Y9267D01*
X11127Y9567D02*
X10827Y9267D01*
X11127Y10267D02*
X11127Y9567D01*
X11627Y10767D02*
X11127Y10267D01*
X33807Y10881D02*
X33807Y10247D01*
X29327Y13467D02*
X28077Y14867D01*
X29327Y12417D02*
X29327Y13467D01*
X30527Y11217D02*
X29327Y12417D01*
X30527Y10567D02*
X30527Y11217D01*
X31127Y9967D02*
X30527Y10567D01*
X33527Y9967D02*
X31127Y9967D01*
X33807Y10247D02*
X33527Y9967D01*
X28027Y15767D02*
X28027Y14717D01*
X33807Y10881D02*
X34948Y10881D01*
X2627Y18167D02*
X2627Y18567D01*
X2627Y18567D02*
X6527Y22467D01*
X6527Y22467D02*
X31227Y22467D01*
X31227Y22467D02*
X35727Y17967D01*
X35727Y17967D02*
X35727Y16967D01*
X35727Y16967D02*
X35727Y14861D01*
X35727Y14861D02*
X34948Y14081D01*
X2627Y13667D02*
X2627Y18167D01*
X3127Y13167D02*
X2627Y13667D01*
X3127Y12367D02*
X3127Y13167D01*
X3227Y12267D02*
X3127Y12367D01*
X5977Y12267D02*
X3227Y12267D01*
X8627Y12367D02*
X8527Y12267D01*
X8627Y12767D02*
X8627Y12367D01*
X8527Y12267D02*
X5977Y12267D01*
X33807Y14081D02*
X34948Y14081D01*
X16827Y7867D02*
X15827Y7867D01*
X35612Y2952D02*
X34921Y2952D01*
X36827Y7317D02*
X36827Y4167D01*
X36827Y4167D02*
X35612Y2952D01*
X10827Y7867D02*
X9827Y7867D01*
X9827Y7867D02*
X9727Y7767D01*
X9727Y7767D02*
X8627Y7767D01*
X13827Y2867D02*
X13827Y2767D01*
X7753Y2167D02*
X6299Y3622D01*
X13227Y2167D02*
X7753Y2167D01*
X13827Y2767D02*
X13227Y2167D01*
X27427Y9767D02*
X28427Y9767D01*
X34921Y2952D02*
X32007Y2952D01*
X9627Y9767D02*
X9627Y9817D01*
X17277Y10717D02*
X17327Y10767D01*
X19277Y6967D02*
X23677Y6967D01*
X24212Y7502D02*
X24212Y8464D01*
X23677Y6967D02*
X24212Y7502D01*
X6427Y16367D02*
X7727Y16367D01*
X36827Y15167D02*
X36827Y9967D01*
X36827Y9967D02*
X36827Y7317D01*
G54D28*
X25927Y9317D02*
X26927Y8317D01*
X29477Y4567D02*
X29477Y4367D01*
X25927Y9317D02*
X25927Y10067D01*
X25927Y10067D02*
X25777Y10217D01*
X25777Y10217D02*
X24177Y10217D01*
X24177Y10217D02*
X23779Y9819D01*
X23779Y9819D02*
X23779Y8464D01*
X27577Y2717D02*
X26927Y3367D01*
X28677Y2717D02*
X27577Y2717D01*
X28977Y3017D02*
X28677Y2717D01*
X28977Y3867D02*
X28977Y3017D01*
X29477Y4367D02*
X28977Y3867D01*
X26927Y3367D02*
X26927Y8317D01*
X17977Y3867D02*
X17477Y3367D01*
X8427Y7167D02*
X7877Y7717D01*
X7877Y7717D02*
X7877Y8867D01*
X7877Y8867D02*
X7627Y9117D01*
X7627Y9117D02*
X7227Y9117D01*
X7227Y9117D02*
X6627Y9717D01*
X6627Y9767D02*
X6627Y9717D01*
X23779Y7669D02*
X23377Y7267D01*
X23377Y7267D02*
X19877Y7267D01*
X19877Y7267D02*
X19677Y7467D01*
X19677Y7467D02*
X18677Y7467D01*
X18677Y7467D02*
X17977Y6767D01*
X17977Y6767D02*
X17977Y3867D01*
X23779Y7669D02*
X23779Y8464D01*
X11577Y7167D02*
X8527Y7167D01*
X8527Y7167D02*
X8427Y7167D01*
X15377Y3367D02*
X11577Y7167D01*
X17477Y3367D02*
X15377Y3367D01*
G54D27*
X8149Y4803D02*
X3691Y4803D01*
X3691Y4803D02*
X3427Y5067D01*
G54D28*
X10327Y13767D02*
X10277Y13817D01*
X9127Y12167D02*
X9127Y12067D01*
X9127Y13067D02*
X9327Y13267D01*
X9327Y13267D02*
X9827Y13267D01*
X9827Y13267D02*
X10127Y12967D01*
X10127Y12967D02*
X10127Y12667D01*
X10127Y12667D02*
X10527Y12267D01*
X10527Y12267D02*
X10827Y12267D01*
X10827Y12267D02*
X11127Y12567D01*
X11127Y12567D02*
X11127Y12967D01*
X11127Y12967D02*
X10627Y13467D01*
X9127Y12167D02*
X9127Y12767D01*
X9127Y12767D02*
X9127Y13067D01*
X10627Y13467D02*
X10327Y13767D01*
X2627Y12767D02*
X2627Y11967D01*
X2777Y11817D02*
X2627Y11967D01*
X8877Y11817D02*
X2777Y11817D01*
X9127Y12067D02*
X8877Y11817D01*
X10277Y13817D02*
X10277Y14817D01*
X30627Y7967D02*
X30627Y8167D01*
X14127Y12267D02*
X13627Y12767D01*
X14877Y12267D02*
X14127Y12267D01*
X19677Y11317D02*
X29227Y11317D01*
X29227Y11317D02*
X29827Y10717D01*
X29827Y10717D02*
X29827Y8967D01*
X18577Y13017D02*
X18027Y13567D01*
X18027Y13567D02*
X15527Y13567D01*
X15527Y13567D02*
X15127Y13167D01*
X18577Y13017D02*
X18577Y12417D01*
X18577Y12417D02*
X19677Y11317D01*
X15127Y12517D02*
X14877Y12267D01*
X15127Y13167D02*
X15127Y12517D01*
X30627Y8167D02*
X29827Y8967D01*
X30627Y7967D02*
X29627Y7967D01*
X15727Y16167D02*
X14377Y14817D01*
X14377Y14817D02*
X14277Y14817D01*
X27977Y6067D02*
X28477Y5567D01*
X27977Y6067D02*
X27977Y8267D01*
X27977Y8267D02*
X28377Y8667D01*
X28377Y8667D02*
X29027Y8667D01*
X29027Y8667D02*
X29627Y9267D01*
X29627Y9267D02*
X29627Y10567D01*
X29627Y10567D02*
X29077Y11117D01*
X29077Y11117D02*
X19577Y11117D01*
X19577Y11117D02*
X18327Y12367D01*
X18327Y12367D02*
X18327Y12917D01*
X18327Y12917D02*
X17927Y13317D01*
X17927Y13317D02*
X15927Y13317D01*
X15927Y13317D02*
X15627Y13017D01*
X15627Y12767D02*
X15627Y13017D01*
X28477Y5567D02*
X28477Y4567D01*
X6627Y12767D02*
X6627Y14067D01*
X6627Y14067D02*
X6127Y14567D01*
X6127Y14567D02*
X6127Y15667D01*
X6127Y15667D02*
X5427Y16367D01*
X7627Y12767D02*
X7627Y14067D01*
X7627Y14067D02*
X8127Y14567D01*
X8127Y14567D02*
X8127Y15767D01*
X8127Y15767D02*
X8727Y16367D01*
X9277Y8417D02*
X12877Y8417D01*
X14627Y7667D02*
X14627Y7567D01*
X14627Y7567D02*
X14627Y7467D01*
X14627Y7467D02*
X15327Y6767D01*
X15327Y6767D02*
X16727Y6767D01*
X16727Y6767D02*
X16827Y6867D01*
X3627Y9767D02*
X3627Y9817D01*
X8377Y8267D02*
X9127Y8267D01*
X8127Y8517D02*
X8377Y8267D01*
X8127Y9017D02*
X8127Y8517D01*
X7827Y9317D02*
X8127Y9017D01*
X7377Y9317D02*
X7827Y9317D01*
X7127Y9567D02*
X7377Y9317D01*
X7127Y10117D02*
X7127Y9567D01*
X6727Y10517D02*
X7127Y10117D01*
X4327Y10517D02*
X6727Y10517D01*
X3627Y9817D02*
X4327Y10517D01*
X22480Y9114D02*
X22480Y8464D01*
X22480Y9114D02*
X22427Y9167D01*
X22427Y9167D02*
X19977Y9167D01*
X19977Y9167D02*
X19777Y9367D01*
X19777Y9367D02*
X19777Y9967D01*
X19777Y9967D02*
X19527Y10217D01*
X19527Y10217D02*
X19027Y10217D01*
X19027Y10217D02*
X18227Y9417D01*
X18227Y9417D02*
X18227Y8267D01*
X18227Y8267D02*
X16827Y6867D01*
X9127Y8267D02*
X9277Y8417D01*
X12877Y8417D02*
X13627Y7667D01*
X27877Y8467D02*
X27927Y8517D01*
X27627Y8217D02*
X27877Y8467D01*
X29477Y3567D02*
X29477Y3817D01*
X27627Y4217D02*
X27627Y5117D01*
X27777Y4067D02*
X27627Y4217D01*
X28677Y4067D02*
X27777Y4067D01*
X28977Y4367D02*
X28677Y4067D01*
X28977Y4817D02*
X28977Y4367D01*
X29227Y5067D02*
X28977Y4817D01*
X29727Y5067D02*
X29227Y5067D01*
X29977Y4817D02*
X29727Y5067D01*
X29977Y4317D02*
X29977Y4817D01*
X29477Y3817D02*
X29977Y4317D01*
X27627Y5117D02*
X27627Y8217D01*
X27927Y8517D02*
X27927Y9067D01*
X28727Y9167D02*
X28627Y9067D01*
X17077Y8967D02*
X14627Y8967D01*
X9677Y8967D02*
X9127Y9517D01*
X4127Y9267D02*
X3277Y9267D01*
X3277Y9267D02*
X3127Y9417D01*
X3127Y9417D02*
X3127Y9967D01*
X3127Y9967D02*
X3927Y10767D01*
X3927Y10767D02*
X8427Y10767D01*
X8427Y10767D02*
X9127Y10067D01*
X9127Y10067D02*
X9127Y9517D01*
X4627Y9767D02*
X4127Y9267D01*
X13627Y8967D02*
X9677Y8967D01*
X29077Y9517D02*
X28727Y9167D01*
X29077Y10067D02*
X29077Y9517D01*
X28227Y10917D02*
X29077Y10067D01*
X19027Y10917D02*
X28227Y10917D01*
X19027Y10917D02*
X17077Y8967D01*
X26927Y9067D02*
X26927Y9367D01*
X26927Y9367D02*
X26927Y10117D01*
X22913Y9653D02*
X22913Y8464D01*
X23677Y10417D02*
X22913Y9653D01*
X26627Y10417D02*
X23677Y10417D01*
X26927Y10117D02*
X26627Y10417D01*
X28627Y9067D02*
X27927Y9067D01*
X30477Y4567D02*
X30477Y4367D01*
X24645Y9085D02*
X24645Y8464D01*
X24727Y9167D02*
X24645Y9085D01*
X25727Y9167D02*
X24727Y9167D01*
X26677Y8217D02*
X25727Y9167D01*
X26677Y6867D02*
X26677Y8217D01*
X26677Y4367D02*
X26677Y6867D01*
X26677Y3067D02*
X26677Y4367D01*
X27327Y2417D02*
X26677Y3067D01*
X29127Y2417D02*
X27327Y2417D01*
X29977Y3267D02*
X29127Y2417D01*
X29977Y3867D02*
X29977Y3267D01*
X30477Y4367D02*
X29977Y3867D01*
X19327Y6467D02*
X24177Y6467D01*
X6177Y6867D02*
X5727Y7317D01*
X5727Y7317D02*
X5727Y7617D01*
X5727Y7617D02*
X6027Y7917D01*
X6027Y7917D02*
X6827Y7917D01*
X6827Y7917D02*
X7027Y8117D01*
X7027Y8117D02*
X7027Y8617D01*
X7027Y8617D02*
X6777Y8867D01*
X6777Y8867D02*
X5977Y8867D01*
X5977Y8867D02*
X5627Y9217D01*
X5627Y9767D02*
X5627Y9217D01*
X6627Y6867D02*
X7127Y6867D01*
X18627Y5767D02*
X18627Y3267D01*
X18927Y6067D02*
X18627Y5767D01*
X19327Y6467D02*
X18927Y6067D01*
X18627Y3267D02*
X17377Y2017D01*
X17377Y2017D02*
X15677Y2017D01*
X11327Y6367D02*
X15677Y2017D01*
X7627Y6367D02*
X11327Y6367D01*
X7127Y6867D02*
X7627Y6367D01*
X6627Y6867D02*
X6177Y6867D01*
X24645Y7399D02*
X24645Y6935D01*
X24645Y6935D02*
X24177Y6467D01*
X24645Y7399D02*
X24645Y8464D01*
X15311Y18110D02*
X15311Y16901D01*
X15311Y16901D02*
X14577Y16167D01*
X16311Y18110D02*
X16311Y16251D01*
X16311Y16251D02*
X16227Y16167D01*
G54D10*
G36*
X6545Y7412D02*
X6533Y7399D01*
X6527Y7404D01*
X6521Y7399D01*
X6509Y7412D01*
X6514Y7417D01*
X6509Y7423D01*
X6521Y7436D01*
X6527Y7430D01*
X6533Y7436D01*
X6545Y7423D01*
X6540Y7417D01*
X6545Y7412D01*
X6545Y7412D01*
G37*
G54D29*
X6545Y7412D02*
X6533Y7399D01*
X6527Y7404D01*
X6521Y7399D01*
X6509Y7412D01*
X6514Y7417D01*
X6509Y7423D01*
X6521Y7436D01*
X6527Y7430D01*
X6533Y7436D01*
X6545Y7423D01*
X6540Y7417D01*
X6545Y7412D01*
G54D10*
G36*
X6932Y9058D02*
X6873Y9098D01*
X6777Y9117D01*
X6081Y9117D01*
X5877Y9321D01*
X5877Y9346D01*
X5901Y9356D01*
X6038Y9492D01*
X6112Y9670D01*
X6112Y9775D01*
X6142Y9776D01*
X6142Y9671D01*
X6216Y9493D01*
X6352Y9356D01*
X6530Y9282D01*
X6709Y9282D01*
X6932Y9058D01*
X6932Y9058D01*
G37*
G54D29*
X6932Y9058D02*
X6873Y9098D01*
X6777Y9117D01*
X6081Y9117D01*
X5877Y9321D01*
X5877Y9346D01*
X5901Y9356D01*
X6038Y9492D01*
X6112Y9670D01*
X6112Y9775D01*
X6142Y9776D01*
X6142Y9671D01*
X6216Y9493D01*
X6352Y9356D01*
X6530Y9282D01*
X6709Y9282D01*
X6932Y9058D01*
G54D10*
G36*
X18036Y9573D02*
X17996Y9513D01*
X17977Y9417D01*
X17977Y8371D01*
X17777Y8171D01*
X17279Y7672D01*
X17157Y7550D01*
X17131Y7576D01*
X17203Y7605D01*
X17275Y7769D01*
X17279Y7948D01*
X17213Y8115D01*
X17203Y8130D01*
X17131Y8159D01*
X17119Y8146D01*
X17119Y8171D01*
X17089Y8244D01*
X16925Y8315D01*
X16746Y8319D01*
X16580Y8254D01*
X16565Y8244D01*
X16536Y8171D01*
X16827Y7880D01*
X17119Y8171D01*
X17119Y8146D01*
X16840Y7867D01*
X16845Y7862D01*
X16833Y7849D01*
X16827Y7854D01*
X16814Y7842D01*
X16814Y7867D01*
X16523Y8159D01*
X16451Y8130D01*
X16379Y7966D01*
X16375Y7787D01*
X16441Y7620D01*
X16451Y7605D01*
X16523Y7576D01*
X16814Y7867D01*
X16814Y7842D01*
X16536Y7563D01*
X16565Y7491D01*
X16729Y7419D01*
X16908Y7416D01*
X17074Y7481D01*
X17089Y7491D01*
X17119Y7563D01*
X17119Y7563D01*
X17144Y7538D01*
X17119Y7512D01*
X16650Y7044D01*
X16624Y7017D01*
X16279Y7017D01*
X16279Y7948D01*
X16213Y8115D01*
X16203Y8130D01*
X16131Y8159D01*
X16119Y8146D01*
X16119Y8171D01*
X16089Y8244D01*
X15925Y8315D01*
X15746Y8319D01*
X15580Y8254D01*
X15565Y8244D01*
X15536Y8171D01*
X15827Y7880D01*
X16119Y8171D01*
X16119Y8146D01*
X15840Y7867D01*
X16131Y7576D01*
X16203Y7605D01*
X16275Y7769D01*
X16279Y7948D01*
X16279Y7017D01*
X16119Y7017D01*
X16119Y7563D01*
X15827Y7854D01*
X15814Y7842D01*
X15814Y7867D01*
X15523Y8159D01*
X15451Y8130D01*
X15379Y7966D01*
X15375Y7787D01*
X15441Y7620D01*
X15451Y7605D01*
X15523Y7576D01*
X15814Y7867D01*
X15814Y7842D01*
X15536Y7563D01*
X15565Y7491D01*
X15729Y7419D01*
X15908Y7416D01*
X16074Y7481D01*
X16089Y7491D01*
X16119Y7563D01*
X16119Y7017D01*
X15431Y7017D01*
X15277Y7171D01*
X15277Y8717D01*
X17077Y8717D01*
X17173Y8736D01*
X17254Y8790D01*
X17777Y9314D01*
X18036Y9573D01*
X18036Y9573D01*
G37*
G54D29*
X18036Y9573D02*
X17996Y9513D01*
X17977Y9417D01*
X17977Y8371D01*
X17777Y8171D01*
X17279Y7672D01*
X17157Y7550D01*
X17131Y7576D01*
X17203Y7605D01*
X17275Y7769D01*
X17279Y7948D01*
X17213Y8115D01*
X17203Y8130D01*
X17131Y8159D01*
X17119Y8146D01*
X17119Y8171D01*
X17089Y8244D01*
X16925Y8315D01*
X16746Y8319D01*
X16580Y8254D01*
X16565Y8244D01*
X16536Y8171D01*
X16827Y7880D01*
X17119Y8171D01*
X17119Y8146D01*
X16840Y7867D01*
X16845Y7862D01*
X16833Y7849D01*
X16827Y7854D01*
X16814Y7842D01*
X16814Y7867D01*
X16523Y8159D01*
X16451Y8130D01*
X16379Y7966D01*
X16375Y7787D01*
X16441Y7620D01*
X16451Y7605D01*
X16523Y7576D01*
X16814Y7867D01*
X16814Y7842D01*
X16536Y7563D01*
X16565Y7491D01*
X16729Y7419D01*
X16908Y7416D01*
X17074Y7481D01*
X17089Y7491D01*
X17119Y7563D01*
X17119Y7563D01*
X17144Y7538D01*
X17119Y7512D01*
X16650Y7044D01*
X16624Y7017D01*
X16279Y7017D01*
X16279Y7948D01*
X16213Y8115D01*
X16203Y8130D01*
X16131Y8159D01*
X16119Y8146D01*
X16119Y8171D01*
X16089Y8244D01*
X15925Y8315D01*
X15746Y8319D01*
X15580Y8254D01*
X15565Y8244D01*
X15536Y8171D01*
X15827Y7880D01*
X16119Y8171D01*
X16119Y8146D01*
X15840Y7867D01*
X16131Y7576D01*
X16203Y7605D01*
X16275Y7769D01*
X16279Y7948D01*
X16279Y7017D01*
X16119Y7017D01*
X16119Y7563D01*
X15827Y7854D01*
X15814Y7842D01*
X15814Y7867D01*
X15523Y8159D01*
X15451Y8130D01*
X15379Y7966D01*
X15375Y7787D01*
X15441Y7620D01*
X15451Y7605D01*
X15523Y7576D01*
X15814Y7867D01*
X15814Y7842D01*
X15536Y7563D01*
X15565Y7491D01*
X15729Y7419D01*
X15908Y7416D01*
X16074Y7481D01*
X16089Y7491D01*
X16119Y7563D01*
X16119Y7017D01*
X15431Y7017D01*
X15277Y7171D01*
X15277Y8717D01*
X17077Y8717D01*
X17173Y8736D01*
X17254Y8790D01*
X17777Y9314D01*
X18036Y9573D01*
G54D10*
G36*
X19295Y6973D02*
X19290Y6967D01*
X19295Y6962D01*
X19283Y6949D01*
X19277Y6954D01*
X19004Y6681D01*
X19030Y6611D01*
X19091Y6585D01*
X18750Y6244D01*
X18750Y6244D01*
X18450Y5944D01*
X18396Y5863D01*
X18377Y5767D01*
X18377Y3371D01*
X17777Y2771D01*
X17274Y2267D01*
X16677Y2267D01*
X15781Y2267D01*
X11504Y6544D01*
X11423Y6598D01*
X11327Y6617D01*
X7731Y6617D01*
X7304Y7044D01*
X7223Y7098D01*
X7177Y7107D01*
X7127Y7117D01*
X6840Y7117D01*
X6831Y7126D01*
X6903Y7155D01*
X6975Y7319D01*
X6979Y7498D01*
X6913Y7665D01*
X6903Y7680D01*
X6899Y7681D01*
X6923Y7686D01*
X7004Y7740D01*
X7177Y7914D01*
X7204Y7940D01*
X7204Y7940D01*
X7204Y7940D01*
X7236Y7989D01*
X7258Y8022D01*
X7258Y8022D01*
X7277Y8117D01*
X7277Y8617D01*
X7258Y8713D01*
X7258Y8713D01*
X7204Y8794D01*
X7204Y8794D01*
X7177Y8821D01*
X7072Y8926D01*
X7099Y8908D01*
X7131Y8886D01*
X7131Y8886D01*
X7177Y8877D01*
X7227Y8867D01*
X7524Y8867D01*
X7627Y8764D01*
X7627Y7717D01*
X7646Y7622D01*
X7700Y7540D01*
X8250Y6990D01*
X8331Y6936D01*
X8331Y6936D01*
X8427Y6917D01*
X8527Y6917D01*
X11474Y6917D01*
X15200Y3190D01*
X15281Y3136D01*
X15281Y3136D01*
X15377Y3117D01*
X16379Y3117D01*
X16317Y2969D01*
X16317Y2766D01*
X16394Y2579D01*
X16538Y2435D01*
X16677Y2377D01*
X16725Y2357D01*
X16928Y2357D01*
X17116Y2435D01*
X17259Y2578D01*
X17337Y2765D01*
X17337Y2968D01*
X17276Y3117D01*
X17477Y3117D01*
X17573Y3136D01*
X17654Y3190D01*
X17777Y3314D01*
X18154Y3690D01*
X18208Y3772D01*
X18227Y3867D01*
X18227Y6664D01*
X18781Y7217D01*
X18928Y7217D01*
X18921Y7215D01*
X18854Y7060D01*
X18851Y6891D01*
X18912Y6733D01*
X18921Y6720D01*
X18991Y6694D01*
X19264Y6967D01*
X19259Y6973D01*
X19271Y6986D01*
X19277Y6980D01*
X19283Y6986D01*
X19295Y6973D01*
X19295Y6973D01*
G37*
G54D29*
X19295Y6973D02*
X19290Y6967D01*
X19295Y6962D01*
X19283Y6949D01*
X19277Y6954D01*
X19004Y6681D01*
X19030Y6611D01*
X19091Y6585D01*
X18750Y6244D01*
X18750Y6244D01*
X18450Y5944D01*
X18396Y5863D01*
X18377Y5767D01*
X18377Y3371D01*
X17777Y2771D01*
X17274Y2267D01*
X16677Y2267D01*
X15781Y2267D01*
X11504Y6544D01*
X11423Y6598D01*
X11327Y6617D01*
X7731Y6617D01*
X7304Y7044D01*
X7223Y7098D01*
X7177Y7107D01*
X7127Y7117D01*
X6840Y7117D01*
X6831Y7126D01*
X6903Y7155D01*
X6975Y7319D01*
X6979Y7498D01*
X6913Y7665D01*
X6903Y7680D01*
X6899Y7681D01*
X6923Y7686D01*
X7004Y7740D01*
X7177Y7914D01*
X7204Y7940D01*
X7204Y7940D01*
X7204Y7940D01*
X7236Y7989D01*
X7258Y8022D01*
X7258Y8022D01*
X7277Y8117D01*
X7277Y8617D01*
X7258Y8713D01*
X7258Y8713D01*
X7204Y8794D01*
X7204Y8794D01*
X7177Y8821D01*
X7072Y8926D01*
X7099Y8908D01*
X7131Y8886D01*
X7131Y8886D01*
X7177Y8877D01*
X7227Y8867D01*
X7524Y8867D01*
X7627Y8764D01*
X7627Y7717D01*
X7646Y7622D01*
X7700Y7540D01*
X8250Y6990D01*
X8331Y6936D01*
X8331Y6936D01*
X8427Y6917D01*
X8527Y6917D01*
X11474Y6917D01*
X15200Y3190D01*
X15281Y3136D01*
X15281Y3136D01*
X15377Y3117D01*
X16379Y3117D01*
X16317Y2969D01*
X16317Y2766D01*
X16394Y2579D01*
X16538Y2435D01*
X16677Y2377D01*
X16725Y2357D01*
X16928Y2357D01*
X17116Y2435D01*
X17259Y2578D01*
X17337Y2765D01*
X17337Y2968D01*
X17276Y3117D01*
X17477Y3117D01*
X17573Y3136D01*
X17654Y3190D01*
X17777Y3314D01*
X18154Y3690D01*
X18208Y3772D01*
X18227Y3867D01*
X18227Y6664D01*
X18781Y7217D01*
X18928Y7217D01*
X18921Y7215D01*
X18854Y7060D01*
X18851Y6891D01*
X18912Y6733D01*
X18921Y6720D01*
X18991Y6694D01*
X19264Y6967D01*
X19259Y6973D01*
X19271Y6986D01*
X19277Y6980D01*
X19283Y6986D01*
X19295Y6973D01*
G54D10*
G36*
X23677Y10667D02*
X23581Y10648D01*
X23500Y10594D01*
X23500Y10594D01*
X22736Y9830D01*
X22702Y9779D01*
X22704Y9844D01*
X22642Y10001D01*
X22633Y10015D01*
X22563Y10041D01*
X22551Y10028D01*
X22551Y10053D01*
X22524Y10123D01*
X22369Y10191D01*
X22200Y10194D01*
X22043Y10132D01*
X22030Y10123D01*
X22004Y10053D01*
X22277Y9780D01*
X22551Y10053D01*
X22551Y10028D01*
X22290Y9767D01*
X22563Y9494D01*
X22633Y9520D01*
X22663Y9589D01*
X22663Y9282D01*
X22657Y9291D01*
X22657Y9291D01*
X22604Y9344D01*
X22523Y9398D01*
X22508Y9401D01*
X22511Y9403D01*
X22524Y9411D01*
X22551Y9481D01*
X22277Y9754D01*
X22264Y9742D01*
X22264Y9767D01*
X21991Y10041D01*
X21921Y10015D01*
X21854Y9860D01*
X21851Y9691D01*
X21912Y9533D01*
X21921Y9520D01*
X21991Y9494D01*
X22264Y9767D01*
X22264Y9742D01*
X22004Y9481D01*
X22028Y9417D01*
X21613Y9417D01*
X21688Y9492D01*
X21762Y9670D01*
X21762Y9863D01*
X21688Y10042D01*
X21552Y10178D01*
X21374Y10252D01*
X21181Y10252D01*
X21003Y10179D01*
X20866Y10042D01*
X20792Y9864D01*
X20792Y9671D01*
X20866Y9493D01*
X20941Y9417D01*
X20613Y9417D01*
X20688Y9492D01*
X20762Y9670D01*
X20762Y9863D01*
X20688Y10042D01*
X20552Y10178D01*
X20374Y10252D01*
X20181Y10252D01*
X20003Y10179D01*
X19960Y10136D01*
X19954Y10144D01*
X19954Y10144D01*
X19704Y10394D01*
X19623Y10448D01*
X19527Y10467D01*
X19027Y10467D01*
X19027Y10467D01*
X19008Y10463D01*
X18931Y10448D01*
X18872Y10408D01*
X19131Y10667D01*
X23677Y10667D01*
X23677Y10667D01*
G37*
G54D29*
X23677Y10667D02*
X23581Y10648D01*
X23500Y10594D01*
X23500Y10594D01*
X22736Y9830D01*
X22702Y9779D01*
X22704Y9844D01*
X22642Y10001D01*
X22633Y10015D01*
X22563Y10041D01*
X22551Y10028D01*
X22551Y10053D01*
X22524Y10123D01*
X22369Y10191D01*
X22200Y10194D01*
X22043Y10132D01*
X22030Y10123D01*
X22004Y10053D01*
X22277Y9780D01*
X22551Y10053D01*
X22551Y10028D01*
X22290Y9767D01*
X22563Y9494D01*
X22633Y9520D01*
X22663Y9589D01*
X22663Y9282D01*
X22657Y9291D01*
X22657Y9291D01*
X22604Y9344D01*
X22523Y9398D01*
X22508Y9401D01*
X22511Y9403D01*
X22524Y9411D01*
X22551Y9481D01*
X22277Y9754D01*
X22264Y9742D01*
X22264Y9767D01*
X21991Y10041D01*
X21921Y10015D01*
X21854Y9860D01*
X21851Y9691D01*
X21912Y9533D01*
X21921Y9520D01*
X21991Y9494D01*
X22264Y9767D01*
X22264Y9742D01*
X22004Y9481D01*
X22028Y9417D01*
X21613Y9417D01*
X21688Y9492D01*
X21762Y9670D01*
X21762Y9863D01*
X21688Y10042D01*
X21552Y10178D01*
X21374Y10252D01*
X21181Y10252D01*
X21003Y10179D01*
X20866Y10042D01*
X20792Y9864D01*
X20792Y9671D01*
X20866Y9493D01*
X20941Y9417D01*
X20613Y9417D01*
X20688Y9492D01*
X20762Y9670D01*
X20762Y9863D01*
X20688Y10042D01*
X20552Y10178D01*
X20374Y10252D01*
X20181Y10252D01*
X20003Y10179D01*
X19960Y10136D01*
X19954Y10144D01*
X19954Y10144D01*
X19704Y10394D01*
X19623Y10448D01*
X19527Y10467D01*
X19027Y10467D01*
X19027Y10467D01*
X19008Y10463D01*
X18931Y10448D01*
X18872Y10408D01*
X19131Y10667D01*
X23677Y10667D01*
G54D10*
G36*
X24395Y7039D02*
X24074Y6717D01*
X19626Y6717D01*
X19633Y6720D01*
X19700Y6875D01*
X19704Y7044D01*
X19676Y7115D01*
X19700Y7090D01*
X19700Y7090D01*
X19749Y7058D01*
X19781Y7036D01*
X19781Y7036D01*
X19877Y7017D01*
X23377Y7017D01*
X23473Y7036D01*
X23554Y7090D01*
X23956Y7492D01*
X24010Y7574D01*
X24029Y7669D01*
X24029Y7850D01*
X24036Y7853D01*
X24064Y7881D01*
X24166Y7881D01*
X24203Y7918D01*
X24203Y8455D01*
X24195Y8455D01*
X24195Y8473D01*
X24203Y8473D01*
X24203Y8481D01*
X24221Y8481D01*
X24221Y8473D01*
X24229Y8473D01*
X24229Y8455D01*
X24221Y8455D01*
X24221Y7918D01*
X24259Y7881D01*
X24360Y7881D01*
X24388Y7853D01*
X24395Y7850D01*
X24395Y7399D01*
X24395Y7039D01*
X24395Y7039D01*
G37*
G54D29*
X24395Y7039D02*
X24074Y6717D01*
X19626Y6717D01*
X19633Y6720D01*
X19700Y6875D01*
X19704Y7044D01*
X19676Y7115D01*
X19700Y7090D01*
X19700Y7090D01*
X19749Y7058D01*
X19781Y7036D01*
X19781Y7036D01*
X19877Y7017D01*
X23377Y7017D01*
X23473Y7036D01*
X23554Y7090D01*
X23956Y7492D01*
X24010Y7574D01*
X24029Y7669D01*
X24029Y7850D01*
X24036Y7853D01*
X24064Y7881D01*
X24166Y7881D01*
X24203Y7918D01*
X24203Y8455D01*
X24195Y8455D01*
X24195Y8473D01*
X24203Y8473D01*
X24203Y8481D01*
X24221Y8481D01*
X24221Y8473D01*
X24229Y8473D01*
X24229Y8455D01*
X24221Y8455D01*
X24221Y7918D01*
X24259Y7881D01*
X24360Y7881D01*
X24388Y7853D01*
X24395Y7850D01*
X24395Y7399D01*
X24395Y7039D01*
G54D10*
G36*
X28727Y3121D02*
X28574Y2967D01*
X27681Y2967D01*
X27177Y3471D01*
X27177Y8317D01*
X27158Y8413D01*
X27158Y8413D01*
X27136Y8445D01*
X27104Y8494D01*
X27104Y8494D01*
X27037Y8561D01*
X27216Y8635D01*
X27359Y8778D01*
X27427Y8942D01*
X27494Y8779D01*
X27638Y8635D01*
X27676Y8619D01*
X27450Y8394D01*
X27396Y8313D01*
X27377Y8217D01*
X27377Y5117D01*
X27377Y4217D01*
X27396Y4122D01*
X27450Y4040D01*
X27600Y3890D01*
X27681Y3836D01*
X27681Y3836D01*
X27777Y3817D01*
X28095Y3817D01*
X28029Y3666D01*
X28025Y3487D01*
X28091Y3320D01*
X28101Y3305D01*
X28173Y3276D01*
X28464Y3567D01*
X28459Y3573D01*
X28471Y3586D01*
X28477Y3580D01*
X28483Y3586D01*
X28495Y3573D01*
X28490Y3567D01*
X28495Y3562D01*
X28483Y3549D01*
X28477Y3554D01*
X28186Y3263D01*
X28215Y3191D01*
X28379Y3119D01*
X28558Y3116D01*
X28724Y3181D01*
X28727Y3183D01*
X28727Y3121D01*
X28727Y3121D01*
G37*
G54D29*
X28727Y3121D02*
X28574Y2967D01*
X27681Y2967D01*
X27177Y3471D01*
X27177Y8317D01*
X27158Y8413D01*
X27158Y8413D01*
X27136Y8445D01*
X27104Y8494D01*
X27104Y8494D01*
X27037Y8561D01*
X27216Y8635D01*
X27359Y8778D01*
X27427Y8942D01*
X27494Y8779D01*
X27638Y8635D01*
X27676Y8619D01*
X27450Y8394D01*
X27396Y8313D01*
X27377Y8217D01*
X27377Y5117D01*
X27377Y4217D01*
X27396Y4122D01*
X27450Y4040D01*
X27600Y3890D01*
X27681Y3836D01*
X27681Y3836D01*
X27777Y3817D01*
X28095Y3817D01*
X28029Y3666D01*
X28025Y3487D01*
X28091Y3320D01*
X28101Y3305D01*
X28173Y3276D01*
X28464Y3567D01*
X28459Y3573D01*
X28471Y3586D01*
X28477Y3580D01*
X28483Y3586D01*
X28495Y3573D01*
X28490Y3567D01*
X28495Y3562D01*
X28483Y3549D01*
X28477Y3554D01*
X28186Y3263D01*
X28215Y3191D01*
X28379Y3119D01*
X28558Y3116D01*
X28724Y3181D01*
X28727Y3183D01*
X28727Y3121D01*
G54D10*
G36*
X35937Y12487D02*
X35307Y11857D01*
X35277Y11857D01*
X30947Y11857D01*
X29917Y12887D01*
X29917Y15667D01*
X29917Y17567D01*
X29917Y17567D01*
X29917Y18117D01*
X29895Y18228D01*
X29832Y18322D01*
X29832Y18322D01*
X27582Y20572D01*
X27488Y20635D01*
X27377Y20657D01*
X12177Y20657D01*
X9968Y20657D01*
X7927Y20657D01*
X7816Y20635D01*
X7722Y20572D01*
X7105Y19956D01*
X7043Y19862D01*
X7021Y19751D01*
X7021Y18595D01*
X6994Y18595D01*
X6917Y18563D01*
X6858Y18504D01*
X6826Y18427D01*
X6825Y18343D01*
X6825Y17793D01*
X6857Y17716D01*
X6916Y17657D01*
X6994Y17625D01*
X7077Y17625D01*
X7627Y17625D01*
X7704Y17657D01*
X7763Y17716D01*
X7795Y17793D01*
X7796Y17876D01*
X7796Y18426D01*
X7764Y18504D01*
X7705Y18563D01*
X7627Y18595D01*
X7601Y18595D01*
X7601Y19631D01*
X8047Y20077D01*
X9968Y20077D01*
X11477Y20077D01*
X11105Y19706D01*
X11043Y19612D01*
X11021Y19501D01*
X11021Y18506D01*
X10900Y18385D01*
X10826Y18207D01*
X10825Y18014D01*
X10899Y17835D01*
X11035Y17699D01*
X11214Y17625D01*
X11407Y17625D01*
X11585Y17698D01*
X11721Y17835D01*
X11795Y18013D01*
X11796Y18206D01*
X11722Y18384D01*
X11601Y18506D01*
X11601Y19381D01*
X12297Y20077D01*
X27257Y20077D01*
X29337Y17997D01*
X29337Y17687D01*
X29107Y17457D01*
X25327Y17457D01*
X25327Y17457D01*
X24677Y17457D01*
X24566Y17435D01*
X24472Y17372D01*
X24472Y17372D01*
X22827Y15727D01*
X22827Y16067D01*
X22827Y16067D01*
X22827Y16067D01*
X22823Y16086D01*
X22808Y16163D01*
X22808Y16163D01*
X22754Y16244D01*
X22754Y16244D01*
X22354Y16644D01*
X22273Y16698D01*
X22177Y16717D01*
X17727Y16717D01*
X17631Y16698D01*
X17550Y16644D01*
X17074Y16168D01*
X17075Y16231D01*
X17024Y16360D01*
X17018Y16368D01*
X16957Y16384D01*
X16740Y16167D01*
X16745Y16162D01*
X16733Y16149D01*
X16727Y16154D01*
X16721Y16149D01*
X16709Y16162D01*
X16714Y16167D01*
X16709Y16173D01*
X16721Y16186D01*
X16727Y16180D01*
X16944Y16397D01*
X16928Y16459D01*
X16801Y16513D01*
X16663Y16515D01*
X16561Y16474D01*
X16561Y17688D01*
X16585Y17698D01*
X16721Y17835D01*
X16795Y18013D01*
X16796Y18206D01*
X16722Y18384D01*
X16586Y18521D01*
X16407Y18595D01*
X16214Y18595D01*
X16036Y18521D01*
X15900Y18385D01*
X15826Y18207D01*
X15825Y18014D01*
X15899Y17835D01*
X16035Y17699D01*
X16061Y17688D01*
X16061Y16539D01*
X15997Y16512D01*
X15977Y16493D01*
X15958Y16512D01*
X15808Y16574D01*
X15796Y16574D01*
X15796Y18206D01*
X15722Y18384D01*
X15586Y18521D01*
X15407Y18595D01*
X15214Y18595D01*
X15036Y18521D01*
X14900Y18385D01*
X14826Y18207D01*
X14825Y18014D01*
X14899Y17835D01*
X15035Y17699D01*
X15061Y17688D01*
X15061Y17004D01*
X14796Y16739D01*
X14796Y18206D01*
X14722Y18384D01*
X14586Y18521D01*
X14407Y18595D01*
X14214Y18595D01*
X14036Y18521D01*
X13900Y18385D01*
X13826Y18207D01*
X13825Y18014D01*
X13899Y17835D01*
X14035Y17699D01*
X14214Y17625D01*
X14407Y17625D01*
X14585Y17698D01*
X14721Y17835D01*
X14795Y18013D01*
X14796Y18206D01*
X14796Y16739D01*
X14717Y16661D01*
X14679Y16677D01*
X14476Y16677D01*
X14289Y16600D01*
X14145Y16456D01*
X14067Y16269D01*
X14067Y16066D01*
X14144Y15879D01*
X14288Y15735D01*
X14475Y15657D01*
X14678Y15657D01*
X14866Y15735D01*
X15009Y15878D01*
X15087Y16065D01*
X15087Y16268D01*
X15071Y16308D01*
X15487Y16724D01*
X15487Y16724D01*
X15487Y16724D01*
X15541Y16805D01*
X15541Y16805D01*
X15557Y16882D01*
X15561Y16901D01*
X15561Y16901D01*
X15561Y16901D01*
X15561Y17688D01*
X15585Y17698D01*
X15721Y17835D01*
X15795Y18013D01*
X15796Y18206D01*
X15796Y16574D01*
X15646Y16574D01*
X15497Y16512D01*
X15382Y16398D01*
X15320Y16248D01*
X15320Y16114D01*
X14488Y15282D01*
X14379Y15327D01*
X14176Y15327D01*
X13989Y15250D01*
X13845Y15106D01*
X13796Y14988D01*
X13796Y18206D01*
X13722Y18384D01*
X13586Y18521D01*
X13407Y18595D01*
X13214Y18595D01*
X13036Y18521D01*
X12900Y18385D01*
X12826Y18207D01*
X12825Y18014D01*
X12899Y17835D01*
X13035Y17699D01*
X13214Y17625D01*
X13407Y17625D01*
X13585Y17698D01*
X13721Y17835D01*
X13795Y18013D01*
X13796Y18206D01*
X13796Y14988D01*
X13767Y14919D01*
X13767Y14716D01*
X13844Y14529D01*
X13856Y14517D01*
X13681Y14517D01*
X12796Y15402D01*
X12796Y18206D01*
X12722Y18384D01*
X12586Y18521D01*
X12407Y18595D01*
X12214Y18595D01*
X12036Y18521D01*
X11900Y18385D01*
X11826Y18207D01*
X11825Y18014D01*
X11899Y17835D01*
X12035Y17699D01*
X12214Y17625D01*
X12407Y17625D01*
X12585Y17698D01*
X12721Y17835D01*
X12795Y18013D01*
X12796Y18206D01*
X12796Y15402D01*
X11054Y17144D01*
X10973Y17198D01*
X10877Y17217D01*
X10737Y17217D01*
X10737Y18186D01*
X10675Y18344D01*
X10666Y18357D01*
X10597Y18383D01*
X10323Y18110D01*
X10597Y17836D01*
X10666Y17862D01*
X10734Y18017D01*
X10737Y18186D01*
X10737Y17217D01*
X10631Y17217D01*
X10118Y17730D01*
X10218Y17686D01*
X10387Y17683D01*
X10545Y17745D01*
X10558Y17754D01*
X10584Y17824D01*
X10311Y18097D01*
X10305Y18091D01*
X10292Y18104D01*
X10298Y18110D01*
X10292Y18115D01*
X10305Y18128D01*
X10311Y18122D01*
X10584Y18396D01*
X10558Y18466D01*
X10403Y18533D01*
X10234Y18536D01*
X10076Y18474D01*
X10067Y18468D01*
X10058Y18513D01*
X10058Y18513D01*
X10004Y18594D01*
X10004Y18594D01*
X9754Y18844D01*
X9673Y18898D01*
X9577Y18917D01*
X8677Y18917D01*
X8677Y18917D01*
X8658Y18913D01*
X8581Y18898D01*
X8500Y18844D01*
X8500Y18844D01*
X8251Y18595D01*
X8214Y18595D01*
X8036Y18521D01*
X7900Y18385D01*
X7826Y18207D01*
X7825Y18014D01*
X7899Y17835D01*
X8035Y17699D01*
X8214Y17625D01*
X8407Y17625D01*
X8484Y17657D01*
X8674Y17467D01*
X4881Y17467D01*
X4277Y18071D01*
X4277Y18564D01*
X6631Y20917D01*
X27724Y20917D01*
X29977Y18664D01*
X29977Y13624D01*
X29977Y13567D01*
X29996Y13472D01*
X30050Y13390D01*
X30651Y12790D01*
X30644Y12774D01*
X30644Y12533D01*
X30735Y12312D01*
X30905Y12142D01*
X31127Y12049D01*
X31367Y12049D01*
X31589Y12141D01*
X31759Y12311D01*
X31851Y12532D01*
X31851Y12773D01*
X31760Y12995D01*
X31637Y13117D01*
X33417Y13117D01*
X33295Y12995D01*
X33203Y12774D01*
X33203Y12533D01*
X33294Y12312D01*
X33464Y12142D01*
X33686Y12049D01*
X33926Y12049D01*
X34148Y12141D01*
X34318Y12311D01*
X34377Y12453D01*
X34435Y12312D01*
X34605Y12142D01*
X34827Y12049D01*
X35067Y12049D01*
X35289Y12141D01*
X35459Y12311D01*
X35551Y12532D01*
X35551Y12773D01*
X35494Y12912D01*
X35494Y14177D01*
X35415Y14379D01*
X35401Y14400D01*
X35319Y14440D01*
X35307Y14428D01*
X35307Y14453D01*
X35266Y14535D01*
X35068Y14622D01*
X34852Y14627D01*
X34650Y14549D01*
X34629Y14535D01*
X34588Y14453D01*
X34948Y14094D01*
X35307Y14453D01*
X35307Y14428D01*
X34960Y14081D01*
X35319Y13722D01*
X35401Y13763D01*
X35489Y13961D01*
X35494Y14177D01*
X35494Y12912D01*
X35460Y12995D01*
X35307Y13148D01*
X35307Y13710D01*
X34948Y14069D01*
X34935Y14056D01*
X34935Y14081D01*
X34576Y14440D01*
X34494Y14400D01*
X34406Y14202D01*
X34401Y13986D01*
X34480Y13784D01*
X34494Y13763D01*
X34576Y13722D01*
X34935Y14081D01*
X34935Y14056D01*
X34588Y13710D01*
X34629Y13628D01*
X34827Y13540D01*
X35043Y13535D01*
X35245Y13613D01*
X35266Y13628D01*
X35307Y13710D01*
X35307Y13148D01*
X35290Y13165D01*
X35068Y13257D01*
X34828Y13257D01*
X34802Y13246D01*
X34504Y13544D01*
X34423Y13598D01*
X34353Y13612D01*
X34353Y14177D01*
X34274Y14379D01*
X34260Y14400D01*
X34178Y14440D01*
X34166Y14428D01*
X34166Y14453D01*
X34125Y14535D01*
X33927Y14622D01*
X33711Y14627D01*
X33509Y14549D01*
X33488Y14535D01*
X33448Y14453D01*
X33807Y14094D01*
X34166Y14453D01*
X34166Y14428D01*
X33819Y14081D01*
X34178Y13722D01*
X34260Y13763D01*
X34348Y13961D01*
X34353Y14177D01*
X34353Y13612D01*
X34327Y13617D01*
X34109Y13617D01*
X34125Y13628D01*
X34166Y13710D01*
X33807Y14069D01*
X33794Y14056D01*
X33794Y14081D01*
X33435Y14440D01*
X33353Y14400D01*
X33266Y14202D01*
X33261Y13986D01*
X33339Y13784D01*
X33353Y13763D01*
X33435Y13722D01*
X33794Y14081D01*
X33794Y14056D01*
X33448Y13710D01*
X33488Y13628D01*
X33512Y13617D01*
X31794Y13617D01*
X31794Y14177D01*
X31715Y14379D01*
X31701Y14400D01*
X31619Y14440D01*
X31607Y14428D01*
X31607Y14453D01*
X31566Y14535D01*
X31368Y14622D01*
X31152Y14627D01*
X30950Y14549D01*
X30929Y14535D01*
X30888Y14453D01*
X31248Y14094D01*
X31607Y14453D01*
X31607Y14428D01*
X31260Y14081D01*
X31619Y13722D01*
X31701Y13763D01*
X31789Y13961D01*
X31794Y14177D01*
X31794Y13617D01*
X31550Y13617D01*
X31566Y13628D01*
X31607Y13710D01*
X31248Y14069D01*
X31242Y14063D01*
X31235Y14070D01*
X31229Y14076D01*
X31235Y14081D01*
X30876Y14440D01*
X30794Y14400D01*
X30706Y14202D01*
X30701Y13986D01*
X30780Y13784D01*
X30794Y13763D01*
X30876Y13722D01*
X30851Y13697D01*
X30677Y13871D01*
X30677Y14973D01*
X30699Y14958D01*
X30731Y14936D01*
X30731Y14936D01*
X30827Y14917D01*
X34127Y14917D01*
X34223Y14936D01*
X34304Y14990D01*
X34640Y15327D01*
X34827Y15249D01*
X35067Y15249D01*
X35289Y15341D01*
X35459Y15511D01*
X35551Y15732D01*
X35551Y15973D01*
X35460Y16195D01*
X35290Y16365D01*
X35068Y16457D01*
X34828Y16457D01*
X34606Y16365D01*
X34436Y16195D01*
X34377Y16053D01*
X34319Y16195D01*
X34149Y16365D01*
X33927Y16457D01*
X33687Y16457D01*
X33465Y16365D01*
X33295Y16195D01*
X33203Y15974D01*
X33203Y15733D01*
X33294Y15512D01*
X33389Y15417D01*
X31665Y15417D01*
X31759Y15511D01*
X31851Y15732D01*
X31851Y15973D01*
X31760Y16195D01*
X31590Y16365D01*
X31498Y16403D01*
X31498Y19347D01*
X31498Y19347D01*
X31498Y19347D01*
X31494Y19366D01*
X31479Y19442D01*
X31479Y19442D01*
X31424Y19524D01*
X31424Y19524D01*
X28704Y22244D01*
X28623Y22298D01*
X28527Y22317D01*
X6527Y22317D01*
X6431Y22298D01*
X6350Y22244D01*
X2950Y18844D01*
X2896Y18763D01*
X2877Y18667D01*
X2877Y13767D01*
X2896Y13672D01*
X2950Y13590D01*
X3359Y13181D01*
X3353Y13179D01*
X3216Y13042D01*
X3142Y12864D01*
X3142Y12671D01*
X3216Y12493D01*
X3352Y12356D01*
X3530Y12282D01*
X3723Y12282D01*
X3901Y12356D01*
X4038Y12492D01*
X4112Y12670D01*
X4112Y12863D01*
X4066Y12975D01*
X4152Y12888D01*
X4142Y12864D01*
X4142Y12671D01*
X4216Y12493D01*
X4352Y12356D01*
X4530Y12282D01*
X4723Y12282D01*
X4901Y12356D01*
X5038Y12492D01*
X5112Y12670D01*
X5112Y12863D01*
X5066Y12975D01*
X5152Y12888D01*
X5142Y12864D01*
X5142Y12671D01*
X5216Y12493D01*
X5352Y12356D01*
X5530Y12282D01*
X5723Y12282D01*
X5901Y12356D01*
X6038Y12492D01*
X6112Y12670D01*
X6112Y12863D01*
X6038Y13042D01*
X5902Y13178D01*
X5724Y13252D01*
X5531Y13252D01*
X5506Y13242D01*
X5204Y13544D01*
X5123Y13598D01*
X5027Y13617D01*
X4531Y13617D01*
X3977Y14171D01*
X3977Y17664D01*
X4600Y17040D01*
X4600Y17040D01*
X4681Y16986D01*
X4681Y16986D01*
X4758Y16971D01*
X4777Y16967D01*
X4777Y16967D01*
X4777Y16967D01*
X8874Y16967D01*
X9277Y16564D01*
X9277Y14017D01*
X9296Y13922D01*
X9350Y13840D01*
X9674Y13517D01*
X9327Y13517D01*
X9231Y13498D01*
X9212Y13485D01*
X9212Y16463D01*
X9138Y16642D01*
X9002Y16778D01*
X8824Y16852D01*
X8631Y16852D01*
X8453Y16779D01*
X8316Y16642D01*
X8242Y16464D01*
X8242Y16271D01*
X8252Y16246D01*
X8154Y16147D01*
X8154Y16444D01*
X8092Y16601D01*
X8083Y16615D01*
X8013Y16641D01*
X8001Y16628D01*
X8001Y16653D01*
X7974Y16723D01*
X7819Y16791D01*
X7650Y16794D01*
X7493Y16732D01*
X7480Y16723D01*
X7454Y16653D01*
X7727Y16380D01*
X8001Y16653D01*
X8001Y16628D01*
X7740Y16367D01*
X8013Y16094D01*
X8083Y16120D01*
X8150Y16275D01*
X8154Y16444D01*
X8154Y16147D01*
X8001Y15994D01*
X8001Y16081D01*
X7727Y16354D01*
X7714Y16342D01*
X7714Y16367D01*
X7441Y16641D01*
X7371Y16615D01*
X7304Y16460D01*
X7301Y16291D01*
X7362Y16133D01*
X7371Y16120D01*
X7441Y16094D01*
X7714Y16367D01*
X7714Y16342D01*
X7454Y16081D01*
X7480Y16011D01*
X7635Y15944D01*
X7804Y15941D01*
X7961Y16003D01*
X7974Y16011D01*
X8001Y16081D01*
X8001Y15994D01*
X7950Y15944D01*
X7896Y15863D01*
X7877Y15767D01*
X7877Y14994D01*
X7850Y14983D01*
X7712Y14845D01*
X7637Y14665D01*
X7637Y14470D01*
X7649Y14442D01*
X7450Y14244D01*
X7396Y14163D01*
X7377Y14067D01*
X7377Y13189D01*
X7353Y13179D01*
X7216Y13042D01*
X7142Y12864D01*
X7142Y12671D01*
X7216Y12493D01*
X7352Y12356D01*
X7530Y12282D01*
X7723Y12282D01*
X7901Y12356D01*
X8038Y12492D01*
X8112Y12670D01*
X8112Y12863D01*
X8038Y13042D01*
X7902Y13178D01*
X7877Y13189D01*
X7877Y13964D01*
X8002Y14089D01*
X8029Y14077D01*
X8224Y14077D01*
X8404Y14152D01*
X8542Y14289D01*
X8617Y14469D01*
X8617Y14664D01*
X8543Y14844D01*
X8405Y14982D01*
X8377Y14994D01*
X8377Y15664D01*
X8606Y15892D01*
X8630Y15882D01*
X8823Y15882D01*
X9001Y15956D01*
X9138Y16092D01*
X9212Y16270D01*
X9212Y16463D01*
X9212Y13485D01*
X9199Y13476D01*
X9150Y13444D01*
X9150Y13444D01*
X8950Y13244D01*
X8896Y13163D01*
X8883Y13099D01*
X8874Y13123D01*
X8719Y13191D01*
X8550Y13194D01*
X8393Y13132D01*
X8380Y13123D01*
X8354Y13053D01*
X8627Y12780D01*
X8633Y12786D01*
X8645Y12773D01*
X8640Y12767D01*
X8645Y12762D01*
X8633Y12749D01*
X8627Y12754D01*
X8614Y12742D01*
X8614Y12767D01*
X8341Y13041D01*
X8271Y13015D01*
X8204Y12860D01*
X8201Y12691D01*
X8262Y12533D01*
X8271Y12520D01*
X8341Y12494D01*
X8614Y12767D01*
X8614Y12742D01*
X8354Y12481D01*
X8380Y12411D01*
X8535Y12344D01*
X8704Y12341D01*
X8861Y12403D01*
X8874Y12411D01*
X8877Y12418D01*
X8877Y12171D01*
X8774Y12067D01*
X7112Y12067D01*
X7112Y12863D01*
X7038Y13042D01*
X6902Y13178D01*
X6877Y13189D01*
X6877Y14067D01*
X6858Y14163D01*
X6854Y14170D01*
X6854Y16444D01*
X6792Y16601D01*
X6783Y16615D01*
X6713Y16641D01*
X6701Y16628D01*
X6701Y16653D01*
X6674Y16723D01*
X6519Y16791D01*
X6350Y16794D01*
X6193Y16732D01*
X6180Y16723D01*
X6154Y16653D01*
X6427Y16380D01*
X6701Y16653D01*
X6701Y16628D01*
X6440Y16367D01*
X6713Y16094D01*
X6783Y16120D01*
X6850Y16275D01*
X6854Y16444D01*
X6854Y14170D01*
X6804Y14244D01*
X6701Y14347D01*
X6701Y16081D01*
X6427Y16354D01*
X6414Y16342D01*
X6414Y16367D01*
X6141Y16641D01*
X6071Y16615D01*
X6004Y16460D01*
X6001Y16291D01*
X6062Y16133D01*
X6071Y16120D01*
X6141Y16094D01*
X6414Y16367D01*
X6414Y16342D01*
X6154Y16081D01*
X6180Y16011D01*
X6335Y15944D01*
X6504Y15941D01*
X6661Y16003D01*
X6674Y16011D01*
X6701Y16081D01*
X6701Y14347D01*
X6606Y14442D01*
X6617Y14469D01*
X6617Y14664D01*
X6543Y14844D01*
X6405Y14982D01*
X6377Y14994D01*
X6377Y15667D01*
X6377Y15667D01*
X6377Y15667D01*
X6373Y15686D01*
X6358Y15763D01*
X6358Y15763D01*
X6304Y15844D01*
X6304Y15844D01*
X5902Y16246D01*
X5912Y16270D01*
X5912Y16463D01*
X5838Y16642D01*
X5702Y16778D01*
X5524Y16852D01*
X5331Y16852D01*
X5153Y16779D01*
X5016Y16642D01*
X4942Y16464D01*
X4942Y16271D01*
X5016Y16093D01*
X5152Y15956D01*
X5330Y15882D01*
X5523Y15882D01*
X5548Y15893D01*
X5877Y15564D01*
X5877Y14994D01*
X5850Y14983D01*
X5712Y14845D01*
X5637Y14665D01*
X5637Y14470D01*
X5711Y14290D01*
X5849Y14152D01*
X6029Y14077D01*
X6224Y14077D01*
X6252Y14089D01*
X6377Y13964D01*
X6377Y13189D01*
X6353Y13179D01*
X6216Y13042D01*
X6142Y12864D01*
X6142Y12671D01*
X6216Y12493D01*
X6352Y12356D01*
X6530Y12282D01*
X6723Y12282D01*
X6901Y12356D01*
X7038Y12492D01*
X7112Y12670D01*
X7112Y12863D01*
X7112Y12067D01*
X2881Y12067D01*
X2877Y12071D01*
X2877Y12346D01*
X2901Y12356D01*
X3038Y12492D01*
X3112Y12670D01*
X3112Y12863D01*
X3038Y13042D01*
X2902Y13178D01*
X2724Y13252D01*
X2531Y13252D01*
X2417Y13205D01*
X2417Y18547D01*
X6447Y22577D01*
X31507Y22577D01*
X35937Y18147D01*
X35937Y12517D01*
X35937Y12487D01*
X35937Y12487D01*
G37*
G54D29*
X35937Y12487D02*
X35307Y11857D01*
X35277Y11857D01*
X30947Y11857D01*
X29917Y12887D01*
X29917Y15667D01*
X29917Y17567D01*
X29917Y17567D01*
X29917Y18117D01*
X29895Y18228D01*
X29832Y18322D01*
X29832Y18322D01*
X27582Y20572D01*
X27488Y20635D01*
X27377Y20657D01*
X12177Y20657D01*
X9968Y20657D01*
X7927Y20657D01*
X7816Y20635D01*
X7722Y20572D01*
X7105Y19956D01*
X7043Y19862D01*
X7021Y19751D01*
X7021Y18595D01*
X6994Y18595D01*
X6917Y18563D01*
X6858Y18504D01*
X6826Y18427D01*
X6825Y18343D01*
X6825Y17793D01*
X6857Y17716D01*
X6916Y17657D01*
X6994Y17625D01*
X7077Y17625D01*
X7627Y17625D01*
X7704Y17657D01*
X7763Y17716D01*
X7795Y17793D01*
X7796Y17876D01*
X7796Y18426D01*
X7764Y18504D01*
X7705Y18563D01*
X7627Y18595D01*
X7601Y18595D01*
X7601Y19631D01*
X8047Y20077D01*
X9968Y20077D01*
X11477Y20077D01*
X11105Y19706D01*
X11043Y19612D01*
X11021Y19501D01*
X11021Y18506D01*
X10900Y18385D01*
X10826Y18207D01*
X10825Y18014D01*
X10899Y17835D01*
X11035Y17699D01*
X11214Y17625D01*
X11407Y17625D01*
X11585Y17698D01*
X11721Y17835D01*
X11795Y18013D01*
X11796Y18206D01*
X11722Y18384D01*
X11601Y18506D01*
X11601Y19381D01*
X12297Y20077D01*
X27257Y20077D01*
X29337Y17997D01*
X29337Y17687D01*
X29107Y17457D01*
X25327Y17457D01*
X25327Y17457D01*
X24677Y17457D01*
X24566Y17435D01*
X24472Y17372D01*
X24472Y17372D01*
X22827Y15727D01*
X22827Y16067D01*
X22827Y16067D01*
X22827Y16067D01*
X22823Y16086D01*
X22808Y16163D01*
X22808Y16163D01*
X22754Y16244D01*
X22754Y16244D01*
X22354Y16644D01*
X22273Y16698D01*
X22177Y16717D01*
X17727Y16717D01*
X17631Y16698D01*
X17550Y16644D01*
X17074Y16168D01*
X17075Y16231D01*
X17024Y16360D01*
X17018Y16368D01*
X16957Y16384D01*
X16740Y16167D01*
X16745Y16162D01*
X16733Y16149D01*
X16727Y16154D01*
X16721Y16149D01*
X16709Y16162D01*
X16714Y16167D01*
X16709Y16173D01*
X16721Y16186D01*
X16727Y16180D01*
X16944Y16397D01*
X16928Y16459D01*
X16801Y16513D01*
X16663Y16515D01*
X16561Y16474D01*
X16561Y17688D01*
X16585Y17698D01*
X16721Y17835D01*
X16795Y18013D01*
X16796Y18206D01*
X16722Y18384D01*
X16586Y18521D01*
X16407Y18595D01*
X16214Y18595D01*
X16036Y18521D01*
X15900Y18385D01*
X15826Y18207D01*
X15825Y18014D01*
X15899Y17835D01*
X16035Y17699D01*
X16061Y17688D01*
X16061Y16539D01*
X15997Y16512D01*
X15977Y16493D01*
X15958Y16512D01*
X15808Y16574D01*
X15796Y16574D01*
X15796Y18206D01*
X15722Y18384D01*
X15586Y18521D01*
X15407Y18595D01*
X15214Y18595D01*
X15036Y18521D01*
X14900Y18385D01*
X14826Y18207D01*
X14825Y18014D01*
X14899Y17835D01*
X15035Y17699D01*
X15061Y17688D01*
X15061Y17004D01*
X14796Y16739D01*
X14796Y18206D01*
X14722Y18384D01*
X14586Y18521D01*
X14407Y18595D01*
X14214Y18595D01*
X14036Y18521D01*
X13900Y18385D01*
X13826Y18207D01*
X13825Y18014D01*
X13899Y17835D01*
X14035Y17699D01*
X14214Y17625D01*
X14407Y17625D01*
X14585Y17698D01*
X14721Y17835D01*
X14795Y18013D01*
X14796Y18206D01*
X14796Y16739D01*
X14717Y16661D01*
X14679Y16677D01*
X14476Y16677D01*
X14289Y16600D01*
X14145Y16456D01*
X14067Y16269D01*
X14067Y16066D01*
X14144Y15879D01*
X14288Y15735D01*
X14475Y15657D01*
X14678Y15657D01*
X14866Y15735D01*
X15009Y15878D01*
X15087Y16065D01*
X15087Y16268D01*
X15071Y16308D01*
X15487Y16724D01*
X15487Y16724D01*
X15487Y16724D01*
X15541Y16805D01*
X15541Y16805D01*
X15557Y16882D01*
X15561Y16901D01*
X15561Y16901D01*
X15561Y16901D01*
X15561Y17688D01*
X15585Y17698D01*
X15721Y17835D01*
X15795Y18013D01*
X15796Y18206D01*
X15796Y16574D01*
X15646Y16574D01*
X15497Y16512D01*
X15382Y16398D01*
X15320Y16248D01*
X15320Y16114D01*
X14488Y15282D01*
X14379Y15327D01*
X14176Y15327D01*
X13989Y15250D01*
X13845Y15106D01*
X13796Y14988D01*
X13796Y18206D01*
X13722Y18384D01*
X13586Y18521D01*
X13407Y18595D01*
X13214Y18595D01*
X13036Y18521D01*
X12900Y18385D01*
X12826Y18207D01*
X12825Y18014D01*
X12899Y17835D01*
X13035Y17699D01*
X13214Y17625D01*
X13407Y17625D01*
X13585Y17698D01*
X13721Y17835D01*
X13795Y18013D01*
X13796Y18206D01*
X13796Y14988D01*
X13767Y14919D01*
X13767Y14716D01*
X13844Y14529D01*
X13856Y14517D01*
X13681Y14517D01*
X12796Y15402D01*
X12796Y18206D01*
X12722Y18384D01*
X12586Y18521D01*
X12407Y18595D01*
X12214Y18595D01*
X12036Y18521D01*
X11900Y18385D01*
X11826Y18207D01*
X11825Y18014D01*
X11899Y17835D01*
X12035Y17699D01*
X12214Y17625D01*
X12407Y17625D01*
X12585Y17698D01*
X12721Y17835D01*
X12795Y18013D01*
X12796Y18206D01*
X12796Y15402D01*
X11054Y17144D01*
X10973Y17198D01*
X10877Y17217D01*
X10737Y17217D01*
X10737Y18186D01*
X10675Y18344D01*
X10666Y18357D01*
X10597Y18383D01*
X10323Y18110D01*
X10597Y17836D01*
X10666Y17862D01*
X10734Y18017D01*
X10737Y18186D01*
X10737Y17217D01*
X10631Y17217D01*
X10118Y17730D01*
X10218Y17686D01*
X10387Y17683D01*
X10545Y17745D01*
X10558Y17754D01*
X10584Y17824D01*
X10311Y18097D01*
X10305Y18091D01*
X10292Y18104D01*
X10298Y18110D01*
X10292Y18115D01*
X10305Y18128D01*
X10311Y18122D01*
X10584Y18396D01*
X10558Y18466D01*
X10403Y18533D01*
X10234Y18536D01*
X10076Y18474D01*
X10067Y18468D01*
X10058Y18513D01*
X10058Y18513D01*
X10004Y18594D01*
X10004Y18594D01*
X9754Y18844D01*
X9673Y18898D01*
X9577Y18917D01*
X8677Y18917D01*
X8677Y18917D01*
X8658Y18913D01*
X8581Y18898D01*
X8500Y18844D01*
X8500Y18844D01*
X8251Y18595D01*
X8214Y18595D01*
X8036Y18521D01*
X7900Y18385D01*
X7826Y18207D01*
X7825Y18014D01*
X7899Y17835D01*
X8035Y17699D01*
X8214Y17625D01*
X8407Y17625D01*
X8484Y17657D01*
X8674Y17467D01*
X4881Y17467D01*
X4277Y18071D01*
X4277Y18564D01*
X6631Y20917D01*
X27724Y20917D01*
X29977Y18664D01*
X29977Y13624D01*
X29977Y13567D01*
X29996Y13472D01*
X30050Y13390D01*
X30651Y12790D01*
X30644Y12774D01*
X30644Y12533D01*
X30735Y12312D01*
X30905Y12142D01*
X31127Y12049D01*
X31367Y12049D01*
X31589Y12141D01*
X31759Y12311D01*
X31851Y12532D01*
X31851Y12773D01*
X31760Y12995D01*
X31637Y13117D01*
X33417Y13117D01*
X33295Y12995D01*
X33203Y12774D01*
X33203Y12533D01*
X33294Y12312D01*
X33464Y12142D01*
X33686Y12049D01*
X33926Y12049D01*
X34148Y12141D01*
X34318Y12311D01*
X34377Y12453D01*
X34435Y12312D01*
X34605Y12142D01*
X34827Y12049D01*
X35067Y12049D01*
X35289Y12141D01*
X35459Y12311D01*
X35551Y12532D01*
X35551Y12773D01*
X35494Y12912D01*
X35494Y14177D01*
X35415Y14379D01*
X35401Y14400D01*
X35319Y14440D01*
X35307Y14428D01*
X35307Y14453D01*
X35266Y14535D01*
X35068Y14622D01*
X34852Y14627D01*
X34650Y14549D01*
X34629Y14535D01*
X34588Y14453D01*
X34948Y14094D01*
X35307Y14453D01*
X35307Y14428D01*
X34960Y14081D01*
X35319Y13722D01*
X35401Y13763D01*
X35489Y13961D01*
X35494Y14177D01*
X35494Y12912D01*
X35460Y12995D01*
X35307Y13148D01*
X35307Y13710D01*
X34948Y14069D01*
X34935Y14056D01*
X34935Y14081D01*
X34576Y14440D01*
X34494Y14400D01*
X34406Y14202D01*
X34401Y13986D01*
X34480Y13784D01*
X34494Y13763D01*
X34576Y13722D01*
X34935Y14081D01*
X34935Y14056D01*
X34588Y13710D01*
X34629Y13628D01*
X34827Y13540D01*
X35043Y13535D01*
X35245Y13613D01*
X35266Y13628D01*
X35307Y13710D01*
X35307Y13148D01*
X35290Y13165D01*
X35068Y13257D01*
X34828Y13257D01*
X34802Y13246D01*
X34504Y13544D01*
X34423Y13598D01*
X34353Y13612D01*
X34353Y14177D01*
X34274Y14379D01*
X34260Y14400D01*
X34178Y14440D01*
X34166Y14428D01*
X34166Y14453D01*
X34125Y14535D01*
X33927Y14622D01*
X33711Y14627D01*
X33509Y14549D01*
X33488Y14535D01*
X33448Y14453D01*
X33807Y14094D01*
X34166Y14453D01*
X34166Y14428D01*
X33819Y14081D01*
X34178Y13722D01*
X34260Y13763D01*
X34348Y13961D01*
X34353Y14177D01*
X34353Y13612D01*
X34327Y13617D01*
X34109Y13617D01*
X34125Y13628D01*
X34166Y13710D01*
X33807Y14069D01*
X33794Y14056D01*
X33794Y14081D01*
X33435Y14440D01*
X33353Y14400D01*
X33266Y14202D01*
X33261Y13986D01*
X33339Y13784D01*
X33353Y13763D01*
X33435Y13722D01*
X33794Y14081D01*
X33794Y14056D01*
X33448Y13710D01*
X33488Y13628D01*
X33512Y13617D01*
X31794Y13617D01*
X31794Y14177D01*
X31715Y14379D01*
X31701Y14400D01*
X31619Y14440D01*
X31607Y14428D01*
X31607Y14453D01*
X31566Y14535D01*
X31368Y14622D01*
X31152Y14627D01*
X30950Y14549D01*
X30929Y14535D01*
X30888Y14453D01*
X31248Y14094D01*
X31607Y14453D01*
X31607Y14428D01*
X31260Y14081D01*
X31619Y13722D01*
X31701Y13763D01*
X31789Y13961D01*
X31794Y14177D01*
X31794Y13617D01*
X31550Y13617D01*
X31566Y13628D01*
X31607Y13710D01*
X31248Y14069D01*
X31242Y14063D01*
X31235Y14070D01*
X31229Y14076D01*
X31235Y14081D01*
X30876Y14440D01*
X30794Y14400D01*
X30706Y14202D01*
X30701Y13986D01*
X30780Y13784D01*
X30794Y13763D01*
X30876Y13722D01*
X30851Y13697D01*
X30677Y13871D01*
X30677Y14973D01*
X30699Y14958D01*
X30731Y14936D01*
X30731Y14936D01*
X30827Y14917D01*
X34127Y14917D01*
X34223Y14936D01*
X34304Y14990D01*
X34640Y15327D01*
X34827Y15249D01*
X35067Y15249D01*
X35289Y15341D01*
X35459Y15511D01*
X35551Y15732D01*
X35551Y15973D01*
X35460Y16195D01*
X35290Y16365D01*
X35068Y16457D01*
X34828Y16457D01*
X34606Y16365D01*
X34436Y16195D01*
X34377Y16053D01*
X34319Y16195D01*
X34149Y16365D01*
X33927Y16457D01*
X33687Y16457D01*
X33465Y16365D01*
X33295Y16195D01*
X33203Y15974D01*
X33203Y15733D01*
X33294Y15512D01*
X33389Y15417D01*
X31665Y15417D01*
X31759Y15511D01*
X31851Y15732D01*
X31851Y15973D01*
X31760Y16195D01*
X31590Y16365D01*
X31498Y16403D01*
X31498Y19347D01*
X31498Y19347D01*
X31498Y19347D01*
X31494Y19366D01*
X31479Y19442D01*
X31479Y19442D01*
X31424Y19524D01*
X31424Y19524D01*
X28704Y22244D01*
X28623Y22298D01*
X28527Y22317D01*
X6527Y22317D01*
X6431Y22298D01*
X6350Y22244D01*
X2950Y18844D01*
X2896Y18763D01*
X2877Y18667D01*
X2877Y13767D01*
X2896Y13672D01*
X2950Y13590D01*
X3359Y13181D01*
X3353Y13179D01*
X3216Y13042D01*
X3142Y12864D01*
X3142Y12671D01*
X3216Y12493D01*
X3352Y12356D01*
X3530Y12282D01*
X3723Y12282D01*
X3901Y12356D01*
X4038Y12492D01*
X4112Y12670D01*
X4112Y12863D01*
X4066Y12975D01*
X4152Y12888D01*
X4142Y12864D01*
X4142Y12671D01*
X4216Y12493D01*
X4352Y12356D01*
X4530Y12282D01*
X4723Y12282D01*
X4901Y12356D01*
X5038Y12492D01*
X5112Y12670D01*
X5112Y12863D01*
X5066Y12975D01*
X5152Y12888D01*
X5142Y12864D01*
X5142Y12671D01*
X5216Y12493D01*
X5352Y12356D01*
X5530Y12282D01*
X5723Y12282D01*
X5901Y12356D01*
X6038Y12492D01*
X6112Y12670D01*
X6112Y12863D01*
X6038Y13042D01*
X5902Y13178D01*
X5724Y13252D01*
X5531Y13252D01*
X5506Y13242D01*
X5204Y13544D01*
X5123Y13598D01*
X5027Y13617D01*
X4531Y13617D01*
X3977Y14171D01*
X3977Y17664D01*
X4600Y17040D01*
X4600Y17040D01*
X4681Y16986D01*
X4681Y16986D01*
X4758Y16971D01*
X4777Y16967D01*
X4777Y16967D01*
X4777Y16967D01*
X8874Y16967D01*
X9277Y16564D01*
X9277Y14017D01*
X9296Y13922D01*
X9350Y13840D01*
X9674Y13517D01*
X9327Y13517D01*
X9231Y13498D01*
X9212Y13485D01*
X9212Y16463D01*
X9138Y16642D01*
X9002Y16778D01*
X8824Y16852D01*
X8631Y16852D01*
X8453Y16779D01*
X8316Y16642D01*
X8242Y16464D01*
X8242Y16271D01*
X8252Y16246D01*
X8154Y16147D01*
X8154Y16444D01*
X8092Y16601D01*
X8083Y16615D01*
X8013Y16641D01*
X8001Y16628D01*
X8001Y16653D01*
X7974Y16723D01*
X7819Y16791D01*
X7650Y16794D01*
X7493Y16732D01*
X7480Y16723D01*
X7454Y16653D01*
X7727Y16380D01*
X8001Y16653D01*
X8001Y16628D01*
X7740Y16367D01*
X8013Y16094D01*
X8083Y16120D01*
X8150Y16275D01*
X8154Y16444D01*
X8154Y16147D01*
X8001Y15994D01*
X8001Y16081D01*
X7727Y16354D01*
X7714Y16342D01*
X7714Y16367D01*
X7441Y16641D01*
X7371Y16615D01*
X7304Y16460D01*
X7301Y16291D01*
X7362Y16133D01*
X7371Y16120D01*
X7441Y16094D01*
X7714Y16367D01*
X7714Y16342D01*
X7454Y16081D01*
X7480Y16011D01*
X7635Y15944D01*
X7804Y15941D01*
X7961Y16003D01*
X7974Y16011D01*
X8001Y16081D01*
X8001Y15994D01*
X7950Y15944D01*
X7896Y15863D01*
X7877Y15767D01*
X7877Y14994D01*
X7850Y14983D01*
X7712Y14845D01*
X7637Y14665D01*
X7637Y14470D01*
X7649Y14442D01*
X7450Y14244D01*
X7396Y14163D01*
X7377Y14067D01*
X7377Y13189D01*
X7353Y13179D01*
X7216Y13042D01*
X7142Y12864D01*
X7142Y12671D01*
X7216Y12493D01*
X7352Y12356D01*
X7530Y12282D01*
X7723Y12282D01*
X7901Y12356D01*
X8038Y12492D01*
X8112Y12670D01*
X8112Y12863D01*
X8038Y13042D01*
X7902Y13178D01*
X7877Y13189D01*
X7877Y13964D01*
X8002Y14089D01*
X8029Y14077D01*
X8224Y14077D01*
X8404Y14152D01*
X8542Y14289D01*
X8617Y14469D01*
X8617Y14664D01*
X8543Y14844D01*
X8405Y14982D01*
X8377Y14994D01*
X8377Y15664D01*
X8606Y15892D01*
X8630Y15882D01*
X8823Y15882D01*
X9001Y15956D01*
X9138Y16092D01*
X9212Y16270D01*
X9212Y16463D01*
X9212Y13485D01*
X9199Y13476D01*
X9150Y13444D01*
X9150Y13444D01*
X8950Y13244D01*
X8896Y13163D01*
X8883Y13099D01*
X8874Y13123D01*
X8719Y13191D01*
X8550Y13194D01*
X8393Y13132D01*
X8380Y13123D01*
X8354Y13053D01*
X8627Y12780D01*
X8633Y12786D01*
X8645Y12773D01*
X8640Y12767D01*
X8645Y12762D01*
X8633Y12749D01*
X8627Y12754D01*
X8614Y12742D01*
X8614Y12767D01*
X8341Y13041D01*
X8271Y13015D01*
X8204Y12860D01*
X8201Y12691D01*
X8262Y12533D01*
X8271Y12520D01*
X8341Y12494D01*
X8614Y12767D01*
X8614Y12742D01*
X8354Y12481D01*
X8380Y12411D01*
X8535Y12344D01*
X8704Y12341D01*
X8861Y12403D01*
X8874Y12411D01*
X8877Y12418D01*
X8877Y12171D01*
X8774Y12067D01*
X7112Y12067D01*
X7112Y12863D01*
X7038Y13042D01*
X6902Y13178D01*
X6877Y13189D01*
X6877Y14067D01*
X6858Y14163D01*
X6854Y14170D01*
X6854Y16444D01*
X6792Y16601D01*
X6783Y16615D01*
X6713Y16641D01*
X6701Y16628D01*
X6701Y16653D01*
X6674Y16723D01*
X6519Y16791D01*
X6350Y16794D01*
X6193Y16732D01*
X6180Y16723D01*
X6154Y16653D01*
X6427Y16380D01*
X6701Y16653D01*
X6701Y16628D01*
X6440Y16367D01*
X6713Y16094D01*
X6783Y16120D01*
X6850Y16275D01*
X6854Y16444D01*
X6854Y14170D01*
X6804Y14244D01*
X6701Y14347D01*
X6701Y16081D01*
X6427Y16354D01*
X6414Y16342D01*
X6414Y16367D01*
X6141Y16641D01*
X6071Y16615D01*
X6004Y16460D01*
X6001Y16291D01*
X6062Y16133D01*
X6071Y16120D01*
X6141Y16094D01*
X6414Y16367D01*
X6414Y16342D01*
X6154Y16081D01*
X6180Y16011D01*
X6335Y15944D01*
X6504Y15941D01*
X6661Y16003D01*
X6674Y16011D01*
X6701Y16081D01*
X6701Y14347D01*
X6606Y14442D01*
X6617Y14469D01*
X6617Y14664D01*
X6543Y14844D01*
X6405Y14982D01*
X6377Y14994D01*
X6377Y15667D01*
X6377Y15667D01*
X6377Y15667D01*
X6373Y15686D01*
X6358Y15763D01*
X6358Y15763D01*
X6304Y15844D01*
X6304Y15844D01*
X5902Y16246D01*
X5912Y16270D01*
X5912Y16463D01*
X5838Y16642D01*
X5702Y16778D01*
X5524Y16852D01*
X5331Y16852D01*
X5153Y16779D01*
X5016Y16642D01*
X4942Y16464D01*
X4942Y16271D01*
X5016Y16093D01*
X5152Y15956D01*
X5330Y15882D01*
X5523Y15882D01*
X5548Y15893D01*
X5877Y15564D01*
X5877Y14994D01*
X5850Y14983D01*
X5712Y14845D01*
X5637Y14665D01*
X5637Y14470D01*
X5711Y14290D01*
X5849Y14152D01*
X6029Y14077D01*
X6224Y14077D01*
X6252Y14089D01*
X6377Y13964D01*
X6377Y13189D01*
X6353Y13179D01*
X6216Y13042D01*
X6142Y12864D01*
X6142Y12671D01*
X6216Y12493D01*
X6352Y12356D01*
X6530Y12282D01*
X6723Y12282D01*
X6901Y12356D01*
X7038Y12492D01*
X7112Y12670D01*
X7112Y12863D01*
X7112Y12067D01*
X2881Y12067D01*
X2877Y12071D01*
X2877Y12346D01*
X2901Y12356D01*
X3038Y12492D01*
X3112Y12670D01*
X3112Y12863D01*
X3038Y13042D01*
X2902Y13178D01*
X2724Y13252D01*
X2531Y13252D01*
X2417Y13205D01*
X2417Y18547D01*
X6447Y22577D01*
X31507Y22577D01*
X35937Y18147D01*
X35937Y12517D01*
X35937Y12487D01*
G54D10*
G36*
X35937Y4237D02*
X35757Y4057D01*
X35494Y4057D01*
X35494Y10977D01*
X35415Y11179D01*
X35401Y11200D01*
X35319Y11240D01*
X34960Y10881D01*
X35319Y10522D01*
X35401Y10563D01*
X35489Y10761D01*
X35494Y10977D01*
X35494Y4057D01*
X35307Y4057D01*
X35307Y10510D01*
X34948Y10869D01*
X34935Y10856D01*
X34935Y10881D01*
X34576Y11240D01*
X34494Y11200D01*
X34406Y11002D01*
X34401Y10786D01*
X34480Y10584D01*
X34494Y10563D01*
X34576Y10522D01*
X34935Y10881D01*
X34935Y10856D01*
X34588Y10510D01*
X34629Y10428D01*
X34827Y10340D01*
X35043Y10335D01*
X35245Y10413D01*
X35266Y10428D01*
X35307Y10510D01*
X35307Y4057D01*
X34834Y4057D01*
X34843Y4066D01*
X34914Y4237D01*
X34914Y4422D01*
X34844Y4594D01*
X34713Y4725D01*
X34541Y4796D01*
X34356Y4796D01*
X34185Y4725D01*
X34054Y4594D01*
X33982Y4423D01*
X33982Y4238D01*
X34053Y4067D01*
X34063Y4057D01*
X32866Y4057D01*
X32875Y4066D01*
X32946Y4237D01*
X32946Y4422D01*
X32875Y4594D01*
X32744Y4725D01*
X32642Y4767D01*
X33777Y4767D01*
X33873Y4786D01*
X33954Y4840D01*
X34336Y5223D01*
X34505Y5222D01*
X34756Y5326D01*
X34948Y5518D01*
X35052Y5769D01*
X35052Y6040D01*
X34948Y6291D01*
X34757Y6483D01*
X34506Y6587D01*
X34353Y6587D01*
X34353Y10977D01*
X34274Y11179D01*
X34260Y11200D01*
X34178Y11240D01*
X33819Y10881D01*
X34178Y10522D01*
X34260Y10563D01*
X34348Y10761D01*
X34353Y10977D01*
X34353Y6587D01*
X34234Y6588D01*
X34166Y6559D01*
X34166Y10510D01*
X33807Y10869D01*
X33794Y10856D01*
X33794Y10881D01*
X33435Y11240D01*
X33353Y11200D01*
X33266Y11002D01*
X33261Y10786D01*
X33339Y10584D01*
X33353Y10563D01*
X33435Y10522D01*
X33794Y10881D01*
X33794Y10856D01*
X33448Y10510D01*
X33488Y10428D01*
X33686Y10340D01*
X33902Y10335D01*
X34104Y10413D01*
X34125Y10428D01*
X34166Y10510D01*
X34166Y6559D01*
X33984Y6484D01*
X33791Y6292D01*
X33687Y6041D01*
X33687Y5770D01*
X33791Y5519D01*
X33858Y5452D01*
X33674Y5267D01*
X32802Y5267D01*
X32945Y5326D01*
X33137Y5518D01*
X33241Y5769D01*
X33241Y6040D01*
X33137Y6291D01*
X32946Y6483D01*
X32695Y6587D01*
X32423Y6588D01*
X32172Y6484D01*
X31980Y6292D01*
X31923Y6155D01*
X31893Y6155D01*
X31794Y6254D01*
X31794Y10977D01*
X31715Y11179D01*
X31701Y11200D01*
X31619Y11240D01*
X31260Y10881D01*
X31619Y10522D01*
X31701Y10563D01*
X31789Y10761D01*
X31794Y10977D01*
X31794Y6254D01*
X31504Y6544D01*
X31423Y6598D01*
X31327Y6617D01*
X31134Y6617D01*
X31137Y6625D01*
X31137Y6709D01*
X31137Y7124D01*
X31654Y7640D01*
X31708Y7722D01*
X31727Y7817D01*
X31727Y8317D01*
X31708Y8413D01*
X31654Y8494D01*
X31607Y8541D01*
X31607Y10510D01*
X31248Y10869D01*
X31235Y10856D01*
X31235Y10881D01*
X30876Y11240D01*
X30794Y11200D01*
X30706Y11002D01*
X30701Y10786D01*
X30780Y10584D01*
X30794Y10563D01*
X30876Y10522D01*
X31235Y10881D01*
X31235Y10856D01*
X30888Y10510D01*
X30929Y10428D01*
X31127Y10340D01*
X31343Y10335D01*
X31545Y10413D01*
X31566Y10428D01*
X31607Y10510D01*
X31607Y8541D01*
X30477Y9671D01*
X30477Y10967D01*
X30477Y10967D01*
X30477Y10967D01*
X30473Y10986D01*
X30458Y11063D01*
X30458Y11063D01*
X30404Y11144D01*
X30404Y11144D01*
X29327Y12221D01*
X29327Y13217D01*
X29327Y13217D01*
X29327Y13217D01*
X29323Y13236D01*
X29308Y13313D01*
X29308Y13313D01*
X29254Y13394D01*
X29254Y13394D01*
X28554Y14094D01*
X28477Y14145D01*
X28477Y15497D01*
X28477Y16038D01*
X28477Y16097D01*
X28454Y16152D01*
X28412Y16194D01*
X28357Y16217D01*
X28074Y16217D01*
X28036Y16180D01*
X28036Y15776D01*
X28440Y15776D01*
X28477Y15814D01*
X28477Y16038D01*
X28477Y15497D01*
X28477Y15721D01*
X28440Y15758D01*
X28036Y15758D01*
X28036Y15355D01*
X28074Y15317D01*
X28357Y15317D01*
X28412Y15340D01*
X28454Y15382D01*
X28477Y15437D01*
X28477Y15497D01*
X28477Y14145D01*
X28473Y14148D01*
X28452Y14152D01*
X28452Y14472D01*
X28452Y14963D01*
X28452Y15022D01*
X28429Y15077D01*
X28387Y15119D01*
X28332Y15142D01*
X28074Y15142D01*
X28036Y15105D01*
X28036Y14726D01*
X28415Y14726D01*
X28452Y14764D01*
X28452Y14963D01*
X28452Y14472D01*
X28452Y14671D01*
X28415Y14708D01*
X28036Y14708D01*
X28036Y14330D01*
X28074Y14292D01*
X28332Y14292D01*
X28387Y14315D01*
X28429Y14357D01*
X28452Y14412D01*
X28452Y14472D01*
X28452Y14152D01*
X28377Y14167D01*
X28018Y14167D01*
X28018Y14330D01*
X28018Y14708D01*
X28018Y14726D01*
X28018Y15105D01*
X28018Y15355D01*
X28018Y15758D01*
X28018Y15776D01*
X28018Y16180D01*
X27981Y16217D01*
X27697Y16217D01*
X27642Y16194D01*
X27600Y16152D01*
X27577Y16097D01*
X27577Y16038D01*
X27577Y15814D01*
X27615Y15776D01*
X28018Y15776D01*
X28018Y15758D01*
X27615Y15758D01*
X27577Y15721D01*
X27577Y15497D01*
X27577Y15437D01*
X27600Y15382D01*
X27642Y15340D01*
X27697Y15317D01*
X27981Y15317D01*
X28018Y15355D01*
X28018Y15105D01*
X27981Y15142D01*
X27722Y15142D01*
X27667Y15119D01*
X27625Y15077D01*
X27602Y15022D01*
X27602Y14963D01*
X27602Y14764D01*
X27640Y14726D01*
X28018Y14726D01*
X28018Y14708D01*
X27640Y14708D01*
X27602Y14671D01*
X27602Y14472D01*
X27602Y14412D01*
X27625Y14357D01*
X27667Y14315D01*
X27722Y14292D01*
X27981Y14292D01*
X28018Y14330D01*
X28018Y14167D01*
X27137Y14167D01*
X27232Y14262D01*
X27232Y14262D01*
X27232Y14262D01*
X27246Y14283D01*
X27246Y14283D01*
X27301Y14306D01*
X27438Y14442D01*
X27512Y14620D01*
X27512Y14813D01*
X27438Y14992D01*
X27302Y15128D01*
X27124Y15202D01*
X26931Y15202D01*
X26753Y15129D01*
X26616Y14992D01*
X26542Y14814D01*
X26542Y14621D01*
X26609Y14459D01*
X26607Y14457D01*
X26444Y14457D01*
X26512Y14620D01*
X26512Y14813D01*
X26438Y14992D01*
X26302Y15128D01*
X26277Y15139D01*
X26277Y15319D01*
X26316Y15335D01*
X26459Y15478D01*
X26527Y15642D01*
X26594Y15479D01*
X26738Y15335D01*
X26925Y15257D01*
X27128Y15257D01*
X27316Y15335D01*
X27459Y15478D01*
X27537Y15665D01*
X27537Y15868D01*
X27460Y16056D01*
X27316Y16199D01*
X27129Y16277D01*
X26971Y16277D01*
X26504Y16744D01*
X26423Y16798D01*
X26327Y16817D01*
X25387Y16817D01*
X25447Y16877D01*
X29227Y16877D01*
X29337Y16899D01*
X29337Y15667D01*
X29337Y12767D01*
X29359Y12656D01*
X29422Y12562D01*
X30622Y11362D01*
X30622Y11362D01*
X30716Y11299D01*
X30827Y11277D01*
X30827Y11277D01*
X30827Y11277D01*
X30900Y11277D01*
X30888Y11253D01*
X31248Y10894D01*
X31607Y11253D01*
X31595Y11277D01*
X33459Y11277D01*
X33448Y11253D01*
X33807Y10894D01*
X34166Y11253D01*
X34154Y11277D01*
X34600Y11277D01*
X34588Y11253D01*
X34948Y10894D01*
X35307Y11253D01*
X35295Y11277D01*
X35427Y11277D01*
X35538Y11299D01*
X35632Y11362D01*
X35937Y11667D01*
X35937Y4237D01*
X35937Y4237D01*
G37*
G54D29*
X35937Y4237D02*
X35757Y4057D01*
X35494Y4057D01*
X35494Y10977D01*
X35415Y11179D01*
X35401Y11200D01*
X35319Y11240D01*
X34960Y10881D01*
X35319Y10522D01*
X35401Y10563D01*
X35489Y10761D01*
X35494Y10977D01*
X35494Y4057D01*
X35307Y4057D01*
X35307Y10510D01*
X34948Y10869D01*
X34935Y10856D01*
X34935Y10881D01*
X34576Y11240D01*
X34494Y11200D01*
X34406Y11002D01*
X34401Y10786D01*
X34480Y10584D01*
X34494Y10563D01*
X34576Y10522D01*
X34935Y10881D01*
X34935Y10856D01*
X34588Y10510D01*
X34629Y10428D01*
X34827Y10340D01*
X35043Y10335D01*
X35245Y10413D01*
X35266Y10428D01*
X35307Y10510D01*
X35307Y4057D01*
X34834Y4057D01*
X34843Y4066D01*
X34914Y4237D01*
X34914Y4422D01*
X34844Y4594D01*
X34713Y4725D01*
X34541Y4796D01*
X34356Y4796D01*
X34185Y4725D01*
X34054Y4594D01*
X33982Y4423D01*
X33982Y4238D01*
X34053Y4067D01*
X34063Y4057D01*
X32866Y4057D01*
X32875Y4066D01*
X32946Y4237D01*
X32946Y4422D01*
X32875Y4594D01*
X32744Y4725D01*
X32642Y4767D01*
X33777Y4767D01*
X33873Y4786D01*
X33954Y4840D01*
X34336Y5223D01*
X34505Y5222D01*
X34756Y5326D01*
X34948Y5518D01*
X35052Y5769D01*
X35052Y6040D01*
X34948Y6291D01*
X34757Y6483D01*
X34506Y6587D01*
X34353Y6587D01*
X34353Y10977D01*
X34274Y11179D01*
X34260Y11200D01*
X34178Y11240D01*
X33819Y10881D01*
X34178Y10522D01*
X34260Y10563D01*
X34348Y10761D01*
X34353Y10977D01*
X34353Y6587D01*
X34234Y6588D01*
X34166Y6559D01*
X34166Y10510D01*
X33807Y10869D01*
X33794Y10856D01*
X33794Y10881D01*
X33435Y11240D01*
X33353Y11200D01*
X33266Y11002D01*
X33261Y10786D01*
X33339Y10584D01*
X33353Y10563D01*
X33435Y10522D01*
X33794Y10881D01*
X33794Y10856D01*
X33448Y10510D01*
X33488Y10428D01*
X33686Y10340D01*
X33902Y10335D01*
X34104Y10413D01*
X34125Y10428D01*
X34166Y10510D01*
X34166Y6559D01*
X33984Y6484D01*
X33791Y6292D01*
X33687Y6041D01*
X33687Y5770D01*
X33791Y5519D01*
X33858Y5452D01*
X33674Y5267D01*
X32802Y5267D01*
X32945Y5326D01*
X33137Y5518D01*
X33241Y5769D01*
X33241Y6040D01*
X33137Y6291D01*
X32946Y6483D01*
X32695Y6587D01*
X32423Y6588D01*
X32172Y6484D01*
X31980Y6292D01*
X31923Y6155D01*
X31893Y6155D01*
X31794Y6254D01*
X31794Y10977D01*
X31715Y11179D01*
X31701Y11200D01*
X31619Y11240D01*
X31260Y10881D01*
X31619Y10522D01*
X31701Y10563D01*
X31789Y10761D01*
X31794Y10977D01*
X31794Y6254D01*
X31504Y6544D01*
X31423Y6598D01*
X31327Y6617D01*
X31134Y6617D01*
X31137Y6625D01*
X31137Y6709D01*
X31137Y7124D01*
X31654Y7640D01*
X31708Y7722D01*
X31727Y7817D01*
X31727Y8317D01*
X31708Y8413D01*
X31654Y8494D01*
X31607Y8541D01*
X31607Y10510D01*
X31248Y10869D01*
X31235Y10856D01*
X31235Y10881D01*
X30876Y11240D01*
X30794Y11200D01*
X30706Y11002D01*
X30701Y10786D01*
X30780Y10584D01*
X30794Y10563D01*
X30876Y10522D01*
X31235Y10881D01*
X31235Y10856D01*
X30888Y10510D01*
X30929Y10428D01*
X31127Y10340D01*
X31343Y10335D01*
X31545Y10413D01*
X31566Y10428D01*
X31607Y10510D01*
X31607Y8541D01*
X30477Y9671D01*
X30477Y10967D01*
X30477Y10967D01*
X30477Y10967D01*
X30473Y10986D01*
X30458Y11063D01*
X30458Y11063D01*
X30404Y11144D01*
X30404Y11144D01*
X29327Y12221D01*
X29327Y13217D01*
X29327Y13217D01*
X29327Y13217D01*
X29323Y13236D01*
X29308Y13313D01*
X29308Y13313D01*
X29254Y13394D01*
X29254Y13394D01*
X28554Y14094D01*
X28477Y14145D01*
X28477Y15497D01*
X28477Y16038D01*
X28477Y16097D01*
X28454Y16152D01*
X28412Y16194D01*
X28357Y16217D01*
X28074Y16217D01*
X28036Y16180D01*
X28036Y15776D01*
X28440Y15776D01*
X28477Y15814D01*
X28477Y16038D01*
X28477Y15497D01*
X28477Y15721D01*
X28440Y15758D01*
X28036Y15758D01*
X28036Y15355D01*
X28074Y15317D01*
X28357Y15317D01*
X28412Y15340D01*
X28454Y15382D01*
X28477Y15437D01*
X28477Y15497D01*
X28477Y14145D01*
X28473Y14148D01*
X28452Y14152D01*
X28452Y14472D01*
X28452Y14963D01*
X28452Y15022D01*
X28429Y15077D01*
X28387Y15119D01*
X28332Y15142D01*
X28074Y15142D01*
X28036Y15105D01*
X28036Y14726D01*
X28415Y14726D01*
X28452Y14764D01*
X28452Y14963D01*
X28452Y14472D01*
X28452Y14671D01*
X28415Y14708D01*
X28036Y14708D01*
X28036Y14330D01*
X28074Y14292D01*
X28332Y14292D01*
X28387Y14315D01*
X28429Y14357D01*
X28452Y14412D01*
X28452Y14472D01*
X28452Y14152D01*
X28377Y14167D01*
X28018Y14167D01*
X28018Y14330D01*
X28018Y14708D01*
X28018Y14726D01*
X28018Y15105D01*
X28018Y15355D01*
X28018Y15758D01*
X28018Y15776D01*
X28018Y16180D01*
X27981Y16217D01*
X27697Y16217D01*
X27642Y16194D01*
X27600Y16152D01*
X27577Y16097D01*
X27577Y16038D01*
X27577Y15814D01*
X27615Y15776D01*
X28018Y15776D01*
X28018Y15758D01*
X27615Y15758D01*
X27577Y15721D01*
X27577Y15497D01*
X27577Y15437D01*
X27600Y15382D01*
X27642Y15340D01*
X27697Y15317D01*
X27981Y15317D01*
X28018Y15355D01*
X28018Y15105D01*
X27981Y15142D01*
X27722Y15142D01*
X27667Y15119D01*
X27625Y15077D01*
X27602Y15022D01*
X27602Y14963D01*
X27602Y14764D01*
X27640Y14726D01*
X28018Y14726D01*
X28018Y14708D01*
X27640Y14708D01*
X27602Y14671D01*
X27602Y14472D01*
X27602Y14412D01*
X27625Y14357D01*
X27667Y14315D01*
X27722Y14292D01*
X27981Y14292D01*
X28018Y14330D01*
X28018Y14167D01*
X27137Y14167D01*
X27232Y14262D01*
X27232Y14262D01*
X27232Y14262D01*
X27246Y14283D01*
X27246Y14283D01*
X27301Y14306D01*
X27438Y14442D01*
X27512Y14620D01*
X27512Y14813D01*
X27438Y14992D01*
X27302Y15128D01*
X27124Y15202D01*
X26931Y15202D01*
X26753Y15129D01*
X26616Y14992D01*
X26542Y14814D01*
X26542Y14621D01*
X26609Y14459D01*
X26607Y14457D01*
X26444Y14457D01*
X26512Y14620D01*
X26512Y14813D01*
X26438Y14992D01*
X26302Y15128D01*
X26277Y15139D01*
X26277Y15319D01*
X26316Y15335D01*
X26459Y15478D01*
X26527Y15642D01*
X26594Y15479D01*
X26738Y15335D01*
X26925Y15257D01*
X27128Y15257D01*
X27316Y15335D01*
X27459Y15478D01*
X27537Y15665D01*
X27537Y15868D01*
X27460Y16056D01*
X27316Y16199D01*
X27129Y16277D01*
X26971Y16277D01*
X26504Y16744D01*
X26423Y16798D01*
X26327Y16817D01*
X25387Y16817D01*
X25447Y16877D01*
X29227Y16877D01*
X29337Y16899D01*
X29337Y15667D01*
X29337Y12767D01*
X29359Y12656D01*
X29422Y12562D01*
X30622Y11362D01*
X30622Y11362D01*
X30716Y11299D01*
X30827Y11277D01*
X30827Y11277D01*
X30827Y11277D01*
X30900Y11277D01*
X30888Y11253D01*
X31248Y10894D01*
X31607Y11253D01*
X31595Y11277D01*
X33459Y11277D01*
X33448Y11253D01*
X33807Y10894D01*
X34166Y11253D01*
X34154Y11277D01*
X34600Y11277D01*
X34588Y11253D01*
X34948Y10894D01*
X35307Y11253D01*
X35295Y11277D01*
X35427Y11277D01*
X35538Y11299D01*
X35632Y11362D01*
X35937Y11667D01*
X35937Y4237D01*
G54D10*
G36*
X38138Y3815D02*
X38122Y3832D01*
X38110Y3837D01*
X38110Y12773D01*
X38110Y15973D01*
X38019Y16195D01*
X37849Y16365D01*
X37627Y16457D01*
X37387Y16457D01*
X37165Y16365D01*
X36995Y16195D01*
X36903Y15974D01*
X36903Y15733D01*
X36994Y15512D01*
X37164Y15342D01*
X37386Y15249D01*
X37626Y15249D01*
X37848Y15341D01*
X38018Y15511D01*
X38110Y15732D01*
X38110Y15973D01*
X38110Y12773D01*
X38053Y12912D01*
X38053Y14177D01*
X37974Y14379D01*
X37960Y14400D01*
X37878Y14440D01*
X37866Y14428D01*
X37866Y14453D01*
X37825Y14535D01*
X37627Y14622D01*
X37411Y14627D01*
X37209Y14549D01*
X37188Y14535D01*
X37148Y14453D01*
X37507Y14094D01*
X37866Y14453D01*
X37866Y14428D01*
X37519Y14081D01*
X37878Y13722D01*
X37960Y13763D01*
X38048Y13961D01*
X38053Y14177D01*
X38053Y12912D01*
X38019Y12995D01*
X37866Y13148D01*
X37866Y13710D01*
X37507Y14069D01*
X37494Y14056D01*
X37494Y14081D01*
X37135Y14440D01*
X37053Y14400D01*
X36966Y14202D01*
X36961Y13986D01*
X37039Y13784D01*
X37053Y13763D01*
X37135Y13722D01*
X37494Y14081D01*
X37494Y14056D01*
X37148Y13710D01*
X37188Y13628D01*
X37386Y13540D01*
X37602Y13535D01*
X37804Y13613D01*
X37825Y13628D01*
X37866Y13710D01*
X37866Y13148D01*
X37849Y13165D01*
X37627Y13257D01*
X37387Y13257D01*
X37165Y13165D01*
X36995Y12995D01*
X36903Y12774D01*
X36903Y12533D01*
X36994Y12312D01*
X37164Y12142D01*
X37386Y12049D01*
X37626Y12049D01*
X37848Y12141D01*
X38018Y12311D01*
X38110Y12532D01*
X38110Y12773D01*
X38110Y3837D01*
X38053Y3861D01*
X38053Y10977D01*
X37974Y11179D01*
X37960Y11200D01*
X37878Y11240D01*
X37866Y11228D01*
X37866Y11253D01*
X37825Y11335D01*
X37627Y11422D01*
X37411Y11427D01*
X37209Y11349D01*
X37188Y11335D01*
X37148Y11253D01*
X37507Y10894D01*
X37866Y11253D01*
X37866Y11228D01*
X37519Y10881D01*
X37878Y10522D01*
X37960Y10563D01*
X38048Y10761D01*
X38053Y10977D01*
X38053Y3861D01*
X37866Y3938D01*
X37866Y10510D01*
X37507Y10869D01*
X37494Y10856D01*
X37494Y10881D01*
X37135Y11240D01*
X37053Y11200D01*
X36966Y11002D01*
X36961Y10786D01*
X37039Y10584D01*
X37053Y10563D01*
X37135Y10522D01*
X37494Y10881D01*
X37494Y10856D01*
X37148Y10510D01*
X37188Y10428D01*
X37386Y10340D01*
X37602Y10335D01*
X37804Y10413D01*
X37825Y10428D01*
X37866Y10510D01*
X37866Y3938D01*
X37655Y4026D01*
X37149Y4026D01*
X36682Y3833D01*
X36325Y3476D01*
X36131Y3009D01*
X36130Y2504D01*
X36323Y2037D01*
X36342Y2018D01*
X35546Y2018D01*
X35546Y3060D01*
X35457Y3291D01*
X35439Y3318D01*
X35349Y3368D01*
X34933Y2952D01*
X35349Y2536D01*
X35439Y2587D01*
X35540Y2813D01*
X35546Y3060D01*
X35546Y2018D01*
X35337Y2018D01*
X35337Y2524D01*
X34921Y2940D01*
X34908Y2927D01*
X34908Y2952D01*
X34492Y3368D01*
X34402Y3318D01*
X34302Y3092D01*
X34295Y2844D01*
X34384Y2613D01*
X34402Y2587D01*
X34492Y2536D01*
X34908Y2952D01*
X34908Y2927D01*
X34505Y2524D01*
X34555Y2434D01*
X34781Y2333D01*
X35029Y2327D01*
X35260Y2416D01*
X35286Y2434D01*
X35337Y2524D01*
X35337Y2018D01*
X32633Y2018D01*
X32633Y3060D01*
X32544Y3291D01*
X32526Y3318D01*
X32436Y3368D01*
X32020Y2952D01*
X32436Y2536D01*
X32526Y2587D01*
X32627Y2813D01*
X32633Y3060D01*
X32633Y2018D01*
X32423Y2018D01*
X32423Y2524D01*
X32007Y2940D01*
X31995Y2927D01*
X31995Y2952D01*
X31579Y3368D01*
X31489Y3318D01*
X31388Y3092D01*
X31382Y2844D01*
X31471Y2613D01*
X31489Y2587D01*
X31579Y2536D01*
X31995Y2952D01*
X31995Y2927D01*
X31592Y2524D01*
X31642Y2434D01*
X31868Y2333D01*
X32116Y2327D01*
X32347Y2416D01*
X32373Y2434D01*
X32423Y2524D01*
X32423Y2018D01*
X31377Y2018D01*
X31377Y3477D01*
X31627Y3477D01*
X31651Y3477D01*
X31642Y3471D01*
X31592Y3381D01*
X32007Y2965D01*
X32423Y3381D01*
X32373Y3471D01*
X32359Y3477D01*
X34564Y3477D01*
X34555Y3471D01*
X34505Y3381D01*
X34921Y2965D01*
X35337Y3381D01*
X35286Y3471D01*
X35272Y3477D01*
X35877Y3477D01*
X35988Y3499D01*
X36082Y3562D01*
X36432Y3912D01*
X36432Y3912D01*
X36432Y3912D01*
X36495Y4006D01*
X36517Y4117D01*
X36517Y4117D01*
X36517Y4117D01*
X36517Y12367D01*
X36517Y12367D01*
X36517Y12517D01*
X36517Y18267D01*
X36495Y18378D01*
X36432Y18472D01*
X31832Y23072D01*
X31738Y23135D01*
X31627Y23157D01*
X6327Y23157D01*
X6216Y23135D01*
X6122Y23072D01*
X1922Y18872D01*
X1859Y18778D01*
X1837Y18667D01*
X1837Y11917D01*
X1859Y11806D01*
X1922Y11712D01*
X2272Y11362D01*
X2272Y11362D01*
X2366Y11299D01*
X2477Y11277D01*
X2477Y11277D01*
X2477Y11277D01*
X8477Y11277D01*
X8477Y11217D01*
X3177Y11217D01*
X3081Y11198D01*
X3049Y11176D01*
X3000Y11144D01*
X3000Y11144D01*
X2000Y10144D01*
X1946Y10063D01*
X1927Y9967D01*
X1927Y9217D01*
X1946Y9122D01*
X2000Y9040D01*
X2215Y8826D01*
X2095Y8706D01*
X2017Y8519D01*
X2017Y8316D01*
X2094Y8129D01*
X2238Y7985D01*
X2277Y7969D01*
X2277Y7866D01*
X2239Y7850D01*
X2095Y7706D01*
X2017Y7519D01*
X2017Y7316D01*
X2094Y7129D01*
X2238Y6985D01*
X2425Y6907D01*
X2628Y6907D01*
X2816Y6985D01*
X2959Y7128D01*
X3037Y7315D01*
X3037Y7518D01*
X2960Y7706D01*
X2816Y7849D01*
X2777Y7866D01*
X2777Y7969D01*
X2816Y7985D01*
X2959Y8128D01*
X3037Y8315D01*
X3037Y8518D01*
X2960Y8706D01*
X2816Y8849D01*
X2777Y8866D01*
X2777Y8867D01*
X2777Y8867D01*
X2777Y8867D01*
X2773Y8886D01*
X2758Y8963D01*
X2758Y8963D01*
X2704Y9044D01*
X2704Y9044D01*
X2427Y9321D01*
X2427Y9325D01*
X2530Y9282D01*
X2723Y9282D01*
X2890Y9351D01*
X2896Y9322D01*
X2950Y9240D01*
X3100Y9090D01*
X3181Y9036D01*
X3181Y9036D01*
X3277Y9017D01*
X4127Y9017D01*
X4223Y9036D01*
X4304Y9090D01*
X4506Y9292D01*
X4530Y9282D01*
X4723Y9282D01*
X4901Y9356D01*
X5038Y9492D01*
X5112Y9670D01*
X5112Y9733D01*
X5142Y9734D01*
X5142Y9671D01*
X5216Y9493D01*
X5352Y9356D01*
X5377Y9346D01*
X5377Y9217D01*
X5396Y9122D01*
X5450Y9040D01*
X5784Y8707D01*
X5627Y8707D01*
X5627Y8707D01*
X5609Y8704D01*
X5516Y8685D01*
X5422Y8622D01*
X5422Y8622D01*
X5422Y8622D01*
X5022Y8222D01*
X4959Y8128D01*
X4937Y8017D01*
X4937Y7055D01*
X4959Y6944D01*
X5022Y6850D01*
X5400Y6473D01*
X5400Y6274D01*
X3937Y6274D01*
X3937Y6409D01*
X3905Y6486D01*
X3846Y6545D01*
X3769Y6577D01*
X3685Y6577D01*
X3085Y6577D01*
X3008Y6545D01*
X2949Y6486D01*
X2917Y6409D01*
X2917Y6326D01*
X2917Y5726D01*
X2949Y5648D01*
X3008Y5589D01*
X3085Y5557D01*
X3169Y5557D01*
X3277Y5557D01*
X3139Y5500D01*
X2995Y5356D01*
X2917Y5169D01*
X2917Y4966D01*
X2994Y4779D01*
X3138Y4635D01*
X3325Y4557D01*
X3528Y4557D01*
X3540Y4562D01*
X3540Y4562D01*
X3580Y4535D01*
X3691Y4513D01*
X3691Y4513D01*
X3691Y4513D01*
X7177Y4513D01*
X7250Y4513D01*
X7250Y4072D01*
X7282Y3995D01*
X7341Y3936D01*
X7418Y3904D01*
X7501Y3904D01*
X8879Y3904D01*
X8957Y3936D01*
X9016Y3995D01*
X9048Y4072D01*
X9048Y4155D01*
X9048Y5533D01*
X9016Y5611D01*
X8957Y5670D01*
X8899Y5694D01*
X9249Y5694D01*
X9537Y5406D01*
X9537Y4298D01*
X9395Y4156D01*
X9317Y3969D01*
X9317Y3766D01*
X9394Y3579D01*
X9537Y3436D01*
X9537Y3298D01*
X9395Y3156D01*
X9317Y2969D01*
X9317Y2766D01*
X9394Y2579D01*
X9538Y2435D01*
X9725Y2357D01*
X9928Y2357D01*
X10116Y2435D01*
X10259Y2578D01*
X10327Y2742D01*
X10394Y2579D01*
X10538Y2435D01*
X10725Y2357D01*
X10928Y2357D01*
X11116Y2435D01*
X11259Y2578D01*
X11327Y2742D01*
X11394Y2579D01*
X11538Y2435D01*
X11725Y2357D01*
X11928Y2357D01*
X12116Y2435D01*
X12259Y2578D01*
X12327Y2742D01*
X12394Y2579D01*
X12538Y2435D01*
X12725Y2357D01*
X12928Y2357D01*
X13116Y2435D01*
X13259Y2578D01*
X13337Y2765D01*
X13337Y2968D01*
X13297Y3066D01*
X13786Y3555D01*
X13898Y3443D01*
X14144Y3197D01*
X14119Y3171D01*
X14089Y3244D01*
X13925Y3315D01*
X13898Y3316D01*
X13746Y3319D01*
X13580Y3254D01*
X13565Y3244D01*
X13536Y3171D01*
X13827Y2880D01*
X13833Y2886D01*
X13845Y2873D01*
X13840Y2867D01*
X13898Y2809D01*
X14131Y2576D01*
X14203Y2605D01*
X14275Y2769D01*
X14279Y2948D01*
X14213Y3115D01*
X14203Y3130D01*
X14131Y3159D01*
X14157Y3184D01*
X15323Y2018D01*
X14279Y2018D01*
X14119Y2018D01*
X14119Y2563D01*
X13898Y2784D01*
X13827Y2854D01*
X13814Y2842D01*
X13814Y2867D01*
X13523Y3159D01*
X13451Y3130D01*
X13379Y2966D01*
X13375Y2787D01*
X13441Y2620D01*
X13451Y2605D01*
X13523Y2576D01*
X13814Y2867D01*
X13814Y2842D01*
X13536Y2563D01*
X13565Y2491D01*
X13729Y2419D01*
X13898Y2416D01*
X13908Y2416D01*
X14074Y2481D01*
X14089Y2491D01*
X14119Y2563D01*
X14119Y2018D01*
X13898Y2018D01*
X13827Y2018D01*
X7177Y2018D01*
X7138Y2018D01*
X7138Y2903D01*
X7138Y4341D01*
X7115Y4396D01*
X7073Y4438D01*
X7018Y4461D01*
X6958Y4461D01*
X6345Y4461D01*
X6308Y4423D01*
X6308Y3631D01*
X7100Y3631D01*
X7138Y3668D01*
X7138Y4341D01*
X7138Y2903D01*
X7138Y3575D01*
X7100Y3613D01*
X6308Y3613D01*
X6308Y2820D01*
X6345Y2783D01*
X6958Y2783D01*
X7018Y2783D01*
X7073Y2806D01*
X7115Y2848D01*
X7138Y2903D01*
X7138Y2018D01*
X7127Y2018D01*
X6290Y2018D01*
X6290Y2820D01*
X6290Y3613D01*
X6290Y3631D01*
X6290Y4423D01*
X6252Y4461D01*
X5639Y4461D01*
X5580Y4461D01*
X5525Y4438D01*
X5482Y4396D01*
X5460Y4341D01*
X5460Y3668D01*
X5497Y3631D01*
X6290Y3631D01*
X6290Y3613D01*
X5497Y3613D01*
X5460Y3575D01*
X5460Y2903D01*
X5482Y2848D01*
X5525Y2806D01*
X5580Y2783D01*
X5639Y2783D01*
X6252Y2783D01*
X6290Y2820D01*
X6290Y2018D01*
X3421Y2018D01*
X3438Y2035D01*
X3632Y2502D01*
X3632Y3007D01*
X3439Y3474D01*
X3082Y3832D01*
X2616Y4026D01*
X2110Y4026D01*
X1643Y3833D01*
X1624Y3814D01*
X1624Y27680D01*
X1641Y27663D01*
X2108Y27469D01*
X2613Y27469D01*
X3080Y27662D01*
X3438Y28019D01*
X3632Y28486D01*
X3632Y28991D01*
X3439Y29458D01*
X3421Y29477D01*
X36341Y29477D01*
X36325Y29460D01*
X36131Y28993D01*
X36130Y28488D01*
X36323Y28021D01*
X36680Y27663D01*
X37147Y27469D01*
X37653Y27469D01*
X38120Y27662D01*
X38138Y27681D01*
X38138Y3815D01*
X38138Y3815D01*
G37*
G54D29*
X38138Y3815D02*
X38122Y3832D01*
X38110Y3837D01*
X38110Y12773D01*
X38110Y15973D01*
X38019Y16195D01*
X37849Y16365D01*
X37627Y16457D01*
X37387Y16457D01*
X37165Y16365D01*
X36995Y16195D01*
X36903Y15974D01*
X36903Y15733D01*
X36994Y15512D01*
X37164Y15342D01*
X37386Y15249D01*
X37626Y15249D01*
X37848Y15341D01*
X38018Y15511D01*
X38110Y15732D01*
X38110Y15973D01*
X38110Y12773D01*
X38053Y12912D01*
X38053Y14177D01*
X37974Y14379D01*
X37960Y14400D01*
X37878Y14440D01*
X37866Y14428D01*
X37866Y14453D01*
X37825Y14535D01*
X37627Y14622D01*
X37411Y14627D01*
X37209Y14549D01*
X37188Y14535D01*
X37148Y14453D01*
X37507Y14094D01*
X37866Y14453D01*
X37866Y14428D01*
X37519Y14081D01*
X37878Y13722D01*
X37960Y13763D01*
X38048Y13961D01*
X38053Y14177D01*
X38053Y12912D01*
X38019Y12995D01*
X37866Y13148D01*
X37866Y13710D01*
X37507Y14069D01*
X37494Y14056D01*
X37494Y14081D01*
X37135Y14440D01*
X37053Y14400D01*
X36966Y14202D01*
X36961Y13986D01*
X37039Y13784D01*
X37053Y13763D01*
X37135Y13722D01*
X37494Y14081D01*
X37494Y14056D01*
X37148Y13710D01*
X37188Y13628D01*
X37386Y13540D01*
X37602Y13535D01*
X37804Y13613D01*
X37825Y13628D01*
X37866Y13710D01*
X37866Y13148D01*
X37849Y13165D01*
X37627Y13257D01*
X37387Y13257D01*
X37165Y13165D01*
X36995Y12995D01*
X36903Y12774D01*
X36903Y12533D01*
X36994Y12312D01*
X37164Y12142D01*
X37386Y12049D01*
X37626Y12049D01*
X37848Y12141D01*
X38018Y12311D01*
X38110Y12532D01*
X38110Y12773D01*
X38110Y3837D01*
X38053Y3861D01*
X38053Y10977D01*
X37974Y11179D01*
X37960Y11200D01*
X37878Y11240D01*
X37866Y11228D01*
X37866Y11253D01*
X37825Y11335D01*
X37627Y11422D01*
X37411Y11427D01*
X37209Y11349D01*
X37188Y11335D01*
X37148Y11253D01*
X37507Y10894D01*
X37866Y11253D01*
X37866Y11228D01*
X37519Y10881D01*
X37878Y10522D01*
X37960Y10563D01*
X38048Y10761D01*
X38053Y10977D01*
X38053Y3861D01*
X37866Y3938D01*
X37866Y10510D01*
X37507Y10869D01*
X37494Y10856D01*
X37494Y10881D01*
X37135Y11240D01*
X37053Y11200D01*
X36966Y11002D01*
X36961Y10786D01*
X37039Y10584D01*
X37053Y10563D01*
X37135Y10522D01*
X37494Y10881D01*
X37494Y10856D01*
X37148Y10510D01*
X37188Y10428D01*
X37386Y10340D01*
X37602Y10335D01*
X37804Y10413D01*
X37825Y10428D01*
X37866Y10510D01*
X37866Y3938D01*
X37655Y4026D01*
X37149Y4026D01*
X36682Y3833D01*
X36325Y3476D01*
X36131Y3009D01*
X36130Y2504D01*
X36323Y2037D01*
X36342Y2018D01*
X35546Y2018D01*
X35546Y3060D01*
X35457Y3291D01*
X35439Y3318D01*
X35349Y3368D01*
X34933Y2952D01*
X35349Y2536D01*
X35439Y2587D01*
X35540Y2813D01*
X35546Y3060D01*
X35546Y2018D01*
X35337Y2018D01*
X35337Y2524D01*
X34921Y2940D01*
X34908Y2927D01*
X34908Y2952D01*
X34492Y3368D01*
X34402Y3318D01*
X34302Y3092D01*
X34295Y2844D01*
X34384Y2613D01*
X34402Y2587D01*
X34492Y2536D01*
X34908Y2952D01*
X34908Y2927D01*
X34505Y2524D01*
X34555Y2434D01*
X34781Y2333D01*
X35029Y2327D01*
X35260Y2416D01*
X35286Y2434D01*
X35337Y2524D01*
X35337Y2018D01*
X32633Y2018D01*
X32633Y3060D01*
X32544Y3291D01*
X32526Y3318D01*
X32436Y3368D01*
X32020Y2952D01*
X32436Y2536D01*
X32526Y2587D01*
X32627Y2813D01*
X32633Y3060D01*
X32633Y2018D01*
X32423Y2018D01*
X32423Y2524D01*
X32007Y2940D01*
X31995Y2927D01*
X31995Y2952D01*
X31579Y3368D01*
X31489Y3318D01*
X31388Y3092D01*
X31382Y2844D01*
X31471Y2613D01*
X31489Y2587D01*
X31579Y2536D01*
X31995Y2952D01*
X31995Y2927D01*
X31592Y2524D01*
X31642Y2434D01*
X31868Y2333D01*
X32116Y2327D01*
X32347Y2416D01*
X32373Y2434D01*
X32423Y2524D01*
X32423Y2018D01*
X31377Y2018D01*
X31377Y3477D01*
X31627Y3477D01*
X31651Y3477D01*
X31642Y3471D01*
X31592Y3381D01*
X32007Y2965D01*
X32423Y3381D01*
X32373Y3471D01*
X32359Y3477D01*
X34564Y3477D01*
X34555Y3471D01*
X34505Y3381D01*
X34921Y2965D01*
X35337Y3381D01*
X35286Y3471D01*
X35272Y3477D01*
X35877Y3477D01*
X35988Y3499D01*
X36082Y3562D01*
X36432Y3912D01*
X36432Y3912D01*
X36432Y3912D01*
X36495Y4006D01*
X36517Y4117D01*
X36517Y4117D01*
X36517Y4117D01*
X36517Y12367D01*
X36517Y12367D01*
X36517Y12517D01*
X36517Y18267D01*
X36495Y18378D01*
X36432Y18472D01*
X31832Y23072D01*
X31738Y23135D01*
X31627Y23157D01*
X6327Y23157D01*
X6216Y23135D01*
X6122Y23072D01*
X1922Y18872D01*
X1859Y18778D01*
X1837Y18667D01*
X1837Y11917D01*
X1859Y11806D01*
X1922Y11712D01*
X2272Y11362D01*
X2272Y11362D01*
X2366Y11299D01*
X2477Y11277D01*
X2477Y11277D01*
X2477Y11277D01*
X8477Y11277D01*
X8477Y11217D01*
X3177Y11217D01*
X3081Y11198D01*
X3049Y11176D01*
X3000Y11144D01*
X3000Y11144D01*
X2000Y10144D01*
X1946Y10063D01*
X1927Y9967D01*
X1927Y9217D01*
X1946Y9122D01*
X2000Y9040D01*
X2215Y8826D01*
X2095Y8706D01*
X2017Y8519D01*
X2017Y8316D01*
X2094Y8129D01*
X2238Y7985D01*
X2277Y7969D01*
X2277Y7866D01*
X2239Y7850D01*
X2095Y7706D01*
X2017Y7519D01*
X2017Y7316D01*
X2094Y7129D01*
X2238Y6985D01*
X2425Y6907D01*
X2628Y6907D01*
X2816Y6985D01*
X2959Y7128D01*
X3037Y7315D01*
X3037Y7518D01*
X2960Y7706D01*
X2816Y7849D01*
X2777Y7866D01*
X2777Y7969D01*
X2816Y7985D01*
X2959Y8128D01*
X3037Y8315D01*
X3037Y8518D01*
X2960Y8706D01*
X2816Y8849D01*
X2777Y8866D01*
X2777Y8867D01*
X2777Y8867D01*
X2777Y8867D01*
X2773Y8886D01*
X2758Y8963D01*
X2758Y8963D01*
X2704Y9044D01*
X2704Y9044D01*
X2427Y9321D01*
X2427Y9325D01*
X2530Y9282D01*
X2723Y9282D01*
X2890Y9351D01*
X2896Y9322D01*
X2950Y9240D01*
X3100Y9090D01*
X3181Y9036D01*
X3181Y9036D01*
X3277Y9017D01*
X4127Y9017D01*
X4223Y9036D01*
X4304Y9090D01*
X4506Y9292D01*
X4530Y9282D01*
X4723Y9282D01*
X4901Y9356D01*
X5038Y9492D01*
X5112Y9670D01*
X5112Y9733D01*
X5142Y9734D01*
X5142Y9671D01*
X5216Y9493D01*
X5352Y9356D01*
X5377Y9346D01*
X5377Y9217D01*
X5396Y9122D01*
X5450Y9040D01*
X5784Y8707D01*
X5627Y8707D01*
X5627Y8707D01*
X5609Y8704D01*
X5516Y8685D01*
X5422Y8622D01*
X5422Y8622D01*
X5422Y8622D01*
X5022Y8222D01*
X4959Y8128D01*
X4937Y8017D01*
X4937Y7055D01*
X4959Y6944D01*
X5022Y6850D01*
X5400Y6473D01*
X5400Y6274D01*
X3937Y6274D01*
X3937Y6409D01*
X3905Y6486D01*
X3846Y6545D01*
X3769Y6577D01*
X3685Y6577D01*
X3085Y6577D01*
X3008Y6545D01*
X2949Y6486D01*
X2917Y6409D01*
X2917Y6326D01*
X2917Y5726D01*
X2949Y5648D01*
X3008Y5589D01*
X3085Y5557D01*
X3169Y5557D01*
X3277Y5557D01*
X3139Y5500D01*
X2995Y5356D01*
X2917Y5169D01*
X2917Y4966D01*
X2994Y4779D01*
X3138Y4635D01*
X3325Y4557D01*
X3528Y4557D01*
X3540Y4562D01*
X3540Y4562D01*
X3580Y4535D01*
X3691Y4513D01*
X3691Y4513D01*
X3691Y4513D01*
X7177Y4513D01*
X7250Y4513D01*
X7250Y4072D01*
X7282Y3995D01*
X7341Y3936D01*
X7418Y3904D01*
X7501Y3904D01*
X8879Y3904D01*
X8957Y3936D01*
X9016Y3995D01*
X9048Y4072D01*
X9048Y4155D01*
X9048Y5533D01*
X9016Y5611D01*
X8957Y5670D01*
X8899Y5694D01*
X9249Y5694D01*
X9537Y5406D01*
X9537Y4298D01*
X9395Y4156D01*
X9317Y3969D01*
X9317Y3766D01*
X9394Y3579D01*
X9537Y3436D01*
X9537Y3298D01*
X9395Y3156D01*
X9317Y2969D01*
X9317Y2766D01*
X9394Y2579D01*
X9538Y2435D01*
X9725Y2357D01*
X9928Y2357D01*
X10116Y2435D01*
X10259Y2578D01*
X10327Y2742D01*
X10394Y2579D01*
X10538Y2435D01*
X10725Y2357D01*
X10928Y2357D01*
X11116Y2435D01*
X11259Y2578D01*
X11327Y2742D01*
X11394Y2579D01*
X11538Y2435D01*
X11725Y2357D01*
X11928Y2357D01*
X12116Y2435D01*
X12259Y2578D01*
X12327Y2742D01*
X12394Y2579D01*
X12538Y2435D01*
X12725Y2357D01*
X12928Y2357D01*
X13116Y2435D01*
X13259Y2578D01*
X13337Y2765D01*
X13337Y2968D01*
X13297Y3066D01*
X13786Y3555D01*
X13898Y3443D01*
X14144Y3197D01*
X14119Y3171D01*
X14089Y3244D01*
X13925Y3315D01*
X13898Y3316D01*
X13746Y3319D01*
X13580Y3254D01*
X13565Y3244D01*
X13536Y3171D01*
X13827Y2880D01*
X13833Y2886D01*
X13845Y2873D01*
X13840Y2867D01*
X13898Y2809D01*
X14131Y2576D01*
X14203Y2605D01*
X14275Y2769D01*
X14279Y2948D01*
X14213Y3115D01*
X14203Y3130D01*
X14131Y3159D01*
X14157Y3184D01*
X15323Y2018D01*
X14279Y2018D01*
X14119Y2018D01*
X14119Y2563D01*
X13898Y2784D01*
X13827Y2854D01*
X13814Y2842D01*
X13814Y2867D01*
X13523Y3159D01*
X13451Y3130D01*
X13379Y2966D01*
X13375Y2787D01*
X13441Y2620D01*
X13451Y2605D01*
X13523Y2576D01*
X13814Y2867D01*
X13814Y2842D01*
X13536Y2563D01*
X13565Y2491D01*
X13729Y2419D01*
X13898Y2416D01*
X13908Y2416D01*
X14074Y2481D01*
X14089Y2491D01*
X14119Y2563D01*
X14119Y2018D01*
X13898Y2018D01*
X13827Y2018D01*
X7177Y2018D01*
X7138Y2018D01*
X7138Y2903D01*
X7138Y4341D01*
X7115Y4396D01*
X7073Y4438D01*
X7018Y4461D01*
X6958Y4461D01*
X6345Y4461D01*
X6308Y4423D01*
X6308Y3631D01*
X7100Y3631D01*
X7138Y3668D01*
X7138Y4341D01*
X7138Y2903D01*
X7138Y3575D01*
X7100Y3613D01*
X6308Y3613D01*
X6308Y2820D01*
X6345Y2783D01*
X6958Y2783D01*
X7018Y2783D01*
X7073Y2806D01*
X7115Y2848D01*
X7138Y2903D01*
X7138Y2018D01*
X7127Y2018D01*
X6290Y2018D01*
X6290Y2820D01*
X6290Y3613D01*
X6290Y3631D01*
X6290Y4423D01*
X6252Y4461D01*
X5639Y4461D01*
X5580Y4461D01*
X5525Y4438D01*
X5482Y4396D01*
X5460Y4341D01*
X5460Y3668D01*
X5497Y3631D01*
X6290Y3631D01*
X6290Y3613D01*
X5497Y3613D01*
X5460Y3575D01*
X5460Y2903D01*
X5482Y2848D01*
X5525Y2806D01*
X5580Y2783D01*
X5639Y2783D01*
X6252Y2783D01*
X6290Y2820D01*
X6290Y2018D01*
X3421Y2018D01*
X3438Y2035D01*
X3632Y2502D01*
X3632Y3007D01*
X3439Y3474D01*
X3082Y3832D01*
X2616Y4026D01*
X2110Y4026D01*
X1643Y3833D01*
X1624Y3814D01*
X1624Y27680D01*
X1641Y27663D01*
X2108Y27469D01*
X2613Y27469D01*
X3080Y27662D01*
X3438Y28019D01*
X3632Y28486D01*
X3632Y28991D01*
X3439Y29458D01*
X3421Y29477D01*
X36341Y29477D01*
X36325Y29460D01*
X36131Y28993D01*
X36130Y28488D01*
X36323Y28021D01*
X36680Y27663D01*
X37147Y27469D01*
X37653Y27469D01*
X38120Y27662D01*
X38138Y27681D01*
X38138Y3815D01*
M02*
