G04 (created by PCBNEW (2013-jul-07)-stable) date 2015年01月22日 18時10分11秒*
%MOIN*%
G04 Gerber Fmt 3.4, Leading zero omitted, Abs format*
%FSLAX34Y34*%
G01*
G70*
G90*
G04 APERTURE LIST*
%ADD10C,0.006*%
%ADD11C,0.06*%
%ADD12R,0.055X0.055*%
%ADD13C,0.055*%
%ADD14R,0.06X0.06*%
%ADD15C,0.056*%
%ADD16R,0.1378X0.1378*%
%ADD17C,0.0787402*%
%ADD18C,0.0944882*%
%ADD19C,0.0551181*%
%ADD20C,0.016*%
%ADD21C,0.008*%
%ADD22C,0.01*%
G04 APERTURE END LIST*
G54D10*
G54D11*
X30300Y-55400D03*
X30300Y-54400D03*
X30300Y-50400D03*
X31300Y-55400D03*
X32300Y-55400D03*
X33300Y-55400D03*
X34300Y-55400D03*
X37300Y-55400D03*
X37300Y-50400D03*
X36300Y-50400D03*
X37300Y-54400D03*
X31300Y-50400D03*
G54D12*
X48500Y-43550D03*
G54D13*
X47500Y-43550D03*
X46500Y-43550D03*
X45500Y-43550D03*
X44500Y-43550D03*
X43500Y-43550D03*
G54D12*
X27783Y-40157D03*
G54D13*
X28783Y-40157D03*
X29783Y-40157D03*
X30783Y-40157D03*
X31783Y-40157D03*
X32783Y-40157D03*
X33783Y-40157D03*
X34783Y-40157D03*
X35783Y-40157D03*
X36783Y-40157D03*
G54D11*
X23000Y-49850D03*
X27000Y-49850D03*
X27000Y-50850D03*
X23000Y-50850D03*
X34750Y-43450D03*
X30750Y-43450D03*
X31050Y-42100D03*
X35050Y-42100D03*
X37900Y-43700D03*
X41900Y-43700D03*
X38500Y-42600D03*
X42500Y-42600D03*
G54D14*
X50950Y-53700D03*
G54D11*
X50950Y-54700D03*
X49950Y-53700D03*
X49950Y-54700D03*
X48950Y-53700D03*
X48950Y-54700D03*
G54D14*
X48500Y-42500D03*
G54D11*
X47500Y-42500D03*
X46500Y-42500D03*
G54D14*
X23900Y-52200D03*
G54D11*
X23900Y-53200D03*
G54D14*
X51100Y-51300D03*
G54D11*
X51100Y-50300D03*
G54D14*
X50100Y-51300D03*
G54D11*
X50100Y-50300D03*
G54D14*
X49100Y-51300D03*
G54D11*
X49100Y-50300D03*
G54D15*
X26600Y-43700D03*
X28600Y-43700D03*
G54D12*
X42750Y-45500D03*
G54D13*
X41750Y-45500D03*
X40750Y-45500D03*
X39750Y-45500D03*
X39750Y-48500D03*
X40750Y-48500D03*
X41750Y-48500D03*
X42750Y-48500D03*
X35100Y-45500D03*
X34100Y-45500D03*
X33100Y-45500D03*
X32100Y-45500D03*
X31100Y-45500D03*
X30100Y-45500D03*
X29100Y-45500D03*
X28100Y-45500D03*
X27100Y-45500D03*
X26100Y-45500D03*
X25100Y-45500D03*
X24100Y-45500D03*
X23100Y-45500D03*
G54D12*
X36100Y-45500D03*
G54D13*
X23100Y-48500D03*
X24100Y-48500D03*
X25100Y-48500D03*
X26100Y-48500D03*
X27100Y-48500D03*
X28100Y-48500D03*
X29100Y-48500D03*
X30100Y-48500D03*
X31100Y-48500D03*
X32100Y-48500D03*
X33100Y-48500D03*
X34100Y-48500D03*
X35100Y-48500D03*
X36100Y-48500D03*
G54D12*
X48900Y-45500D03*
G54D13*
X47900Y-45500D03*
X46900Y-45500D03*
X45900Y-45500D03*
X44900Y-45500D03*
X44900Y-48500D03*
X45900Y-48500D03*
X46900Y-48500D03*
X47900Y-48500D03*
X48900Y-48500D03*
X29200Y-41900D03*
X28200Y-41900D03*
X25900Y-41900D03*
X26900Y-41900D03*
X29100Y-50500D03*
X29100Y-49500D03*
X39750Y-51300D03*
X39750Y-50300D03*
X37800Y-47500D03*
X37800Y-46500D03*
G54D16*
X26771Y-52283D03*
X26771Y-54645D03*
X28621Y-53464D03*
G54D17*
X51720Y-47385D03*
X51720Y-45614D03*
X54279Y-45614D03*
X54279Y-47385D03*
X55420Y-47385D03*
X55420Y-45614D03*
X57979Y-45614D03*
X57979Y-47385D03*
X55420Y-44185D03*
X55420Y-42414D03*
X57979Y-42414D03*
X57979Y-44185D03*
X51720Y-44185D03*
X51720Y-42414D03*
X54279Y-42414D03*
X54279Y-44185D03*
G54D18*
X53031Y-52362D03*
X54842Y-52362D03*
X52480Y-55314D03*
X55393Y-55314D03*
G54D19*
X36496Y-41589D03*
X35996Y-42289D03*
X36996Y-42289D03*
G54D11*
X56200Y-41300D03*
X57200Y-41300D03*
X57200Y-50950D03*
X56200Y-50950D03*
X34100Y-50600D03*
X35100Y-50600D03*
X34100Y-49300D03*
X35100Y-49300D03*
X48400Y-49200D03*
X47400Y-49200D03*
G54D20*
X37300Y-54400D02*
X37300Y-55400D01*
X31300Y-50400D02*
X34300Y-53400D01*
X34300Y-53400D02*
X34300Y-55400D01*
X36300Y-50400D02*
X35900Y-50000D01*
X31700Y-50000D02*
X31300Y-50400D01*
X35900Y-50000D02*
X31700Y-50000D01*
X56200Y-41300D02*
X57200Y-41300D01*
X55420Y-44185D02*
X57979Y-44185D01*
X55420Y-47385D02*
X57979Y-47385D01*
X56200Y-50950D02*
X57200Y-50950D01*
G54D21*
X34100Y-50600D02*
X35100Y-50600D01*
X34100Y-49300D02*
X35100Y-49300D01*
X48400Y-49200D02*
X47400Y-49200D01*
G54D10*
G36*
X58611Y-49162D02*
X58362Y-49162D01*
X58362Y-47839D01*
X57979Y-47456D01*
X57908Y-47527D01*
X57908Y-47385D01*
X57525Y-47002D01*
X57420Y-47041D01*
X57331Y-47281D01*
X57341Y-47537D01*
X57420Y-47730D01*
X57525Y-47768D01*
X57908Y-47385D01*
X57908Y-47527D01*
X57596Y-47839D01*
X57635Y-47944D01*
X57875Y-48033D01*
X58131Y-48024D01*
X58323Y-47944D01*
X58362Y-47839D01*
X58362Y-49162D01*
X56068Y-49162D01*
X56068Y-47489D01*
X56068Y-44289D01*
X56064Y-44176D01*
X56064Y-42286D01*
X55966Y-42050D01*
X55785Y-41868D01*
X55549Y-41770D01*
X55292Y-41770D01*
X55056Y-41868D01*
X54875Y-42049D01*
X54850Y-42109D01*
X54825Y-42050D01*
X54644Y-41868D01*
X54408Y-41770D01*
X54152Y-41770D01*
X53915Y-41868D01*
X53734Y-42049D01*
X53635Y-42285D01*
X53635Y-42541D01*
X53733Y-42778D01*
X53914Y-42959D01*
X54150Y-43057D01*
X54407Y-43057D01*
X54643Y-42960D01*
X54824Y-42779D01*
X54849Y-42719D01*
X54874Y-42778D01*
X55055Y-42959D01*
X55291Y-43057D01*
X55547Y-43057D01*
X55784Y-42960D01*
X55965Y-42779D01*
X56064Y-42542D01*
X56064Y-42286D01*
X56064Y-44176D01*
X56058Y-44034D01*
X55979Y-43841D01*
X55874Y-43802D01*
X55803Y-43873D01*
X55803Y-43732D01*
X55764Y-43627D01*
X55524Y-43537D01*
X55268Y-43547D01*
X55076Y-43627D01*
X55037Y-43732D01*
X55420Y-44115D01*
X55803Y-43732D01*
X55803Y-43873D01*
X55491Y-44185D01*
X55874Y-44568D01*
X55979Y-44530D01*
X56068Y-44289D01*
X56068Y-47489D01*
X56064Y-47376D01*
X56064Y-45486D01*
X55966Y-45250D01*
X55803Y-45086D01*
X55803Y-44639D01*
X55420Y-44256D01*
X55349Y-44327D01*
X55349Y-44185D01*
X54966Y-43802D01*
X54861Y-43841D01*
X54850Y-43871D01*
X54838Y-43841D01*
X54733Y-43802D01*
X54662Y-43873D01*
X54662Y-43732D01*
X54623Y-43627D01*
X54383Y-43537D01*
X54127Y-43547D01*
X53935Y-43627D01*
X53896Y-43732D01*
X54279Y-44115D01*
X54662Y-43732D01*
X54662Y-43873D01*
X54350Y-44185D01*
X54733Y-44568D01*
X54838Y-44530D01*
X54849Y-44500D01*
X54861Y-44530D01*
X54966Y-44568D01*
X55349Y-44185D01*
X55349Y-44327D01*
X55037Y-44639D01*
X55076Y-44744D01*
X55316Y-44833D01*
X55572Y-44824D01*
X55764Y-44744D01*
X55803Y-44639D01*
X55803Y-45086D01*
X55785Y-45068D01*
X55549Y-44970D01*
X55292Y-44970D01*
X55056Y-45068D01*
X54875Y-45249D01*
X54850Y-45309D01*
X54825Y-45250D01*
X54662Y-45086D01*
X54662Y-44639D01*
X54279Y-44256D01*
X54208Y-44327D01*
X54208Y-44185D01*
X53825Y-43802D01*
X53720Y-43841D01*
X53631Y-44081D01*
X53641Y-44337D01*
X53720Y-44530D01*
X53825Y-44568D01*
X54208Y-44185D01*
X54208Y-44327D01*
X53896Y-44639D01*
X53935Y-44744D01*
X54175Y-44833D01*
X54431Y-44824D01*
X54623Y-44744D01*
X54662Y-44639D01*
X54662Y-45086D01*
X54644Y-45068D01*
X54408Y-44970D01*
X54152Y-44970D01*
X53915Y-45068D01*
X53734Y-45249D01*
X53635Y-45485D01*
X53635Y-45741D01*
X53733Y-45978D01*
X53914Y-46159D01*
X54150Y-46257D01*
X54407Y-46257D01*
X54643Y-46160D01*
X54824Y-45979D01*
X54849Y-45919D01*
X54874Y-45978D01*
X55055Y-46159D01*
X55291Y-46257D01*
X55547Y-46257D01*
X55784Y-46160D01*
X55965Y-45979D01*
X56064Y-45742D01*
X56064Y-45486D01*
X56064Y-47376D01*
X56058Y-47234D01*
X55979Y-47041D01*
X55874Y-47002D01*
X55803Y-47073D01*
X55803Y-46932D01*
X55764Y-46827D01*
X55524Y-46737D01*
X55268Y-46747D01*
X55076Y-46827D01*
X55037Y-46932D01*
X55420Y-47315D01*
X55803Y-46932D01*
X55803Y-47073D01*
X55491Y-47385D01*
X55874Y-47768D01*
X55979Y-47730D01*
X56068Y-47489D01*
X56068Y-49162D01*
X55803Y-49162D01*
X55803Y-47839D01*
X55420Y-47456D01*
X55349Y-47527D01*
X55349Y-47385D01*
X54966Y-47002D01*
X54861Y-47041D01*
X54850Y-47071D01*
X54838Y-47041D01*
X54733Y-47002D01*
X54662Y-47073D01*
X54662Y-46932D01*
X54623Y-46827D01*
X54383Y-46737D01*
X54127Y-46747D01*
X53935Y-46827D01*
X53896Y-46932D01*
X54279Y-47315D01*
X54662Y-46932D01*
X54662Y-47073D01*
X54350Y-47385D01*
X54733Y-47768D01*
X54838Y-47730D01*
X54849Y-47700D01*
X54861Y-47730D01*
X54966Y-47768D01*
X55349Y-47385D01*
X55349Y-47527D01*
X55037Y-47839D01*
X55076Y-47944D01*
X55316Y-48033D01*
X55572Y-48024D01*
X55764Y-47944D01*
X55803Y-47839D01*
X55803Y-49162D01*
X54662Y-49162D01*
X54662Y-47839D01*
X54279Y-47456D01*
X54208Y-47527D01*
X54208Y-47385D01*
X53825Y-47002D01*
X53720Y-47041D01*
X53631Y-47281D01*
X53641Y-47537D01*
X53720Y-47730D01*
X53825Y-47768D01*
X54208Y-47385D01*
X54208Y-47527D01*
X53896Y-47839D01*
X53935Y-47944D01*
X54175Y-48033D01*
X54431Y-48024D01*
X54623Y-47944D01*
X54662Y-47839D01*
X54662Y-49162D01*
X52368Y-49162D01*
X52368Y-47489D01*
X52368Y-44289D01*
X52364Y-44176D01*
X52364Y-42286D01*
X52266Y-42050D01*
X52085Y-41868D01*
X51849Y-41770D01*
X51592Y-41770D01*
X51356Y-41868D01*
X51175Y-42049D01*
X51076Y-42285D01*
X51076Y-42541D01*
X51174Y-42778D01*
X51355Y-42959D01*
X51591Y-43057D01*
X51847Y-43057D01*
X52084Y-42960D01*
X52265Y-42779D01*
X52364Y-42542D01*
X52364Y-42286D01*
X52364Y-44176D01*
X52358Y-44034D01*
X52279Y-43841D01*
X52174Y-43802D01*
X52103Y-43873D01*
X52103Y-43732D01*
X52064Y-43627D01*
X51824Y-43537D01*
X51568Y-43547D01*
X51376Y-43627D01*
X51337Y-43732D01*
X51720Y-44115D01*
X52103Y-43732D01*
X52103Y-43873D01*
X51791Y-44185D01*
X52174Y-44568D01*
X52279Y-44530D01*
X52368Y-44289D01*
X52368Y-47489D01*
X52364Y-47376D01*
X52364Y-45486D01*
X52266Y-45250D01*
X52103Y-45086D01*
X52103Y-44639D01*
X51720Y-44256D01*
X51649Y-44327D01*
X51649Y-44185D01*
X51266Y-43802D01*
X51161Y-43841D01*
X51072Y-44081D01*
X51081Y-44337D01*
X51161Y-44530D01*
X51266Y-44568D01*
X51649Y-44185D01*
X51649Y-44327D01*
X51337Y-44639D01*
X51376Y-44744D01*
X51616Y-44833D01*
X51872Y-44824D01*
X52064Y-44744D01*
X52103Y-44639D01*
X52103Y-45086D01*
X52085Y-45068D01*
X51849Y-44970D01*
X51592Y-44970D01*
X51356Y-45068D01*
X51175Y-45249D01*
X51076Y-45485D01*
X51076Y-45741D01*
X51174Y-45978D01*
X51355Y-46159D01*
X51591Y-46257D01*
X51847Y-46257D01*
X52084Y-46160D01*
X52265Y-45979D01*
X52364Y-45742D01*
X52364Y-45486D01*
X52364Y-47376D01*
X52358Y-47234D01*
X52279Y-47041D01*
X52174Y-47002D01*
X52103Y-47073D01*
X52103Y-46932D01*
X52064Y-46827D01*
X51824Y-46737D01*
X51568Y-46747D01*
X51376Y-46827D01*
X51337Y-46932D01*
X51720Y-47315D01*
X52103Y-46932D01*
X52103Y-47073D01*
X51791Y-47385D01*
X52174Y-47768D01*
X52279Y-47730D01*
X52368Y-47489D01*
X52368Y-49162D01*
X52103Y-49162D01*
X52103Y-47839D01*
X51720Y-47456D01*
X51649Y-47527D01*
X51649Y-47385D01*
X51266Y-47002D01*
X51161Y-47041D01*
X51072Y-47281D01*
X51081Y-47537D01*
X51161Y-47730D01*
X51266Y-47768D01*
X51649Y-47385D01*
X51649Y-47527D01*
X51337Y-47839D01*
X51376Y-47944D01*
X51616Y-48033D01*
X51872Y-48024D01*
X52064Y-47944D01*
X52103Y-47839D01*
X52103Y-49162D01*
X49429Y-49162D01*
X49429Y-48575D01*
X49418Y-48367D01*
X49360Y-48227D01*
X49267Y-48202D01*
X49197Y-48273D01*
X49197Y-48132D01*
X49172Y-48039D01*
X48975Y-47970D01*
X48767Y-47981D01*
X48627Y-48039D01*
X48602Y-48132D01*
X48900Y-48429D01*
X49197Y-48132D01*
X49197Y-48273D01*
X48970Y-48500D01*
X49267Y-48797D01*
X49360Y-48772D01*
X49429Y-48575D01*
X49429Y-49162D01*
X49236Y-49162D01*
X49094Y-48992D01*
X49172Y-48960D01*
X49197Y-48867D01*
X48900Y-48570D01*
X48894Y-48576D01*
X48823Y-48505D01*
X48829Y-48500D01*
X48532Y-48202D01*
X48453Y-48223D01*
X48251Y-47981D01*
X48008Y-47981D01*
X47975Y-47970D01*
X47767Y-47981D01*
X47767Y-47981D01*
X47020Y-47981D01*
X47004Y-47975D01*
X46796Y-47974D01*
X46780Y-47981D01*
X46020Y-47981D01*
X46004Y-47975D01*
X45796Y-47974D01*
X45780Y-47981D01*
X45020Y-47981D01*
X45004Y-47975D01*
X44796Y-47974D01*
X44780Y-47981D01*
X43453Y-47981D01*
X43453Y-49162D01*
X43279Y-49162D01*
X43279Y-48575D01*
X43268Y-48367D01*
X43210Y-48227D01*
X43117Y-48202D01*
X43047Y-48273D01*
X43047Y-48132D01*
X43022Y-48039D01*
X42825Y-47970D01*
X42617Y-47981D01*
X42477Y-48039D01*
X42452Y-48132D01*
X42750Y-48429D01*
X43047Y-48132D01*
X43047Y-48273D01*
X42820Y-48500D01*
X43117Y-48797D01*
X43210Y-48772D01*
X43279Y-48575D01*
X43279Y-49162D01*
X43047Y-49162D01*
X43047Y-48867D01*
X42750Y-48570D01*
X42452Y-48867D01*
X42477Y-48960D01*
X42674Y-49029D01*
X42882Y-49018D01*
X43022Y-48960D01*
X43047Y-48867D01*
X43047Y-49162D01*
X42175Y-49162D01*
X42175Y-48816D01*
X42194Y-48797D01*
X42247Y-48671D01*
X42289Y-48772D01*
X42382Y-48797D01*
X42679Y-48500D01*
X42382Y-48202D01*
X42289Y-48227D01*
X42250Y-48337D01*
X42195Y-48203D01*
X42175Y-48183D01*
X42175Y-47981D01*
X41870Y-47981D01*
X41854Y-47975D01*
X41646Y-47974D01*
X41630Y-47981D01*
X40870Y-47981D01*
X40854Y-47975D01*
X40646Y-47974D01*
X40630Y-47981D01*
X39870Y-47981D01*
X39854Y-47975D01*
X39646Y-47974D01*
X39630Y-47981D01*
X39026Y-47981D01*
X39026Y-46112D01*
X50837Y-46112D01*
X50837Y-40207D01*
X58611Y-40207D01*
X58611Y-42257D01*
X58525Y-42050D01*
X58344Y-41868D01*
X58108Y-41770D01*
X57852Y-41770D01*
X57615Y-41868D01*
X57434Y-42049D01*
X57335Y-42285D01*
X57335Y-42541D01*
X57433Y-42778D01*
X57614Y-42959D01*
X57850Y-43057D01*
X58107Y-43057D01*
X58343Y-42960D01*
X58524Y-42779D01*
X58611Y-42570D01*
X58611Y-44018D01*
X58538Y-43841D01*
X58433Y-43802D01*
X58362Y-43873D01*
X58362Y-43732D01*
X58323Y-43627D01*
X58083Y-43537D01*
X57827Y-43547D01*
X57635Y-43627D01*
X57596Y-43732D01*
X57979Y-44115D01*
X58362Y-43732D01*
X58362Y-43873D01*
X58050Y-44185D01*
X58433Y-44568D01*
X58538Y-44530D01*
X58611Y-44333D01*
X58611Y-45457D01*
X58525Y-45250D01*
X58362Y-45086D01*
X58362Y-44639D01*
X57979Y-44256D01*
X57908Y-44327D01*
X57908Y-44185D01*
X57525Y-43802D01*
X57420Y-43841D01*
X57331Y-44081D01*
X57341Y-44337D01*
X57420Y-44530D01*
X57525Y-44568D01*
X57908Y-44185D01*
X57908Y-44327D01*
X57596Y-44639D01*
X57635Y-44744D01*
X57875Y-44833D01*
X58131Y-44824D01*
X58323Y-44744D01*
X58362Y-44639D01*
X58362Y-45086D01*
X58344Y-45068D01*
X58108Y-44970D01*
X57852Y-44970D01*
X57615Y-45068D01*
X57434Y-45249D01*
X57335Y-45485D01*
X57335Y-45741D01*
X57433Y-45978D01*
X57614Y-46159D01*
X57850Y-46257D01*
X58107Y-46257D01*
X58343Y-46160D01*
X58524Y-45979D01*
X58611Y-45770D01*
X58611Y-47218D01*
X58538Y-47041D01*
X58433Y-47002D01*
X58362Y-47073D01*
X58362Y-46932D01*
X58323Y-46827D01*
X58083Y-46737D01*
X57827Y-46747D01*
X57635Y-46827D01*
X57596Y-46932D01*
X57979Y-47315D01*
X58362Y-46932D01*
X58362Y-47073D01*
X58050Y-47385D01*
X58433Y-47768D01*
X58538Y-47730D01*
X58611Y-47533D01*
X58611Y-49162D01*
X58611Y-49162D01*
G37*
G54D22*
X58611Y-49162D02*
X58362Y-49162D01*
X58362Y-47839D01*
X57979Y-47456D01*
X57908Y-47527D01*
X57908Y-47385D01*
X57525Y-47002D01*
X57420Y-47041D01*
X57331Y-47281D01*
X57341Y-47537D01*
X57420Y-47730D01*
X57525Y-47768D01*
X57908Y-47385D01*
X57908Y-47527D01*
X57596Y-47839D01*
X57635Y-47944D01*
X57875Y-48033D01*
X58131Y-48024D01*
X58323Y-47944D01*
X58362Y-47839D01*
X58362Y-49162D01*
X56068Y-49162D01*
X56068Y-47489D01*
X56068Y-44289D01*
X56064Y-44176D01*
X56064Y-42286D01*
X55966Y-42050D01*
X55785Y-41868D01*
X55549Y-41770D01*
X55292Y-41770D01*
X55056Y-41868D01*
X54875Y-42049D01*
X54850Y-42109D01*
X54825Y-42050D01*
X54644Y-41868D01*
X54408Y-41770D01*
X54152Y-41770D01*
X53915Y-41868D01*
X53734Y-42049D01*
X53635Y-42285D01*
X53635Y-42541D01*
X53733Y-42778D01*
X53914Y-42959D01*
X54150Y-43057D01*
X54407Y-43057D01*
X54643Y-42960D01*
X54824Y-42779D01*
X54849Y-42719D01*
X54874Y-42778D01*
X55055Y-42959D01*
X55291Y-43057D01*
X55547Y-43057D01*
X55784Y-42960D01*
X55965Y-42779D01*
X56064Y-42542D01*
X56064Y-42286D01*
X56064Y-44176D01*
X56058Y-44034D01*
X55979Y-43841D01*
X55874Y-43802D01*
X55803Y-43873D01*
X55803Y-43732D01*
X55764Y-43627D01*
X55524Y-43537D01*
X55268Y-43547D01*
X55076Y-43627D01*
X55037Y-43732D01*
X55420Y-44115D01*
X55803Y-43732D01*
X55803Y-43873D01*
X55491Y-44185D01*
X55874Y-44568D01*
X55979Y-44530D01*
X56068Y-44289D01*
X56068Y-47489D01*
X56064Y-47376D01*
X56064Y-45486D01*
X55966Y-45250D01*
X55803Y-45086D01*
X55803Y-44639D01*
X55420Y-44256D01*
X55349Y-44327D01*
X55349Y-44185D01*
X54966Y-43802D01*
X54861Y-43841D01*
X54850Y-43871D01*
X54838Y-43841D01*
X54733Y-43802D01*
X54662Y-43873D01*
X54662Y-43732D01*
X54623Y-43627D01*
X54383Y-43537D01*
X54127Y-43547D01*
X53935Y-43627D01*
X53896Y-43732D01*
X54279Y-44115D01*
X54662Y-43732D01*
X54662Y-43873D01*
X54350Y-44185D01*
X54733Y-44568D01*
X54838Y-44530D01*
X54849Y-44500D01*
X54861Y-44530D01*
X54966Y-44568D01*
X55349Y-44185D01*
X55349Y-44327D01*
X55037Y-44639D01*
X55076Y-44744D01*
X55316Y-44833D01*
X55572Y-44824D01*
X55764Y-44744D01*
X55803Y-44639D01*
X55803Y-45086D01*
X55785Y-45068D01*
X55549Y-44970D01*
X55292Y-44970D01*
X55056Y-45068D01*
X54875Y-45249D01*
X54850Y-45309D01*
X54825Y-45250D01*
X54662Y-45086D01*
X54662Y-44639D01*
X54279Y-44256D01*
X54208Y-44327D01*
X54208Y-44185D01*
X53825Y-43802D01*
X53720Y-43841D01*
X53631Y-44081D01*
X53641Y-44337D01*
X53720Y-44530D01*
X53825Y-44568D01*
X54208Y-44185D01*
X54208Y-44327D01*
X53896Y-44639D01*
X53935Y-44744D01*
X54175Y-44833D01*
X54431Y-44824D01*
X54623Y-44744D01*
X54662Y-44639D01*
X54662Y-45086D01*
X54644Y-45068D01*
X54408Y-44970D01*
X54152Y-44970D01*
X53915Y-45068D01*
X53734Y-45249D01*
X53635Y-45485D01*
X53635Y-45741D01*
X53733Y-45978D01*
X53914Y-46159D01*
X54150Y-46257D01*
X54407Y-46257D01*
X54643Y-46160D01*
X54824Y-45979D01*
X54849Y-45919D01*
X54874Y-45978D01*
X55055Y-46159D01*
X55291Y-46257D01*
X55547Y-46257D01*
X55784Y-46160D01*
X55965Y-45979D01*
X56064Y-45742D01*
X56064Y-45486D01*
X56064Y-47376D01*
X56058Y-47234D01*
X55979Y-47041D01*
X55874Y-47002D01*
X55803Y-47073D01*
X55803Y-46932D01*
X55764Y-46827D01*
X55524Y-46737D01*
X55268Y-46747D01*
X55076Y-46827D01*
X55037Y-46932D01*
X55420Y-47315D01*
X55803Y-46932D01*
X55803Y-47073D01*
X55491Y-47385D01*
X55874Y-47768D01*
X55979Y-47730D01*
X56068Y-47489D01*
X56068Y-49162D01*
X55803Y-49162D01*
X55803Y-47839D01*
X55420Y-47456D01*
X55349Y-47527D01*
X55349Y-47385D01*
X54966Y-47002D01*
X54861Y-47041D01*
X54850Y-47071D01*
X54838Y-47041D01*
X54733Y-47002D01*
X54662Y-47073D01*
X54662Y-46932D01*
X54623Y-46827D01*
X54383Y-46737D01*
X54127Y-46747D01*
X53935Y-46827D01*
X53896Y-46932D01*
X54279Y-47315D01*
X54662Y-46932D01*
X54662Y-47073D01*
X54350Y-47385D01*
X54733Y-47768D01*
X54838Y-47730D01*
X54849Y-47700D01*
X54861Y-47730D01*
X54966Y-47768D01*
X55349Y-47385D01*
X55349Y-47527D01*
X55037Y-47839D01*
X55076Y-47944D01*
X55316Y-48033D01*
X55572Y-48024D01*
X55764Y-47944D01*
X55803Y-47839D01*
X55803Y-49162D01*
X54662Y-49162D01*
X54662Y-47839D01*
X54279Y-47456D01*
X54208Y-47527D01*
X54208Y-47385D01*
X53825Y-47002D01*
X53720Y-47041D01*
X53631Y-47281D01*
X53641Y-47537D01*
X53720Y-47730D01*
X53825Y-47768D01*
X54208Y-47385D01*
X54208Y-47527D01*
X53896Y-47839D01*
X53935Y-47944D01*
X54175Y-48033D01*
X54431Y-48024D01*
X54623Y-47944D01*
X54662Y-47839D01*
X54662Y-49162D01*
X52368Y-49162D01*
X52368Y-47489D01*
X52368Y-44289D01*
X52364Y-44176D01*
X52364Y-42286D01*
X52266Y-42050D01*
X52085Y-41868D01*
X51849Y-41770D01*
X51592Y-41770D01*
X51356Y-41868D01*
X51175Y-42049D01*
X51076Y-42285D01*
X51076Y-42541D01*
X51174Y-42778D01*
X51355Y-42959D01*
X51591Y-43057D01*
X51847Y-43057D01*
X52084Y-42960D01*
X52265Y-42779D01*
X52364Y-42542D01*
X52364Y-42286D01*
X52364Y-44176D01*
X52358Y-44034D01*
X52279Y-43841D01*
X52174Y-43802D01*
X52103Y-43873D01*
X52103Y-43732D01*
X52064Y-43627D01*
X51824Y-43537D01*
X51568Y-43547D01*
X51376Y-43627D01*
X51337Y-43732D01*
X51720Y-44115D01*
X52103Y-43732D01*
X52103Y-43873D01*
X51791Y-44185D01*
X52174Y-44568D01*
X52279Y-44530D01*
X52368Y-44289D01*
X52368Y-47489D01*
X52364Y-47376D01*
X52364Y-45486D01*
X52266Y-45250D01*
X52103Y-45086D01*
X52103Y-44639D01*
X51720Y-44256D01*
X51649Y-44327D01*
X51649Y-44185D01*
X51266Y-43802D01*
X51161Y-43841D01*
X51072Y-44081D01*
X51081Y-44337D01*
X51161Y-44530D01*
X51266Y-44568D01*
X51649Y-44185D01*
X51649Y-44327D01*
X51337Y-44639D01*
X51376Y-44744D01*
X51616Y-44833D01*
X51872Y-44824D01*
X52064Y-44744D01*
X52103Y-44639D01*
X52103Y-45086D01*
X52085Y-45068D01*
X51849Y-44970D01*
X51592Y-44970D01*
X51356Y-45068D01*
X51175Y-45249D01*
X51076Y-45485D01*
X51076Y-45741D01*
X51174Y-45978D01*
X51355Y-46159D01*
X51591Y-46257D01*
X51847Y-46257D01*
X52084Y-46160D01*
X52265Y-45979D01*
X52364Y-45742D01*
X52364Y-45486D01*
X52364Y-47376D01*
X52358Y-47234D01*
X52279Y-47041D01*
X52174Y-47002D01*
X52103Y-47073D01*
X52103Y-46932D01*
X52064Y-46827D01*
X51824Y-46737D01*
X51568Y-46747D01*
X51376Y-46827D01*
X51337Y-46932D01*
X51720Y-47315D01*
X52103Y-46932D01*
X52103Y-47073D01*
X51791Y-47385D01*
X52174Y-47768D01*
X52279Y-47730D01*
X52368Y-47489D01*
X52368Y-49162D01*
X52103Y-49162D01*
X52103Y-47839D01*
X51720Y-47456D01*
X51649Y-47527D01*
X51649Y-47385D01*
X51266Y-47002D01*
X51161Y-47041D01*
X51072Y-47281D01*
X51081Y-47537D01*
X51161Y-47730D01*
X51266Y-47768D01*
X51649Y-47385D01*
X51649Y-47527D01*
X51337Y-47839D01*
X51376Y-47944D01*
X51616Y-48033D01*
X51872Y-48024D01*
X52064Y-47944D01*
X52103Y-47839D01*
X52103Y-49162D01*
X49429Y-49162D01*
X49429Y-48575D01*
X49418Y-48367D01*
X49360Y-48227D01*
X49267Y-48202D01*
X49197Y-48273D01*
X49197Y-48132D01*
X49172Y-48039D01*
X48975Y-47970D01*
X48767Y-47981D01*
X48627Y-48039D01*
X48602Y-48132D01*
X48900Y-48429D01*
X49197Y-48132D01*
X49197Y-48273D01*
X48970Y-48500D01*
X49267Y-48797D01*
X49360Y-48772D01*
X49429Y-48575D01*
X49429Y-49162D01*
X49236Y-49162D01*
X49094Y-48992D01*
X49172Y-48960D01*
X49197Y-48867D01*
X48900Y-48570D01*
X48894Y-48576D01*
X48823Y-48505D01*
X48829Y-48500D01*
X48532Y-48202D01*
X48453Y-48223D01*
X48251Y-47981D01*
X48008Y-47981D01*
X47975Y-47970D01*
X47767Y-47981D01*
X47767Y-47981D01*
X47020Y-47981D01*
X47004Y-47975D01*
X46796Y-47974D01*
X46780Y-47981D01*
X46020Y-47981D01*
X46004Y-47975D01*
X45796Y-47974D01*
X45780Y-47981D01*
X45020Y-47981D01*
X45004Y-47975D01*
X44796Y-47974D01*
X44780Y-47981D01*
X43453Y-47981D01*
X43453Y-49162D01*
X43279Y-49162D01*
X43279Y-48575D01*
X43268Y-48367D01*
X43210Y-48227D01*
X43117Y-48202D01*
X43047Y-48273D01*
X43047Y-48132D01*
X43022Y-48039D01*
X42825Y-47970D01*
X42617Y-47981D01*
X42477Y-48039D01*
X42452Y-48132D01*
X42750Y-48429D01*
X43047Y-48132D01*
X43047Y-48273D01*
X42820Y-48500D01*
X43117Y-48797D01*
X43210Y-48772D01*
X43279Y-48575D01*
X43279Y-49162D01*
X43047Y-49162D01*
X43047Y-48867D01*
X42750Y-48570D01*
X42452Y-48867D01*
X42477Y-48960D01*
X42674Y-49029D01*
X42882Y-49018D01*
X43022Y-48960D01*
X43047Y-48867D01*
X43047Y-49162D01*
X42175Y-49162D01*
X42175Y-48816D01*
X42194Y-48797D01*
X42247Y-48671D01*
X42289Y-48772D01*
X42382Y-48797D01*
X42679Y-48500D01*
X42382Y-48202D01*
X42289Y-48227D01*
X42250Y-48337D01*
X42195Y-48203D01*
X42175Y-48183D01*
X42175Y-47981D01*
X41870Y-47981D01*
X41854Y-47975D01*
X41646Y-47974D01*
X41630Y-47981D01*
X40870Y-47981D01*
X40854Y-47975D01*
X40646Y-47974D01*
X40630Y-47981D01*
X39870Y-47981D01*
X39854Y-47975D01*
X39646Y-47974D01*
X39630Y-47981D01*
X39026Y-47981D01*
X39026Y-46112D01*
X50837Y-46112D01*
X50837Y-40207D01*
X58611Y-40207D01*
X58611Y-42257D01*
X58525Y-42050D01*
X58344Y-41868D01*
X58108Y-41770D01*
X57852Y-41770D01*
X57615Y-41868D01*
X57434Y-42049D01*
X57335Y-42285D01*
X57335Y-42541D01*
X57433Y-42778D01*
X57614Y-42959D01*
X57850Y-43057D01*
X58107Y-43057D01*
X58343Y-42960D01*
X58524Y-42779D01*
X58611Y-42570D01*
X58611Y-44018D01*
X58538Y-43841D01*
X58433Y-43802D01*
X58362Y-43873D01*
X58362Y-43732D01*
X58323Y-43627D01*
X58083Y-43537D01*
X57827Y-43547D01*
X57635Y-43627D01*
X57596Y-43732D01*
X57979Y-44115D01*
X58362Y-43732D01*
X58362Y-43873D01*
X58050Y-44185D01*
X58433Y-44568D01*
X58538Y-44530D01*
X58611Y-44333D01*
X58611Y-45457D01*
X58525Y-45250D01*
X58362Y-45086D01*
X58362Y-44639D01*
X57979Y-44256D01*
X57908Y-44327D01*
X57908Y-44185D01*
X57525Y-43802D01*
X57420Y-43841D01*
X57331Y-44081D01*
X57341Y-44337D01*
X57420Y-44530D01*
X57525Y-44568D01*
X57908Y-44185D01*
X57908Y-44327D01*
X57596Y-44639D01*
X57635Y-44744D01*
X57875Y-44833D01*
X58131Y-44824D01*
X58323Y-44744D01*
X58362Y-44639D01*
X58362Y-45086D01*
X58344Y-45068D01*
X58108Y-44970D01*
X57852Y-44970D01*
X57615Y-45068D01*
X57434Y-45249D01*
X57335Y-45485D01*
X57335Y-45741D01*
X57433Y-45978D01*
X57614Y-46159D01*
X57850Y-46257D01*
X58107Y-46257D01*
X58343Y-46160D01*
X58524Y-45979D01*
X58611Y-45770D01*
X58611Y-47218D01*
X58538Y-47041D01*
X58433Y-47002D01*
X58362Y-47073D01*
X58362Y-46932D01*
X58323Y-46827D01*
X58083Y-46737D01*
X57827Y-46747D01*
X57635Y-46827D01*
X57596Y-46932D01*
X57979Y-47315D01*
X58362Y-46932D01*
X58362Y-47073D01*
X58050Y-47385D01*
X58433Y-47768D01*
X58538Y-47730D01*
X58611Y-47533D01*
X58611Y-49162D01*
M02*
