G04 (created by PCBNEW (2013-jul-07)-stable) date 2015年02月11日 19時07分56秒*
%MOIN*%
G04 Gerber Fmt 3.4, Leading zero omitted, Abs format*
%FSLAX34Y34*%
G01*
G70*
G90*
G04 APERTURE LIST*
%ADD10C,0.006*%
%ADD11C,0.06*%
%ADD12R,0.055X0.055*%
%ADD13C,0.055*%
%ADD14R,0.06X0.06*%
%ADD15C,0.056*%
%ADD16R,0.1378X0.1378*%
%ADD17C,0.0787402*%
%ADD18C,0.244094*%
%ADD19C,0.0944882*%
%ADD20C,0.0511811*%
%ADD21C,0.0551181*%
G04 APERTURE END LIST*
G54D10*
G54D11*
X30300Y-55400D03*
X30300Y-54400D03*
X30300Y-50400D03*
X31300Y-55400D03*
X32300Y-55400D03*
X33300Y-55400D03*
X34300Y-55400D03*
X37300Y-55400D03*
X37300Y-50400D03*
X36300Y-50400D03*
X37300Y-54400D03*
X31300Y-50400D03*
G54D12*
X48500Y-43550D03*
G54D13*
X47500Y-43550D03*
X46500Y-43550D03*
X45500Y-43550D03*
X44500Y-43550D03*
X43500Y-43550D03*
G54D12*
X27783Y-40157D03*
G54D13*
X28783Y-40157D03*
X29783Y-40157D03*
X30783Y-40157D03*
X31783Y-40157D03*
X32783Y-40157D03*
X33783Y-40157D03*
X34783Y-40157D03*
X35783Y-40157D03*
X36783Y-40157D03*
G54D11*
X23000Y-49850D03*
X27000Y-49850D03*
X27000Y-50850D03*
X23000Y-50850D03*
X34750Y-43450D03*
X30750Y-43450D03*
X31050Y-42100D03*
X35050Y-42100D03*
X37900Y-43700D03*
X41900Y-43700D03*
X38500Y-42600D03*
X42500Y-42600D03*
G54D14*
X50950Y-53700D03*
G54D11*
X50950Y-54700D03*
X49950Y-53700D03*
X49950Y-54700D03*
X48950Y-53700D03*
X48950Y-54700D03*
G54D14*
X48500Y-42500D03*
G54D11*
X47500Y-42500D03*
X46500Y-42500D03*
G54D14*
X23900Y-52200D03*
G54D11*
X23900Y-53200D03*
G54D14*
X51100Y-51300D03*
G54D11*
X51100Y-50300D03*
G54D14*
X50100Y-51300D03*
G54D11*
X50100Y-50300D03*
G54D14*
X49100Y-51300D03*
G54D11*
X49100Y-50300D03*
G54D15*
X26600Y-43700D03*
X28600Y-43700D03*
G54D12*
X42750Y-45500D03*
G54D13*
X41750Y-45500D03*
X40750Y-45500D03*
X39750Y-45500D03*
X39750Y-48500D03*
X40750Y-48500D03*
X41750Y-48500D03*
X42750Y-48500D03*
X35100Y-45500D03*
X34100Y-45500D03*
X33100Y-45500D03*
X32100Y-45500D03*
X31100Y-45500D03*
X30100Y-45500D03*
X29100Y-45500D03*
X28100Y-45500D03*
X27100Y-45500D03*
X26100Y-45500D03*
X25100Y-45500D03*
X24100Y-45500D03*
X23100Y-45500D03*
G54D12*
X36100Y-45500D03*
G54D13*
X23100Y-48500D03*
X24100Y-48500D03*
X25100Y-48500D03*
X26100Y-48500D03*
X27100Y-48500D03*
X28100Y-48500D03*
X29100Y-48500D03*
X30100Y-48500D03*
X31100Y-48500D03*
X32100Y-48500D03*
X33100Y-48500D03*
X34100Y-48500D03*
X35100Y-48500D03*
X36100Y-48500D03*
G54D12*
X48900Y-45500D03*
G54D13*
X47900Y-45500D03*
X46900Y-45500D03*
X45900Y-45500D03*
X44900Y-45500D03*
X44900Y-48500D03*
X45900Y-48500D03*
X46900Y-48500D03*
X47900Y-48500D03*
X48900Y-48500D03*
X29200Y-41900D03*
X28200Y-41900D03*
X25900Y-41900D03*
X26900Y-41900D03*
X29100Y-50500D03*
X29100Y-49500D03*
X39750Y-51300D03*
X39750Y-50300D03*
X37800Y-47500D03*
X37800Y-46500D03*
G54D16*
X26771Y-52283D03*
X26771Y-54645D03*
X28621Y-53464D03*
G54D17*
X51720Y-47385D03*
X51720Y-45614D03*
X54279Y-45614D03*
X54279Y-47385D03*
X55420Y-47385D03*
X55420Y-45614D03*
X57979Y-45614D03*
X57979Y-47385D03*
X55420Y-44185D03*
X55420Y-42414D03*
X57979Y-42414D03*
X57979Y-44185D03*
X51720Y-44185D03*
X51720Y-42414D03*
X54279Y-42414D03*
X54279Y-44185D03*
G54D18*
X22834Y-29527D03*
X22834Y-55511D03*
X57874Y-29527D03*
X57874Y-55511D03*
G54D19*
X53031Y-52362D03*
X54842Y-52362D03*
X52480Y-55314D03*
X55393Y-55314D03*
G54D20*
X54921Y-53937D03*
X52952Y-53937D03*
G54D21*
X36496Y-41589D03*
X35996Y-42289D03*
X36996Y-42289D03*
G54D11*
X56200Y-41300D03*
X57200Y-41300D03*
X57200Y-50950D03*
X56200Y-50950D03*
X34100Y-49300D03*
X35100Y-49300D03*
X48400Y-49200D03*
X47400Y-49200D03*
X34100Y-50600D03*
X35100Y-50600D03*
M02*
