M48
;DRILL file {Pcbnew (2013-jul-07)-stable} date 2015年02月11日 19時08分08秒
;FORMAT={-:-/ absolute / metric / decimal}
FMAT,2
METRIC,TZ
T1C0.762
T2C0.800
T3C0.813
T4C1.000
T5C1.001
T6C1.016
T7C1.400
%
G90
G05
M71
T1
X67.564Y-110.998
X72.644Y-110.998
T2
X91.43Y-107.416
X92.7Y-105.638
X93.97Y-107.416
T3
X58.42Y-126.619
X58.42Y-129.159
X58.674Y-115.57
X58.674Y-123.19
X61.214Y-115.57
X61.214Y-123.19
X63.754Y-115.57
X63.754Y-123.19
X65.786Y-106.426
X66.294Y-115.57
X66.294Y-123.19
X68.326Y-106.426
X68.58Y-126.619
X68.58Y-129.159
X68.834Y-115.57
X68.834Y-123.19
X70.57Y-102.
X71.374Y-115.57
X71.374Y-123.19
X71.628Y-106.426
X73.11Y-102.
X73.914Y-115.57
X73.914Y-123.19
X73.914Y-125.73
X73.914Y-128.27
X74.168Y-106.426
X75.65Y-102.
X76.454Y-115.57
X76.454Y-123.19
X78.105Y-110.363
X78.19Y-102.
X78.867Y-106.934
X78.994Y-115.57
X78.994Y-123.19
X80.73Y-102.
X81.534Y-115.57
X81.534Y-123.19
X83.27Y-102.
X84.074Y-115.57
X84.074Y-123.19
X85.81Y-102.
X86.614Y-115.57
X86.614Y-123.19
X88.265Y-110.363
X88.35Y-102.
X89.027Y-106.934
X89.154Y-115.57
X89.154Y-123.19
X90.89Y-102.
X91.694Y-115.57
X91.694Y-123.19
X93.43Y-102.
X96.012Y-118.11
X96.012Y-120.65
X96.266Y-110.998
X97.79Y-108.204
X100.965Y-115.57
X100.965Y-123.19
X100.965Y-127.762
X100.965Y-130.302
X103.505Y-115.57
X103.505Y-123.19
X106.045Y-115.57
X106.045Y-123.19
X106.426Y-110.998
X107.95Y-108.204
X108.585Y-115.57
X108.585Y-123.19
X110.49Y-110.617
X113.03Y-110.617
X114.046Y-115.57
X114.046Y-123.19
X115.57Y-110.617
X116.586Y-115.57
X116.586Y-123.19
X118.11Y-110.617
X119.126Y-115.57
X119.126Y-123.19
X120.65Y-110.617
X121.666Y-115.57
X121.666Y-123.19
X123.19Y-110.617
X124.206Y-115.57
X124.206Y-123.19
T4
X131.37Y-107.732
X131.37Y-112.232
X131.37Y-115.86
X131.37Y-120.36
X137.87Y-107.732
X137.87Y-112.232
X137.87Y-115.86
X137.87Y-120.36
X140.768Y-107.732
X140.768Y-112.232
X140.768Y-115.86
X140.768Y-120.36
X147.268Y-107.732
X147.268Y-112.232
X147.268Y-115.86
X147.268Y-120.36
T6
X60.706Y-132.588
X60.706Y-135.128
X76.962Y-128.016
X76.962Y-138.176
X76.962Y-140.716
X79.502Y-128.016
X79.502Y-140.716
X82.042Y-140.716
X84.582Y-140.716
X86.614Y-125.222
X86.614Y-128.524
X87.122Y-140.716
X89.154Y-125.222
X89.154Y-128.524
X92.202Y-128.016
X94.742Y-128.016
X94.742Y-138.176
X94.742Y-140.716
X118.11Y-107.95
X120.396Y-124.968
X120.65Y-107.95
X122.936Y-124.968
X123.19Y-107.95
X124.333Y-136.398
X124.333Y-138.938
X124.714Y-127.762
X124.714Y-130.302
X126.873Y-136.398
X126.873Y-138.938
X127.254Y-127.762
X127.254Y-130.302
X129.413Y-136.398
X129.413Y-138.938
X129.794Y-127.762
X129.794Y-130.302
X142.748Y-104.902
X142.748Y-129.413
X145.288Y-104.902
X145.288Y-129.413
T7
X133.3Y-140.5
X134.7Y-133.
X139.3Y-133.
X140.7Y-140.5
T5
X67.001Y-132.8G85X68.999Y-132.8
G05
X67.001Y-138.799G85X68.999Y-138.799
G05
X72.699Y-136.799G85X72.699Y-134.8
G05
T0
M30
