G04 (created by PCBNEW (2013-jul-07)-stable) date 2014年09月14日 18時05分48秒*
%MOIN*%
G04 Gerber Fmt 3.4, Leading zero omitted, Abs format*
%FSLAX34Y34*%
G01*
G70*
G90*
G04 APERTURE LIST*
%ADD10C,0.006*%
%ADD11C,0.06*%
%ADD12R,0.055X0.055*%
%ADD13C,0.055*%
%ADD14R,0.06X0.06*%
%ADD15C,0.056*%
%ADD16R,0.1378X0.1378*%
%ADD17C,0.0787402*%
%ADD18C,0.0393701*%
%ADD19C,0.0944882*%
%ADD20C,0.016*%
%ADD21C,0.008*%
%ADD22C,0.01*%
G04 APERTURE END LIST*
G54D10*
G54D11*
X9827Y2867D03*
X9827Y3867D03*
X9827Y7867D03*
X10827Y2867D03*
X11827Y2867D03*
X12827Y2867D03*
X13827Y2867D03*
X16827Y2867D03*
X16827Y7867D03*
X15827Y7867D03*
X16827Y3867D03*
X10827Y7867D03*
G54D12*
X28027Y14717D03*
G54D13*
X27027Y14717D03*
X26027Y14717D03*
X25027Y14717D03*
X24027Y14717D03*
X23027Y14717D03*
G54D12*
X7311Y18110D03*
G54D13*
X8311Y18110D03*
X9311Y18110D03*
X10311Y18110D03*
X11311Y18110D03*
X12311Y18110D03*
X13311Y18110D03*
X14311Y18110D03*
X15311Y18110D03*
X16311Y18110D03*
G54D11*
X2527Y8417D03*
X6527Y8417D03*
X6527Y7417D03*
X2527Y7417D03*
X14277Y14817D03*
X10277Y14817D03*
X10577Y16167D03*
X14577Y16167D03*
X17427Y14567D03*
X21427Y14567D03*
X18027Y15667D03*
X22027Y15667D03*
G54D14*
X30477Y4567D03*
G54D11*
X30477Y3567D03*
X29477Y4567D03*
X29477Y3567D03*
X28477Y4567D03*
X28477Y3567D03*
G54D14*
X28027Y15767D03*
G54D11*
X27027Y15767D03*
X26027Y15767D03*
G54D14*
X3427Y6067D03*
G54D11*
X3427Y5067D03*
G54D14*
X30627Y6967D03*
G54D11*
X30627Y7967D03*
G54D14*
X29627Y6967D03*
G54D11*
X29627Y7967D03*
G54D14*
X28627Y6967D03*
G54D11*
X28627Y7967D03*
G54D15*
X6127Y14567D03*
X8127Y14567D03*
G54D12*
X22277Y12767D03*
G54D13*
X21277Y12767D03*
X20277Y12767D03*
X19277Y12767D03*
X19277Y9767D03*
X20277Y9767D03*
X21277Y9767D03*
X22277Y9767D03*
X14627Y12767D03*
X13627Y12767D03*
X12627Y12767D03*
X11627Y12767D03*
X10627Y12767D03*
X9627Y12767D03*
X8627Y12767D03*
X7627Y12767D03*
X6627Y12767D03*
X5627Y12767D03*
X4627Y12767D03*
X3627Y12767D03*
X2627Y12767D03*
G54D12*
X15627Y12767D03*
G54D13*
X2627Y9767D03*
X3627Y9767D03*
X4627Y9767D03*
X5627Y9767D03*
X6627Y9767D03*
X7627Y9767D03*
X8627Y9767D03*
X9627Y9767D03*
X10627Y9767D03*
X11627Y9767D03*
X12627Y9767D03*
X13627Y9767D03*
X14627Y9767D03*
X15627Y9767D03*
G54D12*
X28427Y12767D03*
G54D13*
X27427Y12767D03*
X26427Y12767D03*
X25427Y12767D03*
X24427Y12767D03*
X24427Y9767D03*
X25427Y9767D03*
X26427Y9767D03*
X27427Y9767D03*
X28427Y9767D03*
X8727Y16367D03*
X7727Y16367D03*
X5427Y16367D03*
X6427Y16367D03*
X8627Y7767D03*
X8627Y8767D03*
X19277Y6967D03*
X19277Y7967D03*
X17327Y10767D03*
X17327Y11767D03*
G54D16*
X6299Y5984D03*
X6299Y3622D03*
X8149Y4803D03*
G54D17*
X31248Y10881D03*
X31248Y12653D03*
X33807Y12653D03*
X33807Y10881D03*
X34948Y10881D03*
X34948Y12653D03*
X37507Y12653D03*
X37507Y10881D03*
X34948Y14081D03*
X34948Y15853D03*
X37507Y15853D03*
X37507Y14081D03*
X31248Y14081D03*
X31248Y15853D03*
X33807Y15853D03*
X33807Y14081D03*
G54D18*
X16227Y16167D03*
X15727Y16167D03*
X16727Y16167D03*
G54D19*
X32559Y5905D03*
X34370Y5905D03*
X32007Y2952D03*
X34921Y2952D03*
G54D11*
X35727Y16967D03*
X36727Y16967D03*
X36727Y7317D03*
X35727Y7317D03*
X13627Y7667D03*
X14627Y7667D03*
X13627Y8967D03*
X14627Y8967D03*
X27927Y9067D03*
X26927Y9067D03*
G54D20*
X16827Y3867D02*
X16827Y2867D01*
X10827Y7867D02*
X13827Y4867D01*
X13827Y4867D02*
X13827Y2867D01*
X15827Y7867D02*
X15427Y8267D01*
X11227Y8267D02*
X10827Y7867D01*
X15427Y8267D02*
X11227Y8267D01*
X35727Y16967D02*
X36727Y16967D01*
X34948Y14081D02*
X37507Y14081D01*
X34948Y10881D02*
X37507Y10881D01*
X35727Y7317D02*
X36727Y7317D01*
G54D21*
X13627Y7667D02*
X14627Y7667D01*
X13627Y8967D02*
X14627Y8967D01*
X27927Y9067D02*
X26927Y9067D01*
G54D10*
G36*
X38138Y9105D02*
X37890Y9105D01*
X37890Y10428D01*
X37507Y10811D01*
X37436Y10740D01*
X37436Y10881D01*
X37053Y11264D01*
X36948Y11226D01*
X36859Y10986D01*
X36868Y10730D01*
X36948Y10537D01*
X37053Y10498D01*
X37436Y10881D01*
X37436Y10740D01*
X37124Y10428D01*
X37162Y10323D01*
X37402Y10233D01*
X37658Y10243D01*
X37851Y10323D01*
X37890Y10428D01*
X37890Y9105D01*
X35596Y9105D01*
X35596Y10777D01*
X35596Y13977D01*
X35591Y14090D01*
X35591Y15981D01*
X35494Y16217D01*
X35313Y16398D01*
X35076Y16497D01*
X34820Y16497D01*
X34583Y16399D01*
X34402Y16218D01*
X34377Y16158D01*
X34353Y16217D01*
X34172Y16398D01*
X33935Y16497D01*
X33679Y16497D01*
X33442Y16399D01*
X33261Y16218D01*
X33163Y15982D01*
X33163Y15726D01*
X33261Y15489D01*
X33441Y15308D01*
X33678Y15209D01*
X33934Y15209D01*
X34171Y15307D01*
X34352Y15488D01*
X34377Y15548D01*
X34402Y15489D01*
X34582Y15308D01*
X34819Y15209D01*
X35075Y15209D01*
X35312Y15307D01*
X35493Y15488D01*
X35591Y15724D01*
X35591Y15981D01*
X35591Y14090D01*
X35586Y14233D01*
X35506Y14426D01*
X35401Y14464D01*
X35331Y14394D01*
X35331Y14535D01*
X35292Y14640D01*
X35052Y14729D01*
X34796Y14720D01*
X34603Y14640D01*
X34564Y14535D01*
X34948Y14152D01*
X35331Y14535D01*
X35331Y14394D01*
X35018Y14081D01*
X35401Y13698D01*
X35506Y13737D01*
X35596Y13977D01*
X35596Y10777D01*
X35591Y10890D01*
X35591Y12781D01*
X35494Y13017D01*
X35331Y13180D01*
X35331Y13628D01*
X34948Y14011D01*
X34877Y13940D01*
X34877Y14081D01*
X34494Y14464D01*
X34389Y14426D01*
X34378Y14396D01*
X34365Y14426D01*
X34260Y14464D01*
X34190Y14394D01*
X34190Y14535D01*
X34151Y14640D01*
X33911Y14729D01*
X33655Y14720D01*
X33462Y14640D01*
X33424Y14535D01*
X33807Y14152D01*
X34190Y14535D01*
X34190Y14394D01*
X33877Y14081D01*
X34260Y13698D01*
X34365Y13737D01*
X34376Y13767D01*
X34389Y13737D01*
X34494Y13698D01*
X34877Y14081D01*
X34877Y13940D01*
X34564Y13628D01*
X34603Y13523D01*
X34843Y13433D01*
X35099Y13443D01*
X35292Y13523D01*
X35331Y13628D01*
X35331Y13180D01*
X35313Y13198D01*
X35076Y13297D01*
X34820Y13297D01*
X34583Y13199D01*
X34402Y13018D01*
X34377Y12958D01*
X34353Y13017D01*
X34190Y13180D01*
X34190Y13628D01*
X33807Y14011D01*
X33736Y13940D01*
X33736Y14081D01*
X33353Y14464D01*
X33248Y14426D01*
X33159Y14186D01*
X33168Y13930D01*
X33248Y13737D01*
X33353Y13698D01*
X33736Y14081D01*
X33736Y13940D01*
X33424Y13628D01*
X33462Y13523D01*
X33702Y13433D01*
X33958Y13443D01*
X34151Y13523D01*
X34190Y13628D01*
X34190Y13180D01*
X34172Y13198D01*
X33935Y13297D01*
X33679Y13297D01*
X33442Y13199D01*
X33261Y13018D01*
X33163Y12782D01*
X33163Y12526D01*
X33261Y12289D01*
X33441Y12108D01*
X33678Y12009D01*
X33934Y12009D01*
X34171Y12107D01*
X34352Y12288D01*
X34377Y12348D01*
X34402Y12289D01*
X34582Y12108D01*
X34819Y12009D01*
X35075Y12009D01*
X35312Y12107D01*
X35493Y12288D01*
X35591Y12524D01*
X35591Y12781D01*
X35591Y10890D01*
X35586Y11033D01*
X35506Y11226D01*
X35401Y11264D01*
X35331Y11194D01*
X35331Y11335D01*
X35292Y11440D01*
X35052Y11529D01*
X34796Y11520D01*
X34603Y11440D01*
X34564Y11335D01*
X34948Y10952D01*
X35331Y11335D01*
X35331Y11194D01*
X35018Y10881D01*
X35401Y10498D01*
X35506Y10537D01*
X35596Y10777D01*
X35596Y9105D01*
X35331Y9105D01*
X35331Y10428D01*
X34948Y10811D01*
X34877Y10740D01*
X34877Y10881D01*
X34494Y11264D01*
X34389Y11226D01*
X34378Y11196D01*
X34365Y11226D01*
X34260Y11264D01*
X34190Y11194D01*
X34190Y11335D01*
X34151Y11440D01*
X33911Y11529D01*
X33655Y11520D01*
X33462Y11440D01*
X33424Y11335D01*
X33807Y10952D01*
X34190Y11335D01*
X34190Y11194D01*
X33877Y10881D01*
X34260Y10498D01*
X34365Y10537D01*
X34376Y10567D01*
X34389Y10537D01*
X34494Y10498D01*
X34877Y10881D01*
X34877Y10740D01*
X34564Y10428D01*
X34603Y10323D01*
X34843Y10233D01*
X35099Y10243D01*
X35292Y10323D01*
X35331Y10428D01*
X35331Y9105D01*
X34190Y9105D01*
X34190Y10428D01*
X33807Y10811D01*
X33736Y10740D01*
X33736Y10881D01*
X33353Y11264D01*
X33248Y11226D01*
X33159Y10986D01*
X33168Y10730D01*
X33248Y10537D01*
X33353Y10498D01*
X33736Y10881D01*
X33736Y10740D01*
X33424Y10428D01*
X33462Y10323D01*
X33702Y10233D01*
X33958Y10243D01*
X34151Y10323D01*
X34190Y10428D01*
X34190Y9105D01*
X31896Y9105D01*
X31896Y10777D01*
X31896Y13977D01*
X31891Y14090D01*
X31891Y15981D01*
X31794Y16217D01*
X31613Y16398D01*
X31376Y16497D01*
X31120Y16497D01*
X30883Y16399D01*
X30702Y16218D01*
X30604Y15982D01*
X30604Y15726D01*
X30702Y15489D01*
X30882Y15308D01*
X31119Y15209D01*
X31375Y15209D01*
X31612Y15307D01*
X31793Y15488D01*
X31891Y15724D01*
X31891Y15981D01*
X31891Y14090D01*
X31886Y14233D01*
X31806Y14426D01*
X31701Y14464D01*
X31631Y14394D01*
X31631Y14535D01*
X31592Y14640D01*
X31352Y14729D01*
X31096Y14720D01*
X30903Y14640D01*
X30864Y14535D01*
X31248Y14152D01*
X31631Y14535D01*
X31631Y14394D01*
X31318Y14081D01*
X31701Y13698D01*
X31806Y13737D01*
X31896Y13977D01*
X31896Y10777D01*
X31891Y10890D01*
X31891Y12781D01*
X31794Y13017D01*
X31631Y13180D01*
X31631Y13628D01*
X31248Y14011D01*
X31177Y13940D01*
X31177Y14081D01*
X30794Y14464D01*
X30689Y14426D01*
X30600Y14186D01*
X30609Y13930D01*
X30689Y13737D01*
X30794Y13698D01*
X31177Y14081D01*
X31177Y13940D01*
X30864Y13628D01*
X30903Y13523D01*
X31143Y13433D01*
X31399Y13443D01*
X31592Y13523D01*
X31631Y13628D01*
X31631Y13180D01*
X31613Y13198D01*
X31376Y13297D01*
X31120Y13297D01*
X30883Y13199D01*
X30702Y13018D01*
X30604Y12782D01*
X30604Y12526D01*
X30702Y12289D01*
X30882Y12108D01*
X31119Y12009D01*
X31375Y12009D01*
X31612Y12107D01*
X31793Y12288D01*
X31891Y12524D01*
X31891Y12781D01*
X31891Y10890D01*
X31886Y11033D01*
X31806Y11226D01*
X31701Y11264D01*
X31631Y11194D01*
X31631Y11335D01*
X31592Y11440D01*
X31352Y11529D01*
X31096Y11520D01*
X30903Y11440D01*
X30864Y11335D01*
X31248Y10952D01*
X31631Y11335D01*
X31631Y11194D01*
X31318Y10881D01*
X31701Y10498D01*
X31806Y10537D01*
X31896Y10777D01*
X31896Y9105D01*
X31631Y9105D01*
X31631Y10428D01*
X31248Y10811D01*
X31177Y10740D01*
X31177Y10881D01*
X30794Y11264D01*
X30689Y11226D01*
X30600Y10986D01*
X30609Y10730D01*
X30689Y10537D01*
X30794Y10498D01*
X31177Y10881D01*
X31177Y10740D01*
X30864Y10428D01*
X30903Y10323D01*
X31143Y10233D01*
X31399Y10243D01*
X31592Y10323D01*
X31631Y10428D01*
X31631Y9105D01*
X28957Y9105D01*
X28957Y9691D01*
X28946Y9900D01*
X28888Y10040D01*
X28795Y10064D01*
X28724Y9994D01*
X28724Y10135D01*
X28700Y10228D01*
X28503Y10297D01*
X28294Y10286D01*
X28154Y10228D01*
X28130Y10135D01*
X28427Y9838D01*
X28724Y10135D01*
X28724Y9994D01*
X28498Y9767D01*
X28795Y9470D01*
X28888Y9494D01*
X28957Y9691D01*
X28957Y9105D01*
X28763Y9105D01*
X28622Y9274D01*
X28700Y9307D01*
X28724Y9399D01*
X28427Y9697D01*
X28421Y9691D01*
X28351Y9762D01*
X28356Y9767D01*
X28059Y10064D01*
X27981Y10044D01*
X27779Y10286D01*
X27535Y10286D01*
X27503Y10297D01*
X27294Y10286D01*
X27294Y10286D01*
X26547Y10286D01*
X26532Y10292D01*
X26323Y10292D01*
X26307Y10286D01*
X25547Y10286D01*
X25532Y10292D01*
X25323Y10292D01*
X25307Y10286D01*
X24547Y10286D01*
X24532Y10292D01*
X24323Y10292D01*
X24307Y10286D01*
X22981Y10286D01*
X22981Y9105D01*
X22807Y9105D01*
X22807Y9691D01*
X22796Y9900D01*
X22738Y10040D01*
X22645Y10064D01*
X22574Y9994D01*
X22574Y10135D01*
X22550Y10228D01*
X22353Y10297D01*
X22144Y10286D01*
X22004Y10228D01*
X21980Y10135D01*
X22277Y9838D01*
X22574Y10135D01*
X22574Y9994D01*
X22348Y9767D01*
X22645Y9470D01*
X22738Y9494D01*
X22807Y9691D01*
X22807Y9105D01*
X22574Y9105D01*
X22574Y9399D01*
X22277Y9697D01*
X21980Y9399D01*
X22004Y9307D01*
X22201Y9237D01*
X22410Y9249D01*
X22550Y9307D01*
X22574Y9399D01*
X22574Y9105D01*
X21703Y9105D01*
X21703Y9451D01*
X21722Y9469D01*
X21774Y9596D01*
X21817Y9494D01*
X21909Y9470D01*
X22206Y9767D01*
X21909Y10064D01*
X21817Y10040D01*
X21778Y9930D01*
X21722Y10064D01*
X21703Y10084D01*
X21703Y10286D01*
X21397Y10286D01*
X21382Y10292D01*
X21173Y10292D01*
X21157Y10286D01*
X20397Y10286D01*
X20382Y10292D01*
X20173Y10292D01*
X20157Y10286D01*
X19397Y10286D01*
X19382Y10292D01*
X19173Y10292D01*
X19157Y10286D01*
X18553Y10286D01*
X18553Y12154D01*
X30364Y12154D01*
X30364Y18060D01*
X38138Y18060D01*
X38138Y16009D01*
X38053Y16217D01*
X37872Y16398D01*
X37635Y16497D01*
X37379Y16497D01*
X37142Y16399D01*
X36961Y16218D01*
X36863Y15982D01*
X36863Y15726D01*
X36961Y15489D01*
X37141Y15308D01*
X37378Y15209D01*
X37634Y15209D01*
X37871Y15307D01*
X38052Y15488D01*
X38138Y15696D01*
X38138Y14249D01*
X38065Y14426D01*
X37960Y14464D01*
X37890Y14394D01*
X37890Y14535D01*
X37851Y14640D01*
X37611Y14729D01*
X37355Y14720D01*
X37162Y14640D01*
X37124Y14535D01*
X37507Y14152D01*
X37890Y14535D01*
X37890Y14394D01*
X37577Y14081D01*
X37960Y13698D01*
X38065Y13737D01*
X38138Y13934D01*
X38138Y12809D01*
X38053Y13017D01*
X37890Y13180D01*
X37890Y13628D01*
X37507Y14011D01*
X37436Y13940D01*
X37436Y14081D01*
X37053Y14464D01*
X36948Y14426D01*
X36859Y14186D01*
X36868Y13930D01*
X36948Y13737D01*
X37053Y13698D01*
X37436Y14081D01*
X37436Y13940D01*
X37124Y13628D01*
X37162Y13523D01*
X37402Y13433D01*
X37658Y13443D01*
X37851Y13523D01*
X37890Y13628D01*
X37890Y13180D01*
X37872Y13198D01*
X37635Y13297D01*
X37379Y13297D01*
X37142Y13199D01*
X36961Y13018D01*
X36863Y12782D01*
X36863Y12526D01*
X36961Y12289D01*
X37141Y12108D01*
X37378Y12009D01*
X37634Y12009D01*
X37871Y12107D01*
X38052Y12288D01*
X38138Y12496D01*
X38138Y11049D01*
X38065Y11226D01*
X37960Y11264D01*
X37890Y11194D01*
X37890Y11335D01*
X37851Y11440D01*
X37611Y11529D01*
X37355Y11520D01*
X37162Y11440D01*
X37124Y11335D01*
X37507Y10952D01*
X37890Y11335D01*
X37890Y11194D01*
X37577Y10881D01*
X37960Y10498D01*
X38065Y10537D01*
X38138Y10734D01*
X38138Y9105D01*
X38138Y9105D01*
G37*
G54D22*
X38138Y9105D02*
X37890Y9105D01*
X37890Y10428D01*
X37507Y10811D01*
X37436Y10740D01*
X37436Y10881D01*
X37053Y11264D01*
X36948Y11226D01*
X36859Y10986D01*
X36868Y10730D01*
X36948Y10537D01*
X37053Y10498D01*
X37436Y10881D01*
X37436Y10740D01*
X37124Y10428D01*
X37162Y10323D01*
X37402Y10233D01*
X37658Y10243D01*
X37851Y10323D01*
X37890Y10428D01*
X37890Y9105D01*
X35596Y9105D01*
X35596Y10777D01*
X35596Y13977D01*
X35591Y14090D01*
X35591Y15981D01*
X35494Y16217D01*
X35313Y16398D01*
X35076Y16497D01*
X34820Y16497D01*
X34583Y16399D01*
X34402Y16218D01*
X34377Y16158D01*
X34353Y16217D01*
X34172Y16398D01*
X33935Y16497D01*
X33679Y16497D01*
X33442Y16399D01*
X33261Y16218D01*
X33163Y15982D01*
X33163Y15726D01*
X33261Y15489D01*
X33441Y15308D01*
X33678Y15209D01*
X33934Y15209D01*
X34171Y15307D01*
X34352Y15488D01*
X34377Y15548D01*
X34402Y15489D01*
X34582Y15308D01*
X34819Y15209D01*
X35075Y15209D01*
X35312Y15307D01*
X35493Y15488D01*
X35591Y15724D01*
X35591Y15981D01*
X35591Y14090D01*
X35586Y14233D01*
X35506Y14426D01*
X35401Y14464D01*
X35331Y14394D01*
X35331Y14535D01*
X35292Y14640D01*
X35052Y14729D01*
X34796Y14720D01*
X34603Y14640D01*
X34564Y14535D01*
X34948Y14152D01*
X35331Y14535D01*
X35331Y14394D01*
X35018Y14081D01*
X35401Y13698D01*
X35506Y13737D01*
X35596Y13977D01*
X35596Y10777D01*
X35591Y10890D01*
X35591Y12781D01*
X35494Y13017D01*
X35331Y13180D01*
X35331Y13628D01*
X34948Y14011D01*
X34877Y13940D01*
X34877Y14081D01*
X34494Y14464D01*
X34389Y14426D01*
X34378Y14396D01*
X34365Y14426D01*
X34260Y14464D01*
X34190Y14394D01*
X34190Y14535D01*
X34151Y14640D01*
X33911Y14729D01*
X33655Y14720D01*
X33462Y14640D01*
X33424Y14535D01*
X33807Y14152D01*
X34190Y14535D01*
X34190Y14394D01*
X33877Y14081D01*
X34260Y13698D01*
X34365Y13737D01*
X34376Y13767D01*
X34389Y13737D01*
X34494Y13698D01*
X34877Y14081D01*
X34877Y13940D01*
X34564Y13628D01*
X34603Y13523D01*
X34843Y13433D01*
X35099Y13443D01*
X35292Y13523D01*
X35331Y13628D01*
X35331Y13180D01*
X35313Y13198D01*
X35076Y13297D01*
X34820Y13297D01*
X34583Y13199D01*
X34402Y13018D01*
X34377Y12958D01*
X34353Y13017D01*
X34190Y13180D01*
X34190Y13628D01*
X33807Y14011D01*
X33736Y13940D01*
X33736Y14081D01*
X33353Y14464D01*
X33248Y14426D01*
X33159Y14186D01*
X33168Y13930D01*
X33248Y13737D01*
X33353Y13698D01*
X33736Y14081D01*
X33736Y13940D01*
X33424Y13628D01*
X33462Y13523D01*
X33702Y13433D01*
X33958Y13443D01*
X34151Y13523D01*
X34190Y13628D01*
X34190Y13180D01*
X34172Y13198D01*
X33935Y13297D01*
X33679Y13297D01*
X33442Y13199D01*
X33261Y13018D01*
X33163Y12782D01*
X33163Y12526D01*
X33261Y12289D01*
X33441Y12108D01*
X33678Y12009D01*
X33934Y12009D01*
X34171Y12107D01*
X34352Y12288D01*
X34377Y12348D01*
X34402Y12289D01*
X34582Y12108D01*
X34819Y12009D01*
X35075Y12009D01*
X35312Y12107D01*
X35493Y12288D01*
X35591Y12524D01*
X35591Y12781D01*
X35591Y10890D01*
X35586Y11033D01*
X35506Y11226D01*
X35401Y11264D01*
X35331Y11194D01*
X35331Y11335D01*
X35292Y11440D01*
X35052Y11529D01*
X34796Y11520D01*
X34603Y11440D01*
X34564Y11335D01*
X34948Y10952D01*
X35331Y11335D01*
X35331Y11194D01*
X35018Y10881D01*
X35401Y10498D01*
X35506Y10537D01*
X35596Y10777D01*
X35596Y9105D01*
X35331Y9105D01*
X35331Y10428D01*
X34948Y10811D01*
X34877Y10740D01*
X34877Y10881D01*
X34494Y11264D01*
X34389Y11226D01*
X34378Y11196D01*
X34365Y11226D01*
X34260Y11264D01*
X34190Y11194D01*
X34190Y11335D01*
X34151Y11440D01*
X33911Y11529D01*
X33655Y11520D01*
X33462Y11440D01*
X33424Y11335D01*
X33807Y10952D01*
X34190Y11335D01*
X34190Y11194D01*
X33877Y10881D01*
X34260Y10498D01*
X34365Y10537D01*
X34376Y10567D01*
X34389Y10537D01*
X34494Y10498D01*
X34877Y10881D01*
X34877Y10740D01*
X34564Y10428D01*
X34603Y10323D01*
X34843Y10233D01*
X35099Y10243D01*
X35292Y10323D01*
X35331Y10428D01*
X35331Y9105D01*
X34190Y9105D01*
X34190Y10428D01*
X33807Y10811D01*
X33736Y10740D01*
X33736Y10881D01*
X33353Y11264D01*
X33248Y11226D01*
X33159Y10986D01*
X33168Y10730D01*
X33248Y10537D01*
X33353Y10498D01*
X33736Y10881D01*
X33736Y10740D01*
X33424Y10428D01*
X33462Y10323D01*
X33702Y10233D01*
X33958Y10243D01*
X34151Y10323D01*
X34190Y10428D01*
X34190Y9105D01*
X31896Y9105D01*
X31896Y10777D01*
X31896Y13977D01*
X31891Y14090D01*
X31891Y15981D01*
X31794Y16217D01*
X31613Y16398D01*
X31376Y16497D01*
X31120Y16497D01*
X30883Y16399D01*
X30702Y16218D01*
X30604Y15982D01*
X30604Y15726D01*
X30702Y15489D01*
X30882Y15308D01*
X31119Y15209D01*
X31375Y15209D01*
X31612Y15307D01*
X31793Y15488D01*
X31891Y15724D01*
X31891Y15981D01*
X31891Y14090D01*
X31886Y14233D01*
X31806Y14426D01*
X31701Y14464D01*
X31631Y14394D01*
X31631Y14535D01*
X31592Y14640D01*
X31352Y14729D01*
X31096Y14720D01*
X30903Y14640D01*
X30864Y14535D01*
X31248Y14152D01*
X31631Y14535D01*
X31631Y14394D01*
X31318Y14081D01*
X31701Y13698D01*
X31806Y13737D01*
X31896Y13977D01*
X31896Y10777D01*
X31891Y10890D01*
X31891Y12781D01*
X31794Y13017D01*
X31631Y13180D01*
X31631Y13628D01*
X31248Y14011D01*
X31177Y13940D01*
X31177Y14081D01*
X30794Y14464D01*
X30689Y14426D01*
X30600Y14186D01*
X30609Y13930D01*
X30689Y13737D01*
X30794Y13698D01*
X31177Y14081D01*
X31177Y13940D01*
X30864Y13628D01*
X30903Y13523D01*
X31143Y13433D01*
X31399Y13443D01*
X31592Y13523D01*
X31631Y13628D01*
X31631Y13180D01*
X31613Y13198D01*
X31376Y13297D01*
X31120Y13297D01*
X30883Y13199D01*
X30702Y13018D01*
X30604Y12782D01*
X30604Y12526D01*
X30702Y12289D01*
X30882Y12108D01*
X31119Y12009D01*
X31375Y12009D01*
X31612Y12107D01*
X31793Y12288D01*
X31891Y12524D01*
X31891Y12781D01*
X31891Y10890D01*
X31886Y11033D01*
X31806Y11226D01*
X31701Y11264D01*
X31631Y11194D01*
X31631Y11335D01*
X31592Y11440D01*
X31352Y11529D01*
X31096Y11520D01*
X30903Y11440D01*
X30864Y11335D01*
X31248Y10952D01*
X31631Y11335D01*
X31631Y11194D01*
X31318Y10881D01*
X31701Y10498D01*
X31806Y10537D01*
X31896Y10777D01*
X31896Y9105D01*
X31631Y9105D01*
X31631Y10428D01*
X31248Y10811D01*
X31177Y10740D01*
X31177Y10881D01*
X30794Y11264D01*
X30689Y11226D01*
X30600Y10986D01*
X30609Y10730D01*
X30689Y10537D01*
X30794Y10498D01*
X31177Y10881D01*
X31177Y10740D01*
X30864Y10428D01*
X30903Y10323D01*
X31143Y10233D01*
X31399Y10243D01*
X31592Y10323D01*
X31631Y10428D01*
X31631Y9105D01*
X28957Y9105D01*
X28957Y9691D01*
X28946Y9900D01*
X28888Y10040D01*
X28795Y10064D01*
X28724Y9994D01*
X28724Y10135D01*
X28700Y10228D01*
X28503Y10297D01*
X28294Y10286D01*
X28154Y10228D01*
X28130Y10135D01*
X28427Y9838D01*
X28724Y10135D01*
X28724Y9994D01*
X28498Y9767D01*
X28795Y9470D01*
X28888Y9494D01*
X28957Y9691D01*
X28957Y9105D01*
X28763Y9105D01*
X28622Y9274D01*
X28700Y9307D01*
X28724Y9399D01*
X28427Y9697D01*
X28421Y9691D01*
X28351Y9762D01*
X28356Y9767D01*
X28059Y10064D01*
X27981Y10044D01*
X27779Y10286D01*
X27535Y10286D01*
X27503Y10297D01*
X27294Y10286D01*
X27294Y10286D01*
X26547Y10286D01*
X26532Y10292D01*
X26323Y10292D01*
X26307Y10286D01*
X25547Y10286D01*
X25532Y10292D01*
X25323Y10292D01*
X25307Y10286D01*
X24547Y10286D01*
X24532Y10292D01*
X24323Y10292D01*
X24307Y10286D01*
X22981Y10286D01*
X22981Y9105D01*
X22807Y9105D01*
X22807Y9691D01*
X22796Y9900D01*
X22738Y10040D01*
X22645Y10064D01*
X22574Y9994D01*
X22574Y10135D01*
X22550Y10228D01*
X22353Y10297D01*
X22144Y10286D01*
X22004Y10228D01*
X21980Y10135D01*
X22277Y9838D01*
X22574Y10135D01*
X22574Y9994D01*
X22348Y9767D01*
X22645Y9470D01*
X22738Y9494D01*
X22807Y9691D01*
X22807Y9105D01*
X22574Y9105D01*
X22574Y9399D01*
X22277Y9697D01*
X21980Y9399D01*
X22004Y9307D01*
X22201Y9237D01*
X22410Y9249D01*
X22550Y9307D01*
X22574Y9399D01*
X22574Y9105D01*
X21703Y9105D01*
X21703Y9451D01*
X21722Y9469D01*
X21774Y9596D01*
X21817Y9494D01*
X21909Y9470D01*
X22206Y9767D01*
X21909Y10064D01*
X21817Y10040D01*
X21778Y9930D01*
X21722Y10064D01*
X21703Y10084D01*
X21703Y10286D01*
X21397Y10286D01*
X21382Y10292D01*
X21173Y10292D01*
X21157Y10286D01*
X20397Y10286D01*
X20382Y10292D01*
X20173Y10292D01*
X20157Y10286D01*
X19397Y10286D01*
X19382Y10292D01*
X19173Y10292D01*
X19157Y10286D01*
X18553Y10286D01*
X18553Y12154D01*
X30364Y12154D01*
X30364Y18060D01*
X38138Y18060D01*
X38138Y16009D01*
X38053Y16217D01*
X37872Y16398D01*
X37635Y16497D01*
X37379Y16497D01*
X37142Y16399D01*
X36961Y16218D01*
X36863Y15982D01*
X36863Y15726D01*
X36961Y15489D01*
X37141Y15308D01*
X37378Y15209D01*
X37634Y15209D01*
X37871Y15307D01*
X38052Y15488D01*
X38138Y15696D01*
X38138Y14249D01*
X38065Y14426D01*
X37960Y14464D01*
X37890Y14394D01*
X37890Y14535D01*
X37851Y14640D01*
X37611Y14729D01*
X37355Y14720D01*
X37162Y14640D01*
X37124Y14535D01*
X37507Y14152D01*
X37890Y14535D01*
X37890Y14394D01*
X37577Y14081D01*
X37960Y13698D01*
X38065Y13737D01*
X38138Y13934D01*
X38138Y12809D01*
X38053Y13017D01*
X37890Y13180D01*
X37890Y13628D01*
X37507Y14011D01*
X37436Y13940D01*
X37436Y14081D01*
X37053Y14464D01*
X36948Y14426D01*
X36859Y14186D01*
X36868Y13930D01*
X36948Y13737D01*
X37053Y13698D01*
X37436Y14081D01*
X37436Y13940D01*
X37124Y13628D01*
X37162Y13523D01*
X37402Y13433D01*
X37658Y13443D01*
X37851Y13523D01*
X37890Y13628D01*
X37890Y13180D01*
X37872Y13198D01*
X37635Y13297D01*
X37379Y13297D01*
X37142Y13199D01*
X36961Y13018D01*
X36863Y12782D01*
X36863Y12526D01*
X36961Y12289D01*
X37141Y12108D01*
X37378Y12009D01*
X37634Y12009D01*
X37871Y12107D01*
X38052Y12288D01*
X38138Y12496D01*
X38138Y11049D01*
X38065Y11226D01*
X37960Y11264D01*
X37890Y11194D01*
X37890Y11335D01*
X37851Y11440D01*
X37611Y11529D01*
X37355Y11520D01*
X37162Y11440D01*
X37124Y11335D01*
X37507Y10952D01*
X37890Y11335D01*
X37890Y11194D01*
X37577Y10881D01*
X37960Y10498D01*
X38065Y10537D01*
X38138Y10734D01*
X38138Y9105D01*
M02*
