G04 (created by PCBNEW (2013-jul-07)-stable) date 2015年02月11日 19時07分56秒*
%MOIN*%
G04 Gerber Fmt 3.4, Leading zero omitted, Abs format*
%FSLAX34Y34*%
G01*
G70*
G90*
G04 APERTURE LIST*
%ADD10C,0.006*%
%ADD11C,0.06*%
%ADD12R,0.055X0.055*%
%ADD13C,0.055*%
%ADD14R,0.06X0.06*%
%ADD15C,0.056*%
%ADD16R,0.0393701X0.0866142*%
%ADD17R,0.0275591X0.0866142*%
%ADD18R,0.0255906X0.0866142*%
%ADD19R,0.0787402X0.0472441*%
%ADD20R,0.0787402X0.0314961*%
%ADD21R,0.0787402X0.110236*%
%ADD22R,0.0905512X0.0748031*%
%ADD23R,0.1378X0.1378*%
%ADD24C,0.0787402*%
%ADD25C,0.0944882*%
%ADD26C,0.0551181*%
%ADD27C,0.016*%
%ADD28C,0.008*%
%ADD29C,0.01*%
G04 APERTURE END LIST*
G54D10*
G54D11*
X30300Y-55400D03*
X30300Y-54400D03*
X30300Y-50400D03*
X31300Y-55400D03*
X32300Y-55400D03*
X33300Y-55400D03*
X34300Y-55400D03*
X37300Y-55400D03*
X37300Y-50400D03*
X36300Y-50400D03*
X37300Y-54400D03*
X31300Y-50400D03*
G54D12*
X48500Y-43550D03*
G54D13*
X47500Y-43550D03*
X46500Y-43550D03*
X45500Y-43550D03*
X44500Y-43550D03*
X43500Y-43550D03*
G54D12*
X27783Y-40157D03*
G54D13*
X28783Y-40157D03*
X29783Y-40157D03*
X30783Y-40157D03*
X31783Y-40157D03*
X32783Y-40157D03*
X33783Y-40157D03*
X34783Y-40157D03*
X35783Y-40157D03*
X36783Y-40157D03*
G54D11*
X23000Y-49850D03*
X27000Y-49850D03*
X27000Y-50850D03*
X23000Y-50850D03*
X34750Y-43450D03*
X30750Y-43450D03*
X31050Y-42100D03*
X35050Y-42100D03*
X37900Y-43700D03*
X41900Y-43700D03*
X38500Y-42600D03*
X42500Y-42600D03*
G54D14*
X50950Y-53700D03*
G54D11*
X50950Y-54700D03*
X49950Y-53700D03*
X49950Y-54700D03*
X48950Y-53700D03*
X48950Y-54700D03*
G54D14*
X48500Y-42500D03*
G54D11*
X47500Y-42500D03*
X46500Y-42500D03*
G54D14*
X23900Y-52200D03*
G54D11*
X23900Y-53200D03*
G54D14*
X51100Y-51300D03*
G54D11*
X51100Y-50300D03*
G54D14*
X50100Y-51300D03*
G54D11*
X50100Y-50300D03*
G54D14*
X49100Y-51300D03*
G54D11*
X49100Y-50300D03*
G54D15*
X26600Y-43700D03*
X28600Y-43700D03*
G54D16*
X41909Y-49803D03*
G54D17*
X42519Y-49803D03*
X42952Y-49803D03*
X43385Y-49803D03*
X43818Y-49803D03*
X44251Y-49803D03*
X44685Y-49803D03*
X45118Y-49803D03*
G54D18*
X45551Y-49803D03*
X45925Y-49803D03*
G54D19*
X46496Y-51692D03*
G54D20*
X46496Y-54133D03*
G54D21*
X46496Y-55767D03*
G54D22*
X40787Y-55944D03*
G54D12*
X42750Y-45500D03*
G54D13*
X41750Y-45500D03*
X40750Y-45500D03*
X39750Y-45500D03*
X39750Y-48500D03*
X40750Y-48500D03*
X41750Y-48500D03*
X42750Y-48500D03*
X35100Y-45500D03*
X34100Y-45500D03*
X33100Y-45500D03*
X32100Y-45500D03*
X31100Y-45500D03*
X30100Y-45500D03*
X29100Y-45500D03*
X28100Y-45500D03*
X27100Y-45500D03*
X26100Y-45500D03*
X25100Y-45500D03*
X24100Y-45500D03*
X23100Y-45500D03*
G54D12*
X36100Y-45500D03*
G54D13*
X23100Y-48500D03*
X24100Y-48500D03*
X25100Y-48500D03*
X26100Y-48500D03*
X27100Y-48500D03*
X28100Y-48500D03*
X29100Y-48500D03*
X30100Y-48500D03*
X31100Y-48500D03*
X32100Y-48500D03*
X33100Y-48500D03*
X34100Y-48500D03*
X35100Y-48500D03*
X36100Y-48500D03*
G54D12*
X48900Y-45500D03*
G54D13*
X47900Y-45500D03*
X46900Y-45500D03*
X45900Y-45500D03*
X44900Y-45500D03*
X44900Y-48500D03*
X45900Y-48500D03*
X46900Y-48500D03*
X47900Y-48500D03*
X48900Y-48500D03*
X29200Y-41900D03*
X28200Y-41900D03*
X25900Y-41900D03*
X26900Y-41900D03*
X29100Y-50500D03*
X29100Y-49500D03*
X39750Y-51300D03*
X39750Y-50300D03*
X37800Y-47500D03*
X37800Y-46500D03*
G54D23*
X26771Y-52283D03*
X26771Y-54645D03*
X28621Y-53464D03*
G54D24*
X51720Y-47385D03*
X51720Y-45614D03*
X54279Y-45614D03*
X54279Y-47385D03*
X55420Y-47385D03*
X55420Y-45614D03*
X57979Y-45614D03*
X57979Y-47385D03*
X55420Y-44185D03*
X55420Y-42414D03*
X57979Y-42414D03*
X57979Y-44185D03*
X51720Y-44185D03*
X51720Y-42414D03*
X54279Y-42414D03*
X54279Y-44185D03*
G54D25*
X53031Y-52362D03*
X54842Y-52362D03*
X52480Y-55314D03*
X55393Y-55314D03*
G54D26*
X36496Y-41589D03*
X35996Y-42289D03*
X36996Y-42289D03*
G54D11*
X56200Y-41300D03*
X57200Y-41300D03*
X57200Y-50950D03*
X56200Y-50950D03*
X34100Y-49300D03*
X35100Y-49300D03*
X48400Y-49200D03*
X47400Y-49200D03*
X34100Y-50600D03*
X35100Y-50600D03*
G54D27*
X52100Y-35400D02*
X56700Y-40000D01*
X56700Y-45900D02*
X56700Y-45750D01*
X56700Y-40000D02*
X56700Y-45750D01*
X22600Y-39600D02*
X22600Y-46350D01*
X22600Y-46350D02*
X22950Y-46700D01*
X26800Y-35400D02*
X52100Y-35400D01*
X22600Y-39600D02*
X26800Y-35400D01*
X30800Y-47000D02*
X30950Y-47150D01*
X30500Y-46700D02*
X30800Y-47000D01*
X37150Y-47150D02*
X37800Y-46500D01*
X30950Y-47150D02*
X37150Y-47150D01*
X22950Y-46700D02*
X30500Y-46700D01*
X50950Y-54700D02*
X51150Y-54500D01*
X56700Y-54150D02*
X56350Y-54500D01*
X56350Y-54500D02*
X52100Y-54500D01*
X56700Y-54150D02*
X56700Y-45900D01*
X51150Y-54500D02*
X52100Y-54500D01*
X31783Y-40157D02*
X31783Y-38766D01*
X31783Y-38766D02*
X32650Y-37900D01*
X39750Y-45500D02*
X39750Y-43850D01*
X39750Y-43850D02*
X38500Y-42600D01*
X31650Y-42400D02*
X31350Y-42400D01*
X36100Y-43700D02*
X35325Y-44475D01*
X35325Y-44475D02*
X33725Y-44475D01*
X33725Y-44475D02*
X31650Y-42400D01*
X37900Y-43700D02*
X36100Y-43700D01*
X31350Y-42400D02*
X31050Y-42100D01*
X29100Y-49500D02*
X29800Y-49500D01*
X34350Y-49950D02*
X34600Y-50200D01*
X33950Y-49950D02*
X34350Y-49950D01*
X33600Y-49600D02*
X33950Y-49950D01*
X29900Y-49600D02*
X33600Y-49600D01*
X29800Y-49500D02*
X29900Y-49600D01*
X47900Y-45500D02*
X47200Y-44800D01*
X45150Y-41100D02*
X45800Y-41100D01*
X42900Y-43350D02*
X45150Y-41100D01*
X42900Y-43950D02*
X42900Y-43350D01*
X43750Y-44800D02*
X42900Y-43950D01*
X47200Y-44800D02*
X43750Y-44800D01*
X47500Y-43550D02*
X47500Y-43800D01*
X47500Y-43800D02*
X47200Y-44100D01*
X47200Y-44100D02*
X45400Y-44100D01*
X45400Y-44100D02*
X45000Y-43700D01*
X45000Y-43700D02*
X45000Y-41900D01*
X45000Y-41900D02*
X45800Y-41100D01*
X49700Y-41100D02*
X50100Y-40700D01*
X45800Y-41100D02*
X49700Y-41100D01*
X37300Y-54400D02*
X37200Y-54400D01*
X37200Y-54400D02*
X34600Y-51800D01*
X34600Y-50200D02*
X34600Y-51800D01*
X37800Y-46500D02*
X37800Y-46500D01*
X34600Y-49200D02*
X34600Y-48350D01*
X34600Y-48050D02*
X34600Y-48350D01*
X34750Y-47900D02*
X34600Y-48050D01*
X36600Y-47900D02*
X34750Y-47900D01*
X36700Y-48000D02*
X36600Y-47900D01*
X38050Y-48000D02*
X36700Y-48000D01*
X38349Y-47700D02*
X38050Y-48000D01*
X38349Y-47050D02*
X38349Y-47700D01*
X37800Y-46500D02*
X38349Y-47050D01*
X34600Y-49200D02*
X34600Y-50200D01*
X38150Y-51350D02*
X38150Y-53550D01*
X39750Y-50300D02*
X39200Y-50300D01*
X38225Y-51275D02*
X38150Y-51350D01*
X39200Y-50300D02*
X38225Y-51275D01*
X38150Y-53550D02*
X37300Y-54400D01*
X42750Y-45500D02*
X42750Y-45550D01*
X42750Y-45550D02*
X43700Y-46500D01*
X43500Y-46500D02*
X40750Y-46500D01*
X40750Y-46500D02*
X39750Y-45500D01*
X56700Y-45900D02*
X55900Y-46700D01*
X50100Y-40150D02*
X50100Y-40700D01*
X50100Y-40700D02*
X50100Y-42600D01*
X50100Y-42600D02*
X50100Y-45500D01*
X55750Y-46700D02*
X51300Y-46700D01*
X28400Y-37900D02*
X27783Y-38516D01*
X27783Y-38516D02*
X27783Y-40157D01*
X50100Y-40150D02*
X47850Y-37900D01*
X47850Y-37900D02*
X32650Y-37900D01*
X32650Y-37900D02*
X30440Y-37900D01*
X30440Y-37900D02*
X28400Y-37900D01*
X50100Y-45500D02*
X51300Y-46700D01*
X55750Y-46700D02*
X55900Y-46700D01*
X38500Y-42600D02*
X38500Y-43100D01*
X38500Y-43100D02*
X37900Y-43700D01*
X39750Y-48500D02*
X39750Y-50300D01*
X30100Y-45500D02*
X30100Y-45600D01*
X37050Y-46500D02*
X37800Y-46500D01*
X36800Y-46750D02*
X37050Y-46500D01*
X31250Y-46750D02*
X36800Y-46750D01*
X30100Y-45600D02*
X31250Y-46750D01*
X47900Y-45500D02*
X47900Y-46200D01*
X47900Y-46200D02*
X47600Y-46500D01*
X47500Y-46500D02*
X47600Y-46500D01*
X47600Y-46500D02*
X48700Y-46500D01*
X47500Y-46500D02*
X46900Y-46500D01*
X46900Y-46500D02*
X43700Y-46500D01*
X43700Y-46500D02*
X43500Y-46500D01*
X48900Y-46300D02*
X48900Y-45500D01*
X48700Y-46500D02*
X48900Y-46300D01*
X39750Y-50300D02*
X40700Y-50300D01*
X43818Y-50481D02*
X43818Y-49803D01*
X43550Y-50750D02*
X43818Y-50481D01*
X41150Y-50750D02*
X43550Y-50750D01*
X40700Y-50300D02*
X41150Y-50750D01*
X28100Y-48500D02*
X29100Y-48500D01*
X29100Y-48500D02*
X29100Y-49500D01*
X26771Y-52283D02*
X25700Y-51211D01*
X26100Y-49850D02*
X27000Y-49850D01*
X25700Y-50250D02*
X26100Y-49850D01*
X25700Y-51211D02*
X25700Y-50250D01*
X30300Y-54400D02*
X31300Y-54400D01*
X31300Y-54400D02*
X32300Y-55400D01*
X26771Y-52283D02*
X23983Y-52283D01*
X23983Y-52283D02*
X23900Y-52200D01*
X30300Y-54400D02*
X30300Y-52740D01*
X29842Y-52283D02*
X26771Y-52283D01*
X30300Y-52740D02*
X29842Y-52283D01*
X30300Y-54400D02*
X30300Y-55400D01*
G54D28*
X50800Y-51900D02*
X50700Y-51900D01*
X52262Y-52362D02*
X51800Y-51900D01*
X51800Y-51900D02*
X50800Y-51900D01*
X53031Y-52362D02*
X52262Y-52362D01*
X50700Y-51900D02*
X50100Y-51300D01*
X50050Y-52150D02*
X49950Y-52150D01*
X54842Y-52657D02*
X54250Y-53250D01*
X54250Y-53250D02*
X52750Y-53250D01*
X52750Y-53250D02*
X51650Y-52150D01*
X51650Y-52150D02*
X50050Y-52150D01*
X54842Y-52362D02*
X54842Y-52657D01*
X49950Y-52150D02*
X49100Y-51300D01*
X23000Y-49850D02*
X23000Y-49400D01*
X29900Y-47300D02*
X31100Y-48500D01*
X22650Y-48300D02*
X22650Y-49050D01*
X23650Y-47300D02*
X22650Y-48300D01*
X29900Y-47300D02*
X23650Y-47300D01*
X23000Y-49400D02*
X22650Y-49050D01*
X23000Y-50850D02*
X23000Y-49850D01*
X31100Y-48500D02*
X30900Y-48500D01*
X46500Y-42500D02*
X46500Y-43550D01*
X47500Y-42500D02*
X47500Y-42400D01*
X45500Y-42000D02*
X45500Y-43550D01*
X45800Y-41700D02*
X45500Y-42000D01*
X46800Y-41700D02*
X45800Y-41700D01*
X47500Y-42400D02*
X46800Y-41700D01*
X50900Y-44500D02*
X50900Y-39200D01*
X55420Y-45614D02*
X55420Y-45520D01*
X55420Y-45520D02*
X54800Y-44900D01*
X54800Y-44900D02*
X51300Y-44900D01*
X51300Y-44900D02*
X50900Y-44500D01*
X25500Y-44900D02*
X26100Y-45500D01*
X24900Y-44900D02*
X25500Y-44900D01*
X24200Y-44200D02*
X24900Y-44900D01*
X24200Y-39600D02*
X24200Y-44200D01*
X27000Y-36800D02*
X24200Y-39600D01*
X48500Y-36800D02*
X27000Y-36800D01*
X50900Y-39200D02*
X48500Y-36800D01*
X51100Y-51300D02*
X51950Y-50450D01*
X49550Y-46150D02*
X49550Y-45050D01*
X49550Y-45050D02*
X48850Y-44350D01*
X50700Y-48700D02*
X51950Y-49950D01*
X50700Y-47300D02*
X50700Y-48700D01*
X50700Y-47300D02*
X49550Y-46150D01*
X44500Y-44000D02*
X44500Y-43550D01*
X44850Y-44350D02*
X44500Y-44000D01*
X44850Y-44350D02*
X48850Y-44350D01*
X51950Y-50450D02*
X51950Y-49950D01*
X43050Y-42800D02*
X42150Y-43700D01*
X28783Y-39966D02*
X29150Y-39600D01*
X29150Y-39600D02*
X30050Y-39600D01*
X30050Y-39600D02*
X30300Y-39850D01*
X30300Y-39850D02*
X30300Y-40600D01*
X30300Y-40600D02*
X31000Y-41300D01*
X31000Y-41300D02*
X31350Y-41300D01*
X31350Y-41300D02*
X34050Y-44000D01*
X34050Y-44000D02*
X35100Y-44000D01*
X35100Y-44000D02*
X35950Y-43150D01*
X35950Y-43150D02*
X36850Y-43150D01*
X36850Y-43150D02*
X38200Y-41800D01*
X38200Y-41800D02*
X42650Y-41800D01*
X42650Y-41800D02*
X43050Y-42200D01*
X43050Y-42200D02*
X43050Y-42800D01*
X28783Y-40157D02*
X28783Y-39966D01*
X42150Y-43700D02*
X41900Y-43700D01*
X31050Y-42950D02*
X32600Y-44500D01*
X38700Y-46550D02*
X38700Y-47650D01*
X38700Y-47650D02*
X37850Y-48500D01*
X36100Y-48500D02*
X37850Y-48500D01*
X32600Y-44500D02*
X32600Y-45750D01*
X38000Y-45850D02*
X38700Y-46550D01*
X37200Y-45850D02*
X38000Y-45850D01*
X36600Y-46450D02*
X37200Y-45850D01*
X33300Y-46450D02*
X36600Y-46450D01*
X32600Y-45750D02*
X33300Y-46450D01*
X30200Y-41500D02*
X30200Y-42350D01*
X28857Y-40157D02*
X28783Y-40157D01*
X28857Y-40157D02*
X30200Y-41500D01*
X30800Y-42950D02*
X31050Y-42950D01*
X30200Y-42350D02*
X30800Y-42950D01*
X42900Y-44300D02*
X42500Y-44300D01*
X42500Y-44300D02*
X41900Y-43700D01*
X46900Y-45500D02*
X46450Y-45050D01*
X45600Y-45050D02*
X46450Y-45050D01*
X45400Y-45250D02*
X45600Y-45050D01*
X45400Y-45850D02*
X45400Y-45250D01*
X45250Y-46000D02*
X45400Y-45850D01*
X44600Y-46000D02*
X45250Y-46000D01*
X42900Y-44300D02*
X44600Y-46000D01*
X41750Y-45500D02*
X41750Y-43850D01*
X41750Y-43850D02*
X41900Y-43700D01*
X42500Y-42600D02*
X41950Y-42050D01*
X30600Y-41600D02*
X30400Y-41400D01*
X31250Y-41600D02*
X30600Y-41600D01*
X33900Y-44250D02*
X31250Y-41600D01*
X35200Y-44250D02*
X33900Y-44250D01*
X36000Y-43450D02*
X35200Y-44250D01*
X36950Y-43450D02*
X36000Y-43450D01*
X38350Y-42050D02*
X36950Y-43450D01*
X41950Y-42050D02*
X38350Y-42050D01*
X40750Y-45500D02*
X40750Y-43450D01*
X41600Y-42600D02*
X42500Y-42600D01*
X40750Y-43450D02*
X41600Y-42600D01*
X43050Y-44900D02*
X42500Y-44900D01*
X44400Y-46250D02*
X43050Y-44900D01*
X45350Y-46250D02*
X44400Y-46250D01*
X45900Y-45700D02*
X45350Y-46250D01*
X45900Y-45500D02*
X45900Y-45700D01*
X41300Y-46050D02*
X40750Y-45500D01*
X41900Y-46050D02*
X41300Y-46050D01*
X42200Y-45750D02*
X41900Y-46050D01*
X42200Y-45200D02*
X42200Y-45750D01*
X42500Y-44900D02*
X42200Y-45200D01*
X38950Y-47650D02*
X38950Y-46500D01*
X38950Y-47650D02*
X37600Y-49000D01*
X37600Y-49000D02*
X35600Y-49000D01*
X35100Y-48500D02*
X35600Y-49000D01*
X38100Y-45650D02*
X38950Y-46500D01*
X37100Y-45650D02*
X38100Y-45650D01*
X36500Y-46250D02*
X37100Y-45650D01*
X34200Y-46250D02*
X36500Y-46250D01*
X33600Y-45650D02*
X34200Y-46250D01*
X33600Y-45150D02*
X33600Y-45650D01*
X31150Y-42700D02*
X33600Y-45150D01*
X30800Y-42700D02*
X31150Y-42700D01*
X30400Y-42300D02*
X30800Y-42700D01*
X30400Y-41400D02*
X30400Y-42300D01*
X29950Y-40950D02*
X30400Y-41400D01*
X29783Y-40783D02*
X29950Y-40950D01*
X29783Y-40783D02*
X29783Y-40157D01*
X42500Y-42600D02*
X42400Y-42600D01*
X51100Y-42900D02*
X51100Y-38800D01*
X55420Y-42414D02*
X55285Y-42414D01*
X55285Y-42414D02*
X54600Y-43100D01*
X54600Y-43100D02*
X51300Y-43100D01*
X51300Y-43100D02*
X51100Y-42900D01*
X23900Y-44300D02*
X25100Y-45500D01*
X23900Y-39600D02*
X23900Y-44300D01*
X27000Y-36500D02*
X23900Y-39600D01*
X48800Y-36500D02*
X27000Y-36500D01*
X51100Y-38800D02*
X48800Y-36500D01*
X24100Y-45500D02*
X24100Y-45000D01*
X51720Y-38920D02*
X49000Y-36200D01*
X23600Y-39600D02*
X23600Y-44500D01*
X23600Y-39600D02*
X27000Y-36200D01*
X27000Y-36200D02*
X49000Y-36200D01*
X51720Y-38920D02*
X51720Y-42414D01*
X24100Y-45000D02*
X23600Y-44500D01*
X25250Y-41050D02*
X24500Y-40300D01*
X50700Y-44700D02*
X51614Y-45614D01*
X51720Y-45614D02*
X51614Y-45614D01*
X24500Y-39600D02*
X27000Y-37100D01*
X27000Y-37100D02*
X48300Y-37100D01*
X48300Y-37100D02*
X50700Y-39500D01*
X50700Y-39500D02*
X50700Y-44643D01*
X50700Y-44643D02*
X50700Y-44700D01*
X31100Y-45350D02*
X30000Y-44250D01*
X30000Y-44250D02*
X30000Y-41600D01*
X30000Y-41600D02*
X29450Y-41050D01*
X29450Y-41050D02*
X25250Y-41050D01*
X31100Y-45350D02*
X31100Y-45500D01*
X24500Y-40300D02*
X24500Y-39600D01*
X50500Y-48850D02*
X51700Y-50050D01*
X50500Y-47450D02*
X50500Y-48850D01*
X49800Y-46750D02*
X50500Y-47450D01*
X49600Y-50800D02*
X49100Y-50300D01*
X51300Y-50800D02*
X49600Y-50800D01*
X51700Y-50400D02*
X51300Y-50800D01*
X51700Y-50050D02*
X51700Y-50400D01*
X44050Y-44550D02*
X48750Y-44550D01*
X44050Y-44550D02*
X43500Y-44000D01*
X43500Y-43550D02*
X43500Y-44000D01*
X49750Y-46750D02*
X49800Y-46750D01*
X49350Y-45150D02*
X48750Y-44550D01*
X49350Y-46350D02*
X49350Y-45150D01*
X49750Y-46750D02*
X49350Y-46350D01*
X35100Y-45500D02*
X35100Y-45200D01*
X39250Y-45750D02*
X40250Y-46750D01*
X39250Y-45150D02*
X39250Y-45750D01*
X38550Y-44450D02*
X39250Y-45150D01*
X35850Y-44450D02*
X38550Y-44450D01*
X35100Y-45200D02*
X35850Y-44450D01*
X47250Y-46750D02*
X49800Y-46750D01*
X47250Y-46750D02*
X40250Y-46750D01*
G54D27*
X37800Y-39950D02*
X37800Y-41137D01*
X37800Y-39950D02*
X37250Y-39400D01*
X37250Y-39400D02*
X32650Y-39400D01*
X32650Y-39400D02*
X32300Y-39750D01*
X32300Y-39750D02*
X32300Y-40450D01*
X32300Y-40450D02*
X32000Y-40750D01*
X32000Y-40750D02*
X31375Y-40750D01*
X30783Y-40157D02*
X31375Y-40750D01*
X36996Y-41940D02*
X36996Y-42289D01*
X37800Y-41137D02*
X36996Y-41940D01*
X55420Y-47385D02*
X56200Y-48165D01*
X57200Y-50950D02*
X57300Y-50950D01*
X56200Y-48165D02*
X56200Y-50950D01*
X47700Y-50300D02*
X47700Y-50050D01*
X48150Y-54700D02*
X47700Y-54250D01*
X47700Y-54250D02*
X47700Y-50300D01*
X48950Y-54700D02*
X48150Y-54700D01*
X47900Y-49850D02*
X47900Y-48500D01*
X47700Y-50050D02*
X47900Y-49850D01*
X42750Y-48500D02*
X42750Y-48000D01*
X42750Y-48000D02*
X42350Y-47600D01*
X47300Y-47600D02*
X47900Y-48200D01*
X47300Y-47600D02*
X42350Y-47600D01*
X42350Y-47600D02*
X39600Y-47600D01*
X37300Y-50400D02*
X38300Y-49400D01*
X38300Y-48900D02*
X38300Y-49400D01*
X39600Y-47600D02*
X38300Y-48900D01*
X47900Y-48200D02*
X47900Y-48500D01*
X30783Y-40157D02*
X30783Y-39883D01*
X56250Y-45015D02*
X55420Y-44185D01*
X56250Y-45700D02*
X56250Y-45015D01*
X55650Y-46300D02*
X56250Y-45700D01*
X51500Y-46300D02*
X55650Y-46300D01*
X50450Y-45250D02*
X51500Y-46300D01*
X50450Y-39850D02*
X50450Y-45250D01*
X48150Y-37550D02*
X50450Y-39850D01*
X27700Y-37550D02*
X48150Y-37550D01*
X26950Y-38300D02*
X27700Y-37550D01*
X26950Y-40450D02*
X26950Y-38300D01*
X27250Y-40750D02*
X26950Y-40450D01*
X28050Y-40750D02*
X27250Y-40750D01*
X28300Y-40500D02*
X28050Y-40750D01*
X28300Y-39650D02*
X28300Y-40500D01*
X28750Y-39200D02*
X28300Y-39650D01*
X30100Y-39200D02*
X28750Y-39200D01*
X30783Y-39883D02*
X30100Y-39200D01*
X26900Y-41900D02*
X26400Y-41400D01*
X26600Y-45850D02*
X26450Y-46000D01*
X26600Y-45000D02*
X26600Y-45850D01*
X24800Y-43200D02*
X26600Y-45000D01*
X24800Y-41850D02*
X24800Y-43200D01*
X25250Y-41400D02*
X24800Y-41850D01*
X26400Y-41400D02*
X25250Y-41400D01*
X22200Y-47800D02*
X22200Y-51000D01*
X22200Y-51000D02*
X23200Y-52000D01*
X57300Y-41200D02*
X57300Y-39800D01*
X57300Y-43100D02*
X57300Y-41200D01*
X30300Y-47000D02*
X30800Y-47500D01*
X30800Y-47500D02*
X32100Y-47500D01*
X22200Y-38900D02*
X22200Y-47800D01*
X22200Y-47800D02*
X23000Y-47000D01*
X30300Y-47000D02*
X23000Y-47000D01*
X22200Y-36800D02*
X22200Y-38900D01*
X24800Y-34200D02*
X22200Y-36800D01*
X51700Y-34200D02*
X24800Y-34200D01*
X57300Y-39800D02*
X51700Y-34200D01*
X51720Y-44185D02*
X54279Y-44185D01*
X51720Y-47385D02*
X54279Y-47385D01*
X57979Y-44185D02*
X57979Y-43779D01*
X57979Y-43779D02*
X57300Y-43100D01*
X57979Y-47385D02*
X57979Y-47620D01*
X57979Y-47620D02*
X57300Y-48300D01*
X27000Y-50850D02*
X27300Y-50850D01*
X27300Y-50850D02*
X27900Y-50250D01*
X27900Y-50250D02*
X27900Y-49700D01*
X27900Y-49700D02*
X27300Y-49100D01*
X27300Y-49100D02*
X26800Y-49100D01*
X26800Y-49100D02*
X26600Y-48900D01*
X26600Y-48900D02*
X26600Y-48250D01*
X26600Y-48250D02*
X26350Y-48000D01*
X26350Y-48000D02*
X25850Y-48000D01*
X25850Y-48000D02*
X25600Y-48250D01*
X25600Y-48250D02*
X25600Y-49200D01*
X25600Y-49200D02*
X23200Y-51600D01*
X23200Y-51600D02*
X23200Y-52000D01*
X24345Y-54645D02*
X26771Y-54645D01*
X23200Y-52000D02*
X23200Y-53500D01*
X23200Y-53500D02*
X24345Y-54645D01*
X28300Y-51500D02*
X27650Y-50850D01*
X31800Y-51500D02*
X28300Y-51500D01*
X39400Y-51300D02*
X38800Y-51900D01*
X38800Y-51900D02*
X38800Y-54900D01*
X38800Y-54900D02*
X37700Y-56000D01*
X37700Y-56000D02*
X36300Y-56000D01*
X36300Y-56000D02*
X31800Y-51500D01*
X39750Y-51300D02*
X39400Y-51300D01*
X27650Y-50850D02*
X27000Y-50850D01*
X37800Y-47500D02*
X32100Y-47500D01*
X30600Y-49000D02*
X30100Y-48500D01*
X31300Y-49000D02*
X30600Y-49000D01*
X31600Y-48700D02*
X31300Y-49000D01*
X31600Y-48000D02*
X31600Y-48700D01*
X32100Y-47500D02*
X31600Y-48000D01*
X54279Y-47385D02*
X54279Y-48020D01*
X49800Y-44800D02*
X48550Y-43400D01*
X49800Y-45849D02*
X49800Y-44800D01*
X51000Y-47049D02*
X49800Y-45849D01*
X51000Y-47700D02*
X51000Y-47049D01*
X51600Y-48300D02*
X51000Y-47700D01*
X54000Y-48300D02*
X51600Y-48300D01*
X54279Y-48020D02*
X54000Y-48300D01*
X48500Y-42500D02*
X48500Y-43550D01*
X54279Y-47385D02*
X55420Y-47385D01*
X23100Y-40100D02*
X23100Y-39700D01*
X23100Y-39700D02*
X27000Y-35800D01*
X27000Y-35800D02*
X51700Y-35800D01*
X51700Y-35800D02*
X56200Y-40300D01*
X56200Y-40300D02*
X56200Y-41300D01*
X56200Y-41300D02*
X56200Y-43406D01*
X56200Y-43406D02*
X55420Y-44185D01*
X23100Y-44600D02*
X23100Y-40100D01*
X23600Y-45100D02*
X23100Y-44600D01*
X23600Y-45900D02*
X23600Y-45100D01*
X23700Y-46000D02*
X23600Y-45900D01*
X26450Y-46000D02*
X23700Y-46000D01*
X29100Y-45900D02*
X29000Y-46000D01*
X29100Y-45500D02*
X29100Y-45900D01*
X29000Y-46000D02*
X26450Y-46000D01*
X54279Y-44185D02*
X55420Y-44185D01*
X37300Y-50400D02*
X36300Y-50400D01*
X56085Y-55314D02*
X55393Y-55314D01*
X57300Y-50950D02*
X57300Y-54100D01*
X57300Y-54100D02*
X56085Y-55314D01*
X31300Y-50400D02*
X30300Y-50400D01*
X30300Y-50400D02*
X30200Y-50500D01*
X30200Y-50500D02*
X29100Y-50500D01*
X34300Y-55400D02*
X34300Y-55500D01*
X28226Y-56100D02*
X26771Y-54645D01*
X33700Y-56100D02*
X28226Y-56100D01*
X34300Y-55500D02*
X33700Y-56100D01*
X47900Y-48500D02*
X48900Y-48500D01*
X55393Y-55314D02*
X52480Y-55314D01*
X30100Y-48500D02*
X30100Y-48450D01*
X37750Y-47550D02*
X37800Y-47500D01*
X39750Y-51300D02*
X44150Y-51300D01*
X44685Y-50764D02*
X44685Y-49803D01*
X44150Y-51300D02*
X44685Y-50764D01*
X26900Y-41900D02*
X28200Y-41900D01*
X57300Y-43100D02*
X57300Y-48300D01*
X57300Y-48300D02*
X57300Y-50950D01*
G54D28*
X48350Y-49800D02*
X48400Y-49750D01*
X48100Y-50050D02*
X48350Y-49800D01*
X49950Y-54700D02*
X49950Y-54450D01*
X48100Y-54050D02*
X48100Y-53150D01*
X48250Y-54200D02*
X48100Y-54050D01*
X49150Y-54200D02*
X48250Y-54200D01*
X49450Y-53900D02*
X49150Y-54200D01*
X49450Y-53450D02*
X49450Y-53900D01*
X49700Y-53200D02*
X49450Y-53450D01*
X50200Y-53200D02*
X49700Y-53200D01*
X50450Y-53450D02*
X50200Y-53200D01*
X50450Y-53950D02*
X50450Y-53450D01*
X49950Y-54450D02*
X50450Y-53950D01*
X48100Y-53150D02*
X48100Y-50050D01*
X48400Y-49750D02*
X48400Y-49200D01*
X49200Y-49100D02*
X49100Y-49200D01*
X37550Y-49300D02*
X35100Y-49300D01*
X30150Y-49300D02*
X29600Y-48750D01*
X24600Y-49000D02*
X23750Y-49000D01*
X23750Y-49000D02*
X23600Y-48850D01*
X23600Y-48850D02*
X23600Y-48300D01*
X23600Y-48300D02*
X24400Y-47500D01*
X24400Y-47500D02*
X28900Y-47500D01*
X28900Y-47500D02*
X29600Y-48200D01*
X29600Y-48200D02*
X29600Y-48750D01*
X25100Y-48500D02*
X24600Y-49000D01*
X34100Y-49300D02*
X30150Y-49300D01*
X49550Y-48750D02*
X49200Y-49100D01*
X49550Y-48200D02*
X49550Y-48750D01*
X48700Y-47350D02*
X49550Y-48200D01*
X39500Y-47350D02*
X48700Y-47350D01*
X39500Y-47350D02*
X37550Y-49300D01*
X47400Y-49200D02*
X47400Y-48900D01*
X47400Y-48900D02*
X47400Y-48150D01*
X43385Y-48614D02*
X43385Y-49803D01*
X44150Y-47850D02*
X43385Y-48614D01*
X47100Y-47850D02*
X44150Y-47850D01*
X47400Y-48150D02*
X47100Y-47850D01*
X49100Y-49200D02*
X48400Y-49200D01*
G54D27*
X28621Y-53464D02*
X24164Y-53464D01*
X24164Y-53464D02*
X23900Y-53200D01*
G54D28*
X46400Y-48950D02*
X47400Y-49950D01*
X49950Y-53700D02*
X49950Y-53900D01*
X46400Y-48950D02*
X46400Y-48200D01*
X46400Y-48200D02*
X46250Y-48050D01*
X46250Y-48050D02*
X44650Y-48050D01*
X44650Y-48050D02*
X44251Y-48448D01*
X44251Y-48448D02*
X44251Y-49803D01*
X48050Y-55550D02*
X47400Y-54900D01*
X49150Y-55550D02*
X48050Y-55550D01*
X49450Y-55250D02*
X49150Y-55550D01*
X49450Y-54400D02*
X49450Y-55250D01*
X49950Y-53900D02*
X49450Y-54400D01*
X47400Y-54900D02*
X47400Y-49950D01*
X38450Y-54400D02*
X37950Y-54900D01*
X28900Y-51100D02*
X28350Y-50550D01*
X28350Y-50550D02*
X28350Y-49400D01*
X28350Y-49400D02*
X28100Y-49150D01*
X28100Y-49150D02*
X27700Y-49150D01*
X27700Y-49150D02*
X27100Y-48550D01*
X27100Y-48500D02*
X27100Y-48550D01*
X44251Y-50598D02*
X43850Y-51000D01*
X43850Y-51000D02*
X40350Y-51000D01*
X40350Y-51000D02*
X40150Y-50800D01*
X40150Y-50800D02*
X39150Y-50800D01*
X39150Y-50800D02*
X38450Y-51500D01*
X38450Y-51500D02*
X38450Y-54400D01*
X44251Y-50598D02*
X44251Y-49803D01*
X32050Y-51100D02*
X29000Y-51100D01*
X29000Y-51100D02*
X28900Y-51100D01*
X35850Y-54900D02*
X32050Y-51100D01*
X37950Y-54900D02*
X35850Y-54900D01*
X51100Y-50300D02*
X51100Y-50100D01*
X34600Y-46000D02*
X34100Y-45500D01*
X35350Y-46000D02*
X34600Y-46000D01*
X40150Y-46950D02*
X49700Y-46950D01*
X49700Y-46950D02*
X50300Y-47550D01*
X50300Y-47550D02*
X50300Y-49300D01*
X39050Y-45250D02*
X38500Y-44700D01*
X38500Y-44700D02*
X36000Y-44700D01*
X36000Y-44700D02*
X35600Y-45100D01*
X39050Y-45250D02*
X39050Y-45850D01*
X39050Y-45850D02*
X40150Y-46950D01*
X35600Y-45750D02*
X35350Y-46000D01*
X35600Y-45100D02*
X35600Y-45750D01*
X51100Y-50100D02*
X50300Y-49300D01*
X51100Y-50300D02*
X50100Y-50300D01*
X30800Y-44500D02*
X30750Y-44450D01*
X29600Y-46100D02*
X29600Y-46200D01*
X29600Y-45200D02*
X29800Y-45000D01*
X29800Y-45000D02*
X30300Y-45000D01*
X30300Y-45000D02*
X30600Y-45300D01*
X30600Y-45300D02*
X30600Y-45600D01*
X30600Y-45600D02*
X31000Y-46000D01*
X31000Y-46000D02*
X31300Y-46000D01*
X31300Y-46000D02*
X31600Y-45700D01*
X31600Y-45700D02*
X31600Y-45300D01*
X31600Y-45300D02*
X31100Y-44800D01*
X29600Y-46100D02*
X29600Y-45500D01*
X29600Y-45500D02*
X29600Y-45200D01*
X31100Y-44800D02*
X30800Y-44500D01*
X23100Y-45500D02*
X23100Y-46300D01*
X23250Y-46450D02*
X23100Y-46300D01*
X29350Y-46450D02*
X23250Y-46450D01*
X29600Y-46200D02*
X29350Y-46450D01*
X30750Y-44450D02*
X30750Y-43450D01*
X28100Y-45500D02*
X28100Y-44200D01*
X28100Y-44200D02*
X28600Y-43700D01*
X28600Y-43700D02*
X28600Y-42500D01*
X28600Y-42500D02*
X29200Y-41900D01*
X35996Y-42289D02*
X35910Y-42289D01*
X35910Y-42289D02*
X34750Y-43450D01*
X27100Y-45500D02*
X27100Y-44200D01*
X27100Y-44200D02*
X26600Y-43700D01*
X26600Y-43700D02*
X26600Y-42600D01*
X26600Y-42600D02*
X25900Y-41900D01*
X48450Y-52200D02*
X48950Y-52700D01*
X48450Y-52200D02*
X48450Y-50000D01*
X48450Y-50000D02*
X48850Y-49600D01*
X48850Y-49600D02*
X49500Y-49600D01*
X49500Y-49600D02*
X50100Y-49000D01*
X50100Y-49000D02*
X50100Y-47700D01*
X50100Y-47700D02*
X49550Y-47150D01*
X49550Y-47150D02*
X40050Y-47150D01*
X40050Y-47150D02*
X38800Y-45900D01*
X38800Y-45900D02*
X38800Y-45350D01*
X38800Y-45350D02*
X38400Y-44950D01*
X38400Y-44950D02*
X36400Y-44950D01*
X36400Y-44950D02*
X36100Y-45250D01*
X36100Y-45500D02*
X36100Y-45250D01*
X48950Y-52700D02*
X48950Y-53700D01*
X29750Y-49850D02*
X33350Y-49850D01*
X35100Y-50600D02*
X35100Y-50700D01*
X35100Y-50700D02*
X35100Y-50800D01*
X35100Y-50800D02*
X35800Y-51500D01*
X35800Y-51500D02*
X37200Y-51500D01*
X37200Y-51500D02*
X37300Y-51400D01*
X24100Y-48500D02*
X24100Y-48450D01*
X28850Y-50000D02*
X29600Y-50000D01*
X28600Y-49750D02*
X28850Y-50000D01*
X28600Y-49250D02*
X28600Y-49750D01*
X28300Y-48950D02*
X28600Y-49250D01*
X27850Y-48950D02*
X28300Y-48950D01*
X27600Y-48700D02*
X27850Y-48950D01*
X27600Y-48150D02*
X27600Y-48700D01*
X27200Y-47750D02*
X27600Y-48150D01*
X24800Y-47750D02*
X27200Y-47750D01*
X24100Y-48450D02*
X24800Y-47750D01*
X42952Y-49152D02*
X42952Y-49803D01*
X42952Y-49152D02*
X42900Y-49100D01*
X42900Y-49100D02*
X40450Y-49100D01*
X40450Y-49100D02*
X40250Y-48900D01*
X40250Y-48900D02*
X40250Y-48300D01*
X40250Y-48300D02*
X40000Y-48050D01*
X40000Y-48050D02*
X39500Y-48050D01*
X39500Y-48050D02*
X38700Y-48850D01*
X38700Y-48850D02*
X38700Y-50000D01*
X38700Y-50000D02*
X37300Y-51400D01*
X29600Y-50000D02*
X29750Y-49850D01*
X33350Y-49850D02*
X34100Y-50600D01*
X36783Y-40157D02*
X36783Y-41302D01*
X36783Y-41302D02*
X36496Y-41589D01*
X50950Y-53700D02*
X50950Y-53900D01*
X45118Y-49181D02*
X45118Y-49803D01*
X45200Y-49100D02*
X45118Y-49181D01*
X46200Y-49100D02*
X45200Y-49100D01*
X47150Y-50050D02*
X46200Y-49100D01*
X47150Y-51400D02*
X47150Y-50050D01*
X47150Y-53900D02*
X47150Y-51400D01*
X47150Y-55200D02*
X47150Y-53900D01*
X47800Y-55850D02*
X47150Y-55200D01*
X49600Y-55850D02*
X47800Y-55850D01*
X50450Y-55000D02*
X49600Y-55850D01*
X50450Y-54400D02*
X50450Y-55000D01*
X50950Y-53900D02*
X50450Y-54400D01*
X39800Y-51800D02*
X44650Y-51800D01*
X26650Y-51400D02*
X26200Y-50950D01*
X26200Y-50950D02*
X26200Y-50650D01*
X26200Y-50650D02*
X26500Y-50350D01*
X26500Y-50350D02*
X27300Y-50350D01*
X27300Y-50350D02*
X27500Y-50150D01*
X27500Y-50150D02*
X27500Y-49650D01*
X27500Y-49650D02*
X27250Y-49400D01*
X27250Y-49400D02*
X26450Y-49400D01*
X26450Y-49400D02*
X26100Y-49050D01*
X26100Y-48500D02*
X26100Y-49050D01*
X27100Y-51400D02*
X27600Y-51400D01*
X39100Y-52500D02*
X39100Y-55000D01*
X39400Y-52200D02*
X39100Y-52500D01*
X39800Y-51800D02*
X39400Y-52200D01*
X39100Y-55000D02*
X37850Y-56250D01*
X37850Y-56250D02*
X36150Y-56250D01*
X31800Y-51900D02*
X36150Y-56250D01*
X28100Y-51900D02*
X31800Y-51900D01*
X27600Y-51400D02*
X28100Y-51900D01*
X27100Y-51400D02*
X26650Y-51400D01*
X45118Y-50868D02*
X45118Y-51331D01*
X45118Y-51331D02*
X44650Y-51800D01*
X45118Y-50868D02*
X45118Y-49803D01*
X35783Y-40157D02*
X35783Y-41366D01*
X35783Y-41366D02*
X35050Y-42100D01*
G54D10*
G36*
X27018Y-50855D02*
X27005Y-50868D01*
X27000Y-50862D01*
X26994Y-50868D01*
X26981Y-50855D01*
X26987Y-50850D01*
X26981Y-50844D01*
X26994Y-50831D01*
X27000Y-50837D01*
X27005Y-50831D01*
X27018Y-50844D01*
X27012Y-50850D01*
X27018Y-50855D01*
X27018Y-50855D01*
G37*
G54D29*
X27018Y-50855D02*
X27005Y-50868D01*
X27000Y-50862D01*
X26994Y-50868D01*
X26981Y-50855D01*
X26987Y-50850D01*
X26981Y-50844D01*
X26994Y-50831D01*
X27000Y-50837D01*
X27005Y-50831D01*
X27018Y-50844D01*
X27012Y-50850D01*
X27018Y-50855D01*
G54D10*
G36*
X27405Y-49208D02*
X27345Y-49169D01*
X27250Y-49150D01*
X26553Y-49150D01*
X26350Y-48946D01*
X26350Y-48921D01*
X26374Y-48911D01*
X26510Y-48775D01*
X26584Y-48596D01*
X26585Y-48492D01*
X26615Y-48491D01*
X26614Y-48596D01*
X26688Y-48774D01*
X26824Y-48910D01*
X27003Y-48984D01*
X27181Y-48985D01*
X27405Y-49208D01*
X27405Y-49208D01*
G37*
G54D29*
X27405Y-49208D02*
X27345Y-49169D01*
X27250Y-49150D01*
X26553Y-49150D01*
X26350Y-48946D01*
X26350Y-48921D01*
X26374Y-48911D01*
X26510Y-48775D01*
X26584Y-48596D01*
X26585Y-48492D01*
X26615Y-48491D01*
X26614Y-48596D01*
X26688Y-48774D01*
X26824Y-48910D01*
X27003Y-48984D01*
X27181Y-48985D01*
X27405Y-49208D01*
G54D10*
G36*
X38508Y-48694D02*
X38469Y-48754D01*
X38450Y-48850D01*
X38450Y-49896D01*
X38250Y-50096D01*
X37751Y-50594D01*
X37629Y-50716D01*
X37604Y-50691D01*
X37676Y-50662D01*
X37748Y-50498D01*
X37751Y-50319D01*
X37686Y-50152D01*
X37676Y-50137D01*
X37604Y-50108D01*
X37591Y-50121D01*
X37591Y-50095D01*
X37562Y-50023D01*
X37398Y-49951D01*
X37219Y-49948D01*
X37052Y-50013D01*
X37037Y-50023D01*
X37008Y-50095D01*
X37300Y-50387D01*
X37591Y-50095D01*
X37591Y-50121D01*
X37312Y-50400D01*
X37318Y-50405D01*
X37305Y-50418D01*
X37300Y-50412D01*
X37287Y-50425D01*
X37287Y-50400D01*
X36995Y-50108D01*
X36923Y-50137D01*
X36851Y-50301D01*
X36848Y-50480D01*
X36913Y-50647D01*
X36923Y-50662D01*
X36995Y-50691D01*
X37287Y-50400D01*
X37287Y-50425D01*
X37008Y-50704D01*
X37037Y-50776D01*
X37201Y-50848D01*
X37380Y-50851D01*
X37547Y-50786D01*
X37562Y-50776D01*
X37591Y-50704D01*
X37591Y-50704D01*
X37616Y-50729D01*
X37591Y-50754D01*
X37123Y-51223D01*
X37096Y-51250D01*
X36751Y-51250D01*
X36751Y-50319D01*
X36686Y-50152D01*
X36676Y-50137D01*
X36604Y-50108D01*
X36591Y-50121D01*
X36591Y-50095D01*
X36562Y-50023D01*
X36398Y-49951D01*
X36219Y-49948D01*
X36052Y-50013D01*
X36037Y-50023D01*
X36008Y-50095D01*
X36300Y-50387D01*
X36591Y-50095D01*
X36591Y-50121D01*
X36312Y-50400D01*
X36604Y-50691D01*
X36676Y-50662D01*
X36748Y-50498D01*
X36751Y-50319D01*
X36751Y-51250D01*
X36591Y-51250D01*
X36591Y-50704D01*
X36300Y-50412D01*
X36287Y-50425D01*
X36287Y-50400D01*
X35995Y-50108D01*
X35923Y-50137D01*
X35851Y-50301D01*
X35848Y-50480D01*
X35913Y-50647D01*
X35923Y-50662D01*
X35995Y-50691D01*
X36287Y-50400D01*
X36287Y-50425D01*
X36008Y-50704D01*
X36037Y-50776D01*
X36201Y-50848D01*
X36380Y-50851D01*
X36547Y-50786D01*
X36562Y-50776D01*
X36591Y-50704D01*
X36591Y-51250D01*
X35903Y-51250D01*
X35750Y-51096D01*
X35750Y-49550D01*
X37550Y-49550D01*
X37645Y-49530D01*
X37726Y-49476D01*
X38250Y-48953D01*
X38508Y-48694D01*
X38508Y-48694D01*
G37*
G54D29*
X38508Y-48694D02*
X38469Y-48754D01*
X38450Y-48850D01*
X38450Y-49896D01*
X38250Y-50096D01*
X37751Y-50594D01*
X37629Y-50716D01*
X37604Y-50691D01*
X37676Y-50662D01*
X37748Y-50498D01*
X37751Y-50319D01*
X37686Y-50152D01*
X37676Y-50137D01*
X37604Y-50108D01*
X37591Y-50121D01*
X37591Y-50095D01*
X37562Y-50023D01*
X37398Y-49951D01*
X37219Y-49948D01*
X37052Y-50013D01*
X37037Y-50023D01*
X37008Y-50095D01*
X37300Y-50387D01*
X37591Y-50095D01*
X37591Y-50121D01*
X37312Y-50400D01*
X37318Y-50405D01*
X37305Y-50418D01*
X37300Y-50412D01*
X37287Y-50425D01*
X37287Y-50400D01*
X36995Y-50108D01*
X36923Y-50137D01*
X36851Y-50301D01*
X36848Y-50480D01*
X36913Y-50647D01*
X36923Y-50662D01*
X36995Y-50691D01*
X37287Y-50400D01*
X37287Y-50425D01*
X37008Y-50704D01*
X37037Y-50776D01*
X37201Y-50848D01*
X37380Y-50851D01*
X37547Y-50786D01*
X37562Y-50776D01*
X37591Y-50704D01*
X37591Y-50704D01*
X37616Y-50729D01*
X37591Y-50754D01*
X37123Y-51223D01*
X37096Y-51250D01*
X36751Y-51250D01*
X36751Y-50319D01*
X36686Y-50152D01*
X36676Y-50137D01*
X36604Y-50108D01*
X36591Y-50121D01*
X36591Y-50095D01*
X36562Y-50023D01*
X36398Y-49951D01*
X36219Y-49948D01*
X36052Y-50013D01*
X36037Y-50023D01*
X36008Y-50095D01*
X36300Y-50387D01*
X36591Y-50095D01*
X36591Y-50121D01*
X36312Y-50400D01*
X36604Y-50691D01*
X36676Y-50662D01*
X36748Y-50498D01*
X36751Y-50319D01*
X36751Y-51250D01*
X36591Y-51250D01*
X36591Y-50704D01*
X36300Y-50412D01*
X36287Y-50425D01*
X36287Y-50400D01*
X35995Y-50108D01*
X35923Y-50137D01*
X35851Y-50301D01*
X35848Y-50480D01*
X35913Y-50647D01*
X35923Y-50662D01*
X35995Y-50691D01*
X36287Y-50400D01*
X36287Y-50425D01*
X36008Y-50704D01*
X36037Y-50776D01*
X36201Y-50848D01*
X36380Y-50851D01*
X36547Y-50786D01*
X36562Y-50776D01*
X36591Y-50704D01*
X36591Y-51250D01*
X35903Y-51250D01*
X35750Y-51096D01*
X35750Y-49550D01*
X37550Y-49550D01*
X37645Y-49530D01*
X37726Y-49476D01*
X38250Y-48953D01*
X38508Y-48694D01*
G54D10*
G36*
X39768Y-51294D02*
X39762Y-51300D01*
X39768Y-51305D01*
X39755Y-51318D01*
X39750Y-51312D01*
X39476Y-51586D01*
X39502Y-51655D01*
X39563Y-51682D01*
X39223Y-52023D01*
X39223Y-52023D01*
X38923Y-52323D01*
X38869Y-52404D01*
X38850Y-52500D01*
X38850Y-54896D01*
X38250Y-55496D01*
X37746Y-56000D01*
X37150Y-56000D01*
X36253Y-56000D01*
X31976Y-51723D01*
X31895Y-51669D01*
X31800Y-51650D01*
X28203Y-51650D01*
X27776Y-51223D01*
X27695Y-51169D01*
X27650Y-51159D01*
X27600Y-51150D01*
X27312Y-51150D01*
X27304Y-51141D01*
X27376Y-51112D01*
X27448Y-50948D01*
X27451Y-50769D01*
X27386Y-50602D01*
X27376Y-50587D01*
X27371Y-50585D01*
X27395Y-50580D01*
X27476Y-50526D01*
X27650Y-50353D01*
X27676Y-50326D01*
X27676Y-50326D01*
X27676Y-50326D01*
X27709Y-50278D01*
X27730Y-50245D01*
X27730Y-50245D01*
X27750Y-50150D01*
X27750Y-49650D01*
X27730Y-49554D01*
X27730Y-49554D01*
X27676Y-49473D01*
X27676Y-49473D01*
X27650Y-49446D01*
X27544Y-49341D01*
X27571Y-49359D01*
X27604Y-49380D01*
X27604Y-49380D01*
X27650Y-49390D01*
X27700Y-49400D01*
X27996Y-49400D01*
X28100Y-49503D01*
X28100Y-50550D01*
X28119Y-50645D01*
X28173Y-50726D01*
X28723Y-51276D01*
X28804Y-51330D01*
X28804Y-51330D01*
X28900Y-51350D01*
X29000Y-51350D01*
X31946Y-51350D01*
X35673Y-55076D01*
X35754Y-55130D01*
X35754Y-55130D01*
X35850Y-55150D01*
X36851Y-55150D01*
X36790Y-55298D01*
X36789Y-55501D01*
X36867Y-55688D01*
X37010Y-55832D01*
X37150Y-55889D01*
X37198Y-55909D01*
X37401Y-55910D01*
X37588Y-55832D01*
X37732Y-55689D01*
X37809Y-55501D01*
X37810Y-55299D01*
X37748Y-55150D01*
X37950Y-55150D01*
X38045Y-55130D01*
X38126Y-55076D01*
X38250Y-54953D01*
X38626Y-54576D01*
X38680Y-54495D01*
X38700Y-54400D01*
X38700Y-51603D01*
X39253Y-51050D01*
X39401Y-51050D01*
X39394Y-51052D01*
X39326Y-51207D01*
X39323Y-51376D01*
X39385Y-51534D01*
X39394Y-51547D01*
X39463Y-51573D01*
X39737Y-51300D01*
X39731Y-51294D01*
X39744Y-51281D01*
X39750Y-51287D01*
X39755Y-51281D01*
X39768Y-51294D01*
X39768Y-51294D01*
G37*
G54D29*
X39768Y-51294D02*
X39762Y-51300D01*
X39768Y-51305D01*
X39755Y-51318D01*
X39750Y-51312D01*
X39476Y-51586D01*
X39502Y-51655D01*
X39563Y-51682D01*
X39223Y-52023D01*
X39223Y-52023D01*
X38923Y-52323D01*
X38869Y-52404D01*
X38850Y-52500D01*
X38850Y-54896D01*
X38250Y-55496D01*
X37746Y-56000D01*
X37150Y-56000D01*
X36253Y-56000D01*
X31976Y-51723D01*
X31895Y-51669D01*
X31800Y-51650D01*
X28203Y-51650D01*
X27776Y-51223D01*
X27695Y-51169D01*
X27650Y-51159D01*
X27600Y-51150D01*
X27312Y-51150D01*
X27304Y-51141D01*
X27376Y-51112D01*
X27448Y-50948D01*
X27451Y-50769D01*
X27386Y-50602D01*
X27376Y-50587D01*
X27371Y-50585D01*
X27395Y-50580D01*
X27476Y-50526D01*
X27650Y-50353D01*
X27676Y-50326D01*
X27676Y-50326D01*
X27676Y-50326D01*
X27709Y-50278D01*
X27730Y-50245D01*
X27730Y-50245D01*
X27750Y-50150D01*
X27750Y-49650D01*
X27730Y-49554D01*
X27730Y-49554D01*
X27676Y-49473D01*
X27676Y-49473D01*
X27650Y-49446D01*
X27544Y-49341D01*
X27571Y-49359D01*
X27604Y-49380D01*
X27604Y-49380D01*
X27650Y-49390D01*
X27700Y-49400D01*
X27996Y-49400D01*
X28100Y-49503D01*
X28100Y-50550D01*
X28119Y-50645D01*
X28173Y-50726D01*
X28723Y-51276D01*
X28804Y-51330D01*
X28804Y-51330D01*
X28900Y-51350D01*
X29000Y-51350D01*
X31946Y-51350D01*
X35673Y-55076D01*
X35754Y-55130D01*
X35754Y-55130D01*
X35850Y-55150D01*
X36851Y-55150D01*
X36790Y-55298D01*
X36789Y-55501D01*
X36867Y-55688D01*
X37010Y-55832D01*
X37150Y-55889D01*
X37198Y-55909D01*
X37401Y-55910D01*
X37588Y-55832D01*
X37732Y-55689D01*
X37809Y-55501D01*
X37810Y-55299D01*
X37748Y-55150D01*
X37950Y-55150D01*
X38045Y-55130D01*
X38126Y-55076D01*
X38250Y-54953D01*
X38626Y-54576D01*
X38680Y-54495D01*
X38700Y-54400D01*
X38700Y-51603D01*
X39253Y-51050D01*
X39401Y-51050D01*
X39394Y-51052D01*
X39326Y-51207D01*
X39323Y-51376D01*
X39385Y-51534D01*
X39394Y-51547D01*
X39463Y-51573D01*
X39737Y-51300D01*
X39731Y-51294D01*
X39744Y-51281D01*
X39750Y-51287D01*
X39755Y-51281D01*
X39768Y-51294D01*
G54D10*
G36*
X44150Y-47600D02*
X44054Y-47619D01*
X43973Y-47673D01*
X43973Y-47673D01*
X43209Y-48437D01*
X43175Y-48487D01*
X43176Y-48423D01*
X43114Y-48265D01*
X43105Y-48252D01*
X43036Y-48226D01*
X43023Y-48239D01*
X43023Y-48213D01*
X42997Y-48144D01*
X42842Y-48076D01*
X42673Y-48073D01*
X42515Y-48135D01*
X42502Y-48144D01*
X42476Y-48213D01*
X42750Y-48487D01*
X43023Y-48213D01*
X43023Y-48239D01*
X42762Y-48500D01*
X43036Y-48773D01*
X43105Y-48747D01*
X43135Y-48678D01*
X43135Y-48985D01*
X43129Y-48975D01*
X43129Y-48975D01*
X43076Y-48923D01*
X42995Y-48869D01*
X42980Y-48866D01*
X42984Y-48864D01*
X42997Y-48855D01*
X43023Y-48786D01*
X42750Y-48512D01*
X42737Y-48525D01*
X42737Y-48500D01*
X42463Y-48226D01*
X42394Y-48252D01*
X42326Y-48407D01*
X42323Y-48576D01*
X42385Y-48734D01*
X42394Y-48747D01*
X42463Y-48773D01*
X42737Y-48500D01*
X42737Y-48525D01*
X42476Y-48786D01*
X42500Y-48850D01*
X42085Y-48850D01*
X42160Y-48775D01*
X42234Y-48596D01*
X42235Y-48403D01*
X42161Y-48225D01*
X42025Y-48089D01*
X41846Y-48015D01*
X41653Y-48014D01*
X41475Y-48088D01*
X41339Y-48224D01*
X41265Y-48403D01*
X41264Y-48596D01*
X41338Y-48774D01*
X41414Y-48850D01*
X41085Y-48850D01*
X41160Y-48775D01*
X41234Y-48596D01*
X41235Y-48403D01*
X41161Y-48225D01*
X41025Y-48089D01*
X40846Y-48015D01*
X40653Y-48014D01*
X40475Y-48088D01*
X40432Y-48131D01*
X40426Y-48123D01*
X40426Y-48123D01*
X40176Y-47873D01*
X40095Y-47819D01*
X40000Y-47800D01*
X39500Y-47800D01*
X39499Y-47800D01*
X39480Y-47803D01*
X39404Y-47819D01*
X39344Y-47858D01*
X39603Y-47600D01*
X44150Y-47600D01*
X44150Y-47600D01*
G37*
G54D29*
X44150Y-47600D02*
X44054Y-47619D01*
X43973Y-47673D01*
X43973Y-47673D01*
X43209Y-48437D01*
X43175Y-48487D01*
X43176Y-48423D01*
X43114Y-48265D01*
X43105Y-48252D01*
X43036Y-48226D01*
X43023Y-48239D01*
X43023Y-48213D01*
X42997Y-48144D01*
X42842Y-48076D01*
X42673Y-48073D01*
X42515Y-48135D01*
X42502Y-48144D01*
X42476Y-48213D01*
X42750Y-48487D01*
X43023Y-48213D01*
X43023Y-48239D01*
X42762Y-48500D01*
X43036Y-48773D01*
X43105Y-48747D01*
X43135Y-48678D01*
X43135Y-48985D01*
X43129Y-48975D01*
X43129Y-48975D01*
X43076Y-48923D01*
X42995Y-48869D01*
X42980Y-48866D01*
X42984Y-48864D01*
X42997Y-48855D01*
X43023Y-48786D01*
X42750Y-48512D01*
X42737Y-48525D01*
X42737Y-48500D01*
X42463Y-48226D01*
X42394Y-48252D01*
X42326Y-48407D01*
X42323Y-48576D01*
X42385Y-48734D01*
X42394Y-48747D01*
X42463Y-48773D01*
X42737Y-48500D01*
X42737Y-48525D01*
X42476Y-48786D01*
X42500Y-48850D01*
X42085Y-48850D01*
X42160Y-48775D01*
X42234Y-48596D01*
X42235Y-48403D01*
X42161Y-48225D01*
X42025Y-48089D01*
X41846Y-48015D01*
X41653Y-48014D01*
X41475Y-48088D01*
X41339Y-48224D01*
X41265Y-48403D01*
X41264Y-48596D01*
X41338Y-48774D01*
X41414Y-48850D01*
X41085Y-48850D01*
X41160Y-48775D01*
X41234Y-48596D01*
X41235Y-48403D01*
X41161Y-48225D01*
X41025Y-48089D01*
X40846Y-48015D01*
X40653Y-48014D01*
X40475Y-48088D01*
X40432Y-48131D01*
X40426Y-48123D01*
X40426Y-48123D01*
X40176Y-47873D01*
X40095Y-47819D01*
X40000Y-47800D01*
X39500Y-47800D01*
X39499Y-47800D01*
X39480Y-47803D01*
X39404Y-47819D01*
X39344Y-47858D01*
X39603Y-47600D01*
X44150Y-47600D01*
G54D10*
G36*
X44868Y-51228D02*
X44546Y-51550D01*
X40098Y-51550D01*
X40105Y-51547D01*
X40173Y-51392D01*
X40176Y-51223D01*
X40148Y-51152D01*
X40173Y-51176D01*
X40173Y-51176D01*
X40221Y-51209D01*
X40254Y-51230D01*
X40254Y-51230D01*
X40350Y-51250D01*
X43850Y-51250D01*
X43945Y-51230D01*
X44026Y-51176D01*
X44428Y-50774D01*
X44482Y-50693D01*
X44501Y-50598D01*
X44501Y-50417D01*
X44508Y-50414D01*
X44536Y-50386D01*
X44638Y-50386D01*
X44676Y-50348D01*
X44676Y-49812D01*
X44668Y-49812D01*
X44668Y-49794D01*
X44676Y-49794D01*
X44676Y-49786D01*
X44694Y-49786D01*
X44694Y-49794D01*
X44701Y-49794D01*
X44701Y-49812D01*
X44694Y-49812D01*
X44694Y-50348D01*
X44731Y-50386D01*
X44833Y-50386D01*
X44861Y-50414D01*
X44868Y-50417D01*
X44868Y-50868D01*
X44868Y-51228D01*
X44868Y-51228D01*
G37*
G54D29*
X44868Y-51228D02*
X44546Y-51550D01*
X40098Y-51550D01*
X40105Y-51547D01*
X40173Y-51392D01*
X40176Y-51223D01*
X40148Y-51152D01*
X40173Y-51176D01*
X40173Y-51176D01*
X40221Y-51209D01*
X40254Y-51230D01*
X40254Y-51230D01*
X40350Y-51250D01*
X43850Y-51250D01*
X43945Y-51230D01*
X44026Y-51176D01*
X44428Y-50774D01*
X44482Y-50693D01*
X44501Y-50598D01*
X44501Y-50417D01*
X44508Y-50414D01*
X44536Y-50386D01*
X44638Y-50386D01*
X44676Y-50348D01*
X44676Y-49812D01*
X44668Y-49812D01*
X44668Y-49794D01*
X44676Y-49794D01*
X44676Y-49786D01*
X44694Y-49786D01*
X44694Y-49794D01*
X44701Y-49794D01*
X44701Y-49812D01*
X44694Y-49812D01*
X44694Y-50348D01*
X44731Y-50386D01*
X44833Y-50386D01*
X44861Y-50414D01*
X44868Y-50417D01*
X44868Y-50868D01*
X44868Y-51228D01*
G54D10*
G36*
X49200Y-55146D02*
X49046Y-55300D01*
X48153Y-55300D01*
X47650Y-54796D01*
X47650Y-49950D01*
X47630Y-49854D01*
X47630Y-49854D01*
X47609Y-49821D01*
X47576Y-49773D01*
X47576Y-49773D01*
X47509Y-49706D01*
X47688Y-49632D01*
X47832Y-49489D01*
X47900Y-49325D01*
X47967Y-49488D01*
X48110Y-49632D01*
X48148Y-49647D01*
X47923Y-49873D01*
X47869Y-49954D01*
X47850Y-50050D01*
X47850Y-53150D01*
X47850Y-54050D01*
X47869Y-54145D01*
X47923Y-54226D01*
X48073Y-54376D01*
X48154Y-54430D01*
X48154Y-54430D01*
X48250Y-54450D01*
X48568Y-54450D01*
X48501Y-54601D01*
X48498Y-54780D01*
X48563Y-54947D01*
X48573Y-54962D01*
X48645Y-54991D01*
X48937Y-54700D01*
X48931Y-54694D01*
X48944Y-54681D01*
X48950Y-54687D01*
X48955Y-54681D01*
X48968Y-54694D01*
X48962Y-54700D01*
X48968Y-54705D01*
X48955Y-54718D01*
X48950Y-54712D01*
X48658Y-55004D01*
X48687Y-55076D01*
X48851Y-55148D01*
X49030Y-55151D01*
X49197Y-55086D01*
X49200Y-55084D01*
X49200Y-55146D01*
X49200Y-55146D01*
G37*
G54D29*
X49200Y-55146D02*
X49046Y-55300D01*
X48153Y-55300D01*
X47650Y-54796D01*
X47650Y-49950D01*
X47630Y-49854D01*
X47630Y-49854D01*
X47609Y-49821D01*
X47576Y-49773D01*
X47576Y-49773D01*
X47509Y-49706D01*
X47688Y-49632D01*
X47832Y-49489D01*
X47900Y-49325D01*
X47967Y-49488D01*
X48110Y-49632D01*
X48148Y-49647D01*
X47923Y-49873D01*
X47869Y-49954D01*
X47850Y-50050D01*
X47850Y-53150D01*
X47850Y-54050D01*
X47869Y-54145D01*
X47923Y-54226D01*
X48073Y-54376D01*
X48154Y-54430D01*
X48154Y-54430D01*
X48250Y-54450D01*
X48568Y-54450D01*
X48501Y-54601D01*
X48498Y-54780D01*
X48563Y-54947D01*
X48573Y-54962D01*
X48645Y-54991D01*
X48937Y-54700D01*
X48931Y-54694D01*
X48944Y-54681D01*
X48950Y-54687D01*
X48955Y-54681D01*
X48968Y-54694D01*
X48962Y-54700D01*
X48968Y-54705D01*
X48955Y-54718D01*
X48950Y-54712D01*
X48658Y-55004D01*
X48687Y-55076D01*
X48851Y-55148D01*
X49030Y-55151D01*
X49197Y-55086D01*
X49200Y-55084D01*
X49200Y-55146D01*
G54D10*
G36*
X56410Y-45779D02*
X55779Y-46410D01*
X55750Y-46410D01*
X51420Y-46410D01*
X50390Y-45379D01*
X50390Y-42600D01*
X50390Y-40700D01*
X50390Y-40700D01*
X50390Y-40150D01*
X50367Y-40039D01*
X50305Y-39944D01*
X50305Y-39944D01*
X48055Y-37694D01*
X47960Y-37632D01*
X47850Y-37610D01*
X32650Y-37610D01*
X30440Y-37610D01*
X28400Y-37610D01*
X28289Y-37632D01*
X28194Y-37694D01*
X27578Y-38311D01*
X27515Y-38405D01*
X27493Y-38516D01*
X27493Y-39672D01*
X27466Y-39672D01*
X27389Y-39704D01*
X27330Y-39763D01*
X27298Y-39840D01*
X27298Y-39924D01*
X27298Y-40474D01*
X27330Y-40551D01*
X27389Y-40610D01*
X27466Y-40642D01*
X27550Y-40642D01*
X28100Y-40642D01*
X28177Y-40610D01*
X28236Y-40551D01*
X28268Y-40474D01*
X28268Y-40390D01*
X28268Y-39840D01*
X28236Y-39763D01*
X28177Y-39704D01*
X28100Y-39672D01*
X28073Y-39672D01*
X28073Y-38636D01*
X28520Y-38190D01*
X30440Y-38190D01*
X31949Y-38190D01*
X31578Y-38561D01*
X31515Y-38655D01*
X31493Y-38766D01*
X31493Y-39761D01*
X31372Y-39882D01*
X31298Y-40060D01*
X31298Y-40253D01*
X31372Y-40431D01*
X31508Y-40568D01*
X31686Y-40642D01*
X31879Y-40642D01*
X32057Y-40568D01*
X32194Y-40432D01*
X32268Y-40254D01*
X32268Y-40061D01*
X32194Y-39883D01*
X32073Y-39761D01*
X32073Y-38886D01*
X32770Y-38190D01*
X47729Y-38190D01*
X49810Y-40270D01*
X49810Y-40579D01*
X49579Y-40810D01*
X45800Y-40810D01*
X45799Y-40810D01*
X45150Y-40810D01*
X45039Y-40832D01*
X44944Y-40894D01*
X44944Y-40894D01*
X43300Y-42539D01*
X43300Y-42200D01*
X43299Y-42199D01*
X43300Y-42199D01*
X43296Y-42180D01*
X43280Y-42104D01*
X43280Y-42104D01*
X43226Y-42023D01*
X43226Y-42023D01*
X42826Y-41623D01*
X42745Y-41569D01*
X42650Y-41550D01*
X38200Y-41550D01*
X38104Y-41569D01*
X38023Y-41623D01*
X37422Y-42223D01*
X37423Y-42213D01*
X37361Y-42055D01*
X37352Y-42042D01*
X37282Y-42015D01*
X37008Y-42289D01*
X37014Y-42295D01*
X37001Y-42308D01*
X36996Y-42302D01*
X36722Y-42576D01*
X36748Y-42646D01*
X36903Y-42713D01*
X36932Y-42714D01*
X36746Y-42900D01*
X35950Y-42900D01*
X35854Y-42919D01*
X35773Y-42973D01*
X35259Y-43486D01*
X35260Y-43349D01*
X35243Y-43309D01*
X35813Y-42739D01*
X35899Y-42775D01*
X36092Y-42775D01*
X36270Y-42701D01*
X36407Y-42565D01*
X36481Y-42386D01*
X36481Y-42193D01*
X36432Y-42075D01*
X36592Y-42075D01*
X36632Y-42058D01*
X36572Y-42197D01*
X36568Y-42366D01*
X36630Y-42524D01*
X36639Y-42537D01*
X36709Y-42563D01*
X36983Y-42289D01*
X36977Y-42284D01*
X36990Y-42271D01*
X36996Y-42277D01*
X37269Y-42003D01*
X37243Y-41933D01*
X37088Y-41865D01*
X36919Y-41862D01*
X36903Y-41868D01*
X36907Y-41865D01*
X36981Y-41686D01*
X36981Y-41493D01*
X36969Y-41464D01*
X37014Y-41398D01*
X37014Y-41398D01*
X37029Y-41321D01*
X37033Y-41302D01*
X37033Y-41302D01*
X37033Y-41302D01*
X37033Y-40578D01*
X37057Y-40568D01*
X37194Y-40432D01*
X37268Y-40254D01*
X37268Y-40061D01*
X37194Y-39883D01*
X37058Y-39746D01*
X36880Y-39672D01*
X36687Y-39672D01*
X36509Y-39746D01*
X36372Y-39882D01*
X36298Y-40060D01*
X36298Y-40253D01*
X36372Y-40431D01*
X36508Y-40568D01*
X36533Y-40578D01*
X36533Y-41104D01*
X36399Y-41104D01*
X36221Y-41177D01*
X36084Y-41314D01*
X36010Y-41492D01*
X36010Y-41685D01*
X36059Y-41804D01*
X35899Y-41804D01*
X35721Y-41877D01*
X35584Y-42014D01*
X35560Y-42073D01*
X35560Y-41999D01*
X35543Y-41959D01*
X35960Y-41543D01*
X35960Y-41543D01*
X35960Y-41543D01*
X36014Y-41462D01*
X36014Y-41462D01*
X36029Y-41385D01*
X36033Y-41366D01*
X36033Y-41366D01*
X36033Y-41366D01*
X36033Y-40578D01*
X36057Y-40568D01*
X36194Y-40432D01*
X36268Y-40254D01*
X36268Y-40061D01*
X36194Y-39883D01*
X36058Y-39746D01*
X35880Y-39672D01*
X35687Y-39672D01*
X35509Y-39746D01*
X35372Y-39882D01*
X35298Y-40060D01*
X35298Y-40253D01*
X35372Y-40431D01*
X35508Y-40568D01*
X35533Y-40578D01*
X35533Y-41262D01*
X35268Y-41527D01*
X35268Y-40061D01*
X35194Y-39883D01*
X35058Y-39746D01*
X34880Y-39672D01*
X34687Y-39672D01*
X34509Y-39746D01*
X34372Y-39882D01*
X34298Y-40060D01*
X34298Y-40253D01*
X34372Y-40431D01*
X34508Y-40568D01*
X34686Y-40642D01*
X34879Y-40642D01*
X35057Y-40568D01*
X35194Y-40432D01*
X35268Y-40254D01*
X35268Y-40061D01*
X35268Y-41527D01*
X35190Y-41606D01*
X35151Y-41590D01*
X34949Y-41589D01*
X34761Y-41667D01*
X34617Y-41810D01*
X34540Y-41998D01*
X34539Y-42201D01*
X34617Y-42388D01*
X34760Y-42532D01*
X34948Y-42609D01*
X35151Y-42610D01*
X35296Y-42549D01*
X34890Y-42956D01*
X34851Y-42940D01*
X34649Y-42939D01*
X34461Y-43017D01*
X34317Y-43160D01*
X34268Y-43279D01*
X34268Y-40061D01*
X34194Y-39883D01*
X34058Y-39746D01*
X33880Y-39672D01*
X33687Y-39672D01*
X33509Y-39746D01*
X33372Y-39882D01*
X33298Y-40060D01*
X33298Y-40253D01*
X33372Y-40431D01*
X33508Y-40568D01*
X33686Y-40642D01*
X33879Y-40642D01*
X34057Y-40568D01*
X34194Y-40432D01*
X34268Y-40254D01*
X34268Y-40061D01*
X34268Y-43279D01*
X34240Y-43348D01*
X34239Y-43551D01*
X34317Y-43738D01*
X34328Y-43750D01*
X34153Y-43750D01*
X33268Y-42864D01*
X33268Y-40061D01*
X33194Y-39883D01*
X33058Y-39746D01*
X32880Y-39672D01*
X32687Y-39672D01*
X32509Y-39746D01*
X32372Y-39882D01*
X32298Y-40060D01*
X32298Y-40253D01*
X32372Y-40431D01*
X32508Y-40568D01*
X32686Y-40642D01*
X32879Y-40642D01*
X33057Y-40568D01*
X33194Y-40432D01*
X33268Y-40254D01*
X33268Y-40061D01*
X33268Y-42864D01*
X31526Y-41123D01*
X31445Y-41069D01*
X31350Y-41050D01*
X31209Y-41050D01*
X31209Y-40080D01*
X31148Y-39923D01*
X31139Y-39910D01*
X31069Y-39884D01*
X30796Y-40157D01*
X31069Y-40430D01*
X31139Y-40404D01*
X31206Y-40249D01*
X31209Y-40080D01*
X31209Y-41050D01*
X31103Y-41050D01*
X30590Y-40537D01*
X30691Y-40580D01*
X30860Y-40583D01*
X31017Y-40522D01*
X31030Y-40513D01*
X31056Y-40443D01*
X30783Y-40170D01*
X30777Y-40175D01*
X30765Y-40163D01*
X30770Y-40157D01*
X30765Y-40151D01*
X30777Y-40139D01*
X30783Y-40144D01*
X31056Y-39871D01*
X31030Y-39801D01*
X30875Y-39734D01*
X30706Y-39730D01*
X30549Y-39792D01*
X30539Y-39799D01*
X30530Y-39754D01*
X30530Y-39754D01*
X30476Y-39673D01*
X30476Y-39673D01*
X30226Y-39423D01*
X30145Y-39369D01*
X30050Y-39350D01*
X29150Y-39350D01*
X29149Y-39350D01*
X29130Y-39353D01*
X29054Y-39369D01*
X28973Y-39423D01*
X28973Y-39423D01*
X28724Y-39672D01*
X28687Y-39672D01*
X28509Y-39746D01*
X28372Y-39882D01*
X28298Y-40060D01*
X28298Y-40253D01*
X28372Y-40431D01*
X28508Y-40568D01*
X28686Y-40642D01*
X28879Y-40642D01*
X28956Y-40610D01*
X29146Y-40800D01*
X25353Y-40800D01*
X24750Y-40196D01*
X24750Y-39703D01*
X27103Y-37350D01*
X48196Y-37350D01*
X50450Y-39603D01*
X50450Y-44643D01*
X50450Y-44700D01*
X50469Y-44795D01*
X50523Y-44876D01*
X51123Y-45477D01*
X51116Y-45493D01*
X51116Y-45733D01*
X51208Y-45955D01*
X51378Y-46125D01*
X51599Y-46217D01*
X51840Y-46217D01*
X52061Y-46126D01*
X52231Y-45956D01*
X52324Y-45734D01*
X52324Y-45494D01*
X52232Y-45272D01*
X52110Y-45150D01*
X53890Y-45150D01*
X53768Y-45271D01*
X53675Y-45493D01*
X53675Y-45733D01*
X53767Y-45955D01*
X53937Y-46125D01*
X54158Y-46217D01*
X54399Y-46217D01*
X54621Y-46126D01*
X54791Y-45956D01*
X54850Y-45814D01*
X54908Y-45955D01*
X55078Y-46125D01*
X55299Y-46217D01*
X55540Y-46217D01*
X55761Y-46126D01*
X55931Y-45956D01*
X56024Y-45734D01*
X56024Y-45494D01*
X55966Y-45354D01*
X55966Y-44090D01*
X55888Y-43888D01*
X55874Y-43867D01*
X55792Y-43826D01*
X55779Y-43839D01*
X55779Y-43814D01*
X55738Y-43732D01*
X55541Y-43644D01*
X55324Y-43639D01*
X55123Y-43717D01*
X55101Y-43732D01*
X55061Y-43814D01*
X55420Y-44173D01*
X55779Y-43814D01*
X55779Y-43839D01*
X55433Y-44185D01*
X55792Y-44544D01*
X55874Y-44504D01*
X55961Y-44306D01*
X55966Y-44090D01*
X55966Y-45354D01*
X55932Y-45272D01*
X55779Y-45119D01*
X55779Y-44557D01*
X55420Y-44198D01*
X55407Y-44211D01*
X55407Y-44185D01*
X55048Y-43826D01*
X54966Y-43867D01*
X54879Y-44065D01*
X54874Y-44281D01*
X54952Y-44483D01*
X54966Y-44504D01*
X55048Y-44544D01*
X55407Y-44185D01*
X55407Y-44211D01*
X55061Y-44557D01*
X55101Y-44639D01*
X55299Y-44726D01*
X55516Y-44731D01*
X55717Y-44653D01*
X55738Y-44639D01*
X55779Y-44557D01*
X55779Y-45119D01*
X55762Y-45102D01*
X55541Y-45010D01*
X55300Y-45010D01*
X55274Y-45021D01*
X54976Y-44723D01*
X54895Y-44669D01*
X54825Y-44655D01*
X54825Y-44090D01*
X54747Y-43888D01*
X54733Y-43867D01*
X54651Y-43826D01*
X54638Y-43839D01*
X54638Y-43814D01*
X54598Y-43732D01*
X54400Y-43644D01*
X54183Y-43639D01*
X53982Y-43717D01*
X53961Y-43732D01*
X53920Y-43814D01*
X54279Y-44173D01*
X54638Y-43814D01*
X54638Y-43839D01*
X54292Y-44185D01*
X54651Y-44544D01*
X54733Y-44504D01*
X54820Y-44306D01*
X54825Y-44090D01*
X54825Y-44655D01*
X54800Y-44650D01*
X54582Y-44650D01*
X54598Y-44639D01*
X54638Y-44557D01*
X54279Y-44198D01*
X54266Y-44211D01*
X54266Y-44185D01*
X53907Y-43826D01*
X53825Y-43867D01*
X53738Y-44065D01*
X53733Y-44281D01*
X53811Y-44483D01*
X53825Y-44504D01*
X53907Y-44544D01*
X54266Y-44185D01*
X54266Y-44211D01*
X53920Y-44557D01*
X53961Y-44639D01*
X53984Y-44650D01*
X52266Y-44650D01*
X52266Y-44090D01*
X52188Y-43888D01*
X52174Y-43867D01*
X52092Y-43826D01*
X52079Y-43839D01*
X52079Y-43814D01*
X52038Y-43732D01*
X51841Y-43644D01*
X51624Y-43639D01*
X51423Y-43717D01*
X51401Y-43732D01*
X51361Y-43814D01*
X51720Y-44173D01*
X52079Y-43814D01*
X52079Y-43839D01*
X51733Y-44185D01*
X52092Y-44544D01*
X52174Y-44504D01*
X52261Y-44306D01*
X52266Y-44090D01*
X52266Y-44650D01*
X52023Y-44650D01*
X52038Y-44639D01*
X52079Y-44557D01*
X51720Y-44198D01*
X51714Y-44204D01*
X51707Y-44196D01*
X51702Y-44191D01*
X51707Y-44185D01*
X51348Y-43826D01*
X51266Y-43867D01*
X51179Y-44065D01*
X51174Y-44281D01*
X51252Y-44483D01*
X51266Y-44504D01*
X51348Y-44544D01*
X51323Y-44570D01*
X51150Y-44396D01*
X51150Y-43294D01*
X51171Y-43309D01*
X51204Y-43330D01*
X51204Y-43330D01*
X51300Y-43350D01*
X54600Y-43350D01*
X54695Y-43330D01*
X54776Y-43276D01*
X55113Y-42940D01*
X55299Y-43017D01*
X55540Y-43017D01*
X55761Y-42926D01*
X55931Y-42756D01*
X56024Y-42534D01*
X56024Y-42294D01*
X55932Y-42072D01*
X55762Y-41902D01*
X55541Y-41810D01*
X55300Y-41810D01*
X55078Y-41902D01*
X54908Y-42071D01*
X54849Y-42213D01*
X54791Y-42072D01*
X54621Y-41902D01*
X54400Y-41810D01*
X54159Y-41810D01*
X53938Y-41902D01*
X53768Y-42071D01*
X53675Y-42293D01*
X53675Y-42533D01*
X53767Y-42755D01*
X53861Y-42850D01*
X52138Y-42850D01*
X52231Y-42756D01*
X52324Y-42534D01*
X52324Y-42294D01*
X52232Y-42072D01*
X52062Y-41902D01*
X51970Y-41864D01*
X51970Y-38920D01*
X51970Y-38920D01*
X51970Y-38920D01*
X51966Y-38901D01*
X51951Y-38824D01*
X51951Y-38824D01*
X51897Y-38743D01*
X51897Y-38743D01*
X49176Y-36023D01*
X49095Y-35969D01*
X49000Y-35950D01*
X27000Y-35950D01*
X26904Y-35969D01*
X26823Y-36023D01*
X23423Y-39423D01*
X23369Y-39504D01*
X23350Y-39600D01*
X23350Y-44500D01*
X23369Y-44595D01*
X23423Y-44676D01*
X23832Y-45085D01*
X23825Y-45088D01*
X23689Y-45224D01*
X23615Y-45403D01*
X23614Y-45596D01*
X23688Y-45774D01*
X23824Y-45910D01*
X24003Y-45984D01*
X24196Y-45985D01*
X24374Y-45911D01*
X24510Y-45775D01*
X24584Y-45596D01*
X24585Y-45403D01*
X24539Y-45292D01*
X24625Y-45378D01*
X24615Y-45403D01*
X24614Y-45596D01*
X24688Y-45774D01*
X24824Y-45910D01*
X25003Y-45984D01*
X25196Y-45985D01*
X25374Y-45911D01*
X25510Y-45775D01*
X25584Y-45596D01*
X25585Y-45403D01*
X25539Y-45292D01*
X25625Y-45378D01*
X25615Y-45403D01*
X25614Y-45596D01*
X25688Y-45774D01*
X25824Y-45910D01*
X26003Y-45984D01*
X26196Y-45985D01*
X26374Y-45911D01*
X26510Y-45775D01*
X26584Y-45596D01*
X26585Y-45403D01*
X26511Y-45225D01*
X26375Y-45089D01*
X26196Y-45015D01*
X26003Y-45014D01*
X25978Y-45025D01*
X25676Y-44723D01*
X25595Y-44669D01*
X25500Y-44650D01*
X25003Y-44650D01*
X24450Y-44096D01*
X24450Y-40603D01*
X25073Y-41226D01*
X25073Y-41226D01*
X25154Y-41280D01*
X25154Y-41280D01*
X25230Y-41296D01*
X25249Y-41300D01*
X25249Y-41299D01*
X25250Y-41300D01*
X29346Y-41300D01*
X29750Y-41703D01*
X29750Y-44250D01*
X29769Y-44345D01*
X29823Y-44426D01*
X30146Y-44750D01*
X29800Y-44750D01*
X29704Y-44769D01*
X29685Y-44781D01*
X29685Y-41803D01*
X29611Y-41625D01*
X29475Y-41489D01*
X29296Y-41415D01*
X29103Y-41414D01*
X28925Y-41488D01*
X28789Y-41624D01*
X28715Y-41803D01*
X28714Y-41996D01*
X28725Y-42021D01*
X28626Y-42119D01*
X28626Y-41823D01*
X28564Y-41665D01*
X28555Y-41652D01*
X28486Y-41626D01*
X28473Y-41639D01*
X28473Y-41613D01*
X28447Y-41544D01*
X28292Y-41476D01*
X28123Y-41473D01*
X27965Y-41535D01*
X27952Y-41544D01*
X27926Y-41613D01*
X28200Y-41887D01*
X28473Y-41613D01*
X28473Y-41639D01*
X28212Y-41900D01*
X28486Y-42173D01*
X28555Y-42147D01*
X28623Y-41992D01*
X28626Y-41823D01*
X28626Y-42119D01*
X28473Y-42272D01*
X28473Y-42186D01*
X28200Y-41912D01*
X28187Y-41925D01*
X28187Y-41900D01*
X27913Y-41626D01*
X27844Y-41652D01*
X27776Y-41807D01*
X27773Y-41976D01*
X27835Y-42134D01*
X27844Y-42147D01*
X27913Y-42173D01*
X28187Y-41900D01*
X28187Y-41925D01*
X27926Y-42186D01*
X27952Y-42255D01*
X28107Y-42323D01*
X28276Y-42326D01*
X28434Y-42264D01*
X28447Y-42255D01*
X28473Y-42186D01*
X28473Y-42272D01*
X28423Y-42323D01*
X28369Y-42404D01*
X28350Y-42500D01*
X28350Y-43273D01*
X28322Y-43284D01*
X28184Y-43422D01*
X28110Y-43602D01*
X28109Y-43797D01*
X28121Y-43824D01*
X27923Y-44023D01*
X27869Y-44104D01*
X27850Y-44200D01*
X27850Y-45078D01*
X27825Y-45088D01*
X27689Y-45224D01*
X27615Y-45403D01*
X27614Y-45596D01*
X27688Y-45774D01*
X27824Y-45910D01*
X28003Y-45984D01*
X28196Y-45985D01*
X28374Y-45911D01*
X28510Y-45775D01*
X28584Y-45596D01*
X28585Y-45403D01*
X28511Y-45225D01*
X28375Y-45089D01*
X28350Y-45078D01*
X28350Y-44303D01*
X28474Y-44178D01*
X28502Y-44189D01*
X28697Y-44190D01*
X28877Y-44115D01*
X29015Y-43977D01*
X29089Y-43797D01*
X29090Y-43602D01*
X29015Y-43422D01*
X28877Y-43284D01*
X28850Y-43273D01*
X28850Y-42603D01*
X29078Y-42374D01*
X29103Y-42384D01*
X29296Y-42385D01*
X29474Y-42311D01*
X29610Y-42175D01*
X29684Y-41996D01*
X29685Y-41803D01*
X29685Y-44781D01*
X29671Y-44790D01*
X29623Y-44823D01*
X29623Y-44823D01*
X29423Y-45023D01*
X29369Y-45104D01*
X29356Y-45168D01*
X29347Y-45144D01*
X29192Y-45076D01*
X29023Y-45073D01*
X28865Y-45135D01*
X28852Y-45144D01*
X28826Y-45213D01*
X29100Y-45487D01*
X29105Y-45481D01*
X29118Y-45494D01*
X29112Y-45500D01*
X29118Y-45505D01*
X29105Y-45518D01*
X29100Y-45512D01*
X29087Y-45525D01*
X29087Y-45500D01*
X28813Y-45226D01*
X28744Y-45252D01*
X28676Y-45407D01*
X28673Y-45576D01*
X28735Y-45734D01*
X28744Y-45747D01*
X28813Y-45773D01*
X29087Y-45500D01*
X29087Y-45525D01*
X28826Y-45786D01*
X28852Y-45855D01*
X29007Y-45923D01*
X29176Y-45926D01*
X29334Y-45864D01*
X29347Y-45855D01*
X29350Y-45848D01*
X29350Y-46096D01*
X29246Y-46200D01*
X27585Y-46200D01*
X27585Y-45403D01*
X27511Y-45225D01*
X27375Y-45089D01*
X27350Y-45078D01*
X27350Y-44200D01*
X27330Y-44104D01*
X27326Y-44097D01*
X27326Y-41823D01*
X27264Y-41665D01*
X27255Y-41652D01*
X27186Y-41626D01*
X27173Y-41639D01*
X27173Y-41613D01*
X27147Y-41544D01*
X26992Y-41476D01*
X26823Y-41473D01*
X26665Y-41535D01*
X26652Y-41544D01*
X26626Y-41613D01*
X26900Y-41887D01*
X27173Y-41613D01*
X27173Y-41639D01*
X26912Y-41900D01*
X27186Y-42173D01*
X27255Y-42147D01*
X27323Y-41992D01*
X27326Y-41823D01*
X27326Y-44097D01*
X27276Y-44023D01*
X27173Y-43919D01*
X27173Y-42186D01*
X26900Y-41912D01*
X26887Y-41925D01*
X26887Y-41900D01*
X26613Y-41626D01*
X26544Y-41652D01*
X26476Y-41807D01*
X26473Y-41976D01*
X26535Y-42134D01*
X26544Y-42147D01*
X26613Y-42173D01*
X26887Y-41900D01*
X26887Y-41925D01*
X26626Y-42186D01*
X26652Y-42255D01*
X26807Y-42323D01*
X26976Y-42326D01*
X27134Y-42264D01*
X27147Y-42255D01*
X27173Y-42186D01*
X27173Y-43919D01*
X27078Y-43825D01*
X27089Y-43797D01*
X27090Y-43602D01*
X27015Y-43422D01*
X26877Y-43284D01*
X26850Y-43273D01*
X26850Y-42600D01*
X26849Y-42599D01*
X26850Y-42599D01*
X26846Y-42580D01*
X26830Y-42504D01*
X26830Y-42504D01*
X26776Y-42423D01*
X26776Y-42423D01*
X26374Y-42021D01*
X26384Y-41996D01*
X26385Y-41803D01*
X26311Y-41625D01*
X26175Y-41489D01*
X25996Y-41415D01*
X25803Y-41414D01*
X25625Y-41488D01*
X25489Y-41624D01*
X25415Y-41803D01*
X25414Y-41996D01*
X25488Y-42174D01*
X25624Y-42310D01*
X25803Y-42384D01*
X25996Y-42385D01*
X26021Y-42374D01*
X26350Y-42703D01*
X26350Y-43273D01*
X26322Y-43284D01*
X26184Y-43422D01*
X26110Y-43602D01*
X26109Y-43797D01*
X26184Y-43977D01*
X26322Y-44115D01*
X26502Y-44189D01*
X26697Y-44190D01*
X26724Y-44178D01*
X26850Y-44303D01*
X26850Y-45078D01*
X26825Y-45088D01*
X26689Y-45224D01*
X26615Y-45403D01*
X26614Y-45596D01*
X26688Y-45774D01*
X26824Y-45910D01*
X27003Y-45984D01*
X27196Y-45985D01*
X27374Y-45911D01*
X27510Y-45775D01*
X27584Y-45596D01*
X27585Y-45403D01*
X27585Y-46200D01*
X23353Y-46200D01*
X23350Y-46196D01*
X23350Y-45921D01*
X23374Y-45911D01*
X23510Y-45775D01*
X23584Y-45596D01*
X23585Y-45403D01*
X23511Y-45225D01*
X23375Y-45089D01*
X23196Y-45015D01*
X23003Y-45014D01*
X22890Y-45061D01*
X22890Y-39720D01*
X26920Y-35690D01*
X51979Y-35690D01*
X56410Y-40120D01*
X56410Y-45750D01*
X56410Y-45779D01*
X56410Y-45779D01*
G37*
G54D29*
X56410Y-45779D02*
X55779Y-46410D01*
X55750Y-46410D01*
X51420Y-46410D01*
X50390Y-45379D01*
X50390Y-42600D01*
X50390Y-40700D01*
X50390Y-40700D01*
X50390Y-40150D01*
X50367Y-40039D01*
X50305Y-39944D01*
X50305Y-39944D01*
X48055Y-37694D01*
X47960Y-37632D01*
X47850Y-37610D01*
X32650Y-37610D01*
X30440Y-37610D01*
X28400Y-37610D01*
X28289Y-37632D01*
X28194Y-37694D01*
X27578Y-38311D01*
X27515Y-38405D01*
X27493Y-38516D01*
X27493Y-39672D01*
X27466Y-39672D01*
X27389Y-39704D01*
X27330Y-39763D01*
X27298Y-39840D01*
X27298Y-39924D01*
X27298Y-40474D01*
X27330Y-40551D01*
X27389Y-40610D01*
X27466Y-40642D01*
X27550Y-40642D01*
X28100Y-40642D01*
X28177Y-40610D01*
X28236Y-40551D01*
X28268Y-40474D01*
X28268Y-40390D01*
X28268Y-39840D01*
X28236Y-39763D01*
X28177Y-39704D01*
X28100Y-39672D01*
X28073Y-39672D01*
X28073Y-38636D01*
X28520Y-38190D01*
X30440Y-38190D01*
X31949Y-38190D01*
X31578Y-38561D01*
X31515Y-38655D01*
X31493Y-38766D01*
X31493Y-39761D01*
X31372Y-39882D01*
X31298Y-40060D01*
X31298Y-40253D01*
X31372Y-40431D01*
X31508Y-40568D01*
X31686Y-40642D01*
X31879Y-40642D01*
X32057Y-40568D01*
X32194Y-40432D01*
X32268Y-40254D01*
X32268Y-40061D01*
X32194Y-39883D01*
X32073Y-39761D01*
X32073Y-38886D01*
X32770Y-38190D01*
X47729Y-38190D01*
X49810Y-40270D01*
X49810Y-40579D01*
X49579Y-40810D01*
X45800Y-40810D01*
X45799Y-40810D01*
X45150Y-40810D01*
X45039Y-40832D01*
X44944Y-40894D01*
X44944Y-40894D01*
X43300Y-42539D01*
X43300Y-42200D01*
X43299Y-42199D01*
X43300Y-42199D01*
X43296Y-42180D01*
X43280Y-42104D01*
X43280Y-42104D01*
X43226Y-42023D01*
X43226Y-42023D01*
X42826Y-41623D01*
X42745Y-41569D01*
X42650Y-41550D01*
X38200Y-41550D01*
X38104Y-41569D01*
X38023Y-41623D01*
X37422Y-42223D01*
X37423Y-42213D01*
X37361Y-42055D01*
X37352Y-42042D01*
X37282Y-42015D01*
X37008Y-42289D01*
X37014Y-42295D01*
X37001Y-42308D01*
X36996Y-42302D01*
X36722Y-42576D01*
X36748Y-42646D01*
X36903Y-42713D01*
X36932Y-42714D01*
X36746Y-42900D01*
X35950Y-42900D01*
X35854Y-42919D01*
X35773Y-42973D01*
X35259Y-43486D01*
X35260Y-43349D01*
X35243Y-43309D01*
X35813Y-42739D01*
X35899Y-42775D01*
X36092Y-42775D01*
X36270Y-42701D01*
X36407Y-42565D01*
X36481Y-42386D01*
X36481Y-42193D01*
X36432Y-42075D01*
X36592Y-42075D01*
X36632Y-42058D01*
X36572Y-42197D01*
X36568Y-42366D01*
X36630Y-42524D01*
X36639Y-42537D01*
X36709Y-42563D01*
X36983Y-42289D01*
X36977Y-42284D01*
X36990Y-42271D01*
X36996Y-42277D01*
X37269Y-42003D01*
X37243Y-41933D01*
X37088Y-41865D01*
X36919Y-41862D01*
X36903Y-41868D01*
X36907Y-41865D01*
X36981Y-41686D01*
X36981Y-41493D01*
X36969Y-41464D01*
X37014Y-41398D01*
X37014Y-41398D01*
X37029Y-41321D01*
X37033Y-41302D01*
X37033Y-41302D01*
X37033Y-41302D01*
X37033Y-40578D01*
X37057Y-40568D01*
X37194Y-40432D01*
X37268Y-40254D01*
X37268Y-40061D01*
X37194Y-39883D01*
X37058Y-39746D01*
X36880Y-39672D01*
X36687Y-39672D01*
X36509Y-39746D01*
X36372Y-39882D01*
X36298Y-40060D01*
X36298Y-40253D01*
X36372Y-40431D01*
X36508Y-40568D01*
X36533Y-40578D01*
X36533Y-41104D01*
X36399Y-41104D01*
X36221Y-41177D01*
X36084Y-41314D01*
X36010Y-41492D01*
X36010Y-41685D01*
X36059Y-41804D01*
X35899Y-41804D01*
X35721Y-41877D01*
X35584Y-42014D01*
X35560Y-42073D01*
X35560Y-41999D01*
X35543Y-41959D01*
X35960Y-41543D01*
X35960Y-41543D01*
X35960Y-41543D01*
X36014Y-41462D01*
X36014Y-41462D01*
X36029Y-41385D01*
X36033Y-41366D01*
X36033Y-41366D01*
X36033Y-41366D01*
X36033Y-40578D01*
X36057Y-40568D01*
X36194Y-40432D01*
X36268Y-40254D01*
X36268Y-40061D01*
X36194Y-39883D01*
X36058Y-39746D01*
X35880Y-39672D01*
X35687Y-39672D01*
X35509Y-39746D01*
X35372Y-39882D01*
X35298Y-40060D01*
X35298Y-40253D01*
X35372Y-40431D01*
X35508Y-40568D01*
X35533Y-40578D01*
X35533Y-41262D01*
X35268Y-41527D01*
X35268Y-40061D01*
X35194Y-39883D01*
X35058Y-39746D01*
X34880Y-39672D01*
X34687Y-39672D01*
X34509Y-39746D01*
X34372Y-39882D01*
X34298Y-40060D01*
X34298Y-40253D01*
X34372Y-40431D01*
X34508Y-40568D01*
X34686Y-40642D01*
X34879Y-40642D01*
X35057Y-40568D01*
X35194Y-40432D01*
X35268Y-40254D01*
X35268Y-40061D01*
X35268Y-41527D01*
X35190Y-41606D01*
X35151Y-41590D01*
X34949Y-41589D01*
X34761Y-41667D01*
X34617Y-41810D01*
X34540Y-41998D01*
X34539Y-42201D01*
X34617Y-42388D01*
X34760Y-42532D01*
X34948Y-42609D01*
X35151Y-42610D01*
X35296Y-42549D01*
X34890Y-42956D01*
X34851Y-42940D01*
X34649Y-42939D01*
X34461Y-43017D01*
X34317Y-43160D01*
X34268Y-43279D01*
X34268Y-40061D01*
X34194Y-39883D01*
X34058Y-39746D01*
X33880Y-39672D01*
X33687Y-39672D01*
X33509Y-39746D01*
X33372Y-39882D01*
X33298Y-40060D01*
X33298Y-40253D01*
X33372Y-40431D01*
X33508Y-40568D01*
X33686Y-40642D01*
X33879Y-40642D01*
X34057Y-40568D01*
X34194Y-40432D01*
X34268Y-40254D01*
X34268Y-40061D01*
X34268Y-43279D01*
X34240Y-43348D01*
X34239Y-43551D01*
X34317Y-43738D01*
X34328Y-43750D01*
X34153Y-43750D01*
X33268Y-42864D01*
X33268Y-40061D01*
X33194Y-39883D01*
X33058Y-39746D01*
X32880Y-39672D01*
X32687Y-39672D01*
X32509Y-39746D01*
X32372Y-39882D01*
X32298Y-40060D01*
X32298Y-40253D01*
X32372Y-40431D01*
X32508Y-40568D01*
X32686Y-40642D01*
X32879Y-40642D01*
X33057Y-40568D01*
X33194Y-40432D01*
X33268Y-40254D01*
X33268Y-40061D01*
X33268Y-42864D01*
X31526Y-41123D01*
X31445Y-41069D01*
X31350Y-41050D01*
X31209Y-41050D01*
X31209Y-40080D01*
X31148Y-39923D01*
X31139Y-39910D01*
X31069Y-39884D01*
X30796Y-40157D01*
X31069Y-40430D01*
X31139Y-40404D01*
X31206Y-40249D01*
X31209Y-40080D01*
X31209Y-41050D01*
X31103Y-41050D01*
X30590Y-40537D01*
X30691Y-40580D01*
X30860Y-40583D01*
X31017Y-40522D01*
X31030Y-40513D01*
X31056Y-40443D01*
X30783Y-40170D01*
X30777Y-40175D01*
X30765Y-40163D01*
X30770Y-40157D01*
X30765Y-40151D01*
X30777Y-40139D01*
X30783Y-40144D01*
X31056Y-39871D01*
X31030Y-39801D01*
X30875Y-39734D01*
X30706Y-39730D01*
X30549Y-39792D01*
X30539Y-39799D01*
X30530Y-39754D01*
X30530Y-39754D01*
X30476Y-39673D01*
X30476Y-39673D01*
X30226Y-39423D01*
X30145Y-39369D01*
X30050Y-39350D01*
X29150Y-39350D01*
X29149Y-39350D01*
X29130Y-39353D01*
X29054Y-39369D01*
X28973Y-39423D01*
X28973Y-39423D01*
X28724Y-39672D01*
X28687Y-39672D01*
X28509Y-39746D01*
X28372Y-39882D01*
X28298Y-40060D01*
X28298Y-40253D01*
X28372Y-40431D01*
X28508Y-40568D01*
X28686Y-40642D01*
X28879Y-40642D01*
X28956Y-40610D01*
X29146Y-40800D01*
X25353Y-40800D01*
X24750Y-40196D01*
X24750Y-39703D01*
X27103Y-37350D01*
X48196Y-37350D01*
X50450Y-39603D01*
X50450Y-44643D01*
X50450Y-44700D01*
X50469Y-44795D01*
X50523Y-44876D01*
X51123Y-45477D01*
X51116Y-45493D01*
X51116Y-45733D01*
X51208Y-45955D01*
X51378Y-46125D01*
X51599Y-46217D01*
X51840Y-46217D01*
X52061Y-46126D01*
X52231Y-45956D01*
X52324Y-45734D01*
X52324Y-45494D01*
X52232Y-45272D01*
X52110Y-45150D01*
X53890Y-45150D01*
X53768Y-45271D01*
X53675Y-45493D01*
X53675Y-45733D01*
X53767Y-45955D01*
X53937Y-46125D01*
X54158Y-46217D01*
X54399Y-46217D01*
X54621Y-46126D01*
X54791Y-45956D01*
X54850Y-45814D01*
X54908Y-45955D01*
X55078Y-46125D01*
X55299Y-46217D01*
X55540Y-46217D01*
X55761Y-46126D01*
X55931Y-45956D01*
X56024Y-45734D01*
X56024Y-45494D01*
X55966Y-45354D01*
X55966Y-44090D01*
X55888Y-43888D01*
X55874Y-43867D01*
X55792Y-43826D01*
X55779Y-43839D01*
X55779Y-43814D01*
X55738Y-43732D01*
X55541Y-43644D01*
X55324Y-43639D01*
X55123Y-43717D01*
X55101Y-43732D01*
X55061Y-43814D01*
X55420Y-44173D01*
X55779Y-43814D01*
X55779Y-43839D01*
X55433Y-44185D01*
X55792Y-44544D01*
X55874Y-44504D01*
X55961Y-44306D01*
X55966Y-44090D01*
X55966Y-45354D01*
X55932Y-45272D01*
X55779Y-45119D01*
X55779Y-44557D01*
X55420Y-44198D01*
X55407Y-44211D01*
X55407Y-44185D01*
X55048Y-43826D01*
X54966Y-43867D01*
X54879Y-44065D01*
X54874Y-44281D01*
X54952Y-44483D01*
X54966Y-44504D01*
X55048Y-44544D01*
X55407Y-44185D01*
X55407Y-44211D01*
X55061Y-44557D01*
X55101Y-44639D01*
X55299Y-44726D01*
X55516Y-44731D01*
X55717Y-44653D01*
X55738Y-44639D01*
X55779Y-44557D01*
X55779Y-45119D01*
X55762Y-45102D01*
X55541Y-45010D01*
X55300Y-45010D01*
X55274Y-45021D01*
X54976Y-44723D01*
X54895Y-44669D01*
X54825Y-44655D01*
X54825Y-44090D01*
X54747Y-43888D01*
X54733Y-43867D01*
X54651Y-43826D01*
X54638Y-43839D01*
X54638Y-43814D01*
X54598Y-43732D01*
X54400Y-43644D01*
X54183Y-43639D01*
X53982Y-43717D01*
X53961Y-43732D01*
X53920Y-43814D01*
X54279Y-44173D01*
X54638Y-43814D01*
X54638Y-43839D01*
X54292Y-44185D01*
X54651Y-44544D01*
X54733Y-44504D01*
X54820Y-44306D01*
X54825Y-44090D01*
X54825Y-44655D01*
X54800Y-44650D01*
X54582Y-44650D01*
X54598Y-44639D01*
X54638Y-44557D01*
X54279Y-44198D01*
X54266Y-44211D01*
X54266Y-44185D01*
X53907Y-43826D01*
X53825Y-43867D01*
X53738Y-44065D01*
X53733Y-44281D01*
X53811Y-44483D01*
X53825Y-44504D01*
X53907Y-44544D01*
X54266Y-44185D01*
X54266Y-44211D01*
X53920Y-44557D01*
X53961Y-44639D01*
X53984Y-44650D01*
X52266Y-44650D01*
X52266Y-44090D01*
X52188Y-43888D01*
X52174Y-43867D01*
X52092Y-43826D01*
X52079Y-43839D01*
X52079Y-43814D01*
X52038Y-43732D01*
X51841Y-43644D01*
X51624Y-43639D01*
X51423Y-43717D01*
X51401Y-43732D01*
X51361Y-43814D01*
X51720Y-44173D01*
X52079Y-43814D01*
X52079Y-43839D01*
X51733Y-44185D01*
X52092Y-44544D01*
X52174Y-44504D01*
X52261Y-44306D01*
X52266Y-44090D01*
X52266Y-44650D01*
X52023Y-44650D01*
X52038Y-44639D01*
X52079Y-44557D01*
X51720Y-44198D01*
X51714Y-44204D01*
X51707Y-44196D01*
X51702Y-44191D01*
X51707Y-44185D01*
X51348Y-43826D01*
X51266Y-43867D01*
X51179Y-44065D01*
X51174Y-44281D01*
X51252Y-44483D01*
X51266Y-44504D01*
X51348Y-44544D01*
X51323Y-44570D01*
X51150Y-44396D01*
X51150Y-43294D01*
X51171Y-43309D01*
X51204Y-43330D01*
X51204Y-43330D01*
X51300Y-43350D01*
X54600Y-43350D01*
X54695Y-43330D01*
X54776Y-43276D01*
X55113Y-42940D01*
X55299Y-43017D01*
X55540Y-43017D01*
X55761Y-42926D01*
X55931Y-42756D01*
X56024Y-42534D01*
X56024Y-42294D01*
X55932Y-42072D01*
X55762Y-41902D01*
X55541Y-41810D01*
X55300Y-41810D01*
X55078Y-41902D01*
X54908Y-42071D01*
X54849Y-42213D01*
X54791Y-42072D01*
X54621Y-41902D01*
X54400Y-41810D01*
X54159Y-41810D01*
X53938Y-41902D01*
X53768Y-42071D01*
X53675Y-42293D01*
X53675Y-42533D01*
X53767Y-42755D01*
X53861Y-42850D01*
X52138Y-42850D01*
X52231Y-42756D01*
X52324Y-42534D01*
X52324Y-42294D01*
X52232Y-42072D01*
X52062Y-41902D01*
X51970Y-41864D01*
X51970Y-38920D01*
X51970Y-38920D01*
X51970Y-38920D01*
X51966Y-38901D01*
X51951Y-38824D01*
X51951Y-38824D01*
X51897Y-38743D01*
X51897Y-38743D01*
X49176Y-36023D01*
X49095Y-35969D01*
X49000Y-35950D01*
X27000Y-35950D01*
X26904Y-35969D01*
X26823Y-36023D01*
X23423Y-39423D01*
X23369Y-39504D01*
X23350Y-39600D01*
X23350Y-44500D01*
X23369Y-44595D01*
X23423Y-44676D01*
X23832Y-45085D01*
X23825Y-45088D01*
X23689Y-45224D01*
X23615Y-45403D01*
X23614Y-45596D01*
X23688Y-45774D01*
X23824Y-45910D01*
X24003Y-45984D01*
X24196Y-45985D01*
X24374Y-45911D01*
X24510Y-45775D01*
X24584Y-45596D01*
X24585Y-45403D01*
X24539Y-45292D01*
X24625Y-45378D01*
X24615Y-45403D01*
X24614Y-45596D01*
X24688Y-45774D01*
X24824Y-45910D01*
X25003Y-45984D01*
X25196Y-45985D01*
X25374Y-45911D01*
X25510Y-45775D01*
X25584Y-45596D01*
X25585Y-45403D01*
X25539Y-45292D01*
X25625Y-45378D01*
X25615Y-45403D01*
X25614Y-45596D01*
X25688Y-45774D01*
X25824Y-45910D01*
X26003Y-45984D01*
X26196Y-45985D01*
X26374Y-45911D01*
X26510Y-45775D01*
X26584Y-45596D01*
X26585Y-45403D01*
X26511Y-45225D01*
X26375Y-45089D01*
X26196Y-45015D01*
X26003Y-45014D01*
X25978Y-45025D01*
X25676Y-44723D01*
X25595Y-44669D01*
X25500Y-44650D01*
X25003Y-44650D01*
X24450Y-44096D01*
X24450Y-40603D01*
X25073Y-41226D01*
X25073Y-41226D01*
X25154Y-41280D01*
X25154Y-41280D01*
X25230Y-41296D01*
X25249Y-41300D01*
X25249Y-41299D01*
X25250Y-41300D01*
X29346Y-41300D01*
X29750Y-41703D01*
X29750Y-44250D01*
X29769Y-44345D01*
X29823Y-44426D01*
X30146Y-44750D01*
X29800Y-44750D01*
X29704Y-44769D01*
X29685Y-44781D01*
X29685Y-41803D01*
X29611Y-41625D01*
X29475Y-41489D01*
X29296Y-41415D01*
X29103Y-41414D01*
X28925Y-41488D01*
X28789Y-41624D01*
X28715Y-41803D01*
X28714Y-41996D01*
X28725Y-42021D01*
X28626Y-42119D01*
X28626Y-41823D01*
X28564Y-41665D01*
X28555Y-41652D01*
X28486Y-41626D01*
X28473Y-41639D01*
X28473Y-41613D01*
X28447Y-41544D01*
X28292Y-41476D01*
X28123Y-41473D01*
X27965Y-41535D01*
X27952Y-41544D01*
X27926Y-41613D01*
X28200Y-41887D01*
X28473Y-41613D01*
X28473Y-41639D01*
X28212Y-41900D01*
X28486Y-42173D01*
X28555Y-42147D01*
X28623Y-41992D01*
X28626Y-41823D01*
X28626Y-42119D01*
X28473Y-42272D01*
X28473Y-42186D01*
X28200Y-41912D01*
X28187Y-41925D01*
X28187Y-41900D01*
X27913Y-41626D01*
X27844Y-41652D01*
X27776Y-41807D01*
X27773Y-41976D01*
X27835Y-42134D01*
X27844Y-42147D01*
X27913Y-42173D01*
X28187Y-41900D01*
X28187Y-41925D01*
X27926Y-42186D01*
X27952Y-42255D01*
X28107Y-42323D01*
X28276Y-42326D01*
X28434Y-42264D01*
X28447Y-42255D01*
X28473Y-42186D01*
X28473Y-42272D01*
X28423Y-42323D01*
X28369Y-42404D01*
X28350Y-42500D01*
X28350Y-43273D01*
X28322Y-43284D01*
X28184Y-43422D01*
X28110Y-43602D01*
X28109Y-43797D01*
X28121Y-43824D01*
X27923Y-44023D01*
X27869Y-44104D01*
X27850Y-44200D01*
X27850Y-45078D01*
X27825Y-45088D01*
X27689Y-45224D01*
X27615Y-45403D01*
X27614Y-45596D01*
X27688Y-45774D01*
X27824Y-45910D01*
X28003Y-45984D01*
X28196Y-45985D01*
X28374Y-45911D01*
X28510Y-45775D01*
X28584Y-45596D01*
X28585Y-45403D01*
X28511Y-45225D01*
X28375Y-45089D01*
X28350Y-45078D01*
X28350Y-44303D01*
X28474Y-44178D01*
X28502Y-44189D01*
X28697Y-44190D01*
X28877Y-44115D01*
X29015Y-43977D01*
X29089Y-43797D01*
X29090Y-43602D01*
X29015Y-43422D01*
X28877Y-43284D01*
X28850Y-43273D01*
X28850Y-42603D01*
X29078Y-42374D01*
X29103Y-42384D01*
X29296Y-42385D01*
X29474Y-42311D01*
X29610Y-42175D01*
X29684Y-41996D01*
X29685Y-41803D01*
X29685Y-44781D01*
X29671Y-44790D01*
X29623Y-44823D01*
X29623Y-44823D01*
X29423Y-45023D01*
X29369Y-45104D01*
X29356Y-45168D01*
X29347Y-45144D01*
X29192Y-45076D01*
X29023Y-45073D01*
X28865Y-45135D01*
X28852Y-45144D01*
X28826Y-45213D01*
X29100Y-45487D01*
X29105Y-45481D01*
X29118Y-45494D01*
X29112Y-45500D01*
X29118Y-45505D01*
X29105Y-45518D01*
X29100Y-45512D01*
X29087Y-45525D01*
X29087Y-45500D01*
X28813Y-45226D01*
X28744Y-45252D01*
X28676Y-45407D01*
X28673Y-45576D01*
X28735Y-45734D01*
X28744Y-45747D01*
X28813Y-45773D01*
X29087Y-45500D01*
X29087Y-45525D01*
X28826Y-45786D01*
X28852Y-45855D01*
X29007Y-45923D01*
X29176Y-45926D01*
X29334Y-45864D01*
X29347Y-45855D01*
X29350Y-45848D01*
X29350Y-46096D01*
X29246Y-46200D01*
X27585Y-46200D01*
X27585Y-45403D01*
X27511Y-45225D01*
X27375Y-45089D01*
X27350Y-45078D01*
X27350Y-44200D01*
X27330Y-44104D01*
X27326Y-44097D01*
X27326Y-41823D01*
X27264Y-41665D01*
X27255Y-41652D01*
X27186Y-41626D01*
X27173Y-41639D01*
X27173Y-41613D01*
X27147Y-41544D01*
X26992Y-41476D01*
X26823Y-41473D01*
X26665Y-41535D01*
X26652Y-41544D01*
X26626Y-41613D01*
X26900Y-41887D01*
X27173Y-41613D01*
X27173Y-41639D01*
X26912Y-41900D01*
X27186Y-42173D01*
X27255Y-42147D01*
X27323Y-41992D01*
X27326Y-41823D01*
X27326Y-44097D01*
X27276Y-44023D01*
X27173Y-43919D01*
X27173Y-42186D01*
X26900Y-41912D01*
X26887Y-41925D01*
X26887Y-41900D01*
X26613Y-41626D01*
X26544Y-41652D01*
X26476Y-41807D01*
X26473Y-41976D01*
X26535Y-42134D01*
X26544Y-42147D01*
X26613Y-42173D01*
X26887Y-41900D01*
X26887Y-41925D01*
X26626Y-42186D01*
X26652Y-42255D01*
X26807Y-42323D01*
X26976Y-42326D01*
X27134Y-42264D01*
X27147Y-42255D01*
X27173Y-42186D01*
X27173Y-43919D01*
X27078Y-43825D01*
X27089Y-43797D01*
X27090Y-43602D01*
X27015Y-43422D01*
X26877Y-43284D01*
X26850Y-43273D01*
X26850Y-42600D01*
X26849Y-42599D01*
X26850Y-42599D01*
X26846Y-42580D01*
X26830Y-42504D01*
X26830Y-42504D01*
X26776Y-42423D01*
X26776Y-42423D01*
X26374Y-42021D01*
X26384Y-41996D01*
X26385Y-41803D01*
X26311Y-41625D01*
X26175Y-41489D01*
X25996Y-41415D01*
X25803Y-41414D01*
X25625Y-41488D01*
X25489Y-41624D01*
X25415Y-41803D01*
X25414Y-41996D01*
X25488Y-42174D01*
X25624Y-42310D01*
X25803Y-42384D01*
X25996Y-42385D01*
X26021Y-42374D01*
X26350Y-42703D01*
X26350Y-43273D01*
X26322Y-43284D01*
X26184Y-43422D01*
X26110Y-43602D01*
X26109Y-43797D01*
X26184Y-43977D01*
X26322Y-44115D01*
X26502Y-44189D01*
X26697Y-44190D01*
X26724Y-44178D01*
X26850Y-44303D01*
X26850Y-45078D01*
X26825Y-45088D01*
X26689Y-45224D01*
X26615Y-45403D01*
X26614Y-45596D01*
X26688Y-45774D01*
X26824Y-45910D01*
X27003Y-45984D01*
X27196Y-45985D01*
X27374Y-45911D01*
X27510Y-45775D01*
X27584Y-45596D01*
X27585Y-45403D01*
X27585Y-46200D01*
X23353Y-46200D01*
X23350Y-46196D01*
X23350Y-45921D01*
X23374Y-45911D01*
X23510Y-45775D01*
X23584Y-45596D01*
X23585Y-45403D01*
X23511Y-45225D01*
X23375Y-45089D01*
X23196Y-45015D01*
X23003Y-45014D01*
X22890Y-45061D01*
X22890Y-39720D01*
X26920Y-35690D01*
X51979Y-35690D01*
X56410Y-40120D01*
X56410Y-45750D01*
X56410Y-45779D01*
G54D10*
G36*
X56410Y-54029D02*
X56229Y-54210D01*
X55966Y-54210D01*
X55966Y-47290D01*
X55888Y-47088D01*
X55874Y-47067D01*
X55792Y-47026D01*
X55433Y-47385D01*
X55792Y-47744D01*
X55874Y-47704D01*
X55961Y-47506D01*
X55966Y-47290D01*
X55966Y-54210D01*
X55779Y-54210D01*
X55779Y-47757D01*
X55420Y-47398D01*
X55407Y-47411D01*
X55407Y-47385D01*
X55048Y-47026D01*
X54966Y-47067D01*
X54879Y-47265D01*
X54874Y-47481D01*
X54952Y-47683D01*
X54966Y-47704D01*
X55048Y-47744D01*
X55407Y-47385D01*
X55407Y-47411D01*
X55061Y-47757D01*
X55101Y-47839D01*
X55299Y-47926D01*
X55516Y-47931D01*
X55717Y-47853D01*
X55738Y-47839D01*
X55779Y-47757D01*
X55779Y-54210D01*
X55307Y-54210D01*
X55316Y-54201D01*
X55387Y-54030D01*
X55387Y-53844D01*
X55316Y-53673D01*
X55185Y-53542D01*
X55014Y-53471D01*
X54828Y-53471D01*
X54657Y-53541D01*
X54526Y-53672D01*
X54455Y-53843D01*
X54455Y-54029D01*
X54526Y-54200D01*
X54535Y-54210D01*
X53338Y-54210D01*
X53347Y-54201D01*
X53418Y-54030D01*
X53418Y-53844D01*
X53347Y-53673D01*
X53217Y-53542D01*
X53115Y-53500D01*
X54250Y-53500D01*
X54345Y-53480D01*
X54426Y-53426D01*
X54808Y-53044D01*
X54977Y-53044D01*
X55228Y-52941D01*
X55420Y-52749D01*
X55524Y-52498D01*
X55525Y-52227D01*
X55421Y-51976D01*
X55229Y-51783D01*
X54978Y-51679D01*
X54825Y-51679D01*
X54825Y-47290D01*
X54747Y-47088D01*
X54733Y-47067D01*
X54651Y-47026D01*
X54292Y-47385D01*
X54651Y-47744D01*
X54733Y-47704D01*
X54820Y-47506D01*
X54825Y-47290D01*
X54825Y-51679D01*
X54707Y-51679D01*
X54638Y-51708D01*
X54638Y-47757D01*
X54279Y-47398D01*
X54266Y-47411D01*
X54266Y-47385D01*
X53907Y-47026D01*
X53825Y-47067D01*
X53738Y-47265D01*
X53733Y-47481D01*
X53811Y-47683D01*
X53825Y-47704D01*
X53907Y-47744D01*
X54266Y-47385D01*
X54266Y-47411D01*
X53920Y-47757D01*
X53961Y-47839D01*
X54158Y-47926D01*
X54375Y-47931D01*
X54576Y-47853D01*
X54598Y-47839D01*
X54638Y-47757D01*
X54638Y-51708D01*
X54456Y-51783D01*
X54264Y-51975D01*
X54160Y-52225D01*
X54159Y-52497D01*
X54263Y-52748D01*
X54330Y-52815D01*
X54146Y-53000D01*
X53274Y-53000D01*
X53417Y-52941D01*
X53609Y-52749D01*
X53713Y-52498D01*
X53714Y-52227D01*
X53610Y-51976D01*
X53418Y-51783D01*
X53167Y-51679D01*
X52896Y-51679D01*
X52645Y-51783D01*
X52453Y-51975D01*
X52396Y-52112D01*
X52365Y-52112D01*
X52266Y-52012D01*
X52266Y-47290D01*
X52188Y-47088D01*
X52174Y-47067D01*
X52092Y-47026D01*
X51733Y-47385D01*
X52092Y-47744D01*
X52174Y-47704D01*
X52261Y-47506D01*
X52266Y-47290D01*
X52266Y-52012D01*
X51976Y-51723D01*
X51895Y-51669D01*
X51800Y-51650D01*
X51606Y-51650D01*
X51609Y-51641D01*
X51610Y-51558D01*
X51610Y-51143D01*
X52126Y-50626D01*
X52180Y-50545D01*
X52200Y-50450D01*
X52200Y-49950D01*
X52180Y-49854D01*
X52126Y-49773D01*
X52079Y-49725D01*
X52079Y-47757D01*
X51720Y-47398D01*
X51707Y-47411D01*
X51707Y-47385D01*
X51348Y-47026D01*
X51266Y-47067D01*
X51179Y-47265D01*
X51174Y-47481D01*
X51252Y-47683D01*
X51266Y-47704D01*
X51348Y-47744D01*
X51707Y-47385D01*
X51707Y-47411D01*
X51361Y-47757D01*
X51401Y-47839D01*
X51599Y-47926D01*
X51816Y-47931D01*
X52017Y-47853D01*
X52038Y-47839D01*
X52079Y-47757D01*
X52079Y-49725D01*
X50950Y-48596D01*
X50950Y-47300D01*
X50949Y-47299D01*
X50950Y-47299D01*
X50946Y-47280D01*
X50930Y-47204D01*
X50930Y-47204D01*
X50876Y-47123D01*
X50876Y-47123D01*
X49800Y-46046D01*
X49800Y-45050D01*
X49799Y-45049D01*
X49800Y-45049D01*
X49796Y-45030D01*
X49780Y-44954D01*
X49780Y-44954D01*
X49726Y-44873D01*
X49726Y-44873D01*
X49026Y-44173D01*
X48950Y-44121D01*
X48950Y-42770D01*
X48950Y-42229D01*
X48949Y-42170D01*
X48927Y-42114D01*
X48884Y-42072D01*
X48829Y-42049D01*
X48546Y-42050D01*
X48509Y-42087D01*
X48509Y-42491D01*
X48912Y-42491D01*
X48950Y-42453D01*
X48950Y-42229D01*
X48950Y-42770D01*
X48950Y-42546D01*
X48912Y-42509D01*
X48509Y-42509D01*
X48509Y-42912D01*
X48546Y-42950D01*
X48829Y-42950D01*
X48884Y-42927D01*
X48927Y-42885D01*
X48949Y-42829D01*
X48950Y-42770D01*
X48950Y-44121D01*
X48945Y-44119D01*
X48925Y-44114D01*
X48925Y-43795D01*
X48925Y-43304D01*
X48924Y-43245D01*
X48902Y-43189D01*
X48859Y-43147D01*
X48804Y-43124D01*
X48546Y-43125D01*
X48509Y-43162D01*
X48509Y-43541D01*
X48887Y-43541D01*
X48925Y-43503D01*
X48925Y-43304D01*
X48925Y-43795D01*
X48925Y-43596D01*
X48887Y-43559D01*
X48509Y-43559D01*
X48509Y-43937D01*
X48546Y-43975D01*
X48804Y-43975D01*
X48859Y-43952D01*
X48902Y-43910D01*
X48924Y-43854D01*
X48925Y-43795D01*
X48925Y-44114D01*
X48850Y-44100D01*
X48491Y-44100D01*
X48491Y-43937D01*
X48491Y-43559D01*
X48491Y-43541D01*
X48491Y-43162D01*
X48491Y-42912D01*
X48491Y-42509D01*
X48491Y-42491D01*
X48491Y-42087D01*
X48453Y-42050D01*
X48170Y-42049D01*
X48115Y-42072D01*
X48072Y-42114D01*
X48050Y-42170D01*
X48049Y-42229D01*
X48050Y-42453D01*
X48087Y-42491D01*
X48491Y-42491D01*
X48491Y-42509D01*
X48087Y-42509D01*
X48050Y-42546D01*
X48049Y-42770D01*
X48050Y-42829D01*
X48072Y-42885D01*
X48115Y-42927D01*
X48170Y-42950D01*
X48453Y-42950D01*
X48491Y-42912D01*
X48491Y-43162D01*
X48453Y-43125D01*
X48195Y-43124D01*
X48140Y-43147D01*
X48097Y-43189D01*
X48075Y-43245D01*
X48074Y-43304D01*
X48075Y-43503D01*
X48112Y-43541D01*
X48491Y-43541D01*
X48491Y-43559D01*
X48112Y-43559D01*
X48075Y-43596D01*
X48074Y-43795D01*
X48075Y-43854D01*
X48097Y-43910D01*
X48140Y-43952D01*
X48195Y-43975D01*
X48453Y-43975D01*
X48491Y-43937D01*
X48491Y-44100D01*
X47610Y-44100D01*
X47705Y-44005D01*
X47705Y-44005D01*
X47705Y-44005D01*
X47718Y-43984D01*
X47718Y-43984D01*
X47774Y-43961D01*
X47910Y-43825D01*
X47984Y-43646D01*
X47985Y-43453D01*
X47911Y-43275D01*
X47775Y-43139D01*
X47596Y-43065D01*
X47403Y-43064D01*
X47225Y-43138D01*
X47089Y-43274D01*
X47015Y-43453D01*
X47014Y-43646D01*
X47081Y-43808D01*
X47079Y-43810D01*
X46917Y-43810D01*
X46984Y-43646D01*
X46985Y-43453D01*
X46911Y-43275D01*
X46775Y-43139D01*
X46750Y-43128D01*
X46750Y-42948D01*
X46788Y-42932D01*
X46932Y-42789D01*
X47000Y-42625D01*
X47067Y-42788D01*
X47210Y-42932D01*
X47398Y-43009D01*
X47601Y-43010D01*
X47788Y-42932D01*
X47932Y-42789D01*
X48009Y-42601D01*
X48010Y-42399D01*
X47932Y-42211D01*
X47789Y-42067D01*
X47601Y-41990D01*
X47443Y-41989D01*
X46976Y-41523D01*
X46895Y-41469D01*
X46800Y-41450D01*
X45860Y-41450D01*
X45920Y-41390D01*
X49700Y-41390D01*
X49810Y-41368D01*
X49810Y-42600D01*
X49810Y-45500D01*
X49832Y-45610D01*
X49894Y-45705D01*
X51094Y-46905D01*
X51094Y-46905D01*
X51189Y-46967D01*
X51299Y-46990D01*
X51299Y-46989D01*
X51300Y-46990D01*
X51373Y-46990D01*
X51361Y-47014D01*
X51720Y-47373D01*
X52079Y-47014D01*
X52067Y-46990D01*
X53932Y-46990D01*
X53920Y-47014D01*
X54279Y-47373D01*
X54638Y-47014D01*
X54626Y-46990D01*
X55073Y-46990D01*
X55061Y-47014D01*
X55420Y-47373D01*
X55779Y-47014D01*
X55767Y-46990D01*
X55900Y-46990D01*
X56010Y-46967D01*
X56105Y-46905D01*
X56410Y-46600D01*
X56410Y-54029D01*
X56410Y-54029D01*
G37*
G54D29*
X56410Y-54029D02*
X56229Y-54210D01*
X55966Y-54210D01*
X55966Y-47290D01*
X55888Y-47088D01*
X55874Y-47067D01*
X55792Y-47026D01*
X55433Y-47385D01*
X55792Y-47744D01*
X55874Y-47704D01*
X55961Y-47506D01*
X55966Y-47290D01*
X55966Y-54210D01*
X55779Y-54210D01*
X55779Y-47757D01*
X55420Y-47398D01*
X55407Y-47411D01*
X55407Y-47385D01*
X55048Y-47026D01*
X54966Y-47067D01*
X54879Y-47265D01*
X54874Y-47481D01*
X54952Y-47683D01*
X54966Y-47704D01*
X55048Y-47744D01*
X55407Y-47385D01*
X55407Y-47411D01*
X55061Y-47757D01*
X55101Y-47839D01*
X55299Y-47926D01*
X55516Y-47931D01*
X55717Y-47853D01*
X55738Y-47839D01*
X55779Y-47757D01*
X55779Y-54210D01*
X55307Y-54210D01*
X55316Y-54201D01*
X55387Y-54030D01*
X55387Y-53844D01*
X55316Y-53673D01*
X55185Y-53542D01*
X55014Y-53471D01*
X54828Y-53471D01*
X54657Y-53541D01*
X54526Y-53672D01*
X54455Y-53843D01*
X54455Y-54029D01*
X54526Y-54200D01*
X54535Y-54210D01*
X53338Y-54210D01*
X53347Y-54201D01*
X53418Y-54030D01*
X53418Y-53844D01*
X53347Y-53673D01*
X53217Y-53542D01*
X53115Y-53500D01*
X54250Y-53500D01*
X54345Y-53480D01*
X54426Y-53426D01*
X54808Y-53044D01*
X54977Y-53044D01*
X55228Y-52941D01*
X55420Y-52749D01*
X55524Y-52498D01*
X55525Y-52227D01*
X55421Y-51976D01*
X55229Y-51783D01*
X54978Y-51679D01*
X54825Y-51679D01*
X54825Y-47290D01*
X54747Y-47088D01*
X54733Y-47067D01*
X54651Y-47026D01*
X54292Y-47385D01*
X54651Y-47744D01*
X54733Y-47704D01*
X54820Y-47506D01*
X54825Y-47290D01*
X54825Y-51679D01*
X54707Y-51679D01*
X54638Y-51708D01*
X54638Y-47757D01*
X54279Y-47398D01*
X54266Y-47411D01*
X54266Y-47385D01*
X53907Y-47026D01*
X53825Y-47067D01*
X53738Y-47265D01*
X53733Y-47481D01*
X53811Y-47683D01*
X53825Y-47704D01*
X53907Y-47744D01*
X54266Y-47385D01*
X54266Y-47411D01*
X53920Y-47757D01*
X53961Y-47839D01*
X54158Y-47926D01*
X54375Y-47931D01*
X54576Y-47853D01*
X54598Y-47839D01*
X54638Y-47757D01*
X54638Y-51708D01*
X54456Y-51783D01*
X54264Y-51975D01*
X54160Y-52225D01*
X54159Y-52497D01*
X54263Y-52748D01*
X54330Y-52815D01*
X54146Y-53000D01*
X53274Y-53000D01*
X53417Y-52941D01*
X53609Y-52749D01*
X53713Y-52498D01*
X53714Y-52227D01*
X53610Y-51976D01*
X53418Y-51783D01*
X53167Y-51679D01*
X52896Y-51679D01*
X52645Y-51783D01*
X52453Y-51975D01*
X52396Y-52112D01*
X52365Y-52112D01*
X52266Y-52012D01*
X52266Y-47290D01*
X52188Y-47088D01*
X52174Y-47067D01*
X52092Y-47026D01*
X51733Y-47385D01*
X52092Y-47744D01*
X52174Y-47704D01*
X52261Y-47506D01*
X52266Y-47290D01*
X52266Y-52012D01*
X51976Y-51723D01*
X51895Y-51669D01*
X51800Y-51650D01*
X51606Y-51650D01*
X51609Y-51641D01*
X51610Y-51558D01*
X51610Y-51143D01*
X52126Y-50626D01*
X52180Y-50545D01*
X52200Y-50450D01*
X52200Y-49950D01*
X52180Y-49854D01*
X52126Y-49773D01*
X52079Y-49725D01*
X52079Y-47757D01*
X51720Y-47398D01*
X51707Y-47411D01*
X51707Y-47385D01*
X51348Y-47026D01*
X51266Y-47067D01*
X51179Y-47265D01*
X51174Y-47481D01*
X51252Y-47683D01*
X51266Y-47704D01*
X51348Y-47744D01*
X51707Y-47385D01*
X51707Y-47411D01*
X51361Y-47757D01*
X51401Y-47839D01*
X51599Y-47926D01*
X51816Y-47931D01*
X52017Y-47853D01*
X52038Y-47839D01*
X52079Y-47757D01*
X52079Y-49725D01*
X50950Y-48596D01*
X50950Y-47300D01*
X50949Y-47299D01*
X50950Y-47299D01*
X50946Y-47280D01*
X50930Y-47204D01*
X50930Y-47204D01*
X50876Y-47123D01*
X50876Y-47123D01*
X49800Y-46046D01*
X49800Y-45050D01*
X49799Y-45049D01*
X49800Y-45049D01*
X49796Y-45030D01*
X49780Y-44954D01*
X49780Y-44954D01*
X49726Y-44873D01*
X49726Y-44873D01*
X49026Y-44173D01*
X48950Y-44121D01*
X48950Y-42770D01*
X48950Y-42229D01*
X48949Y-42170D01*
X48927Y-42114D01*
X48884Y-42072D01*
X48829Y-42049D01*
X48546Y-42050D01*
X48509Y-42087D01*
X48509Y-42491D01*
X48912Y-42491D01*
X48950Y-42453D01*
X48950Y-42229D01*
X48950Y-42770D01*
X48950Y-42546D01*
X48912Y-42509D01*
X48509Y-42509D01*
X48509Y-42912D01*
X48546Y-42950D01*
X48829Y-42950D01*
X48884Y-42927D01*
X48927Y-42885D01*
X48949Y-42829D01*
X48950Y-42770D01*
X48950Y-44121D01*
X48945Y-44119D01*
X48925Y-44114D01*
X48925Y-43795D01*
X48925Y-43304D01*
X48924Y-43245D01*
X48902Y-43189D01*
X48859Y-43147D01*
X48804Y-43124D01*
X48546Y-43125D01*
X48509Y-43162D01*
X48509Y-43541D01*
X48887Y-43541D01*
X48925Y-43503D01*
X48925Y-43304D01*
X48925Y-43795D01*
X48925Y-43596D01*
X48887Y-43559D01*
X48509Y-43559D01*
X48509Y-43937D01*
X48546Y-43975D01*
X48804Y-43975D01*
X48859Y-43952D01*
X48902Y-43910D01*
X48924Y-43854D01*
X48925Y-43795D01*
X48925Y-44114D01*
X48850Y-44100D01*
X48491Y-44100D01*
X48491Y-43937D01*
X48491Y-43559D01*
X48491Y-43541D01*
X48491Y-43162D01*
X48491Y-42912D01*
X48491Y-42509D01*
X48491Y-42491D01*
X48491Y-42087D01*
X48453Y-42050D01*
X48170Y-42049D01*
X48115Y-42072D01*
X48072Y-42114D01*
X48050Y-42170D01*
X48049Y-42229D01*
X48050Y-42453D01*
X48087Y-42491D01*
X48491Y-42491D01*
X48491Y-42509D01*
X48087Y-42509D01*
X48050Y-42546D01*
X48049Y-42770D01*
X48050Y-42829D01*
X48072Y-42885D01*
X48115Y-42927D01*
X48170Y-42950D01*
X48453Y-42950D01*
X48491Y-42912D01*
X48491Y-43162D01*
X48453Y-43125D01*
X48195Y-43124D01*
X48140Y-43147D01*
X48097Y-43189D01*
X48075Y-43245D01*
X48074Y-43304D01*
X48075Y-43503D01*
X48112Y-43541D01*
X48491Y-43541D01*
X48491Y-43559D01*
X48112Y-43559D01*
X48075Y-43596D01*
X48074Y-43795D01*
X48075Y-43854D01*
X48097Y-43910D01*
X48140Y-43952D01*
X48195Y-43975D01*
X48453Y-43975D01*
X48491Y-43937D01*
X48491Y-44100D01*
X47610Y-44100D01*
X47705Y-44005D01*
X47705Y-44005D01*
X47705Y-44005D01*
X47718Y-43984D01*
X47718Y-43984D01*
X47774Y-43961D01*
X47910Y-43825D01*
X47984Y-43646D01*
X47985Y-43453D01*
X47911Y-43275D01*
X47775Y-43139D01*
X47596Y-43065D01*
X47403Y-43064D01*
X47225Y-43138D01*
X47089Y-43274D01*
X47015Y-43453D01*
X47014Y-43646D01*
X47081Y-43808D01*
X47079Y-43810D01*
X46917Y-43810D01*
X46984Y-43646D01*
X46985Y-43453D01*
X46911Y-43275D01*
X46775Y-43139D01*
X46750Y-43128D01*
X46750Y-42948D01*
X46788Y-42932D01*
X46932Y-42789D01*
X47000Y-42625D01*
X47067Y-42788D01*
X47210Y-42932D01*
X47398Y-43009D01*
X47601Y-43010D01*
X47788Y-42932D01*
X47932Y-42789D01*
X48009Y-42601D01*
X48010Y-42399D01*
X47932Y-42211D01*
X47789Y-42067D01*
X47601Y-41990D01*
X47443Y-41989D01*
X46976Y-41523D01*
X46895Y-41469D01*
X46800Y-41450D01*
X45860Y-41450D01*
X45920Y-41390D01*
X49700Y-41390D01*
X49810Y-41368D01*
X49810Y-42600D01*
X49810Y-45500D01*
X49832Y-45610D01*
X49894Y-45705D01*
X51094Y-46905D01*
X51094Y-46905D01*
X51189Y-46967D01*
X51299Y-46990D01*
X51299Y-46989D01*
X51300Y-46990D01*
X51373Y-46990D01*
X51361Y-47014D01*
X51720Y-47373D01*
X52079Y-47014D01*
X52067Y-46990D01*
X53932Y-46990D01*
X53920Y-47014D01*
X54279Y-47373D01*
X54638Y-47014D01*
X54626Y-46990D01*
X55073Y-46990D01*
X55061Y-47014D01*
X55420Y-47373D01*
X55779Y-47014D01*
X55767Y-46990D01*
X55900Y-46990D01*
X56010Y-46967D01*
X56105Y-46905D01*
X56410Y-46600D01*
X56410Y-54029D01*
G54D10*
G36*
X58611Y-54452D02*
X58594Y-54435D01*
X58583Y-54430D01*
X58583Y-45494D01*
X58583Y-42294D01*
X58491Y-42072D01*
X58321Y-41902D01*
X58100Y-41810D01*
X57859Y-41810D01*
X57638Y-41902D01*
X57468Y-42071D01*
X57375Y-42293D01*
X57375Y-42533D01*
X57467Y-42755D01*
X57637Y-42925D01*
X57858Y-43017D01*
X58099Y-43017D01*
X58321Y-42926D01*
X58491Y-42756D01*
X58583Y-42534D01*
X58583Y-42294D01*
X58583Y-45494D01*
X58525Y-45354D01*
X58525Y-44090D01*
X58447Y-43888D01*
X58433Y-43867D01*
X58351Y-43826D01*
X58338Y-43839D01*
X58338Y-43814D01*
X58298Y-43732D01*
X58100Y-43644D01*
X57883Y-43639D01*
X57682Y-43717D01*
X57661Y-43732D01*
X57620Y-43814D01*
X57979Y-44173D01*
X58338Y-43814D01*
X58338Y-43839D01*
X57992Y-44185D01*
X58351Y-44544D01*
X58433Y-44504D01*
X58520Y-44306D01*
X58525Y-44090D01*
X58525Y-45354D01*
X58491Y-45272D01*
X58338Y-45119D01*
X58338Y-44557D01*
X57979Y-44198D01*
X57966Y-44211D01*
X57966Y-44185D01*
X57607Y-43826D01*
X57525Y-43867D01*
X57438Y-44065D01*
X57433Y-44281D01*
X57511Y-44483D01*
X57525Y-44504D01*
X57607Y-44544D01*
X57966Y-44185D01*
X57966Y-44211D01*
X57620Y-44557D01*
X57661Y-44639D01*
X57858Y-44726D01*
X58075Y-44731D01*
X58276Y-44653D01*
X58298Y-44639D01*
X58338Y-44557D01*
X58338Y-45119D01*
X58321Y-45102D01*
X58100Y-45010D01*
X57859Y-45010D01*
X57638Y-45102D01*
X57468Y-45271D01*
X57375Y-45493D01*
X57375Y-45733D01*
X57467Y-45955D01*
X57637Y-46125D01*
X57858Y-46217D01*
X58099Y-46217D01*
X58321Y-46126D01*
X58491Y-45956D01*
X58583Y-45734D01*
X58583Y-45494D01*
X58583Y-54430D01*
X58525Y-54406D01*
X58525Y-47290D01*
X58447Y-47088D01*
X58433Y-47067D01*
X58351Y-47026D01*
X58338Y-47039D01*
X58338Y-47014D01*
X58298Y-46932D01*
X58100Y-46844D01*
X57883Y-46839D01*
X57682Y-46917D01*
X57661Y-46932D01*
X57620Y-47014D01*
X57979Y-47373D01*
X58338Y-47014D01*
X58338Y-47039D01*
X57992Y-47385D01*
X58351Y-47744D01*
X58433Y-47704D01*
X58520Y-47506D01*
X58525Y-47290D01*
X58525Y-54406D01*
X58338Y-54329D01*
X58338Y-47757D01*
X57979Y-47398D01*
X57966Y-47411D01*
X57966Y-47385D01*
X57607Y-47026D01*
X57525Y-47067D01*
X57438Y-47265D01*
X57433Y-47481D01*
X57511Y-47683D01*
X57525Y-47704D01*
X57607Y-47744D01*
X57966Y-47385D01*
X57966Y-47411D01*
X57620Y-47757D01*
X57661Y-47839D01*
X57858Y-47926D01*
X58075Y-47931D01*
X58276Y-47853D01*
X58298Y-47839D01*
X58338Y-47757D01*
X58338Y-54329D01*
X58127Y-54241D01*
X57622Y-54241D01*
X57155Y-54434D01*
X56797Y-54791D01*
X56603Y-55257D01*
X56603Y-55763D01*
X56796Y-56230D01*
X56814Y-56249D01*
X56019Y-56249D01*
X56019Y-55206D01*
X55930Y-54975D01*
X55912Y-54949D01*
X55822Y-54899D01*
X55406Y-55314D01*
X55822Y-55730D01*
X55912Y-55680D01*
X56012Y-55454D01*
X56019Y-55206D01*
X56019Y-56249D01*
X55809Y-56249D01*
X55809Y-55743D01*
X55393Y-55327D01*
X55380Y-55340D01*
X55380Y-55314D01*
X54965Y-54899D01*
X54875Y-54949D01*
X54774Y-55175D01*
X54768Y-55423D01*
X54857Y-55654D01*
X54875Y-55680D01*
X54965Y-55730D01*
X55380Y-55314D01*
X55380Y-55340D01*
X54977Y-55743D01*
X55027Y-55833D01*
X55254Y-55934D01*
X55501Y-55940D01*
X55732Y-55851D01*
X55759Y-55833D01*
X55809Y-55743D01*
X55809Y-56249D01*
X53105Y-56249D01*
X53105Y-55206D01*
X53016Y-54975D01*
X52998Y-54949D01*
X52908Y-54899D01*
X52493Y-55314D01*
X52908Y-55730D01*
X52998Y-55680D01*
X53099Y-55454D01*
X53105Y-55206D01*
X53105Y-56249D01*
X52896Y-56249D01*
X52896Y-55743D01*
X52480Y-55327D01*
X52467Y-55340D01*
X52467Y-55314D01*
X52051Y-54899D01*
X51961Y-54949D01*
X51861Y-55175D01*
X51854Y-55423D01*
X51943Y-55654D01*
X51961Y-55680D01*
X52051Y-55730D01*
X52467Y-55314D01*
X52467Y-55340D01*
X52064Y-55743D01*
X52114Y-55833D01*
X52340Y-55934D01*
X52588Y-55940D01*
X52819Y-55851D01*
X52846Y-55833D01*
X52896Y-55743D01*
X52896Y-56249D01*
X51850Y-56249D01*
X51850Y-54790D01*
X52100Y-54790D01*
X52124Y-54790D01*
X52114Y-54796D01*
X52064Y-54886D01*
X52480Y-55302D01*
X52896Y-54886D01*
X52846Y-54796D01*
X52831Y-54790D01*
X55037Y-54790D01*
X55027Y-54796D01*
X54977Y-54886D01*
X55393Y-55302D01*
X55809Y-54886D01*
X55759Y-54796D01*
X55745Y-54790D01*
X56350Y-54790D01*
X56460Y-54767D01*
X56555Y-54705D01*
X56905Y-54355D01*
X56905Y-54355D01*
X56905Y-54355D01*
X56967Y-54260D01*
X56990Y-54150D01*
X56989Y-54150D01*
X56990Y-54150D01*
X56990Y-45900D01*
X56990Y-45900D01*
X56990Y-45750D01*
X56990Y-40000D01*
X56967Y-39889D01*
X56905Y-39794D01*
X52305Y-35194D01*
X52210Y-35132D01*
X52100Y-35110D01*
X26800Y-35110D01*
X26689Y-35132D01*
X26594Y-35194D01*
X22394Y-39394D01*
X22332Y-39489D01*
X22310Y-39600D01*
X22310Y-46350D01*
X22332Y-46460D01*
X22394Y-46555D01*
X22744Y-46905D01*
X22744Y-46905D01*
X22839Y-46967D01*
X22949Y-46990D01*
X22949Y-46989D01*
X22950Y-46990D01*
X28950Y-46990D01*
X28950Y-47050D01*
X23650Y-47050D01*
X23554Y-47069D01*
X23521Y-47090D01*
X23473Y-47123D01*
X23473Y-47123D01*
X22473Y-48123D01*
X22419Y-48204D01*
X22400Y-48300D01*
X22400Y-49050D01*
X22419Y-49145D01*
X22473Y-49226D01*
X22687Y-49441D01*
X22567Y-49560D01*
X22490Y-49748D01*
X22489Y-49951D01*
X22567Y-50138D01*
X22710Y-50282D01*
X22750Y-50298D01*
X22750Y-50401D01*
X22711Y-50417D01*
X22567Y-50560D01*
X22490Y-50748D01*
X22489Y-50951D01*
X22567Y-51138D01*
X22710Y-51282D01*
X22898Y-51359D01*
X23101Y-51360D01*
X23288Y-51282D01*
X23432Y-51139D01*
X23509Y-50951D01*
X23510Y-50749D01*
X23432Y-50561D01*
X23289Y-50417D01*
X23250Y-50401D01*
X23250Y-50298D01*
X23288Y-50282D01*
X23432Y-50139D01*
X23509Y-49951D01*
X23510Y-49749D01*
X23432Y-49561D01*
X23289Y-49417D01*
X23250Y-49401D01*
X23250Y-49400D01*
X23249Y-49399D01*
X23250Y-49399D01*
X23246Y-49380D01*
X23230Y-49304D01*
X23230Y-49304D01*
X23176Y-49223D01*
X23176Y-49223D01*
X22900Y-48946D01*
X22900Y-48942D01*
X23003Y-48984D01*
X23196Y-48985D01*
X23363Y-48916D01*
X23369Y-48945D01*
X23423Y-49026D01*
X23573Y-49176D01*
X23654Y-49230D01*
X23654Y-49230D01*
X23750Y-49250D01*
X24600Y-49250D01*
X24695Y-49230D01*
X24776Y-49176D01*
X24978Y-48974D01*
X25003Y-48984D01*
X25196Y-48985D01*
X25374Y-48911D01*
X25510Y-48775D01*
X25584Y-48596D01*
X25584Y-48534D01*
X25614Y-48532D01*
X25614Y-48596D01*
X25688Y-48774D01*
X25824Y-48910D01*
X25850Y-48921D01*
X25850Y-49050D01*
X25869Y-49145D01*
X25923Y-49226D01*
X26256Y-49560D01*
X26100Y-49560D01*
X26099Y-49560D01*
X26081Y-49563D01*
X25989Y-49582D01*
X25894Y-49644D01*
X25894Y-49644D01*
X25894Y-49644D01*
X25494Y-50044D01*
X25432Y-50139D01*
X25410Y-50250D01*
X25410Y-51211D01*
X25432Y-51322D01*
X25494Y-51416D01*
X25872Y-51794D01*
X25872Y-51993D01*
X24410Y-51993D01*
X24410Y-51858D01*
X24378Y-51781D01*
X24319Y-51722D01*
X24241Y-51690D01*
X24158Y-51689D01*
X23558Y-51689D01*
X23481Y-51721D01*
X23422Y-51780D01*
X23390Y-51858D01*
X23389Y-51941D01*
X23389Y-52541D01*
X23421Y-52618D01*
X23480Y-52677D01*
X23558Y-52709D01*
X23641Y-52710D01*
X23750Y-52710D01*
X23611Y-52767D01*
X23467Y-52910D01*
X23390Y-53098D01*
X23389Y-53301D01*
X23467Y-53488D01*
X23610Y-53632D01*
X23798Y-53709D01*
X24001Y-53710D01*
X24012Y-53705D01*
X24012Y-53705D01*
X24053Y-53732D01*
X24164Y-53754D01*
X24164Y-53754D01*
X24164Y-53754D01*
X27650Y-53754D01*
X27722Y-53754D01*
X27722Y-54194D01*
X27754Y-54272D01*
X27813Y-54331D01*
X27890Y-54363D01*
X27974Y-54363D01*
X29352Y-54363D01*
X29429Y-54331D01*
X29488Y-54272D01*
X29520Y-54195D01*
X29520Y-54111D01*
X29520Y-52733D01*
X29488Y-52656D01*
X29429Y-52597D01*
X29371Y-52573D01*
X29722Y-52573D01*
X30010Y-52861D01*
X30010Y-53968D01*
X29867Y-54110D01*
X29790Y-54298D01*
X29789Y-54501D01*
X29867Y-54688D01*
X30010Y-54831D01*
X30010Y-54968D01*
X29867Y-55110D01*
X29790Y-55298D01*
X29789Y-55501D01*
X29867Y-55688D01*
X30010Y-55832D01*
X30198Y-55909D01*
X30401Y-55910D01*
X30588Y-55832D01*
X30732Y-55689D01*
X30800Y-55525D01*
X30867Y-55688D01*
X31010Y-55832D01*
X31198Y-55909D01*
X31401Y-55910D01*
X31588Y-55832D01*
X31732Y-55689D01*
X31800Y-55525D01*
X31867Y-55688D01*
X32010Y-55832D01*
X32198Y-55909D01*
X32401Y-55910D01*
X32588Y-55832D01*
X32732Y-55689D01*
X32800Y-55525D01*
X32867Y-55688D01*
X33010Y-55832D01*
X33198Y-55909D01*
X33401Y-55910D01*
X33588Y-55832D01*
X33732Y-55689D01*
X33809Y-55501D01*
X33810Y-55299D01*
X33769Y-55201D01*
X34258Y-54712D01*
X34370Y-54824D01*
X34616Y-55070D01*
X34591Y-55095D01*
X34562Y-55023D01*
X34398Y-54951D01*
X34370Y-54951D01*
X34219Y-54948D01*
X34052Y-55013D01*
X34037Y-55023D01*
X34008Y-55095D01*
X34300Y-55387D01*
X34305Y-55381D01*
X34318Y-55394D01*
X34312Y-55400D01*
X34370Y-55457D01*
X34604Y-55691D01*
X34676Y-55662D01*
X34748Y-55498D01*
X34751Y-55319D01*
X34686Y-55152D01*
X34676Y-55137D01*
X34604Y-55108D01*
X34629Y-55083D01*
X35795Y-56249D01*
X34751Y-56249D01*
X34591Y-56249D01*
X34591Y-55704D01*
X34370Y-55483D01*
X34300Y-55412D01*
X34287Y-55425D01*
X34287Y-55400D01*
X33995Y-55108D01*
X33923Y-55137D01*
X33851Y-55301D01*
X33848Y-55480D01*
X33913Y-55647D01*
X33923Y-55662D01*
X33995Y-55691D01*
X34287Y-55400D01*
X34287Y-55425D01*
X34008Y-55704D01*
X34037Y-55776D01*
X34201Y-55848D01*
X34370Y-55851D01*
X34380Y-55851D01*
X34547Y-55786D01*
X34562Y-55776D01*
X34591Y-55704D01*
X34591Y-56249D01*
X34370Y-56249D01*
X34300Y-56249D01*
X27650Y-56249D01*
X27610Y-56249D01*
X27610Y-55364D01*
X27610Y-53926D01*
X27587Y-53871D01*
X27545Y-53829D01*
X27490Y-53806D01*
X27430Y-53806D01*
X26818Y-53806D01*
X26780Y-53843D01*
X26780Y-54636D01*
X27573Y-54636D01*
X27610Y-54598D01*
X27610Y-53926D01*
X27610Y-55364D01*
X27610Y-54691D01*
X27573Y-54654D01*
X26780Y-54654D01*
X26780Y-55446D01*
X26818Y-55484D01*
X27430Y-55484D01*
X27490Y-55484D01*
X27545Y-55461D01*
X27587Y-55419D01*
X27610Y-55364D01*
X27610Y-56249D01*
X27600Y-56249D01*
X26762Y-56249D01*
X26762Y-55446D01*
X26762Y-54654D01*
X26762Y-54636D01*
X26762Y-53843D01*
X26725Y-53806D01*
X26112Y-53806D01*
X26052Y-53806D01*
X25997Y-53829D01*
X25955Y-53871D01*
X25932Y-53926D01*
X25932Y-54598D01*
X25970Y-54636D01*
X26762Y-54636D01*
X26762Y-54654D01*
X25970Y-54654D01*
X25932Y-54691D01*
X25932Y-55364D01*
X25955Y-55419D01*
X25997Y-55461D01*
X26052Y-55484D01*
X26112Y-55484D01*
X26725Y-55484D01*
X26762Y-55446D01*
X26762Y-56249D01*
X23894Y-56249D01*
X23911Y-56232D01*
X24104Y-55765D01*
X24105Y-55260D01*
X23912Y-54793D01*
X23555Y-54435D01*
X23088Y-54241D01*
X22583Y-54241D01*
X22115Y-54434D01*
X22097Y-54452D01*
X22097Y-30587D01*
X22114Y-30603D01*
X22580Y-30797D01*
X23086Y-30798D01*
X23553Y-30605D01*
X23911Y-30248D01*
X24104Y-29781D01*
X24105Y-29275D01*
X23912Y-28808D01*
X23893Y-28790D01*
X56814Y-28790D01*
X56797Y-28806D01*
X56603Y-29273D01*
X56603Y-29779D01*
X56796Y-30246D01*
X57153Y-30603D01*
X57620Y-30797D01*
X58125Y-30798D01*
X58592Y-30605D01*
X58611Y-30586D01*
X58611Y-54452D01*
X58611Y-54452D01*
G37*
G54D29*
X58611Y-54452D02*
X58594Y-54435D01*
X58583Y-54430D01*
X58583Y-45494D01*
X58583Y-42294D01*
X58491Y-42072D01*
X58321Y-41902D01*
X58100Y-41810D01*
X57859Y-41810D01*
X57638Y-41902D01*
X57468Y-42071D01*
X57375Y-42293D01*
X57375Y-42533D01*
X57467Y-42755D01*
X57637Y-42925D01*
X57858Y-43017D01*
X58099Y-43017D01*
X58321Y-42926D01*
X58491Y-42756D01*
X58583Y-42534D01*
X58583Y-42294D01*
X58583Y-45494D01*
X58525Y-45354D01*
X58525Y-44090D01*
X58447Y-43888D01*
X58433Y-43867D01*
X58351Y-43826D01*
X58338Y-43839D01*
X58338Y-43814D01*
X58298Y-43732D01*
X58100Y-43644D01*
X57883Y-43639D01*
X57682Y-43717D01*
X57661Y-43732D01*
X57620Y-43814D01*
X57979Y-44173D01*
X58338Y-43814D01*
X58338Y-43839D01*
X57992Y-44185D01*
X58351Y-44544D01*
X58433Y-44504D01*
X58520Y-44306D01*
X58525Y-44090D01*
X58525Y-45354D01*
X58491Y-45272D01*
X58338Y-45119D01*
X58338Y-44557D01*
X57979Y-44198D01*
X57966Y-44211D01*
X57966Y-44185D01*
X57607Y-43826D01*
X57525Y-43867D01*
X57438Y-44065D01*
X57433Y-44281D01*
X57511Y-44483D01*
X57525Y-44504D01*
X57607Y-44544D01*
X57966Y-44185D01*
X57966Y-44211D01*
X57620Y-44557D01*
X57661Y-44639D01*
X57858Y-44726D01*
X58075Y-44731D01*
X58276Y-44653D01*
X58298Y-44639D01*
X58338Y-44557D01*
X58338Y-45119D01*
X58321Y-45102D01*
X58100Y-45010D01*
X57859Y-45010D01*
X57638Y-45102D01*
X57468Y-45271D01*
X57375Y-45493D01*
X57375Y-45733D01*
X57467Y-45955D01*
X57637Y-46125D01*
X57858Y-46217D01*
X58099Y-46217D01*
X58321Y-46126D01*
X58491Y-45956D01*
X58583Y-45734D01*
X58583Y-45494D01*
X58583Y-54430D01*
X58525Y-54406D01*
X58525Y-47290D01*
X58447Y-47088D01*
X58433Y-47067D01*
X58351Y-47026D01*
X58338Y-47039D01*
X58338Y-47014D01*
X58298Y-46932D01*
X58100Y-46844D01*
X57883Y-46839D01*
X57682Y-46917D01*
X57661Y-46932D01*
X57620Y-47014D01*
X57979Y-47373D01*
X58338Y-47014D01*
X58338Y-47039D01*
X57992Y-47385D01*
X58351Y-47744D01*
X58433Y-47704D01*
X58520Y-47506D01*
X58525Y-47290D01*
X58525Y-54406D01*
X58338Y-54329D01*
X58338Y-47757D01*
X57979Y-47398D01*
X57966Y-47411D01*
X57966Y-47385D01*
X57607Y-47026D01*
X57525Y-47067D01*
X57438Y-47265D01*
X57433Y-47481D01*
X57511Y-47683D01*
X57525Y-47704D01*
X57607Y-47744D01*
X57966Y-47385D01*
X57966Y-47411D01*
X57620Y-47757D01*
X57661Y-47839D01*
X57858Y-47926D01*
X58075Y-47931D01*
X58276Y-47853D01*
X58298Y-47839D01*
X58338Y-47757D01*
X58338Y-54329D01*
X58127Y-54241D01*
X57622Y-54241D01*
X57155Y-54434D01*
X56797Y-54791D01*
X56603Y-55257D01*
X56603Y-55763D01*
X56796Y-56230D01*
X56814Y-56249D01*
X56019Y-56249D01*
X56019Y-55206D01*
X55930Y-54975D01*
X55912Y-54949D01*
X55822Y-54899D01*
X55406Y-55314D01*
X55822Y-55730D01*
X55912Y-55680D01*
X56012Y-55454D01*
X56019Y-55206D01*
X56019Y-56249D01*
X55809Y-56249D01*
X55809Y-55743D01*
X55393Y-55327D01*
X55380Y-55340D01*
X55380Y-55314D01*
X54965Y-54899D01*
X54875Y-54949D01*
X54774Y-55175D01*
X54768Y-55423D01*
X54857Y-55654D01*
X54875Y-55680D01*
X54965Y-55730D01*
X55380Y-55314D01*
X55380Y-55340D01*
X54977Y-55743D01*
X55027Y-55833D01*
X55254Y-55934D01*
X55501Y-55940D01*
X55732Y-55851D01*
X55759Y-55833D01*
X55809Y-55743D01*
X55809Y-56249D01*
X53105Y-56249D01*
X53105Y-55206D01*
X53016Y-54975D01*
X52998Y-54949D01*
X52908Y-54899D01*
X52493Y-55314D01*
X52908Y-55730D01*
X52998Y-55680D01*
X53099Y-55454D01*
X53105Y-55206D01*
X53105Y-56249D01*
X52896Y-56249D01*
X52896Y-55743D01*
X52480Y-55327D01*
X52467Y-55340D01*
X52467Y-55314D01*
X52051Y-54899D01*
X51961Y-54949D01*
X51861Y-55175D01*
X51854Y-55423D01*
X51943Y-55654D01*
X51961Y-55680D01*
X52051Y-55730D01*
X52467Y-55314D01*
X52467Y-55340D01*
X52064Y-55743D01*
X52114Y-55833D01*
X52340Y-55934D01*
X52588Y-55940D01*
X52819Y-55851D01*
X52846Y-55833D01*
X52896Y-55743D01*
X52896Y-56249D01*
X51850Y-56249D01*
X51850Y-54790D01*
X52100Y-54790D01*
X52124Y-54790D01*
X52114Y-54796D01*
X52064Y-54886D01*
X52480Y-55302D01*
X52896Y-54886D01*
X52846Y-54796D01*
X52831Y-54790D01*
X55037Y-54790D01*
X55027Y-54796D01*
X54977Y-54886D01*
X55393Y-55302D01*
X55809Y-54886D01*
X55759Y-54796D01*
X55745Y-54790D01*
X56350Y-54790D01*
X56460Y-54767D01*
X56555Y-54705D01*
X56905Y-54355D01*
X56905Y-54355D01*
X56905Y-54355D01*
X56967Y-54260D01*
X56990Y-54150D01*
X56989Y-54150D01*
X56990Y-54150D01*
X56990Y-45900D01*
X56990Y-45900D01*
X56990Y-45750D01*
X56990Y-40000D01*
X56967Y-39889D01*
X56905Y-39794D01*
X52305Y-35194D01*
X52210Y-35132D01*
X52100Y-35110D01*
X26800Y-35110D01*
X26689Y-35132D01*
X26594Y-35194D01*
X22394Y-39394D01*
X22332Y-39489D01*
X22310Y-39600D01*
X22310Y-46350D01*
X22332Y-46460D01*
X22394Y-46555D01*
X22744Y-46905D01*
X22744Y-46905D01*
X22839Y-46967D01*
X22949Y-46990D01*
X22949Y-46989D01*
X22950Y-46990D01*
X28950Y-46990D01*
X28950Y-47050D01*
X23650Y-47050D01*
X23554Y-47069D01*
X23521Y-47090D01*
X23473Y-47123D01*
X23473Y-47123D01*
X22473Y-48123D01*
X22419Y-48204D01*
X22400Y-48300D01*
X22400Y-49050D01*
X22419Y-49145D01*
X22473Y-49226D01*
X22687Y-49441D01*
X22567Y-49560D01*
X22490Y-49748D01*
X22489Y-49951D01*
X22567Y-50138D01*
X22710Y-50282D01*
X22750Y-50298D01*
X22750Y-50401D01*
X22711Y-50417D01*
X22567Y-50560D01*
X22490Y-50748D01*
X22489Y-50951D01*
X22567Y-51138D01*
X22710Y-51282D01*
X22898Y-51359D01*
X23101Y-51360D01*
X23288Y-51282D01*
X23432Y-51139D01*
X23509Y-50951D01*
X23510Y-50749D01*
X23432Y-50561D01*
X23289Y-50417D01*
X23250Y-50401D01*
X23250Y-50298D01*
X23288Y-50282D01*
X23432Y-50139D01*
X23509Y-49951D01*
X23510Y-49749D01*
X23432Y-49561D01*
X23289Y-49417D01*
X23250Y-49401D01*
X23250Y-49400D01*
X23249Y-49399D01*
X23250Y-49399D01*
X23246Y-49380D01*
X23230Y-49304D01*
X23230Y-49304D01*
X23176Y-49223D01*
X23176Y-49223D01*
X22900Y-48946D01*
X22900Y-48942D01*
X23003Y-48984D01*
X23196Y-48985D01*
X23363Y-48916D01*
X23369Y-48945D01*
X23423Y-49026D01*
X23573Y-49176D01*
X23654Y-49230D01*
X23654Y-49230D01*
X23750Y-49250D01*
X24600Y-49250D01*
X24695Y-49230D01*
X24776Y-49176D01*
X24978Y-48974D01*
X25003Y-48984D01*
X25196Y-48985D01*
X25374Y-48911D01*
X25510Y-48775D01*
X25584Y-48596D01*
X25584Y-48534D01*
X25614Y-48532D01*
X25614Y-48596D01*
X25688Y-48774D01*
X25824Y-48910D01*
X25850Y-48921D01*
X25850Y-49050D01*
X25869Y-49145D01*
X25923Y-49226D01*
X26256Y-49560D01*
X26100Y-49560D01*
X26099Y-49560D01*
X26081Y-49563D01*
X25989Y-49582D01*
X25894Y-49644D01*
X25894Y-49644D01*
X25894Y-49644D01*
X25494Y-50044D01*
X25432Y-50139D01*
X25410Y-50250D01*
X25410Y-51211D01*
X25432Y-51322D01*
X25494Y-51416D01*
X25872Y-51794D01*
X25872Y-51993D01*
X24410Y-51993D01*
X24410Y-51858D01*
X24378Y-51781D01*
X24319Y-51722D01*
X24241Y-51690D01*
X24158Y-51689D01*
X23558Y-51689D01*
X23481Y-51721D01*
X23422Y-51780D01*
X23390Y-51858D01*
X23389Y-51941D01*
X23389Y-52541D01*
X23421Y-52618D01*
X23480Y-52677D01*
X23558Y-52709D01*
X23641Y-52710D01*
X23750Y-52710D01*
X23611Y-52767D01*
X23467Y-52910D01*
X23390Y-53098D01*
X23389Y-53301D01*
X23467Y-53488D01*
X23610Y-53632D01*
X23798Y-53709D01*
X24001Y-53710D01*
X24012Y-53705D01*
X24012Y-53705D01*
X24053Y-53732D01*
X24164Y-53754D01*
X24164Y-53754D01*
X24164Y-53754D01*
X27650Y-53754D01*
X27722Y-53754D01*
X27722Y-54194D01*
X27754Y-54272D01*
X27813Y-54331D01*
X27890Y-54363D01*
X27974Y-54363D01*
X29352Y-54363D01*
X29429Y-54331D01*
X29488Y-54272D01*
X29520Y-54195D01*
X29520Y-54111D01*
X29520Y-52733D01*
X29488Y-52656D01*
X29429Y-52597D01*
X29371Y-52573D01*
X29722Y-52573D01*
X30010Y-52861D01*
X30010Y-53968D01*
X29867Y-54110D01*
X29790Y-54298D01*
X29789Y-54501D01*
X29867Y-54688D01*
X30010Y-54831D01*
X30010Y-54968D01*
X29867Y-55110D01*
X29790Y-55298D01*
X29789Y-55501D01*
X29867Y-55688D01*
X30010Y-55832D01*
X30198Y-55909D01*
X30401Y-55910D01*
X30588Y-55832D01*
X30732Y-55689D01*
X30800Y-55525D01*
X30867Y-55688D01*
X31010Y-55832D01*
X31198Y-55909D01*
X31401Y-55910D01*
X31588Y-55832D01*
X31732Y-55689D01*
X31800Y-55525D01*
X31867Y-55688D01*
X32010Y-55832D01*
X32198Y-55909D01*
X32401Y-55910D01*
X32588Y-55832D01*
X32732Y-55689D01*
X32800Y-55525D01*
X32867Y-55688D01*
X33010Y-55832D01*
X33198Y-55909D01*
X33401Y-55910D01*
X33588Y-55832D01*
X33732Y-55689D01*
X33809Y-55501D01*
X33810Y-55299D01*
X33769Y-55201D01*
X34258Y-54712D01*
X34370Y-54824D01*
X34616Y-55070D01*
X34591Y-55095D01*
X34562Y-55023D01*
X34398Y-54951D01*
X34370Y-54951D01*
X34219Y-54948D01*
X34052Y-55013D01*
X34037Y-55023D01*
X34008Y-55095D01*
X34300Y-55387D01*
X34305Y-55381D01*
X34318Y-55394D01*
X34312Y-55400D01*
X34370Y-55457D01*
X34604Y-55691D01*
X34676Y-55662D01*
X34748Y-55498D01*
X34751Y-55319D01*
X34686Y-55152D01*
X34676Y-55137D01*
X34604Y-55108D01*
X34629Y-55083D01*
X35795Y-56249D01*
X34751Y-56249D01*
X34591Y-56249D01*
X34591Y-55704D01*
X34370Y-55483D01*
X34300Y-55412D01*
X34287Y-55425D01*
X34287Y-55400D01*
X33995Y-55108D01*
X33923Y-55137D01*
X33851Y-55301D01*
X33848Y-55480D01*
X33913Y-55647D01*
X33923Y-55662D01*
X33995Y-55691D01*
X34287Y-55400D01*
X34287Y-55425D01*
X34008Y-55704D01*
X34037Y-55776D01*
X34201Y-55848D01*
X34370Y-55851D01*
X34380Y-55851D01*
X34547Y-55786D01*
X34562Y-55776D01*
X34591Y-55704D01*
X34591Y-56249D01*
X34370Y-56249D01*
X34300Y-56249D01*
X27650Y-56249D01*
X27610Y-56249D01*
X27610Y-55364D01*
X27610Y-53926D01*
X27587Y-53871D01*
X27545Y-53829D01*
X27490Y-53806D01*
X27430Y-53806D01*
X26818Y-53806D01*
X26780Y-53843D01*
X26780Y-54636D01*
X27573Y-54636D01*
X27610Y-54598D01*
X27610Y-53926D01*
X27610Y-55364D01*
X27610Y-54691D01*
X27573Y-54654D01*
X26780Y-54654D01*
X26780Y-55446D01*
X26818Y-55484D01*
X27430Y-55484D01*
X27490Y-55484D01*
X27545Y-55461D01*
X27587Y-55419D01*
X27610Y-55364D01*
X27610Y-56249D01*
X27600Y-56249D01*
X26762Y-56249D01*
X26762Y-55446D01*
X26762Y-54654D01*
X26762Y-54636D01*
X26762Y-53843D01*
X26725Y-53806D01*
X26112Y-53806D01*
X26052Y-53806D01*
X25997Y-53829D01*
X25955Y-53871D01*
X25932Y-53926D01*
X25932Y-54598D01*
X25970Y-54636D01*
X26762Y-54636D01*
X26762Y-54654D01*
X25970Y-54654D01*
X25932Y-54691D01*
X25932Y-55364D01*
X25955Y-55419D01*
X25997Y-55461D01*
X26052Y-55484D01*
X26112Y-55484D01*
X26725Y-55484D01*
X26762Y-55446D01*
X26762Y-56249D01*
X23894Y-56249D01*
X23911Y-56232D01*
X24104Y-55765D01*
X24105Y-55260D01*
X23912Y-54793D01*
X23555Y-54435D01*
X23088Y-54241D01*
X22583Y-54241D01*
X22115Y-54434D01*
X22097Y-54452D01*
X22097Y-30587D01*
X22114Y-30603D01*
X22580Y-30797D01*
X23086Y-30798D01*
X23553Y-30605D01*
X23911Y-30248D01*
X24104Y-29781D01*
X24105Y-29275D01*
X23912Y-28808D01*
X23893Y-28790D01*
X56814Y-28790D01*
X56797Y-28806D01*
X56603Y-29273D01*
X56603Y-29779D01*
X56796Y-30246D01*
X57153Y-30603D01*
X57620Y-30797D01*
X58125Y-30798D01*
X58592Y-30605D01*
X58611Y-30586D01*
X58611Y-54452D01*
M02*
